<?xml version="1.0" encoding="utf-8"?>
<!-- Generator: Adobe Illustrator 25.2.3, SVG Export Plug-In . SVG Version: 6.00 Build 0)  -->
<svg version="1.1" id="Layer_1" xmlns="http://www.w3.org/2000/svg" xmlns:xlink="http://www.w3.org/1999/xlink" x="0px" y="0px"
	 viewBox="0 0 49.3 48.9" style="enable-background:new 0 0 49.3 48.9;" xml:space="preserve">
<style type="text/css">
	.st0{fill:#252323;}
</style>
<g>
	<path class="st0" d="M16.5,25.8c0-2.2,0-4.3,0-6.4c0-0.3-0.5-0.6-0.8-0.8c-5-2.8-6.6-9.1-3.3-13.8c2.4-3.6,7.1-5.1,11.3-3.6
		c4.2,1.4,6.8,5.4,6.5,9.8c-0.2,2.4-1,4.1-3.6,6.8c1.7,0.2,2.9,1,3.5,2.3c1.3,0,2.6-0.3,3.6,0s1.8,1.3,2.8,2.1
		c0.4-0.1,1.1-0.3,1.8-0.3c2.2-0.1,4,1.5,4,3.6c0.1,3.9,0.1,7.8,0,11.7s-2.1,6.8-5.1,9.1c-1.9,1.5-3.9,2.4-6.4,2.2
		c-2.7-0.2-5.4-0.1-8.1,0c-1.8,0-3.4-0.6-4.7-1.9c-2.2-2.1-3.6-4.7-4.9-7.4s-2.5-5.4-3.8-8c-0.5-0.9-1.1-1.8-1.6-2.8
		c-0.8-1.4-1-2.9-0.1-4.3c0.8-1.3,2-2.1,3.5-1.9c0.9,0.1,1.9,0.6,2.6,1.2C14.7,23.9,15.5,24.8,16.5,25.8z M18.4,19L18.4,19
		c0,3,0,6,0,9c0,0.4-0.3,1.1-0.5,1.2c-0.4,0.1-1-0.1-1.3-0.4c-1.4-1.3-2.7-2.7-4-4.1c-0.9-0.9-1.8-1.1-2.7-0.4
		c-0.9,0.6-1,1.6-0.5,2.8c1.8,3.7,3.6,7.4,5.5,11c1.2,2.3,2.7,4.5,4.2,6.6c0.9,1.2,2.2,1.7,3.8,1.7c3.1-0.1,6.2,0,9.3,0
		c0.3,0,0.7,0,1-0.1c3.7-1.9,6.7-4.5,7-8.9c0.3-3.9,0.1-7.8,0.1-11.7c0-1.3-0.8-2-2-2s-1.9,0.7-2,2c0,1.3,0,2.7-0.1,4
		c0,0.7,0.1,1.7-1,1.6c-1.1,0-0.9-0.9-1-1.7c0-1.9,0-3.7,0-5.6c0-1.5-0.8-2.4-2-2.4s-2,0.9-2,2.3s0,2.9-0.1,4.3c0,0.4-0.5,0.7-0.8,1
		c-0.4-0.3-0.8-0.6-1.1-1c-0.1-0.1,0-0.5,0-0.7c0-1.9,0-3.8,0-5.7c0-1.4-0.7-2.3-1.9-2.3c-1.2,0-2,0.9-2,2.3s0,2.9-0.1,4.3
		c0,0.4-0.6,0.7-0.9,1c-0.3-0.3-0.7-0.6-1-1c-0.1-0.2,0-0.5,0-0.7c0-5.2,0-10.3,0-15.5c0-0.4,0-0.8-0.1-1.1C21.9,8,21,7.6,20,7.7
		c-0.9,0.2-1.6,1-1.6,2.1C18.4,12.9,18.4,16,18.4,19z M24.4,16.5c2.8-1.4,4.3-5,3.5-8.2c-0.8-3.4-4.1-5.9-7.7-5.8s-6.8,2.7-7.5,6.2
		c-0.6,3.1,1,6.7,3.8,7.9c0-2.3,0-4.5,0-6.7c0-2.4,1.7-4.1,3.9-4.1c2.3,0,3.9,1.7,4,4C24.4,12,24.4,14.2,24.4,16.5z"/>
</g>
</svg>
