<?xml version="1.0" encoding="utf-8"?>
<!-- Generator: Adobe Illustrator 25.2.3, SVG Export Plug-In . SVG Version: 6.00 Build 0)  -->
<svg version="1.1" id="Layer_1" xmlns="http://www.w3.org/2000/svg" xmlns:xlink="http://www.w3.org/1999/xlink" x="0px" y="0px"
	 viewBox="0 0 400 400" style="enable-background:new 0 0 400 400;" xml:space="preserve">
<style type="text/css">
	.st0{fill:#FCCC00;}
</style>
<text transform="matrix(1 0 0 1 -175.1505 154.3502)"><tspan x="0" y="0" class="st0" style="font-family:'NanumSquareEB'; font-size:14.9702px;">상처입은</tspan><tspan x="0" y="20.3" class="st0" style="font-family:'NanumSquareEB'; font-size:14.9702px;">아이들은</tspan><tspan x="0" y="40.6" class="st0" style="font-family:'NanumSquareEB'; font-size:14.9702px;">어디로</tspan><tspan x="0" y="60.9" class="st0" style="font-family:'NanumSquareEB'; font-size:14.9702px;">가야할까</tspan></text>
<path class="st0" d="M298.5,86.2h-24.8v100.3h-45.7c-0.5-2.5-1.1-5-1.4-7.7c0-1.9-0.5-3.3-0.5-5.2s-0.5-3.3-0.5-5.2
	c-0.5-2.4,1-3.8,2.8-5.2c2.8-2.3,4.2-5.2,2.8-8.5c-0.9-4.2-0.9-4.2,3.3-6.1c-1-1.9-2.8-4.2-4.2-7.1c-1.4-2.9-2.8-5.7-3.3-8.5
	l-1.9,0.5c-0.5-0.5-0.5-1.4-0.5-1.9c-1-0.9-1-2.3-1.4-2.8c-0.5-0.5-1.9-1.4-3.3-1.9c-1.9-0.9-3.8-2.4-5.2-4.2c1.4-1,2.4-2.4,2.8-3.8
	c0.5-3.8,1.9-6.6,3.8-9.9c1.9-4.2,1.4-9.4-1.4-13.2v-0.5l1.4,0.5v-0.5c-1-1.4-2.8-1.9-4.2-3.3c-2.8-2.8-6.6-3.3-10.3-2.8
	c-1.9,0.5-3.3,1.4-5.2,1.9c-3.3,0.9-6.1,7.5-6.1,10.8c0,2.3-0.5,4.7-0.5,7.5c0,2.4,0,4.7,1.4,7.5c0,0.5,0.5,0.5,0.5,0.5v-1.4
	l1.4,1.4c0-2.8,0-2.8,1.4-2.8l0.5,2.8v0.5c-2.4-0.5-2.4,1.4-4.7,0.5c-0.9,2.3-1.4,4.7-4.2,5.1c-1.4,0-2.8,1-3.3,1.4
	c-1.4,0.5-2.8,0.5-3.3,1.9c-2.3,3.8-3.7,8.5-5.6,12.2c-0.9,0.9-0.9,2.4-1.4,3.8v0.5c0,1.4,0.5,2.8,1.9,3.3c2.3,0.5,3.7,2.8,3.7,5.7
	v5.2c0,1.9,1.4,3.3,2.8,3.8c1.4,0,1.4,1.4,1.4,1.9c0,7.1-0.5,14.1-0.5,21.2c0,0,0,1,0,1.4c0.1,0.2,0.3,0.4,0.4,0.6h-51.8V86.2h-25.2
	L204.3,0L298.5,86.2z"/>
<g>
	<path class="st0" d="M147.3,220.5c-0.1,0.3-0.4,0.7-0.7,1c-0.3,0.4-0.9,0.9-1.7,1.6c-0.9,0.8-1.8,1.5-2.8,2.3c-1,0.8-2,1.6-3.1,2.4
		l-2.9-3.6c1.1-0.8,2.2-1.6,3.1-2.4c0.9-0.7,1.8-1.5,2.8-2.4c0.8-0.7,1.4-1.5,1.9-2.5c0.5-0.9,0.7-2,0.7-3.3v-5.2h4.9v5
		c0,0.6,0,1.2,0.1,1.7c0.1,0.5,0.2,1,0.4,1.4c0.2,0.4,0.5,0.9,0.8,1.3c0.3,0.4,0.8,0.8,1.3,1.2c0.7,0.6,1.6,1.3,2.6,2
		c1,0.7,2,1.4,2.9,2.1l-2.7,3.4c-0.9-0.6-1.8-1.2-2.6-1.8c-0.8-0.6-1.6-1.2-2.3-1.7c-0.7-0.5-1.3-1-1.8-1.4
		C147.8,221.1,147.5,220.8,147.3,220.5L147.3,220.5z M154.3,244c-1.6,0-3.1-0.2-4.5-0.5c-1.3-0.3-2.5-0.8-3.5-1.4
		c-1-0.6-1.7-1.4-2.2-2.2c-0.5-0.9-0.8-1.8-0.8-2.8v-1.6c0-1,0.3-2,0.8-2.8c0.5-0.9,1.3-1.6,2.2-2.2c1-0.6,2.1-1.1,3.5-1.4
		s2.8-0.5,4.5-0.5c1.6,0,3.1,0.2,4.5,0.5c1.3,0.3,2.5,0.8,3.5,1.4c1,0.6,1.7,1.4,2.2,2.2c0.5,0.9,0.8,1.8,0.8,2.8v1.6
		c0,1-0.3,2-0.8,2.8c-0.5,0.9-1.3,1.6-2.2,2.2c-1,0.6-2.1,1.1-3.5,1.4C157.5,243.8,156,244,154.3,244z M154.3,232.4
		c-1,0-1.8,0.1-2.6,0.3c-0.8,0.2-1.4,0.5-1.9,0.8s-0.9,0.7-1.2,1.1c-0.3,0.4-0.4,0.8-0.4,1.2v1c0,0.4,0.1,0.8,0.4,1.2
		c0.3,0.4,0.7,0.7,1.2,1.1c0.5,0.3,1.2,0.6,1.9,0.8c0.8,0.2,1.6,0.3,2.6,0.3s1.8-0.1,2.6-0.3c0.8-0.2,1.4-0.5,1.9-0.8
		c0.5-0.3,0.9-0.7,1.2-1.1c0.3-0.4,0.4-0.8,0.4-1.2v-1c0-0.4-0.1-0.8-0.4-1.2c-0.3-0.4-0.7-0.7-1.2-1.1c-0.5-0.3-1.2-0.6-1.9-0.8
		C156.2,232.5,155.3,232.4,154.3,232.4z M165.2,215.3h4.7v4.2h-4.7v8.8h-4.9v-21.2h4.9V215.3z"/>
	<path class="st0" d="M172.9,212.1h7.5v-4.7h4.9v4.7h7.2v4.2h-7.2v2.8c0,0.7,0,1.4,0.2,2c0.1,0.6,0.3,1.2,0.5,1.7
		c0.2,0.6,0.5,1.1,0.9,1.6c0.4,0.5,0.8,1.1,1.3,1.6c0.3,0.4,0.7,0.8,1.2,1.2c0.4,0.4,0.9,0.9,1.4,1.4c0.5,0.5,1,0.9,1.5,1.4
		c0.5,0.5,1,0.9,1.5,1.4l-3.1,3.2c-0.8-0.8-1.6-1.6-2.5-2.4c-0.8-0.8-1.6-1.6-2.3-2.3c-0.8-0.8-1.4-1.5-1.9-2.1
		c-0.5-0.6-0.8-1-0.9-1.3h-0.1c-0.2,0.4-0.6,0.9-1.1,1.5c-0.6,0.7-1.2,1.3-1.8,2c-0.7,0.7-1.5,1.5-2.2,2.3c-0.8,0.8-1.7,1.7-2.8,2.6
		l-3.2-3.3c2.1-1.9,4-3.7,5.7-5.6c0.6-0.6,1-1.2,1.4-1.8c0.4-0.5,0.7-1.1,0.9-1.6c0.2-0.5,0.4-1.1,0.5-1.7c0.1-0.6,0.1-1.3,0.1-2.1
		v-2.8h-7.5V212.1z M190.9,219.9h6.3v-12.8h4.9v35.8h-4.9v-18.8h-6.3V219.9z"/>
	<path class="st0" d="M217.1,225c-1.5,0-2.8-0.2-4-0.7c-1.1-0.4-2.1-1-2.9-1.7c-0.8-0.7-1.3-1.6-1.7-2.5c-0.4-0.9-0.6-1.9-0.6-2.9
		v-1.1c0-1,0.2-2,0.6-2.9c0.4-0.9,1-1.8,1.7-2.5c0.8-0.7,1.7-1.3,2.9-1.7c1.1-0.4,2.5-0.7,4-0.7s2.8,0.2,4,0.7
		c1.1,0.4,2.1,1,2.9,1.7c0.8,0.7,1.4,1.6,1.7,2.5c0.4,0.9,0.6,1.9,0.6,2.9v1.1c0,1-0.2,2-0.6,2.9c-0.4,0.9-1,1.8-1.7,2.5
		c-0.8,0.7-1.7,1.3-2.9,1.7C220,224.8,218.7,225,217.1,225z M217.1,212.4c-0.8,0-1.4,0.1-2,0.3s-1.1,0.5-1.4,0.9
		c-0.4,0.4-0.6,0.8-0.8,1.2c-0.2,0.5-0.3,0.9-0.3,1.4v0.8c0,0.5,0.1,0.9,0.3,1.4c0.2,0.5,0.5,0.9,0.8,1.3c0.4,0.4,0.8,0.7,1.4,0.9
		c0.6,0.2,1.2,0.3,2,0.3s1.4-0.1,2-0.3c0.6-0.2,1.1-0.5,1.4-0.9c0.4-0.4,0.7-0.8,0.8-1.3c0.2-0.5,0.3-0.9,0.3-1.4v-0.8
		c0-0.5-0.1-0.9-0.3-1.4c-0.2-0.5-0.5-0.9-0.8-1.2c-0.4-0.4-0.8-0.7-1.4-0.9C218.6,212.5,217.9,212.4,217.1,212.4z M236.6,227.2
		v15.8h-22.8v-15.8h4.8v4h13.2v-4H236.6z M231.8,238.9v-3.7h-13.2v3.7H231.8z M231.8,207.1h4.8v18.4h-4.8V207.1z"/>
	<path class="st0" d="M274.7,225.6v4.1h-32.8v-4.1H274.7z M251.3,238.4h19.4v4.1h-24.3v-10.7h4.9V238.4z M258.3,223.4
		c-1.7,0-3.3-0.2-4.7-0.5c-1.4-0.3-2.7-0.8-3.7-1.4c-1-0.6-1.9-1.3-2.4-2.2c-0.6-0.9-0.9-1.9-0.9-3v-1.5c0-1.1,0.3-2.1,0.9-3
		c0.6-0.9,1.4-1.6,2.4-2.2c1-0.6,2.3-1.1,3.7-1.4c1.4-0.3,3-0.5,4.7-0.5s3.3,0.2,4.7,0.5c1.4,0.3,2.7,0.8,3.7,1.4
		c1,0.6,1.9,1.3,2.4,2.2c0.6,0.9,0.9,1.9,0.9,3v1.5c0,1.1-0.3,2.1-0.9,3c-0.6,0.9-1.4,1.6-2.4,2.2c-1,0.6-2.3,1.1-3.7,1.4
		C261.6,223.2,260,223.4,258.3,223.4z M258.3,211.6c-1.1,0-2,0.1-2.9,0.3c-0.9,0.2-1.6,0.4-2.2,0.8c-0.6,0.3-1,0.7-1.4,1.1
		c-0.3,0.4-0.5,0.8-0.5,1.3v1c0,0.5,0.2,0.9,0.5,1.3c0.3,0.4,0.8,0.8,1.4,1.1c0.6,0.3,1.3,0.6,2.2,0.7c0.9,0.2,1.8,0.3,2.9,0.3
		s2-0.1,2.9-0.3c0.9-0.2,1.6-0.4,2.2-0.7c0.6-0.3,1-0.7,1.4-1.1c0.3-0.4,0.5-0.8,0.5-1.3v-1c0-0.5-0.2-0.9-0.5-1.3
		c-0.3-0.4-0.8-0.8-1.4-1.1c-0.6-0.3-1.3-0.6-2.2-0.8C260.3,211.7,259.4,211.6,258.3,211.6z"/>
	<path class="st0" d="M147,286.7c-1.6,0-3-0.3-4.2-0.8c-1.2-0.5-2.1-1.2-2.9-2.2c-0.8-0.9-1.3-2-1.7-3.3c-0.3-1.3-0.5-2.6-0.5-4.2
		v-4.3c0-1.5,0.2-2.9,0.5-4.1c0.3-1.3,0.9-2.4,1.7-3.3c0.8-0.9,1.7-1.6,2.9-2.2c1.2-0.5,2.5-0.8,4.2-0.8c1.6,0,3,0.3,4.2,0.8
		c1.2,0.5,2.1,1.2,2.9,2.2c0.8,0.9,1.3,2,1.7,3.3c0.3,1.3,0.5,2.7,0.5,4.1v4.3c0,1.5-0.2,2.9-0.5,4.2c-0.3,1.3-0.9,2.4-1.7,3.3
		c-0.8,0.9-1.7,1.6-2.9,2.2C150,286.5,148.6,286.7,147,286.7z M147,266c-1.6,0-2.8,0.6-3.5,1.7c-0.7,1.1-1.1,2.8-1.1,5v3.1
		c0,2.2,0.3,3.8,1.1,5c0.7,1.1,1.9,1.7,3.5,1.7c1.6,0,2.8-0.6,3.5-1.7c0.7-1.1,1.1-2.8,1.1-5v-3.1c0-2.2-0.4-3.8-1.1-5
		C149.7,266.6,148.6,266,147,266z M165.2,272h4.9v4.2h-4.9v18.9h-4.9v-35.8h4.9V272z"/>
	<path class="st0" d="M182.8,286.7c-1.6,0-3-0.3-4.2-0.8c-1.2-0.5-2.1-1.2-2.9-2.2c-0.7-0.9-1.3-2-1.6-3.3c-0.3-1.3-0.5-2.6-0.5-4.2
		v-4.3c0-1.5,0.2-2.9,0.5-4.1c0.3-1.3,0.9-2.4,1.6-3.3c0.7-0.9,1.7-1.6,2.9-2.2c1.2-0.5,2.6-0.8,4.2-0.8c1.6,0,3,0.3,4.2,0.8
		c1.2,0.5,2.1,1.2,2.9,2.2c0.7,0.9,1.3,2,1.6,3.3c0.3,1.3,0.5,2.7,0.5,4.1v4.3c0,1.5-0.2,2.9-0.5,4.2c-0.3,1.3-0.9,2.4-1.6,3.3
		c-0.7,0.9-1.7,1.6-2.9,2.2C185.9,286.5,184.5,286.7,182.8,286.7z M182.8,266c-1.6,0-2.8,0.6-3.5,1.7c-0.7,1.1-1.1,2.8-1.1,5v3.1
		c0,2.2,0.3,3.8,1.1,5c0.7,1.1,1.9,1.7,3.5,1.7c1.6,0,2.8-0.6,3.5-1.7c0.7-1.1,1.1-2.8,1.1-5v-3.1c0-2.2-0.3-3.8-1.1-5
		C185.7,266.6,184.5,266,182.8,266z M201.9,295.1h-4.9v-35.8h4.9V295.1z"/>
	<path class="st0" d="M239.6,274.3v3.7h-32.8v-3.7H239.6z M235.1,280.4v9.3h-19v2.2h20.1v3.7h-24.7v-9.3h19V284h-19.2v-3.7H235.1z
		 M234.7,263.9h-18.4v4.3h18.6v3.7h-23.4v-11.8h23.2V263.9z"/>
	<path class="st0" d="M274.7,277.8v4.1h-32.8v-4.1H274.7z M251.3,290.6h19.4v4.1h-24.3v-10.7h4.9V290.6z M258.3,275.6
		c-1.7,0-3.3-0.2-4.7-0.5c-1.4-0.3-2.7-0.8-3.7-1.4c-1-0.6-1.9-1.3-2.4-2.2c-0.6-0.9-0.9-1.9-0.9-3V267c0-1.1,0.3-2.1,0.9-3
		c0.6-0.9,1.4-1.6,2.4-2.2c1-0.6,2.3-1.1,3.7-1.4c1.4-0.3,3-0.5,4.7-0.5s3.3,0.2,4.7,0.5c1.4,0.3,2.7,0.8,3.7,1.4
		c1,0.6,1.9,1.3,2.4,2.2c0.6,0.9,0.9,1.9,0.9,3v1.5c0,1.1-0.3,2.1-0.9,3c-0.6,0.9-1.4,1.6-2.4,2.2c-1,0.6-2.3,1.1-3.7,1.4
		C261.6,275.5,260,275.6,258.3,275.6z M258.3,263.8c-1.1,0-2,0.1-2.9,0.3c-0.9,0.2-1.6,0.4-2.2,0.8c-0.6,0.3-1,0.7-1.4,1.1
		c-0.3,0.4-0.5,0.8-0.5,1.3v1c0,0.5,0.2,0.9,0.5,1.3c0.3,0.4,0.8,0.8,1.4,1.1c0.6,0.3,1.3,0.6,2.2,0.7c0.9,0.2,1.8,0.3,2.9,0.3
		s2-0.1,2.9-0.3c0.9-0.2,1.6-0.4,2.2-0.7c0.6-0.3,1-0.7,1.4-1.1c0.3-0.4,0.5-0.8,0.5-1.3v-1c0-0.5-0.2-0.9-0.5-1.3
		c-0.3-0.4-0.8-0.8-1.4-1.1c-0.6-0.3-1.3-0.6-2.2-0.8C260.3,263.9,259.4,263.8,258.3,263.8z"/>
	<path class="st0" d="M147.3,338.9c-1.6,0-3-0.3-4.2-0.8c-1.2-0.5-2.1-1.2-2.9-2.2c-0.7-0.9-1.3-2-1.6-3.3c-0.3-1.3-0.5-2.6-0.5-4.2
		v-4.3c0-1.5,0.2-2.9,0.5-4.1c0.3-1.3,0.9-2.4,1.6-3.3c0.7-0.9,1.7-1.6,2.9-2.2c1.2-0.5,2.6-0.8,4.2-0.8c1.6,0,3,0.3,4.1,0.8
		c1.2,0.5,2.1,1.2,2.8,2.1c0.7,0.9,1.3,1.9,1.7,3.2c0.4,1.2,0.6,2.6,0.6,4h5.5v-12.4h4.9v35.8h-4.9v-19.3h-5.5v0.5
		c0,1.5-0.2,2.9-0.5,4.2c-0.3,1.3-0.9,2.4-1.6,3.3c-0.7,0.9-1.7,1.6-2.9,2.2C150.4,338.7,148.9,338.9,147.3,338.9z M147.3,318.2
		c-1.6,0-2.8,0.6-3.5,1.7c-0.7,1.1-1.1,2.8-1.1,5v3.1c0,2.2,0.4,3.8,1.1,5c0.7,1.1,1.9,1.7,3.5,1.7c1.6,0,2.8-0.6,3.5-1.7
		c0.7-1.1,1.1-2.8,1.1-5v-3.1c0-2.2-0.3-3.8-1.1-5C150.1,318.8,148.9,318.2,147.3,318.2z"/>
	<path class="st0" d="M174.3,314.6h17v4.2h-12.1V334h2.9c1.8,0,3.8-0.1,5.9-0.2c2.1-0.1,4.1-0.3,5.9-0.6l0.5,4.2
		c-0.9,0.2-1.9,0.3-3,0.4c-1.1,0.1-2.2,0.2-3.4,0.3c-1.2,0.1-2.4,0.1-3.6,0.1c-1.2,0-2.4,0-3.6,0h-6.7V314.6z M201.9,347.4h-4.9
		v-35.8h4.9V347.4z"/>
	<path class="st0" d="M225.7,333.9v4.9h14v4.1h-32.8v-4.1h14v-4.9h-9.6V322h19v-3.8h-19.1v-4.1h24V326h-19v3.8h19.8v4.1H225.7z"/>
	<path class="st0" d="M137.6,388.4c1.9-1.2,3.6-2.2,4.9-3.1c1.4-0.9,2.5-1.7,3.4-2.5c0.9-0.8,1.6-1.5,2.1-2.2
		c0.5-0.7,0.9-1.4,1.2-2.1c0.3-0.7,0.4-1.4,0.5-2.2c0.1-0.8,0.1-1.6,0.1-2.6v-2.6h-11.6V367h16.5v7c0,1.3-0.1,2.5-0.2,3.5
		c-0.1,1-0.4,2-0.7,2.9c-0.4,0.9-0.9,1.8-1.5,2.6c-0.7,0.8-1.5,1.7-2.6,2.6c-1.1,0.9-2.4,1.9-3.9,2.9c-1.6,1-3.4,2.2-5.5,3.5
		L137.6,388.4z M165.2,376.9h4.9v4.2h-4.9v18.5h-4.9v-35.8h4.9V376.9z"/>
	<path class="st0" d="M182,391.2c-1.6,0-3-0.3-4.2-0.8c-1.2-0.5-2.1-1.2-2.9-2.2c-0.8-0.9-1.3-2-1.7-3.3c-0.3-1.3-0.5-2.6-0.5-4.2
		v-4.3c0-1.5,0.2-2.9,0.5-4.1c0.3-1.3,0.9-2.4,1.7-3.3c0.8-0.9,1.7-1.6,2.9-2.2c1.2-0.5,2.5-0.8,4.2-0.8c1.6,0,3,0.3,4.2,0.8
		c1.2,0.5,2.1,1.2,2.9,2.2c0.8,0.9,1.3,2,1.7,3.3c0.3,1.3,0.5,2.7,0.5,4.1v4.3c0,1.5-0.2,2.9-0.5,4.2c-0.3,1.3-0.9,2.4-1.7,3.3
		c-0.8,0.9-1.7,1.6-2.9,2.2C185,390.9,183.6,391.2,182,391.2z M182,370.5c-1.6,0-2.8,0.6-3.5,1.7c-0.7,1.1-1.1,2.8-1.1,5v3.1
		c0,2.2,0.3,3.8,1.1,5c0.7,1.1,1.9,1.7,3.5,1.7c1.6,0,2.8-0.6,3.5-1.7c0.7-1.1,1.1-2.8,1.1-5v-3.1c0-2.2-0.4-3.8-1.1-5
		C184.8,371,183.6,370.5,182,370.5z M200.2,371.5h4.9v4.2h-4.9v5.8h4.9v4.2h-4.9v14h-4.9v-35.8h4.9V371.5z"/>
	<path class="st0" d="M219.9,366.5h7.8v4h-20.5v-4h7.9v-3.3h4.8V366.5z M217.5,383.1c-1.4,0-2.7-0.1-3.8-0.4
		c-1.1-0.3-1.9-0.7-2.7-1.1c-0.7-0.5-1.2-1-1.6-1.7c-0.3-0.6-0.5-1.3-0.5-2v-1.1c0-0.7,0.2-1.4,0.5-2c0.3-0.6,0.9-1.2,1.6-1.7
		c0.7-0.5,1.6-0.9,2.7-1.1c1.1-0.3,2.3-0.4,3.8-0.4s2.7,0.1,3.8,0.4c1.1,0.3,2,0.7,2.7,1.1c0.7,0.5,1.2,1,1.6,1.7
		c0.3,0.6,0.5,1.3,0.5,2v1.1c0,0.7-0.2,1.4-0.5,2c-0.4,0.6-0.9,1.2-1.6,1.7c-0.7,0.5-1.6,0.8-2.7,1.1
		C220.2,383,218.9,383.1,217.5,383.1z M235.2,384.9v9.4h-17.7v2h18.8v3.8h-23.5v-9.4h17.7v-2h-17.9v-3.8H235.2z M217.5,375.3
		c-1.4,0-2.4,0.2-3,0.6c-0.6,0.4-1,0.8-1,1.2v0.5c0,0.4,0.3,0.8,1,1.2c0.6,0.4,1.6,0.6,3,0.6c1.4,0,2.4-0.2,3-0.6
		c0.6-0.4,1-0.8,1-1.2v-0.5c0-0.4-0.3-0.8-1-1.2C219.9,375.5,218.9,375.3,217.5,375.3z M235.2,371.3h4.7v4.2h-4.7v7.7h-4.8v-19.4
		h4.8V371.3z"/>
	<path class="st0" d="M241.1,387.1c1.5-1.5,2.7-2.8,3.6-3.9c0.9-1,1.5-2,1.9-2.9c0.4-0.9,0.7-1.7,0.8-2.6c0.1-0.8,0.1-1.8,0.1-3
		v-3.5h-4.8V367h9.5v8c0,1.5-0.1,2.8-0.2,3.9c-0.1,1.1-0.4,2.2-0.9,3.2c-0.5,1.1-1.3,2.2-2.3,3.4c-1,1.2-2.5,2.7-4.3,4.5
		L241.1,387.1z M250.8,390.4c1.5-1.8,2.7-3.2,3.5-4.4c0.9-1.2,1.5-2.2,2-3.2c0.4-1,0.7-2,0.8-3c0.1-1,0.2-2.2,0.2-3.7v-4.9h-3.6V367
		h8.3v9.3c0,1.7-0.1,3.2-0.2,4.4c-0.1,1.2-0.4,2.4-0.9,3.6c-0.5,1.2-1.3,2.5-2.3,3.9c-1,1.4-2.5,3.1-4.3,5.1L250.8,390.4z
		 M270.6,376.7h4.9v4.2h-4.9v18.6h-4.7v-35.8h4.7V376.7z"/>
</g>
</svg>
