<?xml version="1.0" encoding="utf-8"?>
<!-- Generator: Adobe Illustrator 25.2.3, SVG Export Plug-In . SVG Version: 6.00 Build 0)  -->
<svg version="1.1" id="Layer_1" xmlns="http://www.w3.org/2000/svg" xmlns:xlink="http://www.w3.org/1999/xlink" x="0px" y="0px"
	 viewBox="0 0 239.7 480" style="enable-background:new 0 0 239.7 480;" xml:space="preserve">
<style type="text/css">
	.st0{fill:#FCCD03;}
</style>
<path class="st0" d="M117.7,0.1h7.7c0.2,2.2,2,1.6,3.3,1.9c3.8,0.9,7.2,2.1,9.2,5.9c0.5,0.9,1.2,1.6,2,2c5.1,2.4,8.2,8,14.3,8.7
	c-1,0.8-2.5,0.9-3.6,0.2c-0.7-0.4-1.5-0.3-2,0.2c-0.6,0.9,0.6,1.1,0.9,1.7c1.4,2.4,4.9,3.8,3.4,7.6c-0.1,0.3,0.3,1,0.6,1.4
	c1,1.3,1.2,3,0.4,4.4c-0.5,1-0.6,2-0.3,3.1c2,6.5-2.9,12.7-0.6,19.2c0,0.3-0.1,0.7-0.3,0.9c-5.3,5.4-4.9,12.6-5.6,19.3
	c-0.8,7-3.3,13-9.7,16.9c-1.4,0.7-2.4,1.9-2.7,3.4c-0.1,0.9-0.3,1.4,0.6,1.7c2.1,0.7,3.8,2.2,6.4,2.1c2.4,0,4.6,1.3,5.6,3.5
	c1.1,1.9,2.6,3.6,4.3,5.1c0.8,0.8,1.5,1.8,1.9,2.8c3.4,6.8,5.1,14.2,9.2,20.7c3.2,5,4.3,11,3.3,16.8c-1.1,6.1-0.2,12.2,1.2,17.9
	c3.1,12.5,4.5,25.4,4.2,38.3c-0.4,16.1,1.6,32.3,1.8,48.4c0,2.2,0,4.4,1,6.5c0.8,1.7,0.5,4.5-0.2,5.1c-3.6,2.6-1.6,6.2-0.9,8.3
	c2.3,6.5,2.6,13.4,3.6,20c1.1,8.6,2.1,17.2,4.1,25.6c3.1,13.2,6.5,26.2,5.7,40c-0.2,3.1-1.4,6.1-0.6,9.2c1,4,1.4,8.2,1.3,12.4
	c-0.1,12.4,1.2,24.8,2.6,37.1c0.6,5.7,2.3,11.1,5,16.1c2.8,5,6.9,9,12.1,10.6c3.6,1.1,6.9,2.4,9.5,5c2,2.1,5,2.9,7.8,2.2
	c1.7-0.4,3.5,0.1,4.7,1.3c1.3,1.3,2.9,3.1,4.5,3.2c3.7,0.3,4.1,2.6,4.4,5.3c0.1,1.1-0.3,2.9,1.9,2.5v7c-0.2-0.3-0.5-0.6-0.6-0.3
	c-2.5,4.6-6.6,6.7-11.6,7.4c-0.4,0.1-1.4,0.4-0.5,1.2h-12.8c0.8-0.5,0.2-1-0.1-1.1c-7.1-2.8-14.1-6-21.8-6.6
	c-5.6-0.5-11.3-1-16.9-2.6c-3.9-1.1-5.2-3.1-5.2-7.2c0-1.5,0.6-3.1-0.5-4.6c-1.9-2.5-1.9-5.4-0.9-8.2c2.6-7.3,2.9-15.2,1-22.7
	c-3.3-13.4-8.6-26.1-12.9-39.1c-0.8-2.2-1.2-4.4-4.5-4.1c-1.2,0.1-2.8-1-3.8-2c-1.8-1.9-3.7-1.9-6-0.7c-3.5,1.8-7.2,3.3-11,4.9
	c-4.5,2-6.6,0.8-7.4-4.1c-0.7-4.3-2.3-8.3-4.6-12c-1.5-2.4-2-1.7-3.3,0.1c-4.8,7.1-9.7,14-14.6,21.1c-1.5,2.2-3.3,3.8-6.2,3.8
	c-10.1,0.1-20-0.6-28.9-6.2c-1.7-1-2.4-0.6-3.4,0.9c-5.2,7.9-10.8,15.6-15.8,23.7s-4.7,16.4-0.6,24.7c1.3,2.6,4,4.1,5.8,6.2
	c5.1,5.8,10.9,10.8,18.2,13.7c3.2,1.3,4.4,3.4,3.3,6.6c-0.6,1.5-1.5,2.8-2.7,3.9c-8.6,8.6-19.1,9.9-30.4,8.1
	c-5.6-0.9-10.9-3.1-16.2-4.9c-8.3-2.8-17.4-3.6-24.3-9.8L0,461.8v-6.4c1.2-0.6,1.2-0.6,1.3-1.6c0.6-4.9,2.2-6.6,7-8.1
	c2.1-0.6,4.4-0.2,6.7-0.9c-0.6-0.8-1.1-1.4-1.5-1.9c-5.7-8-5.4-13.6,1.9-21.4c3.8-4,7.4-8.2,9.5-13.3c3.1-7.6,5.7-15.3,9-22.8
	s3.9-15.9,8.3-22.9c1.3-2.2,2.2-4.5,2.7-7c0.7-3.3,1.9-6.5,4.6-8.8c1.5-1.2,2.5-2.9,2.9-4.7c2-8.3,5.1-16.1,11.3-22.2
	c1.2-1,1.8-2.7,1.5-4.2c-1.1-6.1-0.8-12.2,2.2-17.9c1-1.8-0.2-3.1-1.4-4.2c-1.5-1.2-1.9-3.2-1.1-4.9c0.5-1.4,0.9-2.8,1.2-4.2
	c0.9-3.6,1.7-7.2-1.3-10.4c-1.1-1.1-1.2-2.9-1-4.7c0.3-3.1-0.8-6.2,0.6-9.2c0.2-0.4-0.2-1.3-0.6-1.7c-2.2-2.4-1.9-5.1-0.2-7.4
	c2-2.6,3.5-5.5,4.5-8.6c1.3-4.3,5.4-7.3,5.3-12.2c0-1.1,1-1.5,2-1.8c0.7-0.2,1-0.4,0.8-1.5c-0.8-5.7-2.5-11.3-5.1-16.5
	c-2.4-4.8-3.8-10.1-4-15.5c-0.7-14.8-1.1-29.6-0.7-44.4c0.2-7.6-1.5-15.2-0.1-22.9c2.2-11.5,7.1-21.2,17.7-27.2
	c1.2-0.6,2.2-1.7,2.8-2.9c2.7-5.2,3.2-5.5,8.8-4.3c0.5-2.4,0.3-4.9-0.6-7.2c-1.1-3.1-2.7-6-3-9.3c-0.1-1.2-0.8-1.2-1.8-0.8
	c-1.7,0.6-3-0.2-3.9-1.9c-1.1-2-1.9-4.2-2.6-6.4c-1-3.8-0.8-7.9-2.5-11.7c-0.5-1.2-0.4-2.6,0.1-3.8c1.3-3.7,2.5-7.5,1-11.4
	c-1.6-3.8-2-8-1.2-12c1.7-7.9,4.3-15.2,11.5-19.9c6.9-4.4,14.7-7,22.9-7.5C116.5,1.3,118,2,117.7,0.1z"/>
</svg>
