<?xml version="1.0" encoding="utf-8"?>
<!-- Generator: Adobe Illustrator 25.2.3, SVG Export Plug-In . SVG Version: 6.00 Build 0)  -->
<svg version="1.1" id="Layer_1" xmlns="http://www.w3.org/2000/svg" xmlns:xlink="http://www.w3.org/1999/xlink" x="0px" y="0px"
	 viewBox="0 0 135.2 480" style="enable-background:new 0 0 135.2 480;" xml:space="preserve">
<style type="text/css">
	.st0{fill:#FCCD03;}
</style>
<path class="st0" d="M111.6,297c0,1.3-1.3,4.4-1.3,7.6c3.2,4.4,4.4,10.7,3.2,17c0,3.2,0,6.3,0,7.6c0,9.5,0,17,0,25.9
	c0,3.2-3.2,3.2-3.2,4.4v4.4c0,1.3,1.3,1.3,1.3,3.2s0,1.3-1.3,3.2c-3.2,1.3-4.4,4.4-3.2,7.6s0,4.4-1.3,6.3l-1.3,1.3
	c0,1.3-1.3,4.4,0,6.3c0,0-1.3,1.3-1.3,3.2c0,0,0,1.3-1.3,1.3c0,1.3-1.3,3.2-1.3,4.4s1.3,3.2,1.3,4.4c0,1.3-1.3,1.3-3.2,3.2
	c-1.3,3.2-1.3,6.3-1.3,9.5c0,0-3.2,0,0,3.2c1.3,0,0,3.2,1.3,3.2l-4.4,1.3l1.3,1.3l-1.3,3.2l6.3,4.4l0,0c0,3.2,1.3,6.3,1.3,10.7l0,0
	v1.3c1.3,1.3,3.2,3.2,4.4,4.4c0,0,0,1.3,1.3,0l3.2,3.2l1.3,1.3c3.2,0,4.4,1.3,7.6,1.3c1.3,0,1.3,0,0,1.3s-1.3,3.2-1.3,4.4
	c3.2,0,6.3-1.3,9.5-1.3c1.3,0,3.2-1.3,4.4-1.3s1.3,0,1.3,1.3c0,0,0,1.3,1.3,1.3v1.3c0,0,0,0,0,1.3c1.3,3.2-1.3,4.4-3.2,4.4
	c-1.3,1.3-3.2,1.3-4.4,3.2c-3.2,1.3-6.3,1.3-9.5,3.2c-4.4,0-10.7,0-15.1-1.3c-6.3,0-13.9-1.3-20.2-3.2c-3.2,0-7.6,0-10.7,0
	c-1.3,0-1.3,1.3-3.2,1.3c-1.3,4.4-4.4,7.6-9.5,7.6c-4.4,1.3-10.7,0-15.1,0c-4.4-1.3-7.6-4.4-9.5-7.6v-1.3c0,0,1.3-1.3,0-1.3v-1.3
	c-1.3-6.3-1.3-12.6,1.3-17v-1.3c-1.3-1.3-4.4,1.3-4.4-1.3c-1.3-3.2,0-6.3,3.2-7.6v-6.3h-1.3l3.2-1.3l-1.3-1.3l1.3-1.3l-3.2-6.3V422
	c-3.2,0-4.4-3.2-3.2-7.6c-1.3-1.3-1.3-3.2-1.3-6.3c0-1.3,0-3.2,0-4.4c0,0-3.2,0-1.3-1.3c0,0-1.3-1.3-1.3-3.2c0-1.3,0-1.3-1.3-3.2
	c0-1.3,0-1.3,0-1.3c0-1.3,0-4.4,0-6.3c0-1.3,0-3.2,0-4.4v-1.3c0,0,0-1.3-1.3-1.3l3.2-1.3l-1.3,1.3l-3.2-4.4l1.3-1.3l-1.3-6.3
	l3.2,1.3l-1.3-1.3c0,0-1.3-1.3,0-3.2s3.2-3.2,3.2-6.3c0-1.3,1.3-3.2-1.3-4.4c3.2-1.3,3.2-3.2,3.2-6.3c0-4.4,0-9.5,0-12.6
	c0-1.3-1.3-1.3-1.3-3.2c-1.3-4.4-3.2-9.5-3.2-13.9H6.5c0-3.2,1.3-6.3,1.3-9.5v-1c0-9.5,0-17,1.3-25.9c0-6.3,1.3-13.9,1.3-20.2
	c0-1.3,0-3.2,0-4.4c0-4.4,1.3-10.7,1.3-15.1c0-1.3,0-3.2-1.3-4.4c-4.4-7.6-7.6-15.1-7.6-24.6c0-4.4-1.3-9.5-1.3-13.9
	c0-3.2,0-4.4,1.3-6.3c1.3-3.2,1.3-7.6,0-10.7c0-3.2-1.3-6.3-1.3-7.6c0-7.6,0-13.9,0-21.5c0-3.2,1.3-4.4,1.3-7.6
	c1.3-4.4,3.2-9.5,4.4-13.9c0-3.2,1.3-6.3,1.3-7.6c0-3.2,1.3-4.4,1.3-7.6c3.2-4.4,4.4-9.5,9.5-12.6c3.2-1.3,6.3-3.2,9.5-6.3
	c3.2-3.2,7.6-6.3,12.6-9.5c1.3-3.2,1.3-7.6,0-10.7c-1.3-1.3-1.3-1.3-3.2-1.3c-3.2,0-6.3-1.3-7.6-4.4c-1.3-1.3-3.2-3.2-4.4-4.4
	c-1.3,0-1.3-1.3-3.2-1.3c0-3.2,0-6.3-1.3-10.7c0-3.2,0-4.4,0-7.6c0,0,0-1.3-1.3-1.3c0,0-1.3,0-1.3,1.3c-1.3,0-3.2,3.2-1.3,4.4l0,0
	c0,1.3,1.3,4.4,1.3,6.3c0,0,0,0,0,1.3c-3.2-1.3-3.2-4.4-3.2-7.6c0-3.2,0-3.2-3.2-3.2c-3.2,1.3-4.4-1.3-6.3-3.2
	c-1.9-1.9-1.3-1.3-3.2,0C0,43.7,0,40.6,1.9,36.2c0-1.3,1.3-3.2,0-3.2c-3.2-1.3-1.3-4.4-1.3-6.3s0-6.3,3.2-7.6
	c1.3-1.3,3.2-1.3,6.3-1.3c3.2,1.3,6.3,1.3,9.5,0c3.2,0,6.3-1.3,9.5-4.4C35.4,7.1,43,2.7,52.5,0.8c7.6-1.3,15.1-1.3,23.4,0
	c3.2,1.3,6.3,3.2,9.5,6.3s6.3,6.3,9.5,9.5s4.4,7.6,4.4,12.6c0,3.2,0,7.6,0,10.7v1.3h4.4l-4.4,6.3l3.2,1.3c-3.2,1.3-3.2,3.2-1.3,4.4
	c1.3,4.4,1.3,10.7,0,15.1c-1.3,1.3-1.3,4.4-3.2,6.3c-3.2,4.4-7.6,7.6-12.6,9.5h-1.3c-3.2,0-4.4,0-4.4,4.4s-1.3,6.3-1.3,9.5
	s0,4.4,4.4,4.4c1.3,0,3.2,1.3,4.4,3.2c6.3,3.2,12.6,7.6,18.3,10.7c3.2,1.3,4.4,4.4,3.2,7.6c0,3.2,0,7.6,1.3,10.7
	c3.2,4.4,4.4,10.7,4.4,15.1c0,7.6,0,15.1,3.2,23.4c0,4.4,0,7.6,0,12.6c0,6.3,1.3,12.6,1.3,18.3c0,4.4,1.3,10.7,1.3,15.1
	c1.3,9.5,3.2,17,3.2,25.9c0,1.3,0,3.2,0,4.4c0,4.4,0,9.5,0,12.6v1.3c0,1.3,1.3,4.4,1.3,6.3s0,3.2,1.3,4.4c1.3,4.4,3.2,9.5,4.4,13.9
	c1.3,1.3,0,3.2-1.3,4.4l0,0L111.6,297z M68.6,409.4l3.2-4.4c0-1.3,0-3.2,0-4.4s1.3-1.3,1.3-3.2c0-4.4,1.3-9.5,1.3-15.1
	c0-3.2,1.3-6.3,1.3-9.5s0-4.4,1.3-6.3c1.3-3.2,3.2-6.3,4.4-9.5h3.2l-1.3-1.3c-3.2-3.2-6.3-6.3-4.4-10.7c0-1.3,0-4.4,0-6.3
	c-1.3-9.5-4.4-18.3-7.6-25.9c-3.2-6.3-3.2-6.3-9.5-4.4c0,1.3,0,3.2,0,4.4c-1.3,4.4-1.3,9.5-3.2,13.9c-1.3,4.4-1.3,7.6-1.3,12.6
	c0,6.3,0,13.9,0,20.2v1.3c1.3,1.3,1.3,3.2,0,6.3c0,1.3,0,1.3,0,3.2L56,369c0,1.3-1.3,3.2-1.3,4.4s0,4.4,0,6.3
	c-1.3,3.2,0,4.4,1.3,7.6l-3.2,3.2l0,0l1.3-1.3c0,1.3,0,3.2,0,4.4c0,1.3-1.3,1.3-1.3,3.2c0,3.2,0,7.6,1.3,10.7c0,3.2,1.3,6.3,1.3,7.6
	s0,1.3,0,3.2c-1.3,3.2-1.3,7.6,1.3,9.5c1.3,1.3,0,3.2,3.2,3.2c0,1.3,0,3.2-1.3,3.2l1.3,1.3c0,0-1.3,0-1.3,1.3s0,3.2,0,4.4
	c1.3,3.2,1.3,7.6,3.2,10.7c0,1.3,0,3.2,0,4.4l3.2,4.4h1.3c0-4.4,1.3-7.6,1.3-10.7c1.3-4.4,1.3-10.7,0-15.1c0-1.3-1.3-4.4,1.3-4.4
	c3.2-1.3,3.2-4.4,1.3-6.3C66.7,416.9,69.9,412.5,68.6,409.4C69.9,409.4,69.9,409.4,68.6,409.4C69.9,408.1,69.9,409.4,68.6,409.4
	L68.6,409.4z"/>
</svg>
