<?xml version="1.0" encoding="utf-8"?>
<!-- Generator: Adobe Illustrator 25.2.3, SVG Export Plug-In . SVG Version: 6.00 Build 0)  -->
<svg version="1.1" id="Layer_1" xmlns="http://www.w3.org/2000/svg" xmlns:xlink="http://www.w3.org/1999/xlink" x="0px" y="0px"
	 viewBox="0 0 760 760" style="enable-background:new 0 0 760 760;" xml:space="preserve">
<style type="text/css">
	.st0{fill:#D9D9D9;}
	.st1{opacity:0.85;fill:#FCCD03;enable-background:new    ;}
	.st2{fill:none;stroke:#D9D9D9;stroke-miterlimit:10;}
	.st3{opacity:0.85;fill:none;stroke:#FCCD03;stroke-miterlimit:10;enable-background:new    ;}
	.st4{enable-background:new    ;}
	.st5{opacity:0.85;enable-background:new    ;}
	.st6{fill:#FCCD03;}
</style>
<g>
	<rect x="593" class="st0" width="167" height="24"/>
	<rect x="593" y="40.3" class="st1" width="167" height="89.4"/>
	<rect x="593" y="145.9" class="st0" width="167" height="614.1"/>
</g>
<line class="st2" x1="267.3" y1="9.3" x2="592.8" y2="9.3"/>
<line class="st3" x1="172.4" y1="85" x2="593.2" y2="85"/>
<line class="st2" x1="186.7" y1="453" x2="593.2" y2="453"/>
<g class="st4">
	<path class="st0" d="M5.9,13.7v-2.2h-5v-1.1h10.9v1.1H7.1v2.2H5.9z M10.3,9.3H2.5V4.6h1.3V6H9V4.6h1.3L10.3,9.3L10.3,9.3z M3.8,15
		h6.7v1.1h-8v-3.4h1.3L3.8,15L3.8,15z M3.8,8.2H9V7H3.8V8.2z"/>
	<path class="st0" d="M14.9,9.7v2.5h1.2c0.4,0,0.8,0,1.2,0c0.3,0,0.7,0,1-0.1c0.3,0,0.6-0.1,1-0.1c0.3,0,0.6-0.1,1-0.1l0.1,1.1
		c-0.3,0.1-0.6,0.1-0.9,0.1c-0.3,0.1-0.6,0.1-1,0.1c-0.3,0-0.7,0.1-1.2,0.1c-0.4,0-0.9,0-1.4,0h-2.2V8.6h4.1V6.3h-4.1V5.2h5.4v4.5
		H14.9z M21.3,16.2V4.3h1.3v11.9H21.3z"/>
	<path class="st0" d="M33.8,11.2h-3.3v2.2h4.8v1.1H24.4v-1.1h4.8v-2.2H26V5.1h1.3v2h5.3v-2h1.3L33.8,11.2L33.8,11.2z M27.2,10.2h5.3
		V8.3h-5.3V10.2z"/>
	<path class="st0" d="M47.1,13.5v1.1H36.2v-1.1H41v-1.4c-0.5-0.1-0.9-0.1-1.2-0.3c-0.3-0.1-0.7-0.3-1-0.5s-0.5-0.4-0.6-0.7
		S38,10.1,38,9.8V9.5c0-0.3,0.1-0.6,0.3-0.9c0.1-0.3,0.4-0.5,0.7-0.7s0.7-0.3,1.2-0.5s1-0.1,1.5-0.1s1.1,0.1,1.5,0.1
		c0.5,0.1,0.8,0.3,1.2,0.5c0.3,0.2,0.5,0.4,0.7,0.7c0.1,0.3,0.3,0.5,0.3,0.9v0.4c0,0.3-0.1,0.5-0.2,0.8c-0.1,0.3-0.3,0.5-0.6,0.7
		s-0.5,0.3-1,0.5c-0.3,0.1-0.7,0.2-1.2,0.3v1.4L47.1,13.5L47.1,13.5z M42.3,5.7h3.8v1.1h-8.9V5.7H41V4.2h1.3V5.7L42.3,5.7z
		 M39.3,9.9c0,0.1,0.1,0.3,0.1,0.4c0.1,0.1,0.3,0.3,0.4,0.4c0.1,0.1,0.4,0.2,0.7,0.3s0.7,0.1,1.1,0.1s0.7-0.1,1.1-0.1
		c0.3-0.1,0.5-0.1,0.7-0.3c0.2-0.1,0.3-0.3,0.4-0.4s0.1-0.3,0.1-0.4V9.6c0-0.1-0.1-0.3-0.1-0.4s-0.3-0.3-0.4-0.4
		c-0.1-0.1-0.4-0.2-0.7-0.3S42,8.4,41.6,8.4s-0.7,0.1-1.1,0.1c-0.3,0.1-0.5,0.1-0.7,0.3c-0.2,0.1-0.3,0.3-0.4,0.4
		c-0.1,0.1-0.1,0.3-0.1,0.4C39.3,9.6,39.3,9.9,39.3,9.9z"/>
	<path class="st0" d="M56,16.2v-3.3h-4.8v-1.1h10.9v1.1h-4.8v3.3H56z M57.3,5.4h3.8v1.1h-8.9V5.4H56V4h1.3V5.4L57.3,5.4z M53,8.9
		c0-0.3,0.1-0.5,0.2-0.7s0.4-0.5,0.7-0.6c0.3-0.2,0.7-0.3,1.2-0.4s1-0.1,1.6-0.1s1.2,0.1,1.6,0.1c0.5,0.1,0.8,0.2,1.2,0.4
		C59.8,7.8,60,8,60.2,8.2c0.1,0.3,0.2,0.5,0.2,0.7v0.3c0,0.3-0.1,0.5-0.2,0.7c-0.1,0.3-0.4,0.5-0.7,0.6c-0.3,0.2-0.7,0.3-1.2,0.4
		s-1,0.1-1.6,0.1s-1.2-0.1-1.6-0.1c-0.5-0.1-0.8-0.2-1.2-0.4c-0.3-0.2-0.5-0.4-0.7-0.6C53.1,9.7,53,9.4,53,9.2V8.9z M54.3,9.2
		c0,0.1,0.1,0.2,0.1,0.3c0.1,0.1,0.2,0.2,0.4,0.3s0.4,0.2,0.7,0.3s0.7,0.1,1.1,0.1s0.7,0,1.1-0.1C58,10,58.2,10,58.4,9.8
		c0.2-0.1,0.3-0.2,0.4-0.3c0.1-0.1,0.1-0.2,0.1-0.3V9c0-0.1-0.1-0.2-0.1-0.3c-0.1-0.1-0.2-0.2-0.4-0.3S58,8.2,57.7,8.1
		C57.5,8,57.1,8,56.6,8s-0.7,0-1.1,0.1c-0.3,0.1-0.5,0.1-0.7,0.3c-0.2,0.1-0.3,0.2-0.4,0.3S54.3,8.9,54.3,9V9.2z"/>
	<path class="st0" d="M69.3,12.4v-1.7c-0.9,0-1.9,0.1-2.9,0.1V9.7c0.7,0,1.4,0,2,0s1.2,0,1.8-0.1c0.6,0,1.2-0.1,1.8-0.1
		c0.6-0.1,1.3-0.1,2-0.1l0.1,1.1c-0.5,0.1-1.1,0.1-1.7,0.1c-0.5,0.1-1.2,0.1-1.8,0.1v1.8L69.3,12.4L69.3,12.4z M70.1,9
		c-0.5,0-0.9-0.1-1.2-0.1c-0.3-0.1-0.7-0.3-1-0.5S67.4,8,67.3,7.7S67.1,7.2,67.1,7V6.5c0-0.3,0.1-0.5,0.2-0.7
		c0.1-0.3,0.3-0.5,0.6-0.7s0.5-0.3,1-0.5c0.3-0.1,0.7-0.1,1.2-0.1s0.9,0.1,1.2,0.1c0.3,0.1,0.7,0.3,1,0.5s0.5,0.4,0.6,0.7
		c0.1,0.3,0.2,0.5,0.2,0.7V7c0,0.3-0.1,0.5-0.2,0.7s-0.3,0.5-0.6,0.7s-0.5,0.3-1,0.5C70.9,8.9,70.5,9,70.1,9z M69.6,15h6.8v1.1h-8
		v-3.2h1.3L69.6,15L69.6,15z M70.1,7.9c0.3,0,0.5,0,0.7-0.1s0.4-0.1,0.5-0.3c0.1-0.1,0.3-0.2,0.3-0.3c0.1-0.1,0.1-0.3,0.1-0.4V6.5
		c0-0.1-0.1-0.3-0.1-0.4c-0.1-0.1-0.2-0.2-0.3-0.3c-0.1-0.1-0.3-0.2-0.5-0.2c-0.2-0.1-0.5-0.1-0.7-0.1c-0.3,0-0.5,0-0.7,0.1
		S69,5.7,68.9,5.8S68.6,6,68.6,6.1c-0.1,0.1-0.1,0.3-0.1,0.4v0.3c0,0.1,0.1,0.3,0.1,0.4c0.1,0.1,0.2,0.2,0.3,0.3
		c0.1,0.1,0.3,0.2,0.5,0.3C69.6,7.8,69.8,7.9,70.1,7.9z M74.9,13.5v-1.1h-2.5v-1.1h2.5v-7h1.3v9.2L74.9,13.5L74.9,13.5z"/>
	<path class="st0" d="M78.1,12.5c0.7-0.4,1.3-0.7,1.8-1.1c0.5-0.3,0.9-0.6,1.2-0.9c0.3-0.3,0.5-0.5,0.7-0.7s0.3-0.5,0.4-0.7
		s0.1-0.5,0.1-0.7s0-0.5,0-0.8V6.4h-4V5.3h5.3v2.2c0,0.4,0,0.7,0,1.1c0,0.3-0.1,0.6-0.2,0.9c-0.1,0.3-0.3,0.5-0.5,0.8
		s-0.5,0.5-0.8,0.9c-0.3,0.3-0.8,0.6-1.4,1c-0.5,0.3-1.2,0.8-2,1.3L78.1,12.5z M89.1,9.8h-1.8v6.4H86V4.3h1.3v4.4h1.8V9.8z"/>
	<path class="st0" d="M93.5,8.7c-0.1,0.1-0.1,0.3-0.3,0.5c-0.1,0.2-0.3,0.4-0.5,0.5c-0.3,0.3-0.6,0.5-1,0.7s-0.7,0.5-1,0.7L90,10.2
		c0.4-0.3,0.8-0.6,1.2-0.9c0.3-0.3,0.7-0.5,0.9-0.7c0.1-0.1,0.3-0.3,0.4-0.5c0.1-0.1,0.2-0.3,0.3-0.5c0.1-0.1,0.1-0.3,0.1-0.5
		S93,6.7,93,6.5V6.1h-2.5v-1h6.1v1.1H94v0.5c0,0.2,0,0.4,0,0.5s0.1,0.3,0.1,0.5c0.1,0.1,0.1,0.3,0.2,0.4c0.1,0.1,0.2,0.3,0.3,0.4
		c0.3,0.3,0.6,0.5,1,0.8c0.3,0.3,0.7,0.5,1.1,0.7L96,11c-0.3-0.2-0.7-0.5-1-0.7s-0.6-0.5-0.9-0.7c-0.2-0.1-0.3-0.3-0.5-0.4
		C93.5,9.1,93.5,8.8,93.5,8.7L93.5,8.7z M92.3,13.8c0-0.3,0.1-0.6,0.3-0.9c0.1-0.3,0.4-0.5,0.7-0.7s0.7-0.3,1.2-0.5s1-0.2,1.6-0.2
		s1.1,0.1,1.6,0.2c0.5,0.1,0.8,0.3,1.2,0.5c0.3,0.2,0.5,0.5,0.7,0.7c0.1,0.3,0.3,0.5,0.3,0.9v0.5c0,0.3-0.1,0.6-0.3,0.9
		c-0.1,0.3-0.4,0.5-0.7,0.7c-0.3,0.2-0.7,0.3-1.2,0.5c-0.5,0.1-1,0.2-1.6,0.2s-1.1-0.1-1.6-0.2s-0.8-0.3-1.2-0.5
		c-0.3-0.2-0.5-0.5-0.7-0.7c-0.1-0.3-0.3-0.5-0.3-0.9V13.8z M98.4,13.8c0-0.1-0.1-0.3-0.1-0.5c-0.1-0.1-0.3-0.3-0.5-0.4
		c-0.2-0.1-0.5-0.2-0.7-0.3s-0.6-0.1-1-0.1s-0.7,0.1-1,0.1c-0.3,0.1-0.5,0.2-0.7,0.3s-0.3,0.3-0.5,0.4c-0.1,0.1-0.1,0.3-0.1,0.5v0.3
		c0,0.1,0.1,0.3,0.1,0.5c0.1,0.1,0.3,0.3,0.5,0.4c0.2,0.1,0.5,0.2,0.7,0.3s0.6,0.1,1,0.1s0.7-0.1,1-0.1s0.5-0.2,0.7-0.3
		s0.3-0.3,0.5-0.4c0.1-0.1,0.1-0.3,0.1-0.5V13.8z M98.3,11.3v-3h-2.2V7.2h2.2V4.3h1.3v7.1L98.3,11.3L98.3,11.3z"/>
	<path class="st0" d="M112.3,13.5v1.1h-10.9v-1.1H112.3z M106.9,11.4c-0.5,0-1.1-0.1-1.6-0.2c-0.5-0.1-0.9-0.3-1.3-0.6
		c-0.3-0.3-0.7-0.5-0.9-0.9s-0.3-0.7-0.3-1.2V7.9c0-0.5,0.1-0.9,0.3-1.2s0.5-0.7,0.9-1c0.3-0.3,0.8-0.5,1.3-0.6s1-0.2,1.6-0.2
		s1.1,0.1,1.6,0.2s0.9,0.3,1.3,0.6c0.3,0.3,0.7,0.5,0.9,1c0.2,0.4,0.3,0.7,0.3,1.2v0.6c0,0.5-0.1,0.9-0.3,1.2s-0.5,0.7-0.9,0.9
		c-0.3,0.3-0.8,0.5-1.3,0.6C108,11.4,107.4,11.4,106.9,11.4z M106.9,6.1c-0.3,0-0.7,0.1-1,0.1c-0.3,0.1-0.6,0.2-0.9,0.4
		c-0.3,0.1-0.5,0.3-0.6,0.6c-0.1,0.2-0.2,0.5-0.2,0.7v0.5c0,0.3,0.1,0.5,0.2,0.7s0.3,0.4,0.6,0.6c0.3,0.1,0.5,0.3,0.9,0.4
		c0.3,0.1,0.7,0.1,1,0.1s0.7-0.1,1-0.1c0.3-0.1,0.6-0.2,0.9-0.4c0.3-0.1,0.5-0.3,0.6-0.6c0.1-0.2,0.2-0.5,0.2-0.7V8
		c0-0.3-0.1-0.5-0.2-0.7s-0.3-0.4-0.6-0.6c-0.3-0.1-0.5-0.3-0.9-0.4C107.6,6.1,107.2,6.1,106.9,6.1z"/>
	<path class="st0" d="M114.7,11.6V7.8h6.5V6.3h-6.6V5.2h7.9v3.7H116v1.6h6.8v1.1h-3.5v1.9h4.8v1.1h-10.9v-1.1h4.8v-1.9H114.7z"/>
	<path class="st0" d="M137.5,9.2h-3.3v1.1h4.8v1.1h-10.9v-1.1h4.8V9.2h-3.3V4.5h1.3v1.4h5.2V4.5h1.3L137.5,9.2L137.5,9.2z
		 M129.6,12.4h8v3.9h-1.3v-2.8h-6.7V12.4L129.6,12.4z M131,8.1h5.2V7H131V8.1z"/>
	<path class="st0" d="M148,10.6c-0.5,0.1-1.1,0.1-1.6,0.1s-1.2,0.1-1.8,0.1v5h-1.3v-4.9c-0.5,0-1,0-1.5,0s-1.1,0-1.6,0V9.8
		c1,0,1.9,0,2.7,0s1.6-0.1,2.3-0.1c0.1-0.2,0.1-0.5,0.1-0.7c0.1-0.3,0.1-0.5,0.1-0.8s0.1-0.5,0.1-0.8s0-0.5,0-0.7V6.1h-4.7V4.9h5.9
		v1.6c0,0.4,0,1-0.1,1.5s-0.1,1.1-0.2,1.6c0.5,0,1-0.1,1.4-0.1L148,10.6z M148.6,16.2V4.3h1.3v11.9H148.6z"/>
	<path class="st0" d="M155.4,6.7c0.1-0.2,0.3-0.3,0.5-0.5c0.1-0.2,0.3-0.3,0.6-0.5c0.2-0.1,0.5-0.2,0.7-0.3c0.3-0.1,0.6-0.1,1-0.1
		s0.8,0.1,1.2,0.1c0.3,0.1,0.6,0.3,0.9,0.5s0.4,0.5,0.5,0.7c0.1,0.3,0.2,0.6,0.2,1v0.1c0,0.2,0,0.4-0.1,0.6s-0.1,0.4-0.2,0.6
		c-0.1,0.2-0.3,0.3-0.5,0.5c-0.2,0.1-0.4,0.3-0.7,0.4c0.6,0.1,1.1,0.3,1.4,0.7c0.3,0.4,0.5,0.9,0.5,1.4v0.2c0,0.3-0.1,0.7-0.2,1
		c-0.1,0.3-0.3,0.6-0.6,0.9c-0.3,0.3-0.6,0.5-1,0.6s-0.9,0.2-1.5,0.2c-0.5,0-1.1-0.1-1.6-0.3c-0.5-0.1-1-0.4-1.4-0.7l0.6-1
		c0.5,0.3,0.9,0.5,1.2,0.7c0.3,0.1,0.7,0.2,1.2,0.2c0.3,0,0.6-0.1,0.9-0.1c0.3-0.1,0.5-0.2,0.6-0.3s0.3-0.3,0.3-0.5
		c0.1-0.2,0.1-0.4,0.1-0.6v-0.1c0-0.3-0.1-0.5-0.1-0.7c-0.1-0.2-0.2-0.3-0.4-0.5c-0.2-0.1-0.4-0.2-0.6-0.3c-0.2-0.1-0.5-0.1-0.7-0.1
		H157v-1h1.1c0.3,0,0.5-0.1,0.7-0.1c0.2-0.1,0.3-0.2,0.5-0.3c0.1-0.1,0.2-0.3,0.3-0.5s0.1-0.4,0.1-0.6V7.8c0-0.2-0.1-0.4-0.1-0.5
		s-0.2-0.3-0.3-0.4s-0.3-0.2-0.5-0.2c-0.2-0.1-0.4-0.1-0.6-0.1c-0.4,0-0.7,0.1-1,0.2s-0.5,0.4-0.8,0.7L155.4,6.7z"/>
	<path class="st0" d="M163.5,13.8h1.5v1.5h-1.5V13.8z"/>
	<path class="st0" d="M167.1,6.7c0.1-0.2,0.3-0.3,0.5-0.5c0.1-0.2,0.3-0.3,0.6-0.5c0.3-0.1,0.5-0.2,0.7-0.3c0.3-0.1,0.6-0.1,1-0.1
		s0.8,0.1,1.2,0.1c0.3,0.1,0.6,0.3,0.9,0.5s0.4,0.5,0.5,0.7c0.1,0.3,0.2,0.6,0.2,1v0.1c0,0.2,0,0.4-0.1,0.6s-0.1,0.4-0.2,0.6
		c-0.1,0.2-0.3,0.3-0.5,0.5s-0.4,0.3-0.7,0.4c0.6,0.1,1.1,0.3,1.4,0.7s0.5,0.9,0.5,1.4v0.2c0,0.3-0.1,0.7-0.2,1s-0.3,0.6-0.6,0.9
		c-0.3,0.3-0.6,0.5-1,0.6s-0.9,0.2-1.5,0.2c-0.5,0-1.1-0.1-1.6-0.3c-0.5-0.1-1-0.4-1.4-0.7l0.6-1c0.5,0.3,0.9,0.5,1.2,0.7
		c0.3,0.1,0.7,0.2,1.2,0.2c0.3,0,0.6-0.1,0.9-0.1s0.5-0.2,0.6-0.3s0.3-0.3,0.3-0.5c0.1-0.2,0.1-0.4,0.1-0.6v-0.1
		c0-0.3-0.1-0.5-0.1-0.7c-0.1-0.2-0.2-0.3-0.4-0.5c-0.2-0.1-0.4-0.2-0.6-0.3s-0.5-0.1-0.7-0.1h-1.2v-1h1.1c0.3,0,0.5-0.1,0.7-0.1
		c0.2-0.1,0.3-0.2,0.5-0.3c0.1-0.1,0.2-0.3,0.3-0.5c0.1-0.1,0.1-0.4,0.1-0.6V7.8c0-0.2-0.1-0.4-0.1-0.5c-0.1-0.1-0.2-0.3-0.3-0.4
		s-0.3-0.2-0.5-0.2s-0.4-0.1-0.6-0.1c-0.4,0-0.7,0.1-1,0.2s-0.5,0.4-0.8,0.7L167.1,6.7z"/>
	<path class="st0" d="M176.9,5.3c0.7,0,1.2,0.2,1.6,0.6s0.5,1,0.5,1.6V8c0,0.7-0.2,1.2-0.5,1.6c-0.4,0.4-0.9,0.6-1.6,0.6
		s-1.2-0.2-1.6-0.6c-0.4-0.4-0.5-1-0.5-1.6V7.5c0-0.7,0.2-1.2,0.5-1.6C175.8,5.5,176.3,5.3,176.9,5.3z M176.9,9.3
		c0.7,0,1.1-0.5,1.1-1.4V7.5c0-0.9-0.3-1.4-1.1-1.4s-1.1,0.5-1.1,1.4V8C175.8,8.9,176.2,9.3,176.9,9.3z M176.4,14.7l5.6-9.3h1.2
		l-5.6,9.3H176.4z M182.6,9.9c0.7,0,1.2,0.2,1.6,0.6c0.4,0.4,0.5,1,0.5,1.6v0.5c0,0.7-0.2,1.2-0.5,1.6c-0.3,0.4-0.9,0.6-1.6,0.6
		s-1.2-0.2-1.6-0.6c-0.4-0.4-0.5-1-0.5-1.6v-0.5c0-0.7,0.2-1.2,0.5-1.6C181.4,10.1,182,9.9,182.6,9.9z M182.6,14
		c0.7,0,1.1-0.5,1.1-1.4v-0.5c0-0.9-0.3-1.4-1.1-1.4c-0.7,0-1.1,0.5-1.1,1.4v0.5C181.5,13.5,181.9,14,182.6,14z"/>
</g>
<g class="st5">
	<path class="st6" d="M5.9,88.5v-2.2h-5v-1.1h10.9v1.1H7.1v2.2H5.9z M10.2,84.1H2.4v-4.8h1.3v1.4h5.2v-1.4h1.3V84.1L10.2,84.1z
		 M3.7,89.8h6.7v1.1h-8v-3.4h1.3V89.8L3.7,89.8z M3.7,83h5.2v-1.2H3.7V83z"/>
	<path class="st6" d="M14.8,84.5V87H16c0.4,0,0.8,0,1.2,0c0.4,0,0.7,0,1-0.1c0.3,0,0.6-0.1,1-0.1c0.3,0,0.6-0.1,1-0.1l0.1,1.1
		c-0.3,0.1-0.6,0.1-0.9,0.1c-0.3,0.1-0.6,0.1-1,0.1c-0.3,0-0.7,0.1-1.2,0.1s-0.9,0-1.4,0h-2.2v-4.7h4.1v-2.3h-4.1V80H19v4.5H14.8
		L14.8,84.5z M21.2,91V79.1h1.3V91H21.2z"/>
	<path class="st6" d="M35.3,88.3v1.1H24.4v-1.1h4.8v-2.5h1.3v2.5H35.3z M29.8,83.6c-0.1,0.1-0.2,0.3-0.5,0.5s-0.5,0.4-1,0.7
		c-0.4,0.3-0.9,0.5-1.3,0.7c-0.4,0.2-0.9,0.5-1.4,0.7l-0.6-1c0.5-0.3,1-0.5,1.4-0.7c0.4-0.2,0.8-0.5,1.2-0.7c0.5-0.3,0.8-0.6,1-1
		c0.2-0.3,0.3-0.7,0.3-1.2v-0.3h-3.5v-1.1h8.2v1.1h-3.5v0.3c0,0.3,0,0.5,0.1,0.7c0.1,0.2,0.1,0.4,0.2,0.5c0.1,0.1,0.3,0.3,0.4,0.5
		c0.1,0.1,0.4,0.3,0.7,0.5c0.3,0.1,0.5,0.3,0.7,0.4s0.4,0.3,0.6,0.3c0.2,0.1,0.4,0.2,0.6,0.3c0.2,0.1,0.5,0.3,0.7,0.4l-0.6,1
		c-0.3-0.1-0.5-0.3-0.7-0.4s-0.5-0.3-0.7-0.3c-0.2-0.1-0.4-0.2-0.6-0.3c-0.2-0.1-0.4-0.3-0.6-0.4c-0.4-0.3-0.7-0.5-1-0.7
		C30.1,83.9,29.9,83.7,29.8,83.6L29.8,83.6z"/>
	<path class="st6" d="M40.1,85.3c-0.1,0.1-0.1,0.3-0.3,0.5c-0.1,0.1-0.3,0.3-0.5,0.5c-0.3,0.3-0.5,0.6-0.9,1
		c-0.3,0.3-0.7,0.7-1.2,1.1l-0.8-0.9c0.4-0.3,0.7-0.7,1.1-1c0.3-0.3,0.6-0.6,1-1c0.2-0.2,0.4-0.5,0.5-0.6c0.1-0.2,0.2-0.4,0.3-0.5
		c0.1-0.2,0.1-0.3,0.1-0.5s0.1-0.4,0.1-0.7V82h-2.6v-1.2h2.7v-1.7h1.3v1.7h2.6v1.1h-2.6v1.2c0,0.3,0,0.5,0.1,0.7
		c0,0.2,0.1,0.3,0.1,0.5c0.1,0.2,0.2,0.3,0.3,0.5s0.3,0.4,0.5,0.7c0.3,0.3,0.5,0.6,0.8,0.9s0.6,0.6,1,0.9l-0.8,0.9
		c-0.4-0.4-0.8-0.7-1.1-1s-0.5-0.5-0.8-0.8c-0.2-0.2-0.3-0.4-0.5-0.5C40.2,85.6,40.2,85.5,40.1,85.3L40.1,85.3z M44.8,91V79.1h1.3
		V91H44.8z"/>
	<path class="st6" d="M54.9,89.5v-7.8L52.7,83l-0.6-1l3-1.8h1.1v9.3H54.9L54.9,89.5z"/>
	<path class="st6" d="M62.9,84.7c0.3-0.3,0.5-0.5,0.6-0.7s0.3-0.4,0.3-0.5c0.1-0.1,0.1-0.3,0.1-0.5s0-0.3,0-0.4v-0.1
		c0-0.3-0.1-0.7-0.4-0.9c-0.3-0.2-0.7-0.3-1.2-0.3c-0.2,0-0.3,0-0.5,0.1s-0.3,0.1-0.5,0.2S61,81.9,60.8,82c-0.1,0.1-0.3,0.4-0.5,0.7
		l-1-0.6c0.1-0.2,0.3-0.4,0.4-0.6c0.1-0.2,0.3-0.4,0.6-0.6c0.2-0.2,0.5-0.3,0.8-0.5c0.3-0.1,0.7-0.2,1.2-0.2s0.9,0.1,1.2,0.2
		s0.7,0.3,0.9,0.5c0.3,0.2,0.4,0.5,0.5,0.7c0.1,0.3,0.2,0.6,0.2,1v0.1c0,0.5-0.1,1-0.4,1.4c-0.3,0.5-0.6,0.9-1,1.4l-2.9,3.1h4.7v1.1
		h-6.3v-1.1L62.9,84.7z"/>
	<path class="st6" d="M67.6,88.5h1.5V90h-1.5V88.5L67.6,88.5z"/>
	<path class="st6" d="M71.2,81.5c0.1-0.2,0.3-0.3,0.5-0.5c0.1-0.2,0.3-0.3,0.6-0.5c0.2-0.1,0.5-0.2,0.7-0.3c0.3-0.1,0.6-0.1,1-0.1
		s0.8,0.1,1.2,0.1c0.3,0.1,0.6,0.3,0.9,0.5s0.4,0.5,0.5,0.7c0.1,0.3,0.2,0.6,0.2,1v0.1c0,0.2,0,0.4-0.1,0.6s-0.1,0.4-0.2,0.6
		S76.2,84,76,84.2c-0.2,0.1-0.4,0.3-0.7,0.4c0.6,0.1,1.1,0.3,1.4,0.7c0.3,0.4,0.5,0.9,0.5,1.4V87c0,0.3-0.1,0.7-0.2,1
		s-0.3,0.6-0.6,0.9c-0.3,0.3-0.6,0.5-1,0.6s-0.9,0.2-1.5,0.2c-0.5,0-1.1-0.1-1.6-0.3c-0.5-0.1-1-0.4-1.4-0.7l0.6-1
		c0.5,0.3,0.9,0.5,1.2,0.7c0.3,0.1,0.7,0.2,1.2,0.2c0.3,0,0.6-0.1,0.9-0.1c0.3-0.1,0.5-0.2,0.6-0.3c0.1-0.1,0.3-0.3,0.3-0.5
		c0.1-0.2,0.1-0.4,0.1-0.6V87c0-0.3-0.1-0.5-0.1-0.7c-0.1-0.2-0.2-0.3-0.4-0.5c-0.2-0.1-0.4-0.2-0.6-0.3c-0.2-0.1-0.5-0.1-0.7-0.1
		h-1.2v-1.1h1.1c0.3,0,0.5-0.1,0.7-0.1c0.2-0.1,0.3-0.2,0.5-0.3s0.2-0.3,0.3-0.5c0.1-0.1,0.1-0.4,0.1-0.6v-0.1
		c0-0.2-0.1-0.4-0.1-0.5c-0.1-0.1-0.2-0.3-0.3-0.4c-0.1-0.1-0.3-0.2-0.5-0.2c-0.2-0.1-0.4-0.1-0.6-0.1c-0.4,0-0.7,0.1-1,0.2
		s-0.5,0.4-0.8,0.7L71.2,81.5z"/>
	<path class="st6" d="M81,80c0.7,0,1.2,0.2,1.6,0.6s0.5,1,0.5,1.6v0.5c0,0.7-0.2,1.2-0.5,1.6s-0.9,0.6-1.6,0.6s-1.2-0.2-1.6-0.6
		s-0.5-1-0.5-1.6v-0.5c0-0.7,0.2-1.2,0.5-1.6C79.9,80.3,80.4,80,81,80z M81,84.1c0.7,0,1.1-0.5,1.1-1.4v-0.5c0-0.9-0.3-1.4-1.1-1.4
		c-0.7,0-1.1,0.5-1.1,1.4v0.5C79.9,83.6,80.3,84.1,81,84.1z M80.5,89.5l5.6-9.3h1.2l-5.6,9.3H80.5z M86.7,84.7
		c0.7,0,1.2,0.2,1.6,0.6s0.5,1,0.5,1.6v0.5c0,0.7-0.2,1.2-0.5,1.6c-0.4,0.4-0.9,0.6-1.6,0.6s-1.2-0.2-1.6-0.6s-0.5-1-0.5-1.6v-0.6
		c0-0.7,0.2-1.2,0.5-1.6C85.5,84.9,86,84.7,86.7,84.7z M86.7,88.7c0.7,0,1.1-0.5,1.1-1.4v-0.5c0-0.9-0.3-1.4-1.1-1.4
		s-1.1,0.5-1.1,1.4v0.5C85.6,88.3,86,88.7,86.7,88.7z"/>
</g>
<g class="st4">
	<path class="st0" d="M3.8,455v-1.7c-0.9,0-1.9,0.1-2.9,0.1v-1.1c0.7,0,1.4,0,2,0s1.2,0,1.8-0.1c0.6,0,1.2-0.1,1.8-0.1
		s1.3-0.1,2-0.1l0.1,1.1c-0.5,0.1-1.1,0.1-1.7,0.1c-0.5,0.1-1.2,0.1-1.8,0.1v1.8L3.8,455L3.8,455L3.8,455z M4.6,451.5
		c-0.5,0-0.9-0.1-1.2-0.1c-0.3-0.1-0.7-0.3-1-0.5s-0.5-0.4-0.6-0.7c-0.1-0.3-0.2-0.5-0.2-0.7v-0.4c0-0.3,0.1-0.5,0.2-0.7
		c0.1-0.3,0.3-0.5,0.6-0.7s0.5-0.3,1-0.5c0.3-0.1,0.7-0.1,1.2-0.1s0.9,0.1,1.2,0.1c0.3,0.1,0.7,0.3,1,0.5s0.5,0.4,0.6,0.7
		c0.1,0.3,0.2,0.5,0.2,0.7v0.4c0,0.3-0.1,0.5-0.2,0.7c-0.1,0.3-0.3,0.5-0.6,0.7s-0.5,0.3-1,0.5C5.5,451.5,5.1,451.5,4.6,451.5z
		 M4.1,457.6h6.8v1.1h-8v-3.2h1.3L4.1,457.6L4.1,457.6z M4.6,450.4c0.3,0,0.5,0,0.7-0.1s0.4-0.1,0.5-0.3c0.1-0.1,0.3-0.2,0.3-0.3
		c0.1-0.1,0.1-0.3,0.1-0.4V449c0-0.1-0.1-0.3-0.1-0.4c-0.1-0.1-0.2-0.2-0.3-0.3c-0.1-0.1-0.3-0.2-0.5-0.2S4.8,448,4.6,448
		c-0.3,0-0.5,0-0.7,0.1c-0.2,0.1-0.4,0.1-0.5,0.2s-0.3,0.2-0.3,0.3S3,448.9,3,449v0.3c0,0.1,0.1,0.3,0.1,0.4
		c0.1,0.1,0.2,0.2,0.3,0.3c0.1,0.1,0.3,0.2,0.5,0.3C4.1,450.4,4.3,450.4,4.6,450.4z M9.3,456.1V455H6.8v-1.1h2.5v-7.1h1.3v9.2H9.3
		V456.1z"/>
	<path class="st0" d="M12.7,455.1c0.7-0.4,1.3-0.7,1.8-1.1c0.5-0.3,0.9-0.6,1.2-0.9s0.5-0.5,0.7-0.7c0.2-0.2,0.3-0.5,0.4-0.7
		c0.1-0.2,0.1-0.5,0.1-0.7c0-0.3,0-0.5,0-0.8v-1.1h-4V448h5.3v2.2c0,0.4,0,0.7,0,1.1c0,0.3-0.1,0.6-0.2,0.9
		c-0.1,0.3-0.3,0.5-0.5,0.8s-0.5,0.5-0.8,0.9c-0.3,0.3-0.8,0.6-1.4,1c-0.5,0.3-1.2,0.8-2,1.3L12.7,455.1z M23.6,452.3h-1.8v6.4h-1.3
		v-11.9h1.3v4.4h1.8V452.3z"/>
	<path class="st0" d="M28,451.3c-0.1,0.1-0.1,0.3-0.3,0.5c-0.1,0.2-0.3,0.4-0.5,0.5c-0.3,0.3-0.6,0.5-1,0.7c-0.3,0.3-0.7,0.5-1,0.7
		l-0.7-0.9c0.4-0.3,0.8-0.6,1.2-0.9c0.3-0.3,0.7-0.5,0.9-0.7c0.1-0.1,0.3-0.3,0.4-0.5c0.1-0.1,0.2-0.3,0.3-0.5
		c0.1-0.1,0.1-0.3,0.1-0.5s0.1-0.4,0.1-0.6v-0.5h-2.7v-1.1h6.1v1.1h-2.4v0.5c0,0.2,0,0.4,0,0.5s0.1,0.3,0.1,0.5
		c0.1,0.1,0.1,0.3,0.2,0.4c0.1,0.1,0.2,0.3,0.3,0.4c0.3,0.3,0.6,0.5,1,0.8c0.3,0.3,0.7,0.5,1.1,0.7l-0.7,1c-0.3-0.2-0.7-0.5-1-0.7
		s-0.6-0.5-0.9-0.7c-0.2-0.1-0.3-0.3-0.5-0.4C28.2,451.5,28.1,451.3,28,451.3L28,451.3z M26.9,456.3c0-0.3,0.1-0.6,0.3-0.9
		c0.2-0.3,0.4-0.5,0.7-0.7c0.3-0.2,0.7-0.3,1.2-0.5s1-0.2,1.6-0.2c0.6,0,1.1,0.1,1.6,0.2s0.8,0.3,1.2,0.5c0.3,0.2,0.5,0.5,0.7,0.7
		c0.2,0.3,0.3,0.5,0.3,0.9v0.5c0,0.3-0.1,0.6-0.3,0.9s-0.4,0.5-0.7,0.7s-0.7,0.3-1.2,0.5s-1,0.2-1.6,0.2c-0.6,0-1.1-0.1-1.6-0.2
		s-0.8-0.3-1.2-0.5s-0.5-0.5-0.7-0.7c-0.2-0.3-0.3-0.5-0.3-0.9V456.3z M32.9,456.4c0-0.1-0.1-0.3-0.1-0.5c-0.1-0.1-0.3-0.3-0.5-0.4
		s-0.5-0.2-0.7-0.3c-0.3-0.1-0.6-0.1-1-0.1c-0.4,0-0.7,0.1-1,0.1c-0.3,0.1-0.5,0.2-0.7,0.3c-0.2,0.1-0.3,0.3-0.5,0.4
		c-0.1,0.1-0.1,0.3-0.1,0.5v0.3c0,0.1,0.1,0.3,0.1,0.5c0.1,0.1,0.3,0.3,0.5,0.4s0.5,0.2,0.7,0.3c0.3,0.1,0.6,0.1,1,0.1
		c0.4,0,0.7-0.1,1-0.1c0.3-0.1,0.5-0.2,0.7-0.3c0.2-0.1,0.3-0.3,0.5-0.4c0.1-0.1,0.1-0.3,0.1-0.5V456.4z M32.9,453.9v-3h-2.2v-1.2
		h2.2v-2.9h1.3v7.1H32.9z"/>
	<path class="st0" d="M48.6,453.8h-3.3v2.2h4.8v1.1H39.2V456H44v-2.2h-3.3v-6.1H42v2h5.3v-2h1.3L48.6,453.8L48.6,453.8z M42,452.7
		h5.3v-1.9H42V452.7z"/>
	<path class="st0" d="M61.8,456.1v1.1H50.9v-1.1h4.8v-1.4c-0.5-0.1-0.9-0.1-1.2-0.3s-0.7-0.3-1-0.5s-0.5-0.4-0.6-0.7
		c-0.1-0.3-0.2-0.5-0.2-0.8V452c0-0.3,0.1-0.6,0.3-0.9s0.4-0.5,0.7-0.7s0.7-0.3,1.2-0.5c0.5-0.1,1-0.1,1.5-0.1s1.1,0.1,1.5,0.1
		c0.5,0.1,0.8,0.3,1.2,0.5c0.3,0.2,0.5,0.4,0.7,0.7c0.1,0.3,0.3,0.5,0.3,0.9v0.4c0,0.3-0.1,0.5-0.2,0.8c-0.1,0.3-0.3,0.5-0.6,0.7
		s-0.5,0.3-1,0.5c-0.3,0.1-0.8,0.2-1.2,0.3v1.4L61.8,456.1L61.8,456.1z M57,448.2h3.8v1.1h-8.9v-1.1h3.8v-1.5H57V448.2L57,448.2z
		 M54,452.4c0,0.1,0.1,0.3,0.1,0.4c0.1,0.1,0.3,0.3,0.4,0.4c0.2,0.1,0.4,0.2,0.7,0.3c0.3,0.1,0.7,0.1,1.1,0.1s0.7-0.1,1.1-0.1
		c0.3-0.1,0.5-0.1,0.7-0.3c0.2-0.1,0.3-0.3,0.4-0.4c0.1-0.1,0.1-0.3,0.1-0.4v-0.3c0-0.1-0.1-0.3-0.1-0.4s-0.3-0.3-0.4-0.4
		c-0.2-0.1-0.4-0.2-0.7-0.3c-0.3-0.1-0.7-0.1-1.1-0.1s-0.7,0.1-1.1,0.1c-0.3,0.1-0.5,0.1-0.7,0.3c-0.2,0.1-0.3,0.3-0.4,0.4
		c-0.1,0.1-0.1,0.3-0.1,0.4V452.4z"/>
	<path class="st0" d="M66.3,454.6c0-0.3,0.1-0.5,0.1-0.7c0.1-0.2,0.2-0.4,0.3-0.6s0.3-0.3,0.5-0.5c0.2-0.1,0.4-0.3,0.6-0.3
		c-0.5-0.2-0.7-0.5-1-0.9c-0.3-0.3-0.3-0.7-0.3-1.2v-0.2c0-0.3,0.1-0.7,0.2-1s0.3-0.5,0.5-0.7c0.3-0.2,0.5-0.4,0.9-0.5
		c0.3-0.1,0.7-0.2,1.2-0.2s0.8,0.1,1.2,0.2c0.3,0.1,0.7,0.3,0.9,0.5c0.3,0.2,0.4,0.5,0.5,0.7c0.1,0.3,0.2,0.6,0.2,1v0.2
		c0,0.4-0.1,0.7-0.3,1.2c-0.2,0.3-0.5,0.7-1,0.9c0.5,0.1,0.8,0.4,1.2,0.8c0.3,0.4,0.5,0.8,0.5,1.4v0.2c0,0.3-0.1,0.7-0.2,1
		s-0.3,0.6-0.6,0.8c-0.3,0.2-0.6,0.4-1,0.5s-0.8,0.2-1.3,0.2s-1-0.1-1.3-0.2c-0.4-0.1-0.7-0.3-1-0.5s-0.5-0.5-0.6-0.8
		s-0.2-0.7-0.2-1L66.3,454.6L66.3,454.6L66.3,454.6z M67.6,454.8c0,0.4,0.1,0.8,0.5,1.1c0.3,0.3,0.7,0.4,1.3,0.4s1-0.1,1.3-0.4
		s0.5-0.6,0.5-1.1v-0.1c0-0.5-0.1-0.9-0.5-1.2c-0.3-0.3-0.7-0.4-1.3-0.4c-0.3,0-0.5,0-0.7,0.1s-0.4,0.1-0.5,0.3
		c-0.1,0.1-0.3,0.3-0.4,0.5s-0.1,0.4-0.1,0.7v0.1H67.6z M67.9,450.5c0,0.5,0.1,0.8,0.5,1.1c0.3,0.3,0.7,0.4,1.1,0.4s0.8-0.1,1.1-0.4
		s0.5-0.6,0.5-1.1v-0.1c0-0.4-0.1-0.8-0.4-1S70,449,69.5,449s-0.8,0.1-1.2,0.4c-0.3,0.3-0.4,0.6-0.4,1V450.5L67.9,450.5z"/>
	<path class="st0" d="M79.6,451.3v2.9h1.3v1.1h-1.3v2h-1.3v-2h-4.6v-1L78,448h1.4l-4.3,6.3h3.1v-2.9L79.6,451.3L79.6,451.3
		L79.6,451.3z"/>
	<path class="st0" d="M82.4,456.3h1.5v1.5h-1.5V456.3z"/>
	<path class="st0" d="M91.3,451.3v2.9h1.3v1.1h-1.3v2H90v-2h-4.6v-1l4.3-6.3h1.4l-4.3,6.3h3.1v-2.9L91.3,451.3L91.3,451.3
		L91.3,451.3z"/>
	<path class="st0" d="M95.9,447.9c0.7,0,1.2,0.2,1.6,0.6s0.5,1,0.5,1.6v0.5c0,0.7-0.2,1.2-0.5,1.6s-0.9,0.6-1.6,0.6
		s-1.2-0.2-1.6-0.6s-0.5-1-0.5-1.6v-0.5c0-0.7,0.2-1.2,0.5-1.6S95.2,447.9,95.9,447.9z M95.9,451.9c0.7,0,1.1-0.5,1.1-1.4V450
		c0-0.9-0.3-1.4-1.1-1.4s-1.1,0.5-1.1,1.4v0.5C94.7,451.4,95.1,451.9,95.9,451.9z M95.3,457.3l5.6-9.3h1.2l-5.6,9.3H95.3z
		 M101.5,452.5c0.7,0,1.2,0.2,1.6,0.6s0.5,1,0.5,1.6v0.5c0,0.7-0.2,1.2-0.5,1.6c-0.4,0.4-0.9,0.6-1.6,0.6s-1.2-0.2-1.6-0.6
		s-0.5-1-0.5-1.6v-0.5c0-0.7,0.2-1.2,0.5-1.6C100.3,452.7,100.8,452.5,101.5,452.5z M101.5,456.5c0.7,0,1.1-0.5,1.1-1.4v-0.5
		c0-0.9-0.3-1.4-1.1-1.4c-0.7,0-1.1,0.5-1.1,1.4v0.5C100.4,456.1,100.7,456.5,101.5,456.5z"/>
</g>
</svg>
