<?xml version="1.0" encoding="utf-8"?>
<!-- Generator: Adobe Illustrator 25.2.3, SVG Export Plug-In . SVG Version: 6.00 Build 0)  -->
<svg version="1.1" id="Layer_1" xmlns="http://www.w3.org/2000/svg" xmlns:xlink="http://www.w3.org/1999/xlink" x="0px" y="0px"
	 viewBox="0 0 760 760" style="enable-background:new 0 0 760 760;" xml:space="preserve">
<style type="text/css">
	.st0{fill:#BCBCBC;}
	.st1{fill:#FCCD03;}
	.st2{fill:none;stroke:#FCCD03;stroke-width:4;stroke-miterlimit:10;stroke-dasharray:11.576,11.576;}
	.st3{fill:#0F0F0F;}
</style>
<circle class="st0" cx="355.3" cy="486.4" r="129.4"/>
<circle class="st0" cx="355.3" cy="703.3" r="56.7"/>
<g>
	<path class="st1" d="M358.1,331.4l-0.1-3.2c3-0.1,6.2-0.2,9.1-0.4l0.2,3.2C364.4,331.2,361.3,331.3,358.1,331.4z M348.8,331.3
		c-3.1-0.2-6.2-0.3-9.4-0.6l0.3-3.2c3,0.3,6.1,0.5,9.1,0.6V331.3z M376.8,330.1l-0.4-3.2c3-0.4,6.1-0.9,9-1.4l0.6,3.1
		C382.9,329.1,379.9,329.7,376.8,330.1z M330.3,329.5c-3-0.5-6.2-1-9.2-1.7l0.6-3.1c3,0.6,6,1.2,9,1.7L330.3,329.5z M395.1,326.5
		l-0.8-3.1c3-0.7,5.9-1.6,8.8-2.5l1,3C401.1,324.9,398.1,325.8,395.1,326.5z M311.9,325.7c-3-0.8-6-1.8-9-2.7l1-3
		c2.9,1,5.8,1.8,8.8,2.6L311.9,325.7z M413,321l-1.1-3c2.9-1,5.7-2.2,8.5-3.4l1.3,3C418.7,318.8,415.8,319.9,413,321z M294.3,319.7
		c-2.9-1.1-5.8-2.4-8.6-3.8l1.4-2.9c2.8,1.3,5.6,2.6,8.4,3.7L294.3,319.7z M430,313.5l-1.4-2.9c2.7-1.4,5.4-2.9,8-4.4l1.6,2.8
		C435.5,310.6,432.8,312.1,430,313.5z M277.3,311.8c-2.7-1.4-5.4-3-8.1-4.6l1.7-2.7c2.6,1.6,5.3,3.1,7.9,4.6L277.3,311.8z
		 M446.1,304.1l-1.8-2.6c2.6-1.7,5-3.4,7.5-5.3l1.9,2.6C451.2,300.6,448.7,302.4,446.1,304.1z M261.4,302c-2.6-1.8-5-3.7-7.5-5.6
		l2-2.5c2.4,1.8,4.9,3.7,7.4,5.4L261.4,302z M461,292.9l-2.1-2.5c2.3-1.9,4.6-4,6.9-6.1l2.2,2.3C465.8,288.8,463.4,290.9,461,292.9z
		 M246.7,290.4c-2.3-2.1-4.6-4.2-6.8-6.4l2.2-2.2c2.2,2.2,4.4,4.2,6.7,6.2L246.7,290.4z M474.7,280.1l-2.3-2.2
		c2.1-2.2,4.2-4.5,6.1-6.8l2.5,2.1C478.8,275.6,476.7,277.9,474.7,280.1z M233.4,277.3c-2.1-2.3-4.2-4.7-6.1-7.1l2.5-2
		c1.9,2.4,3.9,4.7,5.9,7L233.4,277.3z M486.7,265.9l-2.6-1.9c1.8-2.4,3.6-5,5.3-7.4l2.6,1.8C490.4,260.9,488.6,263.4,486.7,265.9z
		 M221.7,262.9c-1.8-2.5-3.6-5.1-5.2-7.8l2.7-1.7c1.6,2.6,3.4,5.1,5.1,7.6L221.7,262.9z M497,250.3l-2.7-1.6c1.5-2.6,3-5.4,4.4-8
		l2.9,1.4C500.2,244.9,498.6,247.7,497,250.3z M211.7,247.1c-1.5-2.7-3-5.5-4.3-8.2l2.9-1.4c1.4,2.7,2.7,5.4,4.2,8.1L211.7,247.1z
		 M505.6,233.7l-3-1.3c1.2-2.8,2.4-5.6,3.5-8.5l3,1.1C508.1,228,506.9,230.9,505.6,233.7z M203.6,230.3c-1.2-2.9-2.3-5.8-3.4-8.7
		l3-1c1,2.9,2.1,5.8,3.3,8.6L203.6,230.3z M512.2,216.2l-3-1c0.9-2.9,1.8-5.8,2.5-8.8l3.1,0.8C514,210.3,513.2,213.2,512.2,216.2z
		 M197.3,212.7c-0.9-3-1.7-6-2.3-9l3.1-0.7c0.6,3,1.4,5.9,2.3,8.9L197.3,212.7z M516.8,198.1l-3.1-0.6c0.6-3,1-6,1.4-9l3.2,0.4
		C517.8,192,517.3,195.1,516.8,198.1z M193.2,194.5c-0.5-3-1-6.2-1.3-9.3l3.2-0.3c0.3,3,0.8,6.1,1.3,9L193.2,194.5z M519.3,179.6
		l-3.2-0.2c0.2-3,0.4-6.1,0.4-9.1l3.2,0.1C519.6,173.3,519.5,176.5,519.3,179.6z M191.2,176c-0.2-3-0.2-6-0.2-9v-0.4h3.2v0.4
		c0,3,0.1,5.8,0.2,8.8L191.2,176z M516.4,161c-0.1-3-0.3-6.1-0.6-9.1l3.2-0.3c0.3,3.1,0.5,6.2,0.6,9.4L516.4,161z M194.4,157.5
		l-3.2-0.2c0.2-3.1,0.5-6.2,0.8-9.3l3.2,0.4C194.9,151.4,194.5,154.4,194.4,157.5z M514.7,142.8c-0.5-3-1-6.1-1.6-9l3.1-0.6
		c0.6,3,1.2,6.2,1.7,9.2L514.7,142.8z M196.5,139.3l-3.1-0.6c0.6-3,1.1-6.2,1.8-9.2l3.1,0.7C197.7,133.3,197,136.3,196.5,139.3z
		 M510.9,124.9c-0.8-3-1.7-5.9-2.6-8.8l3-1c1,3,1.9,5.9,2.7,9L510.9,124.9z M200.6,121.5l-3-0.9c0.9-3,1.8-6,2.9-8.9l3,1
		C202.5,115.6,201.5,118.5,200.6,121.5z M505.2,107.6c-1.1-2.8-2.3-5.7-3.6-8.4l2.9-1.4c1.3,2.8,2.6,5.7,3.7,8.6L505.2,107.6z
		 M206.8,104.2l-3-1.3c1.2-2.9,2.6-5.8,3.9-8.5l2.9,1.4C209.3,98.6,208,101.4,206.8,104.2z M497.4,90.9c-1.4-2.7-3-5.4-4.6-7.9
		l2.7-1.7c1.6,2.6,3.2,5.4,4.6,8.1L497.4,90.9z M214.9,87.7l-2.8-1.6c1.5-2.7,3.1-5.4,4.8-8l2.7,1.8C218,82.5,216.4,85.1,214.9,87.7
		z M487.9,75.4c-1.8-2.5-3.5-5-5.4-7.4l2.6-2c1.9,2.5,3.8,5,5.5,7.5L487.9,75.4z M224.8,72.4l-2.6-1.9c1.8-2.5,3.8-5,5.7-7.4l2.5,2
		C228.5,67.5,226.6,69.9,224.8,72.4z M476.7,61c-2-2.3-4.1-4.6-6.2-6.7l2.3-2.2c2.2,2.2,4.3,4.5,6.3,6.9L476.7,61z M236.4,58.2
		l-2.3-2.2c2.1-2.3,4.3-4.6,6.5-6.7l2.2,2.3C240.6,53.7,238.5,55.9,236.4,58.2z M463.9,47.9c-2.2-2.1-4.6-4.1-7-6l2-2.5
		c2.4,1.9,4.8,4,7.1,6.1L463.9,47.9z M249.5,45.4l-2.1-2.4c2.3-2,4.8-4,7.2-5.9l2,2.6C254.2,41.5,251.9,43.4,249.5,45.4z
		 M449.6,36.3c-2.5-1.8-5-3.5-7.6-5.2l1.8-2.7c2.6,1.7,5.2,3.4,7.8,5.3L449.6,36.3z M264,34.2l-1.8-2.6c2.6-1.8,5.2-3.4,7.8-5
		l1.7,2.7C269,30.8,266.5,32.4,264,34.2z M434.2,26.5c-2.6-1.5-5.4-3-8.2-4.2l1.4-2.9c2.8,1.4,5.6,2.8,8.3,4.3L434.2,26.5z
		 M279.6,24.7l-1.5-2.8c2.7-1.4,5.5-2.9,8.4-4.2l1.4,2.9C285,21.9,282.3,23.3,279.6,24.7z M417.8,18.4c-2.8-1.2-5.7-2.3-8.6-3.3l1-3
		c3,1,5.8,2.2,8.7,3.4L417.8,18.4z M296.2,17l-1.2-3c2.9-1.1,5.8-2.2,8.8-3.2l1,3C302,14.9,299,15.9,296.2,17z M400.5,12.2
		c-3-0.9-5.9-1.6-8.9-2.3l0.7-3.1c3,0.7,6.1,1.5,9,2.4L400.5,12.2z M313.5,11.3l-0.8-3.1c3-0.8,6.1-1.5,9.1-2.2l0.6,3.1
		C319.5,9.8,316.5,10.5,313.5,11.3z M382.7,8.2c-3-0.5-6.1-1-9-1.3l0.3-3.2c3.1,0.3,6.2,0.8,9.3,1.3L382.7,8.2z M331.5,7.6L331,4.4
		c3-0.5,6.2-0.8,9.3-1.1l0.3,3.2C337.6,6.8,334.5,7.1,331.5,7.6z M364.5,6.1c-4.9-0.2-9.8-0.3-14.7-0.2l-0.1-3.2
		c5-0.2,10.1-0.1,15,0.2L364.5,6.1z"/>
</g>
<circle class="st2" cx="1328" cy="100.6" r="203.7"/>
<g>
	<text transform="matrix(1 0 0 1 1332.6362 790.9716)" class="st3" style="font-family:'NanumSquareB'; font-size:100px;">2021</text>
</g>
<g>
	<text transform="matrix(1 0 0 1 1690.5791 790.9716)" class="st3" style="font-family:'NanumSquareB'; font-size:100px;">2020</text>
</g>
<text transform="matrix(1 0 0 1 1508.0076 56.5716)" class="st3" style="font-family:'NanumSquareR'; font-size:17px;">832명(1인당 50건)</text>
<text transform="matrix(1 0 0 1 2246.0107 584.4858)" class="st3" style="font-family:'NanumSquareR'; font-size:17px;">290명(1인당 142.7건)</text>
<g>
	<path class="st0" d="M5.5,708c0.3-0.4,0.6-0.7,0.8-1c0.2-0.3,0.4-0.5,0.5-0.8c0.1-0.2,0.2-0.4,0.2-0.6c0-0.2,0.1-0.3,0.1-0.5V705
		c0-0.6-0.2-1.1-0.6-1.5c-0.4-0.4-1-0.5-1.7-0.5c-0.5,0-1.1,0.1-1.5,0.4c-0.5,0.3-0.9,0.7-1.3,1.5l-1-0.6c0.1-0.3,0.3-0.5,0.5-0.8
		c0.2-0.3,0.5-0.5,0.8-0.8c0.3-0.2,0.7-0.4,1.1-0.6c0.4-0.1,0.9-0.2,1.4-0.2c0.5,0,1,0.1,1.5,0.2c0.4,0.1,0.8,0.4,1.1,0.6
		c0.3,0.3,0.5,0.6,0.7,1s0.3,0.8,0.3,1.2v0.2c0,0.3-0.1,0.6-0.2,1s-0.3,0.6-0.5,0.9c-0.2,0.3-0.4,0.6-0.7,0.9
		c-0.2,0.3-0.5,0.6-0.8,0.9l-3.8,4.5h6.3v1.1H1v-1L5.5,708z"/>
	<path class="st0" d="M19.1,709.2c0,1.7-0.3,3.1-1,4c-0.7,0.9-1.7,1.4-3.2,1.4c-1.5,0-2.5-0.5-3.2-1.4c-0.7-0.9-1-2.3-1-4v-1.9
		c0-1.7,0.3-3,1-4c0.7-0.9,1.7-1.4,3.1-1.4c1.5,0,2.5,0.5,3.2,1.4c0.7,0.9,1,2.2,1,4V709.2z M17.9,707.3c0-1.5-0.2-2.6-0.7-3.3
		c-0.5-0.7-1.2-1-2.2-1c-0.9,0-1.7,0.3-2.2,1c-0.5,0.7-0.8,1.8-0.8,3.3v1.9c0,1.5,0.3,2.6,0.8,3.3c0.5,0.7,1.2,1,2.2,1
		c1,0,1.7-0.3,2.2-1c0.5-0.7,0.7-1.8,0.7-3.3V707.3z"/>
	<path class="st0" d="M25.9,708c0.3-0.4,0.6-0.7,0.8-1c0.2-0.3,0.4-0.5,0.5-0.8c0.1-0.2,0.2-0.4,0.2-0.6c0-0.2,0.1-0.3,0.1-0.5V705
		c0-0.6-0.2-1.1-0.6-1.5c-0.4-0.4-1-0.5-1.7-0.5c-0.5,0-1.1,0.1-1.5,0.4c-0.5,0.3-0.9,0.7-1.3,1.5l-1-0.6c0.1-0.3,0.3-0.5,0.5-0.8
		c0.2-0.3,0.5-0.5,0.8-0.8c0.3-0.2,0.7-0.4,1.1-0.6c0.4-0.1,0.9-0.2,1.4-0.2c0.5,0,1,0.1,1.5,0.2c0.4,0.1,0.8,0.4,1.1,0.6
		c0.3,0.3,0.5,0.6,0.7,1s0.3,0.8,0.3,1.2v0.2c0,0.3-0.1,0.6-0.2,1s-0.3,0.6-0.5,0.9c-0.2,0.3-0.4,0.6-0.7,0.9
		c-0.2,0.3-0.5,0.6-0.8,0.9l-3.8,4.5h6.3v1.1h-7.8v-1L25.9,708z"/>
	<path class="st0" d="M39.5,709.2c0,1.7-0.3,3.1-1,4c-0.7,0.9-1.7,1.4-3.2,1.4c-1.5,0-2.5-0.5-3.2-1.4c-0.7-0.9-1-2.3-1-4v-1.9
		c0-1.7,0.3-3,1-4c0.7-0.9,1.7-1.4,3.1-1.4c1.5,0,2.5,0.5,3.2,1.4c0.7,0.9,1,2.2,1,4V709.2z M38.3,707.3c0-1.5-0.2-2.6-0.7-3.3
		c-0.5-0.7-1.2-1-2.2-1c-0.9,0-1.7,0.3-2.2,1c-0.5,0.7-0.8,1.8-0.8,3.3v1.9c0,1.5,0.3,2.6,0.8,3.3c0.5,0.7,1.2,1,2.2,1
		c1,0,1.7-0.3,2.2-1c0.5-0.7,0.7-1.8,0.7-3.3V707.3z"/>
</g>
<g>
	<path class="st0" d="M6.2,485.7c0.3-0.4,0.6-0.7,0.8-1c0.2-0.3,0.4-0.5,0.5-0.8c0.1-0.2,0.2-0.4,0.2-0.6c0-0.2,0.1-0.3,0.1-0.5
		v-0.1c0-0.6-0.2-1.1-0.6-1.5c-0.4-0.4-1-0.5-1.7-0.5c-0.5,0-1.1,0.1-1.5,0.4c-0.5,0.3-0.9,0.7-1.3,1.5l-1-0.6
		c0.1-0.3,0.3-0.5,0.5-0.8c0.2-0.3,0.5-0.5,0.8-0.8c0.3-0.2,0.7-0.4,1.1-0.6c0.4-0.1,0.9-0.2,1.4-0.2c0.5,0,1,0.1,1.5,0.2
		c0.4,0.1,0.8,0.4,1.1,0.6c0.3,0.3,0.5,0.6,0.7,1s0.3,0.8,0.3,1.2v0.2c0,0.3-0.1,0.6-0.2,1s-0.3,0.6-0.5,0.9
		c-0.2,0.3-0.4,0.6-0.7,0.9c-0.2,0.3-0.5,0.6-0.8,0.9L3.1,491h6.3v1.1H1.6v-1L6.2,485.7z"/>
	<path class="st0" d="M19.8,486.9c0,1.7-0.3,3.1-1,4c-0.7,0.9-1.7,1.4-3.2,1.4c-1.5,0-2.5-0.5-3.2-1.4c-0.7-0.9-1-2.3-1-4V485
		c0-1.7,0.3-3,1-4c0.7-0.9,1.7-1.4,3.1-1.4c1.5,0,2.5,0.5,3.2,1.4c0.7,0.9,1,2.2,1,4V486.9z M18.6,485c0-1.5-0.2-2.6-0.7-3.3
		c-0.5-0.7-1.2-1-2.2-1c-0.9,0-1.7,0.3-2.2,1c-0.5,0.7-0.8,1.8-0.8,3.3v1.9c0,1.5,0.3,2.6,0.8,3.3c0.5,0.7,1.2,1,2.2,1
		c1,0,1.7-0.3,2.2-1c0.5-0.7,0.7-1.8,0.7-3.3V485z"/>
	<path class="st0" d="M26.6,485.7c0.3-0.4,0.6-0.7,0.8-1c0.2-0.3,0.4-0.5,0.5-0.8c0.1-0.2,0.2-0.4,0.2-0.6c0-0.2,0.1-0.3,0.1-0.5
		v-0.1c0-0.6-0.2-1.1-0.6-1.5c-0.4-0.4-1-0.5-1.7-0.5c-0.5,0-1.1,0.1-1.5,0.4c-0.5,0.3-0.9,0.7-1.3,1.5l-1-0.6
		c0.1-0.3,0.3-0.5,0.5-0.8c0.2-0.3,0.5-0.5,0.8-0.8c0.3-0.2,0.7-0.4,1.1-0.6c0.4-0.1,0.9-0.2,1.4-0.2c0.5,0,1,0.1,1.5,0.2
		c0.4,0.1,0.8,0.4,1.1,0.6c0.3,0.3,0.5,0.6,0.7,1s0.3,0.8,0.3,1.2v0.2c0,0.3-0.1,0.6-0.2,1s-0.3,0.6-0.5,0.9
		c-0.2,0.3-0.4,0.6-0.7,0.9c-0.2,0.3-0.5,0.6-0.8,0.9l-3.8,4.5h6.3v1.1H22v-1L26.6,485.7z"/>
	<path class="st0" d="M36.2,492.1v-10.8l-3,1.8l-0.5-1l3.8-2.3h0.9v12.3H36.2z"/>
</g>
<g>
	<path class="st0" d="M603.1,702.5c0.3-0.4,0.6-0.7,0.8-1c0.2-0.3,0.4-0.5,0.5-0.8c0.1-0.2,0.2-0.4,0.2-0.6c0-0.2,0.1-0.3,0.1-0.5
		v-0.1c0-0.6-0.2-1.1-0.6-1.5c-0.4-0.4-1-0.5-1.7-0.5c-0.5,0-1.1,0.1-1.5,0.4c-0.5,0.3-0.9,0.7-1.3,1.5l-1-0.6
		c0.1-0.3,0.3-0.5,0.5-0.8c0.2-0.3,0.5-0.5,0.8-0.8c0.3-0.2,0.7-0.4,1.1-0.6c0.4-0.1,0.9-0.2,1.4-0.2c0.5,0,1,0.1,1.5,0.2
		c0.4,0.1,0.8,0.4,1.1,0.6c0.3,0.3,0.5,0.6,0.7,1s0.3,0.8,0.3,1.2v0.2c0,0.3-0.1,0.6-0.2,1s-0.3,0.6-0.5,0.9
		c-0.2,0.3-0.4,0.6-0.7,0.9c-0.2,0.3-0.5,0.6-0.8,0.9l-3.8,4.5h6.3v1.1h-7.8v-1L603.1,702.5z"/>
	<path class="st0" d="M609.4,707.3c0.4,0.2,0.8,0.4,1.2,0.5c0.4,0.1,0.9,0.2,1.4,0.2c0.6,0,1.1-0.1,1.6-0.3s0.8-0.6,1-1
		c0.2-0.4,0.4-1,0.5-1.6c0.1-0.6,0.2-1.3,0.2-2.1c-0.1,0.2-0.2,0.4-0.4,0.6s-0.4,0.4-0.6,0.6s-0.6,0.3-0.9,0.4s-0.7,0.2-1.2,0.2
		c-0.5,0-1-0.1-1.5-0.3c-0.5-0.2-0.9-0.4-1.2-0.8c-0.4-0.3-0.6-0.7-0.9-1.2c-0.2-0.5-0.3-1-0.3-1.6v-0.4c0-0.6,0.1-1.1,0.3-1.6
		s0.5-0.9,0.8-1.2c0.4-0.3,0.8-0.6,1.3-0.8c0.5-0.2,1-0.3,1.6-0.3c0.6,0,1.1,0.1,1.6,0.3c0.5,0.2,0.9,0.5,1.3,0.9
		c0.4,0.4,0.7,0.9,0.9,1.6c0.2,0.6,0.3,1.4,0.3,2.2v0.5c0,1.3-0.1,2.5-0.3,3.4s-0.5,1.6-0.8,2.2c-0.4,0.6-0.8,0.9-1.4,1.2
		s-1.2,0.3-2,0.3c-0.6,0-1.1-0.1-1.6-0.2c-0.5-0.1-1-0.4-1.5-0.6L609.4,707.3z M615.2,700.7c0-0.5-0.1-0.9-0.2-1.3
		c-0.1-0.4-0.3-0.7-0.6-1c-0.2-0.3-0.5-0.5-0.9-0.6c-0.3-0.2-0.7-0.2-1.1-0.2s-0.8,0.1-1.2,0.2c-0.4,0.1-0.7,0.3-0.9,0.6
		c-0.3,0.2-0.5,0.6-0.6,0.9c-0.1,0.4-0.2,0.8-0.2,1.2v0.3c0,0.5,0.1,0.9,0.2,1.2c0.2,0.4,0.4,0.7,0.6,0.9c0.3,0.2,0.6,0.4,0.9,0.6
		c0.3,0.1,0.7,0.2,1.1,0.2c0.4,0,0.7-0.1,1-0.2c0.3-0.1,0.6-0.3,0.9-0.6s0.5-0.5,0.6-0.9c0.2-0.3,0.2-0.7,0.2-1.1V700.7z"/>
	<path class="st0" d="M626.9,703.7c0,1.7-0.3,3.1-1,4c-0.7,0.9-1.7,1.4-3.2,1.4c-1.5,0-2.5-0.5-3.2-1.4c-0.7-0.9-1-2.3-1-4v-1.9
		c0-1.7,0.3-3,1-4c0.7-0.9,1.7-1.4,3.1-1.4c1.5,0,2.5,0.5,3.2,1.4c0.7,0.9,1,2.2,1,4V703.7z M625.7,701.8c0-1.5-0.2-2.6-0.7-3.3
		c-0.5-0.7-1.2-1-2.2-1c-0.9,0-1.7,0.3-2.2,1c-0.5,0.7-0.8,1.8-0.8,3.3v1.9c0,1.5,0.3,2.6,0.8,3.3c0.5,0.7,1.2,1,2.2,1
		c1,0,1.7-0.3,2.2-1c0.5-0.7,0.7-1.8,0.7-3.3V701.8z"/>
	<path class="st0" d="M636.3,703.1h-6.9v-6.9h6.9V703.1z M635.2,697.2h-4.6v4.8h4.6V697.2z M636.7,704.7c0.6,0,1.2,0.1,1.8,0.2
		c0.6,0.1,1.1,0.3,1.5,0.6s0.8,0.6,1,0.9c0.2,0.4,0.4,0.8,0.4,1.2v0.7c0,0.4-0.1,0.8-0.4,1.2c-0.2,0.4-0.6,0.7-1,0.9
		c-0.4,0.2-0.9,0.4-1.5,0.6c-0.6,0.1-1.2,0.2-1.8,0.2c-0.6,0-1.2-0.1-1.8-0.2c-0.6-0.1-1.1-0.3-1.5-0.6c-0.4-0.2-0.8-0.6-1-0.9
		c-0.2-0.4-0.4-0.8-0.4-1.2v-0.7c0-0.5,0.1-0.9,0.4-1.2c0.2-0.4,0.6-0.7,1-0.9c0.4-0.2,0.9-0.4,1.5-0.6
		C635.5,704.8,636.1,704.7,636.7,704.7z M636.7,710.2c0.5,0,0.9,0,1.3-0.1s0.8-0.2,1.1-0.4c0.3-0.2,0.6-0.4,0.8-0.6
		c0.2-0.2,0.3-0.5,0.3-0.8v-0.6c0-0.3-0.1-0.6-0.3-0.8c-0.2-0.2-0.5-0.4-0.8-0.6c-0.3-0.2-0.7-0.3-1.1-0.4s-0.9-0.1-1.3-0.1
		c-0.5,0-0.9,0-1.3,0.1c-0.4,0.1-0.8,0.2-1.1,0.4c-0.3,0.2-0.6,0.4-0.8,0.6c-0.2,0.2-0.3,0.5-0.3,0.8v0.6c0,0.3,0.1,0.6,0.3,0.8
		c0.2,0.2,0.5,0.4,0.8,0.6c0.3,0.2,0.7,0.3,1.1,0.4C635.9,710.1,636.3,710.2,636.7,710.2z M640.2,697.6v-2.4h1.2v9.1h-1.2v-2.7h-2.8
		v-1.1h2.8v-2h-2.8v-1.1H640.2z"/>
	<path class="st0" d="M645.9,703.8c0,1.3,0.2,2.6,0.5,3.8c0.3,1.3,0.9,2.5,1.8,3.7h-1.1c-0.9-1-1.5-2.2-1.9-3.4
		c-0.4-1.3-0.6-2.7-0.6-4.2V703c0-1.5,0.2-2.9,0.6-4.2c0.4-1.3,1-2.4,1.9-3.4h1.1c-0.8,1.1-1.4,2.3-1.8,3.6s-0.5,2.6-0.5,3.9V703.8z
		"/>
	<path class="st0" d="M653.9,708.9v-10.8l-3,1.8l-0.5-1l3.8-2.3h0.9v12.3H653.9z"/>
	<path class="st0" d="M664,703.8c-0.6,0-1.1-0.1-1.6-0.3c-0.5-0.2-0.9-0.5-1.2-0.8c-0.3-0.3-0.6-0.7-0.8-1.1
		c-0.2-0.4-0.3-0.8-0.3-1.2v-1c0-0.4,0.1-0.8,0.3-1.2c0.2-0.4,0.4-0.8,0.8-1.1c0.3-0.3,0.7-0.6,1.2-0.8c0.5-0.2,1-0.3,1.6-0.3
		c0.6,0,1.1,0.1,1.6,0.3s0.9,0.5,1.2,0.8c0.3,0.3,0.6,0.7,0.8,1.1c0.2,0.4,0.3,0.8,0.3,1.2v1c0,0.4-0.1,0.8-0.3,1.2
		c-0.2,0.4-0.4,0.8-0.8,1.1s-0.7,0.6-1.2,0.8S664.6,703.8,664,703.8z M664,697c-0.4,0-0.8,0.1-1.1,0.2c-0.3,0.1-0.6,0.3-0.8,0.5
		c-0.2,0.2-0.4,0.5-0.5,0.8c-0.1,0.3-0.2,0.6-0.2,0.9v0.8c0,0.3,0.1,0.6,0.2,0.9c0.1,0.3,0.3,0.6,0.5,0.8c0.2,0.2,0.5,0.4,0.8,0.5
		s0.7,0.2,1.1,0.2c0.4,0,0.8-0.1,1.1-0.2c0.3-0.1,0.6-0.3,0.8-0.5s0.4-0.5,0.5-0.8s0.2-0.6,0.2-0.9v-0.8c0-0.3-0.1-0.6-0.2-0.9
		c-0.1-0.3-0.3-0.6-0.5-0.8s-0.5-0.4-0.8-0.5C664.7,697.1,664.4,697,664,697z M664,709.5h8.7v1.1h-9.9v-5.1h1.2V709.5z M672.3,706.4
		h-1.2v-11.1h1.2V706.4z"/>
	<path class="st0" d="M675.7,696.2h7.1v1.1h-5.9v4.8c0.9,0,1.6,0,2.2,0c0.6,0,1.2,0,1.8-0.1s1.1-0.1,1.6-0.1c0.5,0,1.1-0.1,1.7-0.2
		l0.1,1.1c-0.4,0-0.8,0.1-1.2,0.1s-0.7,0.1-1.1,0.1s-0.8,0.1-1.2,0.1s-0.9,0-1.4,0c-0.5,0-1.1,0-1.7,0s-1.3,0-2.1,0V696.2z
		 M682.6,704.7c0.6,0,1.2,0.1,1.8,0.2c0.6,0.1,1.1,0.3,1.5,0.6c0.4,0.2,0.8,0.6,1,0.9c0.2,0.4,0.4,0.8,0.4,1.2v0.6
		c0,0.4-0.1,0.8-0.4,1.2c-0.2,0.4-0.6,0.7-1,0.9c-0.4,0.2-0.9,0.4-1.5,0.6c-0.6,0.1-1.2,0.2-1.8,0.2s-1.2-0.1-1.8-0.2
		c-0.6-0.1-1.1-0.3-1.5-0.6c-0.4-0.2-0.8-0.6-1-0.9c-0.2-0.4-0.4-0.8-0.4-1.2v-0.6c0-0.5,0.1-0.9,0.4-1.2c0.2-0.4,0.6-0.7,1-0.9
		c0.4-0.2,0.9-0.4,1.5-0.6C681.4,704.8,682,704.7,682.6,704.7z M682.6,710.2c0.5,0,0.9,0,1.3-0.1c0.4-0.1,0.8-0.2,1.1-0.4
		c0.3-0.2,0.6-0.4,0.8-0.6c0.2-0.2,0.3-0.5,0.3-0.8v-0.5c0-0.3-0.1-0.6-0.3-0.8c-0.2-0.2-0.4-0.4-0.8-0.6s-0.7-0.3-1.1-0.4
		s-0.9-0.1-1.3-0.1s-0.9,0-1.3,0.1c-0.4,0.1-0.8,0.2-1.1,0.4c-0.3,0.2-0.6,0.4-0.8,0.6c-0.2,0.2-0.3,0.5-0.3,0.8v0.5
		c0,0.3,0.1,0.6,0.3,0.8c0.2,0.2,0.4,0.4,0.8,0.6c0.3,0.2,0.7,0.3,1.1,0.4C681.7,710.1,682.1,710.2,682.6,710.2z M687.1,699h2.4v1.1
		h-2.4v4.3h-1.2v-9.1h1.2V699z"/>
	<path class="st0" d="M699.3,708.9v-10.8l-3,1.8l-0.5-1l3.8-2.3h0.9v12.3H699.3z"/>
	<path class="st0" d="M712.2,701.2v3.9h1.8v1.1h-1.8v2.7H711v-2.7h-6.1v-1.1l5.9-8.4h1.4l-5.9,8.4h4.8v-3.9H712.2z"/>
	<path class="st0" d="M720.3,702.5c0.3-0.4,0.6-0.7,0.8-1c0.2-0.3,0.4-0.5,0.5-0.8c0.1-0.2,0.2-0.4,0.2-0.6c0-0.2,0.1-0.3,0.1-0.5
		v-0.1c0-0.6-0.2-1.1-0.6-1.5c-0.4-0.4-1-0.5-1.7-0.5c-0.5,0-1.1,0.1-1.5,0.4c-0.5,0.3-0.9,0.7-1.3,1.5l-1-0.6
		c0.1-0.3,0.3-0.5,0.5-0.8c0.2-0.3,0.5-0.5,0.8-0.8c0.3-0.2,0.7-0.4,1.1-0.6c0.4-0.1,0.9-0.2,1.4-0.2c0.5,0,1,0.1,1.5,0.2
		c0.4,0.1,0.8,0.4,1.1,0.6c0.3,0.3,0.5,0.6,0.7,1s0.3,0.8,0.3,1.2v0.2c0,0.3-0.1,0.6-0.2,1s-0.3,0.6-0.5,0.9
		c-0.2,0.3-0.4,0.6-0.7,0.9c-0.2,0.3-0.5,0.6-0.8,0.9l-3.8,4.5h6.3v1.1h-7.8v-1L720.3,702.5z"/>
	<path class="st0" d="M725.9,707.7h1.7v1.7h-1.7V707.7z"/>
	<path class="st0" d="M733.1,708.9h-1.3l5-11.2h-6.9v-1.1h8.2v0.9L733.1,708.9z"/>
	<path class="st0" d="M740.2,703.8c0.9-0.4,1.7-0.8,2.3-1.1c0.6-0.3,1.2-0.6,1.6-0.9c0.4-0.3,0.8-0.5,1-0.8c0.3-0.2,0.5-0.5,0.6-0.8
		c0.1-0.3,0.2-0.5,0.3-0.8c0-0.3,0.1-0.6,0.1-1v-1.2h-5.4v-1.1h6.5v2.3c0,0.4,0,0.7-0.1,1h4v-4.3h1.2v11.1h-1.2v-5.8H747
		c-0.1,0.4-0.4,0.7-0.6,1c-0.3,0.3-0.7,0.6-1.2,1c-0.5,0.3-1.1,0.7-1.8,1s-1.6,0.8-2.6,1.2L740.2,703.8z M744.2,709.5h8.7v1.1H743
		v-5.1h1.2V709.5z"/>
	<path class="st0" d="M757.2,703c0-1.4-0.2-2.7-0.5-3.9c-0.4-1.3-1-2.4-1.8-3.6h1.1c0.8,1,1.5,2.1,1.9,3.4c0.4,1.3,0.6,2.7,0.6,4.2
		v0.7c0,1.5-0.2,2.9-0.6,4.2c-0.4,1.3-1,2.4-1.9,3.4h-1.1c0.9-1.2,1.5-2.4,1.8-3.7c0.3-1.3,0.5-2.5,0.5-3.8V703z"/>
</g>
<g>
	<path class="st0" d="M616.3,481.3c-0.4-0.2-0.8-0.4-1.2-0.5c-0.4-0.1-0.9-0.2-1.4-0.2c-0.6,0-1.1,0.1-1.5,0.3c-0.4,0.2-0.7,0.6-1,1
		c-0.3,0.4-0.5,1-0.6,1.6c-0.1,0.6-0.2,1.4-0.3,2.2c0.1-0.2,0.2-0.4,0.4-0.6s0.4-0.4,0.6-0.6c0.3-0.2,0.6-0.3,0.9-0.4
		c0.3-0.1,0.7-0.2,1.2-0.2c0.5,0,1,0.1,1.5,0.3s0.9,0.4,1.2,0.7s0.6,0.7,0.8,1.2c0.2,0.5,0.3,1,0.3,1.6v0.4c0,0.6-0.1,1.1-0.3,1.6
		s-0.5,0.9-0.8,1.2c-0.4,0.3-0.8,0.6-1.3,0.8c-0.5,0.2-1,0.3-1.6,0.3c-0.6,0-1.1-0.1-1.6-0.3s-0.9-0.5-1.3-0.9s-0.7-0.9-0.9-1.6
		s-0.3-1.4-0.3-2.2v-0.4c0-1.3,0.1-2.4,0.3-3.3c0.2-0.9,0.5-1.7,0.9-2.2c0.4-0.6,0.9-1,1.4-1.3c0.6-0.3,1.2-0.4,1.9-0.4
		c0.6,0,1.1,0.1,1.6,0.2c0.5,0.1,1,0.4,1.5,0.6L616.3,481.3z M610.5,488c0,0.5,0.1,0.9,0.2,1.3c0.1,0.4,0.3,0.7,0.6,1
		c0.2,0.3,0.5,0.5,0.9,0.6s0.7,0.2,1.1,0.2s0.8-0.1,1.2-0.2c0.4-0.1,0.7-0.3,0.9-0.6c0.3-0.2,0.5-0.5,0.6-0.9
		c0.1-0.4,0.2-0.8,0.2-1.2v-0.3c0-0.5-0.1-0.9-0.2-1.2c-0.2-0.4-0.4-0.7-0.6-0.9c-0.3-0.2-0.6-0.4-0.9-0.6s-0.7-0.2-1.1-0.2
		c-0.4,0-0.7,0.1-1.1,0.2c-0.3,0.1-0.6,0.3-0.9,0.6c-0.3,0.2-0.5,0.5-0.6,0.9c-0.2,0.3-0.2,0.7-0.2,1.1V488z"/>
	<path class="st0" d="M626.5,481.3c-0.4-0.2-0.8-0.4-1.2-0.5c-0.4-0.1-0.9-0.2-1.4-0.2c-0.6,0-1.1,0.1-1.5,0.3c-0.4,0.2-0.7,0.6-1,1
		c-0.3,0.4-0.5,1-0.6,1.6c-0.1,0.6-0.2,1.4-0.3,2.2c0.1-0.2,0.2-0.4,0.4-0.6s0.4-0.4,0.6-0.6c0.3-0.2,0.6-0.3,0.9-0.4
		c0.3-0.1,0.7-0.2,1.2-0.2c0.5,0,1,0.1,1.5,0.3s0.9,0.4,1.2,0.7s0.6,0.7,0.8,1.2c0.2,0.5,0.3,1,0.3,1.6v0.4c0,0.6-0.1,1.1-0.3,1.6
		s-0.5,0.9-0.8,1.2c-0.4,0.3-0.8,0.6-1.3,0.8c-0.5,0.2-1,0.3-1.6,0.3c-0.6,0-1.1-0.1-1.6-0.3s-0.9-0.5-1.3-0.9s-0.7-0.9-0.9-1.6
		s-0.3-1.4-0.3-2.2v-0.4c0-1.3,0.1-2.4,0.3-3.3c0.2-0.9,0.5-1.7,0.9-2.2c0.4-0.6,0.9-1,1.4-1.3c0.6-0.3,1.2-0.4,1.9-0.4
		c0.6,0,1.1,0.1,1.6,0.2c0.5,0.1,1,0.4,1.5,0.6L626.5,481.3z M620.7,488c0,0.5,0.1,0.9,0.2,1.3c0.1,0.4,0.3,0.7,0.6,1
		c0.2,0.3,0.5,0.5,0.9,0.6s0.7,0.2,1.1,0.2s0.8-0.1,1.2-0.2c0.4-0.1,0.7-0.3,0.9-0.6c0.3-0.2,0.5-0.5,0.6-0.9
		c0.1-0.4,0.2-0.8,0.2-1.2v-0.3c0-0.5-0.1-0.9-0.2-1.2c-0.2-0.4-0.4-0.7-0.6-0.9c-0.3-0.2-0.6-0.4-0.9-0.6s-0.7-0.2-1.1-0.2
		c-0.4,0-0.7,0.1-1.1,0.2c-0.3,0.1-0.6,0.3-0.9,0.6c-0.3,0.2-0.5,0.5-0.6,0.9c-0.2,0.3-0.2,0.7-0.2,1.1V488z"/>
	<path class="st0" d="M636.4,484.3v3.9h1.8v1.1h-1.8v2.7h-1.2v-2.7h-6.1v-1.1l5.9-8.4h1.4l-5.9,8.4h4.8v-3.9H636.4z"/>
	<path class="st0" d="M647.1,486.2h-6.9v-6.9h6.9V486.2z M646,480.3h-4.6v4.8h4.6V480.3z M647.5,487.8c0.6,0,1.2,0.1,1.8,0.2
		c0.6,0.1,1.1,0.3,1.5,0.6s0.8,0.6,1,0.9c0.2,0.4,0.4,0.8,0.4,1.2v0.7c0,0.4-0.1,0.8-0.4,1.2c-0.2,0.4-0.6,0.7-1,0.9
		c-0.4,0.2-0.9,0.4-1.5,0.6c-0.6,0.1-1.2,0.2-1.8,0.2c-0.6,0-1.2-0.1-1.8-0.2c-0.6-0.1-1.1-0.3-1.5-0.6c-0.4-0.2-0.8-0.6-1-0.9
		c-0.2-0.4-0.4-0.8-0.4-1.2v-0.7c0-0.5,0.1-0.9,0.4-1.2c0.2-0.4,0.6-0.7,1-0.9c0.4-0.2,0.9-0.4,1.5-0.6
		C646.3,487.9,646.9,487.8,647.5,487.8z M647.5,493.2c0.5,0,0.9,0,1.3-0.1s0.8-0.2,1.1-0.4c0.3-0.2,0.6-0.4,0.8-0.6
		c0.2-0.2,0.3-0.5,0.3-0.8v-0.6c0-0.3-0.1-0.6-0.3-0.8c-0.2-0.2-0.5-0.4-0.8-0.6c-0.3-0.2-0.7-0.3-1.1-0.4s-0.9-0.1-1.3-0.1
		c-0.5,0-0.9,0-1.3,0.1c-0.4,0.1-0.8,0.2-1.1,0.4c-0.3,0.2-0.6,0.4-0.8,0.6c-0.2,0.2-0.3,0.5-0.3,0.8v0.6c0,0.3,0.1,0.6,0.3,0.8
		c0.2,0.2,0.5,0.4,0.8,0.6c0.3,0.2,0.7,0.3,1.1,0.4C646.7,493.2,647.1,493.2,647.5,493.2z M651,480.7v-2.4h1.2v9.1H651v-2.7h-2.8
		v-1.1h2.8v-2h-2.8v-1.1H651z"/>
	<path class="st0" d="M656.7,486.9c0,1.3,0.2,2.6,0.5,3.8c0.3,1.3,0.9,2.5,1.8,3.7h-1.1c-0.9-1-1.5-2.2-1.9-3.4
		c-0.4-1.3-0.6-2.7-0.6-4.2v-0.7c0-1.5,0.2-2.9,0.6-4.2c0.4-1.3,1-2.4,1.9-3.4h1.1c-0.8,1.1-1.4,2.3-1.8,3.6s-0.5,2.6-0.5,3.9V486.9
		z"/>
	<path class="st0" d="M664.7,492v-10.8l-3,1.8l-0.5-1l3.8-2.3h0.9V492H664.7z"/>
	<path class="st0" d="M674.8,486.8c-0.6,0-1.1-0.1-1.6-0.3c-0.5-0.2-0.9-0.5-1.2-0.8c-0.3-0.3-0.6-0.7-0.8-1.1
		c-0.2-0.4-0.3-0.8-0.3-1.2v-1c0-0.4,0.1-0.8,0.3-1.2c0.2-0.4,0.4-0.8,0.8-1.1c0.3-0.3,0.7-0.6,1.2-0.8c0.5-0.2,1-0.3,1.6-0.3
		c0.6,0,1.1,0.1,1.6,0.3s0.9,0.5,1.2,0.8c0.3,0.3,0.6,0.7,0.8,1.1c0.2,0.4,0.3,0.8,0.3,1.2v1c0,0.4-0.1,0.8-0.3,1.2
		c-0.2,0.4-0.4,0.8-0.8,1.1s-0.7,0.6-1.2,0.8S675.4,486.8,674.8,486.8z M674.8,480.1c-0.4,0-0.8,0.1-1.1,0.2
		c-0.3,0.1-0.6,0.3-0.8,0.5c-0.2,0.2-0.4,0.5-0.5,0.8c-0.1,0.3-0.2,0.6-0.2,0.9v0.8c0,0.3,0.1,0.6,0.2,0.9c0.1,0.3,0.3,0.6,0.5,0.8
		c0.2,0.2,0.5,0.4,0.8,0.5s0.7,0.2,1.1,0.2c0.4,0,0.8-0.1,1.1-0.2c0.3-0.1,0.6-0.3,0.8-0.5s0.4-0.5,0.5-0.8s0.2-0.6,0.2-0.9v-0.8
		c0-0.3-0.1-0.6-0.2-0.9c-0.1-0.3-0.3-0.6-0.5-0.8s-0.5-0.4-0.8-0.5C675.5,480.1,675.2,480.1,674.8,480.1z M674.8,492.6h8.7v1.1
		h-9.9v-5.1h1.2V492.6z M683.1,489.4h-1.2v-11.1h1.2V489.4z"/>
	<path class="st0" d="M686.5,479.3h7.1v1.1h-5.9v4.8c0.9,0,1.6,0,2.2,0c0.6,0,1.2,0,1.8-0.1s1.1-0.1,1.6-0.1c0.5,0,1.1-0.1,1.7-0.2
		l0.1,1.1c-0.4,0-0.8,0.1-1.2,0.1s-0.7,0.1-1.1,0.1s-0.8,0.1-1.2,0.1s-0.9,0-1.4,0c-0.5,0-1.1,0-1.7,0s-1.3,0-2.1,0V479.3z
		 M693.4,487.8c0.6,0,1.2,0.1,1.8,0.2c0.6,0.1,1.1,0.3,1.5,0.6c0.4,0.2,0.8,0.6,1,0.9c0.2,0.4,0.4,0.8,0.4,1.2v0.6
		c0,0.4-0.1,0.8-0.4,1.2c-0.2,0.4-0.6,0.7-1,0.9c-0.4,0.2-0.9,0.4-1.5,0.6c-0.6,0.1-1.2,0.2-1.8,0.2s-1.2-0.1-1.8-0.2
		c-0.6-0.1-1.1-0.3-1.5-0.6c-0.4-0.2-0.8-0.6-1-0.9c-0.2-0.4-0.4-0.8-0.4-1.2v-0.6c0-0.5,0.1-0.9,0.4-1.2c0.2-0.4,0.6-0.7,1-0.9
		c0.4-0.2,0.9-0.4,1.5-0.6C692.2,487.9,692.8,487.8,693.4,487.8z M693.4,493.2c0.5,0,0.9,0,1.3-0.1c0.4-0.1,0.8-0.2,1.1-0.4
		c0.3-0.2,0.6-0.4,0.8-0.6c0.2-0.2,0.3-0.5,0.3-0.8v-0.5c0-0.3-0.1-0.6-0.3-0.8c-0.2-0.2-0.4-0.4-0.8-0.6s-0.7-0.3-1.1-0.4
		s-0.9-0.1-1.3-0.1s-0.9,0-1.3,0.1c-0.4,0.1-0.8,0.2-1.1,0.4c-0.3,0.2-0.6,0.4-0.8,0.6c-0.2,0.2-0.3,0.5-0.3,0.8v0.5
		c0,0.3,0.1,0.6,0.3,0.8c0.2,0.2,0.4,0.4,0.8,0.6c0.3,0.2,0.7,0.3,1.1,0.4C692.5,493.2,692.9,493.2,693.4,493.2z M697.9,482.1h2.4
		v1.1h-2.4v4.3h-1.2v-9.1h1.2V482.1z"/>
	<path class="st0" d="M713,481.3c-0.4-0.2-0.8-0.4-1.2-0.5c-0.4-0.1-0.9-0.2-1.4-0.2c-0.6,0-1.1,0.1-1.5,0.3c-0.4,0.2-0.7,0.6-1,1
		c-0.3,0.4-0.5,1-0.6,1.6c-0.1,0.6-0.2,1.4-0.3,2.2c0.1-0.2,0.2-0.4,0.4-0.6s0.4-0.4,0.6-0.6c0.3-0.2,0.6-0.3,0.9-0.4
		c0.3-0.1,0.7-0.2,1.2-0.2c0.5,0,1,0.1,1.5,0.3s0.9,0.4,1.2,0.7s0.6,0.7,0.8,1.2c0.2,0.5,0.3,1,0.3,1.6v0.4c0,0.6-0.1,1.1-0.3,1.6
		s-0.5,0.9-0.8,1.2c-0.4,0.3-0.8,0.6-1.3,0.8c-0.5,0.2-1,0.3-1.6,0.3c-0.6,0-1.1-0.1-1.6-0.3s-0.9-0.5-1.3-0.9s-0.7-0.9-0.9-1.6
		s-0.3-1.4-0.3-2.2v-0.4c0-1.3,0.1-2.4,0.3-3.3c0.2-0.9,0.5-1.7,0.9-2.2c0.4-0.6,0.9-1,1.4-1.3c0.6-0.3,1.2-0.4,1.9-0.4
		c0.6,0,1.1,0.1,1.6,0.2c0.5,0.1,1,0.4,1.5,0.6L713,481.3z M707.3,488c0,0.5,0.1,0.9,0.2,1.3c0.1,0.4,0.3,0.7,0.6,1
		c0.2,0.3,0.5,0.5,0.9,0.6s0.7,0.2,1.1,0.2s0.8-0.1,1.2-0.2c0.4-0.1,0.7-0.3,0.9-0.6c0.3-0.2,0.5-0.5,0.6-0.9
		c0.1-0.4,0.2-0.8,0.2-1.2v-0.3c0-0.5-0.1-0.9-0.2-1.2c-0.2-0.4-0.4-0.7-0.6-0.9c-0.3-0.2-0.6-0.4-0.9-0.6s-0.7-0.2-1.1-0.2
		c-0.4,0-0.7,0.1-1.1,0.2c-0.3,0.1-0.6,0.3-0.9,0.6c-0.3,0.2-0.5,0.5-0.6,0.9c-0.2,0.3-0.2,0.7-0.2,1.1V488z"/>
	<path class="st0" d="M720.9,485.6c0.3-0.4,0.6-0.7,0.8-1c0.2-0.3,0.4-0.5,0.5-0.8c0.1-0.2,0.2-0.4,0.2-0.6c0-0.2,0.1-0.3,0.1-0.5
		v-0.1c0-0.6-0.2-1.1-0.6-1.5c-0.4-0.4-1-0.5-1.7-0.5c-0.5,0-1.1,0.1-1.5,0.4c-0.5,0.3-0.9,0.7-1.3,1.5l-1-0.6
		c0.1-0.3,0.3-0.5,0.5-0.8c0.2-0.3,0.5-0.5,0.8-0.8c0.3-0.2,0.7-0.4,1.1-0.6c0.4-0.1,0.9-0.2,1.4-0.2c0.5,0,1,0.1,1.5,0.2
		c0.4,0.1,0.8,0.4,1.1,0.6c0.3,0.3,0.5,0.6,0.7,1s0.3,0.8,0.3,1.2v0.2c0,0.3-0.1,0.6-0.2,1s-0.3,0.6-0.5,0.9
		c-0.2,0.3-0.4,0.6-0.7,0.9c-0.2,0.3-0.5,0.6-0.8,0.9l-3.8,4.5h6.3v1.1h-7.8v-1L720.9,485.6z"/>
	<path class="st0" d="M726.5,490.8h1.7v1.7h-1.7V490.8z"/>
	<path class="st0" d="M730.8,481.4c0.1-0.2,0.3-0.5,0.5-0.7c0.2-0.2,0.5-0.4,0.8-0.6s0.6-0.3,1-0.4c0.4-0.1,0.8-0.2,1.2-0.2
		c0.6,0,1.1,0.1,1.5,0.2c0.4,0.1,0.8,0.4,1.1,0.6c0.3,0.3,0.6,0.6,0.7,1s0.3,0.8,0.3,1.2v0.2c0,0.2,0,0.5-0.1,0.8
		c-0.1,0.3-0.2,0.5-0.3,0.8c-0.2,0.2-0.4,0.5-0.6,0.7c-0.3,0.2-0.6,0.4-1,0.5c0.9,0.1,1.5,0.5,1.9,1c0.4,0.5,0.7,1.1,0.7,1.9v0.3
		c0,0.4-0.1,0.9-0.2,1.3c-0.1,0.4-0.4,0.8-0.7,1.1c-0.3,0.3-0.7,0.6-1.3,0.8c-0.5,0.2-1.2,0.3-1.9,0.3c-0.7,0-1.4-0.1-2.1-0.3
		c-0.7-0.2-1.3-0.6-1.9-1l0.6-1c0.6,0.4,1.2,0.7,1.7,0.9c0.5,0.2,1.1,0.3,1.6,0.3c0.5,0,1-0.1,1.4-0.2s0.7-0.3,0.9-0.6
		s0.4-0.5,0.5-0.8c0.1-0.3,0.2-0.6,0.2-0.9v-0.2c0-0.5-0.1-0.8-0.3-1.1c-0.2-0.3-0.4-0.5-0.7-0.7c-0.3-0.2-0.6-0.3-0.9-0.4
		c-0.3-0.1-0.6-0.1-0.9-0.1h-1.4v-1h1.4c0.4,0,0.7-0.1,1-0.2c0.3-0.1,0.5-0.3,0.7-0.6s0.3-0.5,0.4-0.8s0.1-0.5,0.1-0.8v-0.1
		c0-0.6-0.2-1.1-0.6-1.5c-0.4-0.4-1-0.5-1.8-0.5c-0.5,0-1,0.1-1.4,0.3s-0.9,0.6-1.2,1.1L730.8,481.4z"/>
	<path class="st0" d="M740.8,486.9c0.9-0.4,1.7-0.8,2.3-1.1c0.6-0.3,1.2-0.6,1.6-0.9c0.4-0.3,0.8-0.5,1-0.8c0.3-0.2,0.5-0.5,0.6-0.8
		c0.1-0.3,0.2-0.5,0.3-0.8c0-0.3,0.1-0.6,0.1-1v-1.2h-5.4v-1.1h6.5v2.3c0,0.4,0,0.7-0.1,1h4v-4.3h1.2v11.1h-1.2v-5.8h-4.3
		c-0.1,0.4-0.4,0.7-0.6,1c-0.3,0.3-0.7,0.6-1.2,1c-0.5,0.3-1.1,0.7-1.8,1s-1.6,0.8-2.6,1.2L740.8,486.9z M744.8,492.6h8.7v1.1h-9.9
		v-5.1h1.2V492.6z"/>
	<path class="st0" d="M757.8,486c0-1.4-0.2-2.7-0.5-3.9c-0.4-1.3-1-2.4-1.8-3.6h1.1c0.8,1,1.5,2.1,1.9,3.4c0.4,1.3,0.6,2.7,0.6,4.2
		v0.7c0,1.5-0.2,2.9-0.6,4.2c-0.4,1.3-1,2.4-1.9,3.4h-1.1c0.9-1.2,1.5-2.4,1.8-3.7c0.3-1.3,0.5-2.5,0.5-3.8V486z"/>
</g>
<g>
	<path class="st1" d="M623.1,168.8c0-0.7,0.2-1.3,0.6-1.8c0.4-0.5,1-0.9,1.6-1.1c-0.6-0.3-1-0.7-1.4-1.1c-0.3-0.5-0.5-1.1-0.5-1.7
		v-0.3c0-0.4,0.1-0.8,0.3-1.2c0.2-0.4,0.4-0.7,0.7-1c0.3-0.3,0.7-0.5,1.1-0.6c0.4-0.2,0.9-0.2,1.4-0.2c0.5,0,1,0.1,1.4,0.2
		c0.4,0.2,0.8,0.4,1.1,0.6c0.3,0.3,0.6,0.6,0.7,1c0.2,0.4,0.3,0.8,0.3,1.2v0.3c0,0.6-0.2,1.2-0.5,1.7c-0.3,0.5-0.8,0.9-1.4,1.1
		c0.3,0.1,0.6,0.2,0.9,0.4c0.3,0.2,0.5,0.4,0.7,0.7c0.2,0.3,0.4,0.5,0.5,0.8c0.1,0.3,0.2,0.6,0.2,1v0.3c0,0.5-0.1,0.9-0.3,1.3
		s-0.5,0.8-0.8,1s-0.8,0.5-1.2,0.7c-0.5,0.2-1,0.2-1.6,0.2c-0.6,0-1.1-0.1-1.6-0.2c-0.5-0.2-0.9-0.4-1.2-0.7s-0.6-0.6-0.8-1
		s-0.3-0.9-0.3-1.3V168.8z M624.3,169.1c0,0.3,0.1,0.6,0.2,0.9c0.1,0.3,0.3,0.5,0.5,0.7c0.2,0.2,0.5,0.4,0.9,0.5
		c0.3,0.1,0.7,0.2,1.1,0.2c0.4,0,0.8-0.1,1.2-0.2c0.3-0.1,0.6-0.3,0.9-0.5c0.2-0.2,0.4-0.4,0.5-0.7c0.1-0.3,0.2-0.6,0.2-0.9v-0.2
		c0-0.4-0.1-0.7-0.2-1c-0.1-0.3-0.3-0.5-0.6-0.8c-0.2-0.2-0.5-0.4-0.9-0.5c-0.3-0.1-0.7-0.2-1.1-0.2c-0.4,0-0.8,0.1-1.1,0.2
		c-0.3,0.1-0.6,0.3-0.9,0.5c-0.2,0.2-0.4,0.5-0.6,0.8c-0.1,0.3-0.2,0.6-0.2,1V169.1z M624.7,163.1c0,0.3,0.1,0.6,0.2,0.9
		s0.3,0.5,0.5,0.8c0.2,0.2,0.5,0.4,0.8,0.5c0.3,0.1,0.6,0.2,1,0.2c0.4,0,0.7-0.1,1-0.2c0.3-0.1,0.5-0.3,0.8-0.5
		c0.2-0.2,0.4-0.5,0.5-0.8c0.1-0.3,0.2-0.6,0.2-0.9v-0.2c0-0.6-0.2-1.1-0.7-1.5c-0.4-0.4-1-0.6-1.7-0.6c-0.7,0-1.3,0.2-1.8,0.6
		c-0.4,0.4-0.6,0.9-0.6,1.5V163.1z"/>
	<path class="st1" d="M633.6,161.7c0.1-0.2,0.3-0.5,0.5-0.7c0.2-0.2,0.5-0.4,0.8-0.6s0.6-0.3,1-0.4c0.4-0.1,0.8-0.2,1.2-0.2
		c0.6,0,1.1,0.1,1.5,0.2c0.4,0.1,0.8,0.4,1.1,0.6c0.3,0.3,0.6,0.6,0.7,1s0.3,0.8,0.3,1.2v0.2c0,0.2,0,0.5-0.1,0.8
		c-0.1,0.3-0.2,0.5-0.3,0.8c-0.2,0.2-0.4,0.5-0.6,0.7c-0.3,0.2-0.6,0.4-1,0.5c0.9,0.1,1.5,0.5,1.9,1c0.4,0.5,0.7,1.1,0.7,1.9v0.3
		c0,0.4-0.1,0.9-0.2,1.3c-0.1,0.4-0.4,0.8-0.7,1.1c-0.3,0.3-0.7,0.6-1.3,0.8c-0.5,0.2-1.2,0.3-1.9,0.3c-0.7,0-1.4-0.1-2.1-0.3
		c-0.7-0.2-1.3-0.6-1.9-1l0.6-1c0.6,0.4,1.2,0.7,1.7,0.9c0.5,0.2,1.1,0.3,1.6,0.3c0.5,0,1-0.1,1.4-0.2s0.7-0.3,0.9-0.6
		s0.4-0.5,0.5-0.8c0.1-0.3,0.2-0.6,0.2-0.9v-0.2c0-0.5-0.1-0.8-0.3-1.1c-0.2-0.3-0.4-0.5-0.7-0.7c-0.3-0.2-0.6-0.3-0.9-0.4
		c-0.3-0.1-0.6-0.1-0.9-0.1h-1.4v-1h1.4c0.4,0,0.7-0.1,1-0.2c0.3-0.1,0.5-0.3,0.7-0.6s0.3-0.5,0.4-0.8s0.1-0.5,0.1-0.8v-0.1
		c0-0.6-0.2-1.1-0.6-1.5c-0.4-0.4-1-0.5-1.8-0.5c-0.5,0-1,0.1-1.4,0.3s-0.9,0.6-1.2,1.1L633.6,161.7z"/>
	<path class="st1" d="M648.2,165.8c0.3-0.4,0.6-0.7,0.8-1c0.2-0.3,0.4-0.5,0.5-0.8c0.1-0.2,0.2-0.4,0.2-0.6c0-0.2,0.1-0.3,0.1-0.5
		v-0.1c0-0.6-0.2-1.1-0.6-1.5c-0.4-0.4-1-0.5-1.7-0.5c-0.5,0-1.1,0.1-1.5,0.4c-0.5,0.3-0.9,0.7-1.3,1.5l-1-0.6
		c0.1-0.3,0.3-0.5,0.5-0.8c0.2-0.3,0.5-0.5,0.8-0.8c0.3-0.2,0.7-0.4,1.1-0.6c0.4-0.1,0.9-0.2,1.4-0.2c0.5,0,1,0.1,1.5,0.2
		c0.4,0.1,0.8,0.4,1.1,0.6c0.3,0.3,0.5,0.6,0.7,1s0.3,0.8,0.3,1.2v0.2c0,0.3-0.1,0.6-0.2,1s-0.3,0.6-0.5,0.9
		c-0.2,0.3-0.4,0.6-0.7,0.9c-0.2,0.3-0.5,0.6-0.8,0.9l-3.8,4.5h6.3v1.1h-7.8v-1L648.2,165.8z"/>
	<path class="st1" d="M661,166.4h-6.9v-6.9h6.9V166.4z M659.9,160.5h-4.6v4.8h4.6V160.5z M661.5,168c0.6,0,1.2,0.1,1.8,0.2
		c0.6,0.1,1.1,0.3,1.5,0.6s0.8,0.6,1,0.9c0.2,0.4,0.4,0.8,0.4,1.2v0.7c0,0.4-0.1,0.8-0.4,1.2c-0.2,0.4-0.6,0.7-1,0.9
		c-0.4,0.2-0.9,0.4-1.5,0.6c-0.6,0.1-1.2,0.2-1.8,0.2c-0.6,0-1.2-0.1-1.8-0.2c-0.6-0.1-1.1-0.3-1.5-0.6c-0.4-0.2-0.8-0.6-1-0.9
		c-0.2-0.4-0.4-0.8-0.4-1.2v-0.7c0-0.5,0.1-0.9,0.4-1.2c0.2-0.4,0.6-0.7,1-0.9c0.4-0.2,0.9-0.4,1.5-0.6
		C660.2,168.1,660.8,168,661.5,168z M661.5,173.5c0.5,0,0.9,0,1.3-0.1s0.8-0.2,1.1-0.4c0.3-0.2,0.6-0.4,0.8-0.6
		c0.2-0.2,0.3-0.5,0.3-0.8V171c0-0.3-0.1-0.6-0.3-0.8c-0.2-0.2-0.5-0.4-0.8-0.6c-0.3-0.2-0.7-0.3-1.1-0.4s-0.9-0.1-1.3-0.1
		c-0.5,0-0.9,0-1.3,0.1c-0.4,0.1-0.8,0.2-1.1,0.4c-0.3,0.2-0.6,0.4-0.8,0.6c-0.2,0.2-0.3,0.5-0.3,0.8v0.6c0,0.3,0.1,0.6,0.3,0.8
		c0.2,0.2,0.5,0.4,0.8,0.6c0.3,0.2,0.7,0.3,1.1,0.4C660.6,173.4,661,173.5,661.5,173.5z M664.9,160.9v-2.4h1.2v9.1h-1.2V165h-2.8
		V164h2.8v-2h-2.8v-1.1H664.9z"/>
	<path class="st1" d="M670.6,167.1c0,1.3,0.2,2.6,0.5,3.8c0.3,1.3,0.9,2.5,1.8,3.7h-1.1c-0.9-1-1.5-2.2-1.9-3.4
		c-0.4-1.3-0.6-2.7-0.6-4.2v-0.7c0-1.5,0.2-2.9,0.6-4.2c0.4-1.3,1-2.4,1.9-3.4h1.1c-0.8,1.1-1.4,2.3-1.8,3.6s-0.5,2.6-0.5,3.9V167.1
		z"/>
	<path class="st1" d="M678.6,172.2v-10.8l-3,1.8l-0.5-1l3.8-2.3h0.9v12.3H678.6z"/>
	<path class="st1" d="M688.7,167.1c-0.6,0-1.1-0.1-1.6-0.3c-0.5-0.2-0.9-0.5-1.2-0.8c-0.3-0.3-0.6-0.7-0.8-1.1
		c-0.2-0.4-0.3-0.8-0.3-1.2v-1c0-0.4,0.1-0.8,0.3-1.2c0.2-0.4,0.4-0.8,0.8-1.1c0.3-0.3,0.7-0.6,1.2-0.8c0.5-0.2,1-0.3,1.6-0.3
		c0.6,0,1.1,0.1,1.6,0.3s0.9,0.5,1.2,0.8c0.3,0.3,0.6,0.7,0.8,1.1c0.2,0.4,0.3,0.8,0.3,1.2v1c0,0.4-0.1,0.8-0.3,1.2
		c-0.2,0.4-0.4,0.8-0.8,1.1s-0.7,0.6-1.2,0.8S689.3,167.1,688.7,167.1z M688.7,160.3c-0.4,0-0.8,0.1-1.1,0.2
		c-0.3,0.1-0.6,0.3-0.8,0.5c-0.2,0.2-0.4,0.5-0.5,0.8c-0.1,0.3-0.2,0.6-0.2,0.9v0.8c0,0.3,0.1,0.6,0.2,0.9c0.1,0.3,0.3,0.6,0.5,0.8
		c0.2,0.2,0.5,0.4,0.8,0.5s0.7,0.2,1.1,0.2c0.4,0,0.8-0.1,1.1-0.2c0.3-0.1,0.6-0.3,0.8-0.5s0.4-0.5,0.5-0.8s0.2-0.6,0.2-0.9v-0.8
		c0-0.3-0.1-0.6-0.2-0.9c-0.1-0.3-0.3-0.6-0.5-0.8s-0.5-0.4-0.8-0.5C689.4,160.4,689.1,160.3,688.7,160.3z M688.7,172.8h8.7v1.1
		h-9.9v-5.1h1.2V172.8z M697,169.7h-1.2v-11.1h1.2V169.7z"/>
	<path class="st1" d="M700.5,159.5h7.1v1.1h-5.9v4.8c0.9,0,1.6,0,2.2,0c0.6,0,1.2,0,1.8-0.1s1.1-0.1,1.6-0.1c0.5,0,1.1-0.1,1.7-0.2
		l0.1,1.1c-0.4,0-0.8,0.1-1.2,0.1s-0.7,0.1-1.1,0.1s-0.8,0.1-1.2,0.1s-0.9,0-1.4,0c-0.5,0-1.1,0-1.7,0s-1.3,0-2.1,0V159.5z
		 M707.3,168c0.6,0,1.2,0.1,1.8,0.2c0.6,0.1,1.1,0.3,1.5,0.6c0.4,0.2,0.8,0.6,1,0.9c0.2,0.4,0.4,0.8,0.4,1.2v0.6
		c0,0.4-0.1,0.8-0.4,1.2c-0.2,0.4-0.6,0.7-1,0.9c-0.4,0.2-0.9,0.4-1.5,0.6c-0.6,0.1-1.2,0.2-1.8,0.2s-1.2-0.1-1.8-0.2
		c-0.6-0.1-1.1-0.3-1.5-0.6c-0.4-0.2-0.8-0.6-1-0.9c-0.2-0.4-0.4-0.8-0.4-1.2v-0.6c0-0.5,0.1-0.9,0.4-1.2c0.2-0.4,0.6-0.7,1-0.9
		c0.4-0.2,0.9-0.4,1.5-0.6C706.1,168.1,706.7,168,707.3,168z M707.3,173.5c0.5,0,0.9,0,1.3-0.1c0.4-0.1,0.8-0.2,1.1-0.4
		c0.3-0.2,0.6-0.4,0.8-0.6c0.2-0.2,0.3-0.5,0.3-0.8V171c0-0.3-0.1-0.6-0.3-0.8c-0.2-0.2-0.4-0.4-0.8-0.6s-0.7-0.3-1.1-0.4
		s-0.9-0.1-1.3-0.1s-0.9,0-1.3,0.1c-0.4,0.1-0.8,0.2-1.1,0.4c-0.3,0.2-0.6,0.4-0.8,0.6c-0.2,0.2-0.3,0.5-0.3,0.8v0.5
		c0,0.3,0.1,0.6,0.3,0.8c0.2,0.2,0.4,0.4,0.8,0.6c0.3,0.2,0.7,0.3,1.1,0.4C706.4,173.4,706.8,173.5,707.3,173.5z M711.8,162.3h2.4
		v1.1h-2.4v4.3h-1.2v-9.1h1.2V162.3z"/>
	<path class="st1" d="M726.8,168.5c0-1-0.2-1.7-0.7-2.2c-0.5-0.4-1.2-0.7-2-0.7c-0.5,0-1,0.1-1.4,0.3c-0.4,0.2-0.7,0.4-1,0.7h-1.1
		l0.4-6.7h6.3v1.1H722l-0.2,4.5c0.3-0.3,0.6-0.5,1.1-0.6c0.5-0.2,1-0.2,1.5-0.2c0.6,0,1.1,0.1,1.6,0.3s0.8,0.5,1.1,0.8
		s0.5,0.7,0.7,1.2s0.2,1,0.2,1.5v0.3c0,0.4-0.1,0.9-0.2,1.3s-0.4,0.8-0.7,1.2c-0.3,0.3-0.8,0.6-1.3,0.9c-0.5,0.2-1.2,0.3-1.9,0.3
		c-0.8,0-1.6-0.1-2.2-0.4c-0.6-0.2-1.2-0.6-1.8-1l0.6-1c0.6,0.5,1.2,0.8,1.7,1c0.5,0.2,1.1,0.3,1.7,0.3c0.5,0,1-0.1,1.4-0.2
		c0.4-0.2,0.7-0.4,0.9-0.6c0.2-0.2,0.4-0.5,0.5-0.8c0.1-0.3,0.2-0.6,0.2-0.9V168.5z"/>
	<path class="st1" d="M738.2,167c0,1.7-0.3,3.1-1,4c-0.7,0.9-1.7,1.4-3.2,1.4c-1.5,0-2.5-0.5-3.2-1.4c-0.7-0.9-1-2.3-1-4v-1.9
		c0-1.7,0.3-3,1-4c0.7-0.9,1.7-1.4,3.1-1.4c1.5,0,2.5,0.5,3.2,1.4c0.7,0.9,1,2.2,1,4V167z M737,165.1c0-1.5-0.2-2.6-0.7-3.3
		c-0.5-0.7-1.2-1-2.2-1c-0.9,0-1.7,0.3-2.2,1c-0.5,0.7-0.8,1.8-0.8,3.3v1.9c0,1.5,0.3,2.6,0.8,3.3c0.5,0.7,1.2,1,2.2,1
		c1,0,1.7-0.3,2.2-1c0.5-0.7,0.7-1.8,0.7-3.3V165.1z"/>
	<path class="st1" d="M740.4,167.1c0.9-0.4,1.7-0.8,2.3-1.1c0.6-0.3,1.2-0.6,1.6-0.9c0.4-0.3,0.8-0.5,1-0.8c0.3-0.2,0.5-0.5,0.6-0.8
		c0.1-0.3,0.2-0.5,0.3-0.8c0-0.3,0.1-0.6,0.1-1v-1.2h-5.4v-1.1h6.5v2.3c0,0.4,0,0.7-0.1,1h4v-4.3h1.2v11.1h-1.2v-5.8h-4.3
		c-0.1,0.4-0.4,0.7-0.6,1c-0.3,0.3-0.7,0.6-1.2,1c-0.5,0.3-1.1,0.7-1.8,1s-1.6,0.8-2.6,1.2L740.4,167.1z M744.3,172.8h8.7v1.1h-9.9
		v-5.1h1.2V172.8z"/>
	<path class="st1" d="M757.4,166.3c0-1.4-0.2-2.7-0.5-3.9c-0.4-1.3-1-2.4-1.8-3.6h1.1c0.8,1,1.5,2.1,1.9,3.4
		c0.4,1.3,0.6,2.7,0.6,4.2v0.7c0,1.5-0.2,2.9-0.6,4.2c-0.4,1.3-1,2.4-1.9,3.4H755c0.9-1.2,1.5-2.4,1.8-3.7c0.3-1.3,0.5-2.5,0.5-3.8
		V166.3z"/>
</g>
<text transform="matrix(1 0 0 1 -317.6178 733.2858)" class="st3" style="font-family:'NanumSquareR'; font-size:17px;">290명(1인당 142.7건)</text>
<g>
	<path class="st1" d="M1.2,182.9c1.3-0.7,2.3-1.4,3.1-1.9c0.8-0.5,1.4-1,1.8-1.5c0.4-0.5,0.7-0.9,0.8-1.4c0.1-0.5,0.2-1,0.2-1.7v-2
		H1.4v-1.1h6.8v3.1c0,0.5,0,1-0.1,1.4S8,178.6,7.8,179s-0.4,0.7-0.7,1.1c-0.3,0.4-0.7,0.7-1.1,1.1c-0.5,0.4-1,0.8-1.7,1.2
		c-0.7,0.4-1.5,0.9-2.4,1.5L1.2,182.9z M13.2,187.4H12v-15.5h1.2V187.4z"/>
	<path class="st1" d="M30.2,179.6v1h-6.4v3.3h-1.2v-3.3h-6.7v-1H30.2z M23,175.9c-0.1,0.2-0.3,0.4-0.7,0.6c-0.4,0.2-0.8,0.4-1.3,0.6
		c-0.5,0.2-1,0.4-1.5,0.6c-0.5,0.2-1.2,0.4-1.9,0.7l-0.5-0.9c1.5-0.5,2.7-0.9,3.6-1.3c0.4-0.1,0.6-0.3,0.9-0.4
		c0.2-0.1,0.4-0.3,0.5-0.4c0.1-0.2,0.2-0.3,0.3-0.5c0.1-0.2,0.1-0.4,0.1-0.6v-0.7h-4.7v-1h10.5v1h-4.7v0.7c0,0.2,0,0.4,0.1,0.6
		c0.1,0.2,0.1,0.3,0.3,0.5c0.1,0.2,0.3,0.3,0.5,0.4s0.5,0.3,0.9,0.4c0.4,0.2,0.9,0.4,1.6,0.6s1.3,0.5,2,0.7l-0.4,0.9
		c-0.7-0.2-1.3-0.4-1.9-0.7c-0.6-0.2-1.1-0.4-1.5-0.6c-0.5-0.2-1-0.4-1.3-0.6C23.4,176.3,23.1,176.1,23,175.9L23,175.9z M19.2,186.1
		h9.2v1.1H18v-4.7h1.2V186.1z"/>
</g>
<text transform="matrix(1 0 0 1 -317.6178 787.2858)" class="st3" style="font-family:'NanumSquareR'; font-size:17px;">664명(1인당 62.3건)</text>
<text transform="matrix(1 0 0 1 -317.6178 841.2858)" class="st3" style="font-family:'NanumSquareR'; font-size:17px;">832명(1인당 50건)</text>
<g>
	<path class="st3" d="M360.6,765.4c-0.4,0-1-0.1-1.3-0.1c-1.5-0.2-3-0.5-4.2-1.2c-0.1,0-0.2,0-0.3,0c-0.4,0.3-0.8,0.3-1.3,0.2
		c-1-0.2-1.9-0.3-3-0.5c0,0,0,0-0.1,0c0-0.3,0-0.6,0-1c0-0.6,0-1.2,0.1-1.8c0-0.5,0.1-1,0.3-1.6c0.2-0.7,0.3-1.4,0.4-2.1
		c0.3-2.2,0.2-4.3,0-6.5c-0.2-1.8-0.4-3.5-0.6-5.3c-0.1-1-0.1-2,0.1-3c0.3-2,0.7-4,1-6c0.1-0.1,0-0.2,0-0.3c-1.6-3.4-3.3-6.7-5-10.1
		c-0.4-1-1-1.7-1.5-2.6c-0.4-0.8-1-1.5-1.3-2.3c-0.7-1.3-1-2.6-1-4.1c0.1-1.5,0.5-3,1-4.3c0.4-1.4,1-2.8,1.8-4c0,0,0-0.1,0-0.2
		c-0.1-0.5,0.1-1,0.4-1.2c0.1-0.1,0.1-0.2,0.1-0.3c0-1,0.5-2,1.3-2.8c0.2-0.2,0.5-0.3,0.8-0.5c0.2-0.2,0.5-0.3,0.7-0.5
		c0.4-0.3,0.7-0.7,1-1.2c0.6-1.4,1.2-2.7,1.7-4.1c0.6-1.7,1.5-3.4,2.4-5.1c0.3-0.4,0.5-1,0.8-1.3c0.4-0.5,0.8-1,1.4-1
		c0.1-0.1,0.2-0.1,0.3-0.1c0.3,0,0.5,0,0.7,0c0.4,0.1,0.8,0.2,1.2,0.3c1,0.3,2,0.8,3,1.3c2.5,1,5,2.3,7.4,3.4c1,0.5,1.8,1,2.6,1.8
		c0.7,0.7,1.4,1.3,2.1,1.9c1,0.8,2.2,1.2,3.5,1s2.6-0.4,3.9-0.5c1-0.1,2,0.1,3,0.7c0.8,0.6,1.3,1.3,1.7,2.2c0.4,1,0.6,1.8,0.7,2.8
		c0,0.1,0,0.1,0,0.2c0,0.4,0,0.8,0,1.2c-0.1,0.3-0.1,0.6-0.2,1c-0.2,0.5-0.4,1-0.6,1.6c-0.2,0.4-0.3,0.8-0.3,1.3
		c0,0.2-0.1,0.4-0.4,0.5c-0.6,0.2-1.2,0.2-1.8,0c-0.3-0.1-0.5-0.4-0.5-0.7c0,0,0,0,0-0.1c-0.1,0-0.2,0.1-0.3,0.1
		c-0.6,0.1-1.2,0.3-1.9,0.5c-0.4,0.1-0.8,0.2-1.2,0c-0.1,0-0.2,0-0.3,0c-0.5,0.2-1,0.5-1.5,0.7c-0.4,0.2-0.6-0.1-0.6-0.4
		c0-0.2,0-0.3,0-0.5c-0.4,0.1-0.7-0.1-1-0.5c-0.3,0.3-0.7,0.2-1,0.2s-0.6,0-1,0c-0.2,0-0.4-0.1-0.5-0.3c-0.1-0.2-0.2-0.5-0.2-0.7
		c0-0.5,0-1,0.1-1.7c0-0.2,0-0.4-0.2-0.6c-0.1,0.1-0.1,0.1-0.1,0.2c-0.2,0.5-0.4,1-0.8,1.3c-1.2,1.2-2.4,2.6-3.3,4.1
		c-0.1,0-0.1,0.1-0.2,0.1s-0.2,0.1-0.3,0.2c-1,1.8-2,3.8-2.8,5.8c-0.1,0.4-0.3,1-0.5,1.3c-0.5,1-1,1.8-1.5,2.7c-1,1.6-1.7,3.3-2.3,5
		c-0.1,0.4-0.3,0.8-0.3,1.2c0,1-0.1,2.2-0.4,3.3c-0.2,0.6-0.2,1.2-0.1,1.9c0.2,0.8,0.1,1.6-0.2,2.4c-0.3,0.5-0.6,1-0.8,1.5
		c-0.1,0.2-0.2,0.4-0.2,0.6c-0.1,0.7-0.2,1.5-0.2,2.2c-0.1,1.5-0.2,3-0.2,4.5c0,1.6-0.1,3.3-0.1,5c0,0.1,0.1,0.1,0.1,0.2
		c0.2,0.3,0.5,0.5,0.6,0.8c0.3,0.6,0.4,1.2,0.5,1.9c0.1,0.3,0.1,0.6,0.3,1c0.6,0.7,1.3,1.3,2.1,1.7c0.4,0.3,1,0.4,1.4,0.4
		c0.7,0,1.5,0,2.2,0.1c0.5,0.1,1,0.3,1.3,0.6c0.3,0.3,0.4,0.6,0.1,1c-0.1,0.2-0.4,0.5-0.6,0.6c-0.8,0.5-1.7,0.7-2.6,0.8
		c-1.5,0.2-3,0-4.5-0.4c-0.3-0.1-0.6-0.2-1-0.3c0,0.1,0,0.1,0,0.1c0.1,0.2,0.3,0.4,0.4,0.6c0.8,1,1.6,1.7,2.8,2
		c1,0.3,1.9,0.5,2.8,0.8c0.3,0.1,0.5,0.2,0.8,0.4c0.3,0.2,0.4,0.6,0.2,1c-0.1,0.2-0.2,0.4-0.4,0.5c-0.6,0.5-1.3,0.8-2.1,1
		c-0.4,0.1-1,0.1-1.3,0.2C361.7,765.3,361.1,765.3,360.6,765.4z M359.7,715.5c-0.5,0.2-1,0.5-1.5,0.8c-0.2,0.1-0.3,0.1-0.5,0
		c-0.1,0.2-0.3,0.4-0.4,0.6c0,0.1,0,0.1,0,0.2c1,2.5,1.4,5,1.8,7.6c0,0.5,0.1,1,0.2,1.5c0.1-0.3,0.1-0.7,0.2-1
		c0.3-1.9,0.7-3.9,1.2-5.8c0.5-1.8,1.2-3.6,2.2-5.2c0-0.1,0-0.1,0-0.2c0.1,0,0.1,0,0,0C361.7,714.5,360.6,714.9,359.7,715.5z
		 M358.9,698.5L358.9,698.5c0.2-0.2,0.3-0.4,0.2-0.5c-0.2-0.2-0.6-0.2-0.8-0.1c0,0.1-0.1,0.1-0.1,0.2c-0.4,0.6-1,1-1.4,1.3
		c0,0,0,0-0.1,0.1l0,0C357.4,699.3,358.2,699.1,358.9,698.5z"/>
</g>
<g>
	<g>
		<path class="st0" d="M1399.2,416c0.6,0.7,0.8,1.8,2,1.4c0.1,0,0.3,0.1,0.3,0.1c1.6,1.2,3.2,2.2,4.6,3.5c1.5,1.4,1.5,3.3,1,5.2
			c-0.4,1.4-1,2.6-2,3.6c-0.9,0.9-1.8,1.9-2.6,2.9c-0.2,0.3-0.3,0.9-0.1,1.2c0.5,1,1.3,1.8,2.6,2.2c1.4,0.4,2.7,1,4.1,1.4
			c2.6,0.8,3.8,2.6,4.2,5.2c0,0.4,0.1,0.7,0.1,1.1c-0.4,2.4,1,4,2.3,5.7c1.2,1.7,2.3,3.5,3.5,5.2c1.7,2.2,1.9,4.8,2.2,7.4
			c0.3,3.3,0.9,6.5,1.3,9.8c0,0.2,0.1,0.3,0.1,0.5c0.4,1.8,0.3,1.9-1.5,2.4s-1.8,0.5-1.4,2.4c0.1,0.7,0.3,1.3,0.3,2
			c0.1,0.7-0.1,1.4,0.9,1.6c0.1,0,0.3,0.5,0.3,0.7c0,0.4-0.2,0.9-0.3,1.4c2.4,0.1,4.8,0.2,7.1,0.2c1,0,1.4,0.3,1.4,1.2
			c0,3.5,0.1,6.9,0.1,10.3c0,2.4,0,4.9-0.1,7.3c-0.1,1.7-0.3,2-2,2.1c-7.7,0.6-15.5,1.1-23.2,1.7c-2,0.2-2.6-0.6-3-2.4
			c-1.1-5.3-1.5-10.7-0.8-16.2c-0.3,0.6-0.7,1.2-0.9,1.8c-1.4,4.2-2.8,8.3-4.2,12.5c-0.3,0.9-0.8,1.9-1.2,2.7
			c-0.5,1-0.2,2.7,0.7,3.4c0.1,0.1,0.4,0.3,0.4,0.4c0.4,1.4,1.7,1.8,2.5,2.7c2.3,2.4,4.6,5,6.8,7.4c0.9,1,2,1.9,2.7,2.9
			c1.2,1.7,2.8,2.7,4.4,3.8c2.4,1.6,4.7,3.4,6.3,5.9c0.2,0.2,0.3,0.7,0.1,0.8c-1,1.2-2.1,2.3-3.1,3.4c-0.1,0.1-0.2,0.1-0.2,0.1
			c-1.4-0.4-1.8,0.8-2.4,1.5c-1.9,2.7-5,3.6-9.2,2.7c-0.8,0.4-1.9,0.1-2.8,0.3c-0.4,0.1-1-0.5-1.2-0.8c-0.2-0.4-0.1-1,0.1-1.4
			c0.2-0.5,0.6-0.9,1-1.2c1.7-1.1,4.2,1.4,5-0.2c0.1-0.2,0-0.5,0-0.6c-3.5-4.2-6.9-8.5-10.6-12.7c-3-3.4-6.1-6.6-9.2-9.9
			c-2-2-2.9-4.4-2.9-7.2c0-3-0.2-6-0.3-9.2c-0.7,0.7-1.4,1.3-2,1.9c-1.3,1.1-2.5,2.3-3.9,3.4c-0.8,0.6-1.2,1.4-1.3,2.4
			c-0.2,1.6-0.9,3.2-1.4,4.8c-0.6,2.2-1.4,4.3-1.9,6.5c-0.5,1.9-0.6,3.8-1,5.7c-0.6,3.2-1.2,6.4-2.1,9.6c-0.5,1.8-1.4,3.5-2.2,5.3
			c-0.3,0.7-0.7,1-1.5,0.6c-5.4-2.5-10.7-4.9-15.5-8.4c-0.7-0.5-1.3-1.1-1.9-1.8s-0.3-1.3,0.6-1.6c1.3-0.4,2.3,0.4,3.4,0.8
			c1.5,0.6,2.9,1.3,4.6,1.1c0.8-0.1,1.3-0.4,1.9-1c1.4-1.4,1.6-2.9,1.6-4.8c0-1.8,0.5-3.7,0.9-5.5c0.9-3.3,2-6.5,2.9-9.8
			c0.7-2.4,1.2-4.8,1.8-7.1c0.6-2.3,1.6-4.3,3.2-6.1c1.8-2,3.2-4.3,4.8-6.5c1.6-2.1,3.2-4.2,4.7-6.3c0.3-0.5,0.7-0.8-0.1-1.4
			c-0.8-0.5-0.7-1.5-0.4-2.3c0.9-2.3,2-4.7,2.9-7c1.3-3.1,2.6-6.1,3.8-9.2c0.4-1.1,0.2-2.3,0.3-3.5c-0.1-0.1-0.3-0.2-0.4-0.3
			c-0.9,0.4-1.7,0.8-2.5,1.3c-1.3,0.7-2.7,0.7-4.2,0.4c-4.3-1.1-8.7-2.1-13-3.2c-0.8-0.2-1.1-0.6-1.1-1.4c0-0.7,0.1-1.7-0.3-2.2
			s-1.3-0.5-2-0.8s-1.4-0.7-2.1-1c-1.4-0.7-2.8-1.3-4.2-2c-1-0.5-1-0.8-0.2-1.4c-0.5-0.3-1.1-0.7-1.6-1c0.1-0.2,0.2-0.4,0.2-0.5
			c0.2-0.1,0.5-0.3,0.5-0.4c0-0.7,0.5-0.8,1-0.8c0.3,0,0.6,0,0.9,0c-0.1-0.3-0.3-0.6-0.4-0.9c0.3-0.1,0.6-0.3,0.9-0.3
			c0.6,0,1.3,0.1,1.9,0.3c1.1,0.5,2,1.1,3.1,1.7c-0.2-0.7-0.3-1.4-0.4-2.1c0-0.3,0.2-0.7,0.4-1.1c0.2,0.2,0.6,0.4,0.8,0.7
			c0.7,1.5,1.3,3,1.9,4.5c0.2,0.5,0.5,0.9,0.7,1.3c0-0.1,0.1-0.1,0.1-0.2c0.5,0,0.9-0.1,1.4,0.1c1.8,0.7,3.6,1.4,5.4,2.1
			c0.2,0.1,0.4,0.1,0.7,0.1c1.1,0.2,2.3,0.3,3.3,0.5c2.2,0.5,4.3,0.4,6-1.5c0.3-0.3,0.6-0.5,0.9-0.7c0.8-0.6,1.6-1.1,2.4-1.7
			c0.2-0.2,0.4-0.5,0.5-0.8c0.1-1.6,0.8-2.9,1.9-4c1.2-1.2,2.6-2.3,3.9-3.5c1-0.9,2.3-1.8,1.3-3.5c-0.1-0.1-0.1-0.3-0.1-0.5
			c0.1-0.8-0.3-1.3-1-1.8c-0.8-0.5-1.7-1.1-2.4-1.7c-0.3-0.3-0.6-0.8-0.5-1.1c0.4-1,0.6-2.3,2.2-2.5c-0.7-0.6-1.1-1.2-0.7-2
			c0.1-0.1,0-0.4-0.1-0.5c-0.6-0.8-0.2-1.2,0.5-1.6s1.6-0.6,2-1.2c0.9-1.3,2.1-2.1,3.5-2.8c0.3-0.1,0.6-0.5,0.6-0.8
			c0.1-1.1,0.7-1.5,1.6-1.6c0.4,0,0.8-0.2,1.1-0.3C1399,415.9,1399.1,415.9,1399.2,416z M1409.8,456.7c-0.2,0.6-0.5,1.1-0.7,1.6
			c-0.6,2.6-1.4,5.3-1.9,7.9c-0.8,4.6-1.4,9.2-2.2,13.8c-0.2,1.5-0.4,1.7-1.9,1.8c-0.4,0.9-0.7,1.8-1.1,2.7c0.8-0.1,1.6-0.3,2.4-0.4
			c1.8-0.2,3.7-0.3,5.5-0.5c0.5,0,0.7-0.2,0.9-0.7c0.2-0.6,0.7-1.1,1.1-1.6c0.1-0.2,0.5-0.4,0.6-0.6c0.1-1.5,1.3-2.3,2-3.5
			c0.4-0.7,0.5-1.6,0.5-2.3s-0.4-1.5-0.5-2.2c-0.1-1.8,0.2-3.7-0.1-5.5c-0.3-2.1-1-4.1-1.5-6.1c-0.1-0.5-0.1-1.1-0.4-1.5
			C1411.8,458.5,1410.8,457.6,1409.8,456.7z M1413.5,483.6c0-0.1,0-0.2,0.1-0.3c-0.3-0.2-0.7-0.6-1-0.5s-0.6,0.5-0.8,0.8
			c0.1,0.1,0.1,0.2,0.2,0.3C1412.5,483.7,1413,483.7,1413.5,483.6z"/>
		<path class="st0" d="M1413.5,483.6c-0.5,0.1-1,0.2-1.5,0.3c-0.1-0.1-0.1-0.2-0.2-0.3c0.3-0.3,0.5-0.7,0.8-0.8s0.6,0.3,1,0.5
			C1413.6,483.4,1413.6,483.4,1413.5,483.6z"/>
	</g>
	<polygon class="st0" points="1405.6,534.5 1400.7,535.9 1402.3,537.3 1406.7,537.3 	"/>
</g>
<g>
	<g>
		<path class="st0" d="M1337.3,533c-0.6-0.2-0.6-0.7-0.7-1.2c0.1,0,0.1-0.1,0.2,0c0.6,0.1,0.8-0.2,0.9-0.7V531
			c0.2-1.3,0.9-2.6,1.1-3.9c0.2-1.3-0.3-2.6-0.1-3.8c0.1-1,0.3-2.1,0.4-3.1c0.1-1.1-0.7-2.2-0.6-3.2c0.1-0.8,0.1-1.7,0.2-2.5
			c0.2-1.6-1.3-3.3-1.4-5c0-0.3,0.1-0.6,0.2-0.8c0.7-1,1.5-2,1.6-3.3c0-0.8,0.1-1.5,0.1-2.3c0-1.1,0-2.1,0.1-3.1
			c0.1-0.8,0.3-1.6,0.5-2.4c0.1-0.5,0.1-1,0.3-1.4c0.6-1.6,1.1-3.2,1.3-4.9c0.2-2.2,0.5-4.4,0.6-6.6c0-0.6,0.1-1,0.7-1.1
			c0.1,0,0.3-0.2,0.3-0.4c0-1.2-0.1-2.4-0.2-3.6c-0.2-2.9-0.5-5.8-0.5-8.7c0-0.4,0-0.7,0-1.1c0-0.7,0-1.4-0.1-2
			c-0.4-1.6-0.7-3.2-0.8-4.8c0-0.7,0-1.4-0.1-2.1c0-1.1-0.1-2.1-0.2-3.1c0-0.1,0-0.1,0-0.2c0,0,0.1,0,0.2,0c0.1,0.8,0.2,1.5,0.3,2.3
			c0,0.4,0.1,0.8,0.1,1.2c0.1,0.7,0.5,1.3,0.6,2.1c0.1,1.7,0.4,3.4,0.5,5.1c0.2,1.8,0.3,3.6,0.4,5.4c0.1,1,0.2,2,0.4,2.9
			c0.5,1.7,0.5,3.4,0.5,5.1c0,0.1,0,0.2-0.1,0.4c-0.1,0.3-0.1,0.7,0,1c0,0.1,0,0.2,0,0.3c-0.1,0.4-0.2,0.7-0.3,1.1
			c-0.1,1-0.2,2-0.5,3c-0.1,0.6,0,1.3,0,2c0,0.2,0.1,0.5,0,0.7c-0.2,1-0.4,1.9-0.6,2.9c-0.1,0.5-0.2,0.9-0.6,1.2
			c-0.2,0.1-0.3,0.4-0.4,0.6c-0.2,0.5-0.4,1.1-0.5,1.6c-0.9,3.3-1.4,6.8-1.9,10.2c-0.2,1.4-0.2,2.8,0.1,4.2c0.2,0.8,0.4,1.6,0.5,2.4
			c0.1,0.9,0.2,1.9,0.3,2.8c0,0.4,0.4,0.6,0.7,0.4c0.4-0.2,0.6,0,1,0c0.1,0,0.2,0.2,0.4,0.2c1,0.3,2.1,0.3,3.1,0.2
			c0.1,0,0.3,0,0.4,0.1c0.3,0.2,0.8,0.1,1-0.2c0.4-0.7,0.6-1.4,0.4-2.1c0,0,0-0.1,0.1-0.2c0.3,0.1,0.5,0.1,0.7,0.2
			c0.4,0.2,0.9,0.4,1.3,0.6c0.4,0.1,0.6,0,0.7-0.4c0.2-0.7,0.4-1.4,0.7-2.1c1.1-2.8,1.7-5.8,1.6-8.9c0-0.8-0.1-1.6-0.1-2.5
			c0-0.8,0.1-1.6,0.1-2.5c0-0.3,0-0.6-0.1-0.8c-0.5-1.1-0.7-2.2-0.6-3.3c0-0.1-0.2-0.4-0.3-0.4c-0.8-0.1-1.5-0.7-2.3-0.2
			c0,0-0.1,0-0.2,0c0.1-0.2,0.2-0.3,0.2-0.4c0.1-0.3,0.2-0.7,0.2-1c-0.3-1.3-0.6-2.6-0.9-3.9c0-0.1,0-0.3,0-0.4c0.3-0.3,0.6-0.7,1-1
			s0.5-0.6,0.3-1.1c-0.3-0.9-0.6-1.8-0.8-2.7c-0.1-0.3-0.1-0.6,0.4-0.7c0.3,0,0.4-0.2,0.4-0.5c0-1.3,0-2.7,0-4c0-0.7,0.1-1.4,0-2.1
			c-0.2-1.1-0.1-2.3,0-3.4c0.1-0.8,0.1-1.6,0.1-2.4c0-1-0.1-2.1-0.2-3.1c-0.2-1.8-0.4-3.6-0.6-5.4c-0.1-1.2-0.3-2.4-0.5-3.6
			c0-0.1,0-0.2,0-0.3c0-0.9,0.1-1.8,0-2.7c-0.1-1.5-0.9-2.9-0.9-4.4c0-0.5-0.3-1.1-0.2-1.5c0.1-1.5,0-3.1-0.2-4.6
			c-0.1-1-0.3-2.1-0.5-3.1c-0.1-0.6-0.2-1.2-0.4-1.7c-0.1-0.5-0.3-1,0-1.4c0.1-0.1,0-0.3,0-0.5c0-0.5-0.1-1-0.6-1.3
			c-0.2-0.1-0.5-0.2-0.8-0.3c-1.6-0.8-3.2-1.5-4.8-2.3c-0.9-0.4-1.9-0.8-2.8-1.1c-0.4-0.1-0.8-0.2-1.1-0.5c-0.3-0.3-0.6-0.6-0.9-0.9
			c-0.5-0.5-0.9-1-1.4-1.5c-0.2-0.2-0.4-0.5-0.4-0.9c-0.1-1.5,0.3-2.9,0.5-4.4c0-0.1,0.2-0.2,0.3-0.3c0.2-0.2,0.5-0.3,0.6-0.5
			c0.3-0.8,0.7-1.6,0.9-2.5c0.1-0.2-0.1-0.6-0.1-0.9c0-0.2-0.1-0.3-0.1-0.5c0.1-0.8,0.3-1.6,0.2-2.4c-0.1-1.5-0.4-2.9-1.4-4.1
			c-0.4-0.5-0.9-0.9-1.4-1.3c-0.2-0.2-0.6-0.4-0.8-0.7c-0.1-0.2-0.3-0.4-0.5-0.3c-0.5,0.1-0.8,0-0.8-0.6l0,0c-0.3,0.1-0.6,0.2-1,0.2
			c-0.4,0.1-0.6-0.1-0.8-0.5c-0.1,0-0.2,0-0.2,0.1c-0.3,0.2-0.6,0.4-0.9,0.5c-0.4,0.2-0.8,0.3-1.2,0.5c-0.4,0.1-0.6,0.6-1.1,0.5
			c0,0-0.1,0.1-0.2,0.2c-0.4,0.7-0.9,1.4-1.3,2.2c-0.2,0.3-0.4,0.5-0.5,0.9c-0.5,1.4-0.8,2.9-0.5,4.4c0.1,0.4,0.2,0.8-0.1,1.2l0,0
			c-0.1,1.1,0.3,2.1,0.7,3.1c0,0.1,0.1,0.1,0.2,0.2c0.1,0.2,0.2,0.3,0.3,0.5c0.1,0.7,0.2,1.4,0.4,2c0.2,0.6,0.3,1.2,0.3,1.8
			c0,0.5,0.1,1.1-0.3,1.5s-0.8,0.9-1.2,1.4c-0.5,0.6-1,1.1-1.9,1.1c-0.5,0-1,0.1-1.4,0.3c-2,0.9-4.1,1.7-6.1,2.6
			c-0.3,0.1-0.6,0.2-0.8,0.4c-0.2,0.2-0.5,0.4-0.6,0.6c-0.2,0.5-0.3,1.1-0.4,1.7c-0.2,0.9-0.2,1.7-0.6,2.6c-0.6,1.2-0.9,2.6-0.7,3.9
			c0.1,0.4,0,0.8-0.1,1.2c-0.4,1.2-0.6,2.4-0.5,3.6c0,0.4,0,0.8-0.1,1.1c-0.6,1.8-1.1,3.6-1,5.5c0,0.1,0,0.3-0.1,0.4
			c-0.7,2.1-1,4.3-1.3,6.5c-0.2,1.7-0.4,3.5-0.6,5.3c-0.1,0.8-0.2,1.6-0.2,2.4c-0.1,1.3-0.1,2.6-0.1,3.9c0,0.7,0,1.5-0.1,2.2
			c-0.1,1.1-0.2,2.2-0.3,3.3c0,0.9,0,0.9,0.8,1.3c0.1,0,0.2,0.2,0.2,0.3c0,0.4-0.1,0.7-0.1,1.1c0,0.3,0,0.7,0,1.1
			c0.1,0.5,0.2,1,0.3,1.5c0,0.2,0,0.4,0.1,0.6c0.3,0.5,0.4,1.1,1,1.4c0.2,0.1,0.4,0.3,0.6,0.4c0.5,0.2,1,0.3,1.6,0.5
			c0.2,0,0.4,0.1,0.6,0c0.4-0.1,0.9-0.3,1.4-0.5c0,0.3,0,0.6,0,0.9c0,0.4-0.1,0.7-0.1,1.1c-0.2,1.5-0.4,3.1-0.7,4.6
			c-0.1,1-0.3,2-0.4,3c0,0.4,0.1,0.8,0.1,1.2c0,0.3,0.9,0.6,0.8,0.8c-0.5,0.9-0.9,1.9-0.8,3c0,0.7,0.1,1.3,0.3,2
			c0.1,0.4,0,0.7-0.3,1c-0.7,0.6-1,1.3-1,2.2c0,0.6-0.1,1.3-0.1,1.9c-0.3,2.2,0.8,4.3,0.2,6.5c-0.5,2,0.3,4.1-0.1,6.1
			c-0.2,0.9-0.3,1.8-0.4,2.7c-0.1,1.3-0.3,2.6-0.4,4c-0.1,1,0.2,1.9,0.3,2.8c0,0.3,0,0.6-0.2,0.9c-0.4,0.6-0.9,1.1-1.3,1.7
			c-0.4,0.7-0.9,1.1-1.4,1.6c-0.8,0.7-1.8,1.3-2.4,2.2c-0.3,0.4-0.5,0.9-0.8,1.3c-0.7,0.9-0.6,1.6,0.2,2.3c0.3,0.3,0.5,0.7,1,0.7
			c2,0.2,3.9-0.3,5.6-1.5c0.3-0.2,0.5-0.6,0.8-0.9c0.3-0.3,0.5-0.7,0.9-1c1-0.7,2.1,2.4,3.2,1.7c0.9-0.5,1.5-1.3,1.5-2.4
			c0-0.5,0-4.8,0-5.3c0-0.2,0.1-0.4,0.1-0.7c0.1-0.3,0.3-0.6,0.4-0.9c0.1-0.3,0.1-0.6,0.2-0.9c0.8-2.3,1.5-4.6,2.2-6.9
			c0.6-2.3-0.3-4.7,0.1-7c0.3-1.4,0.5-2.9,0.9-4.4c0.2-1-1-2-0.4-2.9s0.9-1.9,1.4-2.9c0.7-1.4,0.3-2.8,0.6-4.4
			c0.2-1,0.2-2.1,0.3-3.1c0.1-0.6,0.1-1.3,0.3-1.8c0.7-2.3,1.5-4.6,2.2-6.9c0.2-0.7,0.5-1.5,0.7-2.2c0.1,0.1,0.1,0.2,0.1,0.2
			c0,1.1,0.3,2,0.8,3c0.8,1.7,1.1,3.5,1.3,5.3c0.1,1,0,2.1-0.1,3.1c0,0.9-0.2,1.7,0.2,2.5c0.3,0.5,1.2,1.1,0.8,1.6
			c-0.2,0.3-0.4,0.7-0.5,1c-0.2,0.5-0.2,1-0.4,1.4c-0.4,1.1,0,2,0.8,2.8c0.2,0.2,0.2,0.3,0.2,0.5s-0.1,0.4-0.1,0.5
			c-0.4,1.2,0.1,2.4,0.1,3.6c0,0.5-0.1,1.1-0.1,1.6c-0.1,0.9-0.2,1.8-0.3,2.7c-0.1,0.7,0.8,1.4,0.8,2.1c-0.1,1.1-0.3,2.3-0.4,3.4
			c-0.1,1.4-0.2,2.9-0.3,4.4c0,0.2,0,0.4,0.1,0.6c0.2,0.4,0.8,0.7,1.1,1.1c0.3,0.4,0.4,0.7,0.3,1.2c-0.1,0.3,0,0.6-0.1,0.9
			c0,0.3-0.1,0.7-0.2,1.1c0,0.3-0.1,0.6-0.1,0.9c0,0.1,0,4.9,0,5c-0.1,1.3,0.5,2.1,1.6,2.7c0.9,0.5,1.1-3.3,1.3-2.4
			c0.1,0.7,0.3,1.4,0.9,1.9c0.6,0.6,1.4,1.1,2.2,1.4c1.3,0.6,2.6,0.6,3.8-0.3c0.4-0.3,0.6-0.7,0.6-1.2s0-0.9-0.1-1.4
			c0-0.3-0.1-0.7-0.2-1c-0.4-0.7-1-1.4-1.4-2c-0.1-0.2-0.3-0.4-0.4-0.5"/>
		<path class="st0" d="M1338.7,536.4c0.1,0.1,0.2,0.3,0.4,0.5c0.5,0.7,1,1.3,1.4,2c0.2,0.3,0.2,0.6,0.2,1s0.1,0.9,0.1,1.4
			s-0.2,0.9-0.6,1.2c-1.2,0.9-2.5,0.9-3.8,0.3c-0.8-0.4-1.5-0.8-2.2-1.4c-0.6-0.5-0.3,0.6-0.5-0.2c0.6,1.8-0.7,1.4-1.7,0.6
			c-1-0.5-1.6-1.4-1.6-2.7c0-0.1,0-4.9,0-5c0-0.3,0.1-0.6,0.1-0.9c0.1-0.3,0.1-0.7,0.2-1.1c0-0.3,0-0.6,0.1-0.9
			c0.1-0.4,0-0.8-0.3-1.2c-0.3-0.3-0.8-0.7-1.1-1.1c-0.1-0.1-0.1-0.4-0.1-0.6c0.1-1.5,0.2-2.9,0.3-4.4c0.1-1.1,0.3-2.3,0.4-3.4
			c0.1-0.7-0.8-1.4-0.8-2.1c0.1-0.9,0.2-1.8,0.3-2.7c0-0.5,0.1-1.1,0.1-1.6c0-1.2-0.5-2.4-0.1-3.6c0-0.2,0.1-0.3,0.1-0.5
			c0.1-0.2,0-0.4-0.2-0.5c-0.7-0.8-1.2-1.7-0.8-2.8c0.2-0.4,0.2-1,0.4-1.4c0.1-0.4,0.3-0.7,0.5-1c0.4-0.5-0.5-1.1-0.8-1.6
			c-0.4-0.8-0.3-1.7-0.2-2.5c0-1.1,0.2-2.1,0.1-3.1c-0.2-1.8-0.5-3.6-1.3-5.3c-0.5-0.9-0.7-1.9-0.8-3c0-0.1,0-0.1-0.1-0.2
			c-0.2,0.7-0.4,1.5-0.7,2.2c-0.7,2.3-1.5,4.6-2.2,6.9c-0.2,0.6-0.2,1.2-0.3,1.8c-0.1,1-0.1,2.1-0.3,3.1c-0.3,1.5,0,3-0.6,4.4
			c-0.5,1-0.8,2-1.4,2.9s0.6,1.9,0.4,2.9c-0.3,1.4-0.6,2.9-0.9,4.4c-0.5,2.4,0.5,4.8-0.1,7c-0.7,2.4-1.3,4.6-2.2,6.9
			c-0.1,0.3-0.1,0.6-0.2,0.9c-0.1,0.3-0.3,0.6-0.4,0.9c-0.1,0.2-0.1,0.4-0.1,0.7c0,0.5,0,4.8,0,5.3c-0.1,1.1-0.7,1.8-1.5,2.4
			c-1.1,0.6-2.1-1-3.2-0.3c-0.3,0.2-0.6-0.7-0.9-0.4s-0.5,0.7-0.8,0.9c-1.7,1.2-3.6,1.6-5.6,1.5c-0.5,0-0.7-0.4-1-0.7
			c-0.8-0.7-0.8-1.4-0.2-2.3c0.3-0.4,0.5-0.8,0.8-1.3c0.6-0.9,1.6-1.5,2.4-2.2c0.5-0.5,1.1-0.9,1.4-1.6c0.3-0.6,0.8-1.2,1.3-1.7
			c0.2-0.3,0.2-0.5,0.2-0.9c0-0.9-0.3-1.9-0.3-2.8c0.1-1.3,0.2-2.7,0.4-4c0.1-0.9,0.2-1.8,0.4-2.7c0.4-2-0.4-4.1,0.1-6.1
			c0.6-2.1-0.5-4.3-0.2-6.5c0.1-0.6,0.1-1.3,0.1-1.9c0-0.9,0.3-1.6,1-2.2c0.3-0.2,0.4-0.5,0.3-1c-0.1-0.7-0.2-1.3-0.3-2
			c-0.1-1.1,0.3-2.1,0.8-3c0.1-0.2-0.8-0.5-0.8-0.8c0-0.4-0.1-0.8-0.1-1.2c0.1-1,0.2-2,0.4-3c0.2-1.5,0.4-3.1,0.7-4.6
			c0-0.4,0.1-0.7,0.1-1.1c0-0.3,0-0.6,0-0.9c-0.5,0.2-0.9,0.3-1.4,0.5c-0.2,0-0.4,0-0.6,0c-0.5-0.1-1.1-0.3-1.6-0.5
			c-0.2-0.1-0.4-0.3-0.6-0.4c-0.6-0.3-0.6-1-1-1.4c-0.1-0.1-0.1-0.4-0.1-0.6c-0.1-0.5-0.2-1-0.3-1.5c0-0.3,0-0.7,0-1.1
			s0.1-0.7,0.1-1.1c0-0.1-0.1-0.2-0.2-0.3c-0.8-0.4-0.9-0.4-0.8-1.3c0-1.1,0.2-2.2,0.3-3.3c0-0.7,0.1-1.5,0.1-2.2
			c0-1.3,0.1-2.6,0.1-3.9c0-0.8,0.1-1.6,0.2-2.4c0.2-1.7,0.4-3.5,0.6-5.3c0.3-2.2,0.6-4.4,1.3-6.5c0-0.1,0.1-0.3,0.1-0.4
			c-0.1-1.9,0.4-3.7,1-5.5c0.1-0.3,0.1-0.8,0.1-1.1c0-1.3,0.1-2.5,0.5-3.6c0.1-0.4,0.2-0.8,0.1-1.2c-0.2-1.4,0.1-2.7,0.7-3.9
			c0.4-0.8,0.4-1.7,0.6-2.6c0.1-0.6,0.2-1.2,0.4-1.7c0.1-0.2,0.4-0.5,0.6-0.6c0.2-0.2,0.5-0.2,0.8-0.4c2-0.9,4.1-1.8,6.1-2.6
			c0.4-0.2,0.9-0.3,1.4-0.3c0.9,0,1.4-0.5,1.9-1.1c0.4-0.5,0.8-0.9,1.2-1.4c0.4-0.4,0.3-1,0.3-1.5c0-0.6-0.1-1.2-0.3-1.8
			c-0.2-0.6-0.3-1.4-0.4-2c0-0.2-0.2-0.4-0.3-0.5c0-0.1-0.2-0.1-0.2-0.2c-0.4-1-0.8-2-0.7-3.1l0,0c0.3-0.4,0.2-0.8,0.1-1.2
			c-0.2-1.5,0.1-3,0.5-4.4c0.1-0.3,0.3-0.6,0.5-0.9c0.4-0.7,0.9-1.4,1.3-2.2c0-0.1,0.1-0.2,0.2-0.2c0.5,0.1,0.7-0.3,1.1-0.5
			c0.4-0.1,0.8-0.3,1.2-0.5c0.3-0.1,0.6-0.4,0.9-0.5c0.1,0,0.1,0,0.2-0.1c0.1,0.4,0.4,0.6,0.8,0.5c0.3,0,0.6-0.2,1-0.2l0,0
			c0,0.5,0.3,0.7,0.8,0.6c0.2,0,0.4,0.1,0.5,0.3c0.1,0.3,0.5,0.4,0.8,0.7c0.5,0.4,1,0.8,1.4,1.3c0.9,1.2,1.2,2.7,1.4,4.1
			c0.1,0.8-0.2,1.6-0.2,2.4c0,0.2,0.1,0.3,0.1,0.5c0,0.3,0.2,0.6,0.1,0.9c-0.3,0.8-0.6,1.7-0.9,2.5c-0.1,0.2-0.4,0.4-0.6,0.5
			c-0.1,0.1-0.3,0.2-0.3,0.3c-0.3,1.4-0.6,2.9-0.5,4.4c0,0.4,0.1,0.6,0.4,0.9c0.5,0.5,0.9,1,1.4,1.5c0.3,0.3,0.6,0.6,0.9,0.9
			s0.7,0.4,1.1,0.5c1,0.3,1.9,0.7,2.8,1.1c1.6,0.7,3.2,1.5,4.8,2.3c0.2,0.1,0.5,0.1,0.8,0.3c0.4,0.3,0.5,0.8,0.6,1.3
			c0,0.2,0,0.3,0,0.5c-0.2,0.5-0.1,1,0,1.4c0.2,0.6,0.3,1.1,0.4,1.7c0.2,1,0.4,2,0.5,3.1c0.1,1.5,0.4,3,0.2,4.6c0,0.5,0.2,1,0.2,1.5
			c0,1.5,0.8,2.9,0.9,4.4c0.1,0.9,0,1.8,0,2.7c0,0.1,0,0.2,0,0.3c0.2,1.2,0.4,2.4,0.5,3.6c0.2,1.8,0.4,3.6,0.6,5.4
			c0.1,1,0.2,2.1,0.2,3.1c0,0.8,0,1.6-0.1,2.4c-0.1,1.1-0.2,2.2,0,3.4c0.1,0.7,0,1.4,0,2.1c0,1.3,0,2.7,0,4c0,0.3-0.1,0.5-0.4,0.5
			c-0.4,0.1-0.5,0.3-0.4,0.7c0.3,0.9,0.5,1.8,0.8,2.7c0.1,0.5,0,0.8-0.3,1.1c-0.4,0.3-0.7,0.6-1,1c-0.1,0.1-0.1,0.3,0,0.4
			c0.3,1.3,0.6,2.6,0.9,3.9c0.1,0.3-0.1,0.7-0.2,1c0,0.1-0.1,0.2-0.2,0.4c0.1,0,0.2,0,0.2,0c0.8-0.5,1.6,0.1,2.3,0.2
			c0.1,0,0.3,0.3,0.3,0.4c-0.1,1.2,0.1,2.3,0.6,3.3c0.1,0.2,0.1,0.5,0.1,0.8c0,0.8-0.1,1.6-0.1,2.5c0,0.8,0.1,1.6,0.1,2.5
			c0.1,3.1-0.5,6-1.6,8.9c-0.3,0.7-0.5,1.4-0.7,2.1c-0.1,0.4-0.3,0.5-0.7,0.4c-0.4-0.2-0.9-0.4-1.3-0.6c-0.2-0.1-0.5-0.1-0.7-0.2
			c0,0.1-0.1,0.2-0.1,0.2c0.2,0.8,0,1.4-0.4,2.1c-0.2,0.3-0.7,0.5-1,0.2c-0.1-0.1-0.2-0.1-0.4-0.1c-1.1,0-2.1,0.1-3.1-0.2
			c-0.1,0-0.2-0.2-0.4-0.2c-0.3-0.1-0.6-0.2-1,0c-0.3,0.2-0.7,0-0.7-0.4c-0.1-1-0.2-1.9-0.3-2.8c-0.1-0.8-0.3-1.6-0.5-2.4
			c-0.3-1.4-0.3-2.8-0.1-4.2c0.5-3.4,1-6.8,1.9-10.2c0.1-0.6,0.3-1.1,0.5-1.6c0.1-0.2,0.2-0.5,0.4-0.6c0.4-0.3,0.5-0.7,0.6-1.2
			c0.2-1,0.4-1.9,0.6-2.9c0-0.2,0-0.4,0-0.7c0-0.7-0.2-1.4,0-2c0.2-1,0.4-2,0.5-3c0-0.4,0.2-0.7,0.3-1.1c0-0.1,0-0.2,0-0.3
			c-0.2-0.3-0.2-0.7,0-1c0-0.1,0.1-0.2,0.1-0.4c0.1-1.7,0-3.4-0.5-5.1c-0.3-1-0.3-1.9-0.4-2.9c-0.2-1.8-0.3-3.6-0.4-5.4
			c-0.2-1.7-0.5-3.4-0.5-5.1c0-0.8-0.5-1.4-0.6-2.1c0-0.4-0.1-0.8-0.1-1.2c-0.1-0.8-0.2-1.5-0.3-2.3c0,0-0.1,0-0.2,0
			c0,0.1,0,0.1,0,0.2c0.1,1.1,0.1,2.1,0.2,3.1c0,0.7,0,1.4,0.1,2.1c0.1,1.6,0.4,3.2,0.8,4.8c0.1,0.6,0.1,1.4,0.1,2
			c0,0.4,0,0.7,0,1.1c0,2.9,0.3,5.8,0.5,8.7c0.1,1.2,0.1,2.4,0.2,3.6c0,0.1-0.2,0.3-0.3,0.4c-0.6,0.1-0.7,0.5-0.7,1.1
			c-0.2,2.2-0.4,4.4-0.6,6.6c-0.2,1.7-0.7,3.3-1.3,4.9c-0.2,0.4-0.2,1-0.3,1.4c-0.2,0.8-0.4,1.6-0.5,2.4c-0.1,1-0.1,2.1-0.1,3.1
			c0,0.8-0.1,1.5-0.1,2.3c-0.1,1.3-0.9,2.3-1.6,3.3c-0.2,0.3-0.3,0.5-0.2,0.8c0.1,1.7,1.6,3.3,1.4,5c-0.1,0.8-0.1,1.7-0.2,2.5
			c-0.1,1.1,0.7,2.2,0.6,3.2s-0.3,2.1-0.4,3.1c-0.2,1.3,0.3,2.6,0.1,3.8c-0.2,1.3-0.8,2.6-1.1,3.9v0.1c-0.1,0.5-0.3,0.8-0.9,0.7
			c0,0-0.1,0-0.2,0c0.1,0.5,0.1,0.9,0.7,1.2 M1336.7,532.8c0.3,0.8,0.7,1.4,1,2.1c0.2,0.3,0.4,0.7,0.7,1 M1341.4,454.4
			c-0.3,0.2-0.4,1.2-0.1,1.8C1341.3,455.6,1341.3,455,1341.4,454.4z"/>
		<path class="st0" d="M1341.4,454.4c0,0.6-0.1,1.2-0.1,1.8C1341,455.6,1341.1,454.5,1341.4,454.4z"/>
	</g>
	<path class="st0" d="M1340,537.8c0,0,3.6,1.7,3.5,2c-0.1,0.4-0.3,1-0.3,1h-4.5L1340,537.8z"/>
</g>
</svg>
