<?xml version="1.0" encoding="utf-8"?>
<!-- Generator: Adobe Illustrator 25.2.3, SVG Export Plug-In . SVG Version: 6.00 Build 0)  -->
<svg version="1.1" id="Layer_1" xmlns="http://www.w3.org/2000/svg" xmlns:xlink="http://www.w3.org/1999/xlink" x="0px" y="0px"
	 viewBox="0 0 760 760" style="enable-background:new 0 0 760 760;" xml:space="preserve">
<style type="text/css">
	.st0{fill:#BCBCBC;}
	.st1{fill:#FCCD03;}
	.st2{fill:#0F0F0F;}
</style>
<circle class="st0" cx="256.9" cy="486.4" r="129.4"/>
<circle class="st0" cx="256.9" cy="703.3" r="56.7"/>
<g>
	<path class="st1" d="M259.7,331.4l-0.1-3.2c3-0.1,6.2-0.2,9.1-0.4l0.2,3.2C266,331.2,262.9,331.3,259.7,331.4z M250.4,331.3
		c-3.1-0.2-6.2-0.3-9.4-0.6l0.3-3.2c3,0.3,6.1,0.5,9.1,0.6V331.3z M278.4,330.1l-0.4-3.2c3-0.4,6.1-0.9,9-1.4l0.6,3.1
		C284.5,329.1,281.5,329.7,278.4,330.1z M231.9,329.5c-3-0.5-6.2-1-9.2-1.7l0.6-3.1c3,0.6,6,1.2,9,1.7L231.9,329.5z M296.7,326.5
		l-0.8-3.1c3-0.7,5.9-1.6,8.8-2.5l1,3C302.7,324.9,299.7,325.8,296.7,326.5z M213.5,325.7c-3-0.8-6-1.8-9-2.7l1-3
		c2.9,1,5.8,1.8,8.8,2.6L213.5,325.7z M314.6,321l-1.1-3c2.9-1,5.7-2.2,8.5-3.4l1.3,3C320.3,318.8,317.4,319.9,314.6,321z
		 M195.9,319.7c-2.9-1.1-5.8-2.4-8.6-3.8l1.4-2.9c2.8,1.3,5.6,2.6,8.4,3.7L195.9,319.7z M331.6,313.5l-1.4-2.9
		c2.7-1.4,5.4-2.9,8-4.4l1.6,2.8C337.1,310.6,334.4,312.1,331.6,313.5z M178.9,311.8c-2.7-1.4-5.4-3-8.1-4.6l1.7-2.7
		c2.6,1.6,5.3,3.1,7.9,4.6L178.9,311.8z M347.7,304.1l-1.8-2.6c2.6-1.7,5-3.4,7.5-5.3l1.9,2.6C352.8,300.6,350.3,302.4,347.7,304.1z
		 M163,302c-2.6-1.8-5-3.7-7.5-5.6l2-2.5c2.4,1.8,4.9,3.7,7.4,5.4L163,302z M362.6,292.9l-2.1-2.5c2.3-1.9,4.6-4,6.9-6.1l2.2,2.3
		C367.4,288.8,365,290.9,362.6,292.9z M148.3,290.4c-2.3-2.1-4.6-4.2-6.8-6.4l2.2-2.2c2.2,2.2,4.4,4.2,6.7,6.2L148.3,290.4z
		 M376.3,280.1l-2.3-2.2c2.1-2.2,4.2-4.5,6.1-6.8l2.5,2.1C380.4,275.6,378.3,277.9,376.3,280.1z M135,277.3
		c-2.1-2.3-4.2-4.7-6.1-7.1l2.5-2c1.9,2.4,3.9,4.7,5.9,7L135,277.3z M388.3,265.9l-2.6-1.9c1.8-2.4,3.6-5,5.3-7.4l2.6,1.8
		C392,260.9,390.2,263.4,388.3,265.9z M123.3,262.9c-1.8-2.5-3.6-5.1-5.2-7.8l2.7-1.7c1.6,2.6,3.4,5.1,5.1,7.6L123.3,262.9z
		 M398.6,250.3l-2.7-1.6c1.5-2.6,3-5.4,4.4-8l2.9,1.4C401.8,244.9,400.2,247.7,398.6,250.3z M113.3,247.1c-1.5-2.7-3-5.5-4.3-8.2
		l2.9-1.4c1.4,2.7,2.7,5.4,4.2,8.1L113.3,247.1z M407.2,233.7l-3-1.3c1.2-2.8,2.4-5.6,3.5-8.5l3,1.1
		C409.7,228,408.5,230.9,407.2,233.7z M105.2,230.3c-1.2-2.9-2.3-5.8-3.4-8.7l3-1c1,2.9,2.1,5.8,3.3,8.6L105.2,230.3z M413.8,216.2
		l-3-1c0.9-2.9,1.8-5.8,2.5-8.8l3.1,0.8C415.6,210.3,414.8,213.2,413.8,216.2z M98.9,212.7c-0.9-3-1.7-6-2.3-9l3.1-0.7
		c0.6,3,1.4,5.9,2.3,8.9L98.9,212.7z M418.4,198.1l-3.1-0.6c0.6-3,1-6,1.4-9l3.2,0.4C419.4,192,418.9,195.1,418.4,198.1z
		 M94.8,194.5c-0.5-3-1-6.2-1.3-9.3l3.2-0.3c0.3,3,0.8,6.1,1.3,9L94.8,194.5z M420.9,179.6l-3.2-0.2c0.2-3,0.4-6.1,0.4-9.1l3.2,0.1
		C421.2,173.3,421.1,176.5,420.9,179.6z M92.8,176c-0.2-3-0.2-6-0.2-9v-0.4h3.2v0.4c0,3,0.1,5.8,0.2,8.8L92.8,176z M418,161
		c-0.1-3-0.3-6.1-0.6-9.1l3.2-0.3c0.3,3.1,0.5,6.2,0.6,9.4L418,161z M96,157.5l-3.2-0.2c0.2-3.1,0.5-6.2,0.8-9.3l3.2,0.4
		C96.5,151.4,96.1,154.4,96,157.5z M416.3,142.8c-0.5-3-1-6.1-1.6-9l3.1-0.6c0.6,3,1.2,6.2,1.7,9.2L416.3,142.8z M98.1,139.3
		l-3.1-0.6c0.6-3,1.1-6.2,1.8-9.2l3.1,0.7C99.3,133.3,98.6,136.3,98.1,139.3z M412.5,124.9c-0.8-3-1.7-5.9-2.6-8.8l3-1
		c1,3,1.9,5.9,2.7,9L412.5,124.9z M102.2,121.5l-3-0.9c0.9-3,1.8-6,2.9-8.9l3,1C104.1,115.6,103.1,118.5,102.2,121.5z M406.8,107.6
		c-1.1-2.8-2.3-5.7-3.6-8.4l2.9-1.4c1.3,2.8,2.6,5.7,3.7,8.6L406.8,107.6z M108.4,104.2l-3-1.3c1.2-2.9,2.6-5.8,3.9-8.5l2.9,1.4
		C110.9,98.6,109.6,101.4,108.4,104.2z M399,90.9c-1.4-2.7-3-5.4-4.6-7.9l2.7-1.7c1.6,2.6,3.2,5.4,4.6,8.1L399,90.9z M116.5,87.7
		l-2.8-1.6c1.5-2.7,3.1-5.4,4.8-8l2.7,1.8C119.6,82.5,118,85.1,116.5,87.7z M389.5,75.4c-1.8-2.5-3.5-5-5.4-7.4l2.6-2
		c1.9,2.5,3.8,5,5.5,7.5L389.5,75.4z M126.4,72.4l-2.6-1.9c1.8-2.5,3.8-5,5.7-7.4l2.5,2C130.1,67.5,128.2,69.9,126.4,72.4z
		 M378.3,61c-2-2.3-4.1-4.6-6.2-6.7l2.3-2.2c2.2,2.2,4.3,4.5,6.3,6.9L378.3,61z M138,58.2l-2.3-2.2c2.1-2.3,4.3-4.6,6.5-6.7l2.2,2.3
		C142.2,53.7,140.1,55.9,138,58.2z M365.5,47.9c-2.2-2.1-4.6-4.1-7-6l2-2.5c2.4,1.9,4.8,4,7.1,6.1L365.5,47.9z M151.1,45.4L149,43
		c2.3-2,4.8-4,7.2-5.9l2,2.6C155.8,41.5,153.5,43.4,151.1,45.4z M351.2,36.3c-2.5-1.8-5-3.5-7.6-5.2l1.8-2.7
		c2.6,1.7,5.2,3.4,7.8,5.3L351.2,36.3z M165.6,34.2l-1.8-2.6c2.6-1.8,5.2-3.4,7.8-5l1.7,2.7C170.6,30.8,168.1,32.4,165.6,34.2z
		 M335.8,26.5c-2.6-1.5-5.4-3-8.2-4.2l1.4-2.9c2.8,1.4,5.6,2.8,8.3,4.3L335.8,26.5z M181.2,24.7l-1.5-2.8c2.7-1.4,5.5-2.9,8.4-4.2
		l1.4,2.9C186.6,21.9,183.9,23.3,181.2,24.7z M319.4,18.4c-2.8-1.2-5.7-2.3-8.6-3.3l1-3c3,1,5.8,2.2,8.7,3.4L319.4,18.4z M197.8,17
		l-1.2-3c2.9-1.1,5.8-2.2,8.8-3.2l1,3C203.6,14.9,200.6,15.9,197.8,17z M302.1,12.2c-3-0.9-5.9-1.6-8.9-2.3l0.7-3.1
		c3,0.7,6.1,1.5,9,2.4L302.1,12.2z M215.1,11.3l-0.8-3.1c3-0.8,6.1-1.5,9.1-2.2l0.6,3.1C221.1,9.8,218.1,10.5,215.1,11.3z
		 M284.3,8.2c-3-0.5-6.1-1-9-1.3l0.3-3.2c3.1,0.3,6.2,0.8,9.3,1.3L284.3,8.2z M233.1,7.6l-0.5-3.2c3-0.5,6.2-0.8,9.3-1.1l0.3,3.2
		C239.2,6.8,236.1,7.1,233.1,7.6z M266.1,6.1c-4.9-0.2-9.8-0.3-14.7-0.2l-0.1-3.2c5-0.2,10.1-0.1,15,0.2L266.1,6.1z"/>
</g>
<g>
	<path class="st0" d="M1127.5,708c0.3-0.4,0.6-0.7,0.8-1c0.2-0.3,0.4-0.5,0.5-0.8c0.1-0.2,0.2-0.4,0.2-0.6c0-0.2,0.1-0.3,0.1-0.5
		V705c0-0.6-0.2-1.1-0.6-1.5s-1-0.5-1.7-0.5c-0.5,0-1.1,0.1-1.5,0.4c-0.5,0.3-0.9,0.7-1.3,1.5l-1-0.6c0.1-0.3,0.3-0.5,0.5-0.8
		s0.5-0.5,0.8-0.8c0.3-0.2,0.7-0.4,1.1-0.6c0.4-0.1,0.9-0.2,1.4-0.2s1,0.1,1.5,0.2c0.4,0.1,0.8,0.4,1.1,0.6c0.3,0.3,0.5,0.6,0.7,1
		c0.2,0.4,0.3,0.8,0.3,1.2v0.2c0,0.3-0.1,0.6-0.2,1c-0.1,0.4-0.3,0.6-0.5,0.9c-0.2,0.3-0.4,0.6-0.7,0.9c-0.2,0.3-0.5,0.6-0.8,0.9
		l-3.8,4.5h6.3v1.1h-7.7v-1L1127.5,708z"/>
	<path class="st0" d="M1141.1,709.2c0,1.7-0.3,3.1-1,4c-0.7,0.9-1.7,1.4-3.2,1.4s-2.5-0.5-3.2-1.4c-0.7-0.9-1-2.3-1-4v-1.9
		c0-1.7,0.3-3,1-4c0.7-0.9,1.7-1.4,3.1-1.4c1.5,0,2.5,0.5,3.2,1.4s1,2.2,1,4L1141.1,709.2L1141.1,709.2z M1139.9,707.3
		c0-1.5-0.2-2.6-0.7-3.3s-1.2-1-2.2-1c-0.9,0-1.7,0.3-2.2,1s-0.8,1.8-0.8,3.3v1.9c0,1.5,0.3,2.6,0.8,3.3s1.2,1,2.2,1s1.7-0.3,2.2-1
		s0.7-1.8,0.7-3.3V707.3z"/>
	<path class="st0" d="M1147.9,708c0.3-0.4,0.6-0.7,0.8-1c0.2-0.3,0.4-0.5,0.5-0.8c0.1-0.2,0.2-0.4,0.2-0.6c0-0.2,0.1-0.3,0.1-0.5
		V705c0-0.6-0.2-1.1-0.6-1.5s-1-0.5-1.7-0.5c-0.5,0-1.1,0.1-1.5,0.4c-0.5,0.3-0.9,0.7-1.3,1.5l-1-0.6c0.1-0.3,0.3-0.5,0.5-0.8
		c0.2-0.3,0.5-0.5,0.8-0.8c0.3-0.2,0.7-0.4,1.1-0.6c0.4-0.1,0.9-0.2,1.4-0.2s1,0.1,1.5,0.2c0.4,0.1,0.8,0.4,1.1,0.6
		c0.3,0.3,0.5,0.6,0.7,1s0.3,0.8,0.3,1.2v0.2c0,0.3-0.1,0.6-0.2,1s-0.3,0.6-0.5,0.9c-0.2,0.3-0.4,0.6-0.7,0.9
		c-0.2,0.3-0.5,0.6-0.8,0.9l-3.8,4.5h6.3v1.1h-7.8v-1L1147.9,708z"/>
	<path class="st0" d="M1161.5,709.2c0,1.7-0.3,3.1-1,4s-1.7,1.4-3.2,1.4s-2.5-0.5-3.2-1.4c-0.7-0.9-1-2.3-1-4v-1.9c0-1.7,0.3-3,1-4
		c0.7-0.9,1.7-1.4,3.1-1.4c1.5,0,2.5,0.5,3.2,1.4c0.7,0.9,1,2.2,1,4L1161.5,709.2L1161.5,709.2z M1160.3,707.3
		c0-1.5-0.2-2.6-0.7-3.3s-1.2-1-2.2-1c-0.9,0-1.7,0.3-2.2,1s-0.8,1.8-0.8,3.3v1.9c0,1.5,0.3,2.6,0.8,3.3s1.2,1,2.2,1s1.7-0.3,2.2-1
		s0.7-1.8,0.7-3.3V707.3z"/>
</g>
<g>
	<path class="st0" d="M1128.2,485.7c0.3-0.4,0.6-0.7,0.8-1s0.4-0.5,0.5-0.8c0.1-0.2,0.2-0.4,0.2-0.6s0.1-0.3,0.1-0.5v-0.1
		c0-0.6-0.2-1.1-0.6-1.5c-0.4-0.4-1-0.5-1.7-0.5c-0.5,0-1.1,0.1-1.5,0.4c-0.5,0.3-0.9,0.7-1.3,1.5l-1-0.6c0.1-0.3,0.3-0.5,0.5-0.8
		c0.2-0.3,0.5-0.5,0.8-0.8c0.3-0.2,0.7-0.4,1.1-0.6c0.4-0.1,0.9-0.2,1.4-0.2s1,0.1,1.5,0.2c0.4,0.1,0.8,0.4,1.1,0.6
		c0.3,0.3,0.5,0.6,0.7,1c0.2,0.4,0.3,0.8,0.3,1.2v0.2c0,0.3-0.1,0.6-0.2,1s-0.3,0.6-0.5,0.9c-0.2,0.3-0.4,0.6-0.7,0.9
		c-0.2,0.3-0.5,0.6-0.8,0.9l-3.8,4.5h6.3v1.1h-7.8v-1L1128.2,485.7z"/>
	<path class="st0" d="M1141.8,486.9c0,1.7-0.3,3.1-1,4c-0.7,0.9-1.7,1.4-3.2,1.4s-2.5-0.5-3.2-1.4c-0.7-0.9-1-2.3-1-4V485
		c0-1.7,0.3-3,1-4c0.7-0.9,1.7-1.4,3.1-1.4c1.5,0,2.5,0.5,3.2,1.4c0.7,0.9,1,2.2,1,4L1141.8,486.9L1141.8,486.9z M1140.6,485
		c0-1.5-0.2-2.6-0.7-3.3c-0.5-0.7-1.2-1-2.2-1c-0.9,0-1.7,0.3-2.2,1s-0.8,1.8-0.8,3.3v1.9c0,1.5,0.3,2.6,0.8,3.3
		c0.5,0.7,1.2,1,2.2,1s1.7-0.3,2.2-1s0.7-1.8,0.7-3.3V485z"/>
	<path class="st0" d="M1148.6,485.7c0.3-0.4,0.6-0.7,0.8-1c0.2-0.3,0.4-0.5,0.5-0.8c0.1-0.2,0.2-0.4,0.2-0.6s0.1-0.3,0.1-0.5v-0.1
		c0-0.6-0.2-1.1-0.6-1.5s-1-0.5-1.7-0.5c-0.5,0-1.1,0.1-1.5,0.4c-0.5,0.3-0.9,0.7-1.3,1.5l-1-0.6c0.1-0.3,0.3-0.5,0.5-0.8
		c0.2-0.3,0.5-0.5,0.8-0.8c0.3-0.2,0.7-0.4,1.1-0.6c0.4-0.1,0.9-0.2,1.4-0.2s1,0.1,1.5,0.2c0.4,0.1,0.8,0.4,1.1,0.6
		c0.3,0.3,0.5,0.6,0.7,1c0.2,0.4,0.3,0.8,0.3,1.2v0.2c0,0.3-0.1,0.6-0.2,1c-0.1,0.4-0.3,0.6-0.5,0.9c-0.2,0.3-0.4,0.6-0.7,0.9
		c-0.2,0.3-0.5,0.6-0.8,0.9l-3.8,4.5h6.3v1.1h-7.8v-1L1148.6,485.7z"/>
	<path class="st0" d="M1158.2,492.1v-10.8l-3,1.8l-0.5-1l3.8-2.3h0.9v12.3H1158.2z"/>
</g>
<g>
	<path class="st0" d="M1454.9,702.5c0.3-0.4,0.6-0.7,0.8-1c0.2-0.3,0.4-0.5,0.5-0.8c0.1-0.2,0.2-0.4,0.2-0.6c0-0.2,0.1-0.3,0.1-0.5
		v-0.1c0-0.6-0.2-1.1-0.6-1.5c-0.4-0.4-1-0.5-1.7-0.5c-0.5,0-1.1,0.1-1.5,0.4c-0.5,0.3-0.9,0.7-1.3,1.5l-1-0.6
		c0.1-0.3,0.3-0.5,0.5-0.8c0.2-0.3,0.5-0.5,0.8-0.8c0.3-0.2,0.7-0.4,1.1-0.6c0.4-0.1,0.9-0.2,1.4-0.2s1,0.1,1.5,0.2
		c0.4,0.1,0.8,0.4,1.1,0.6c0.3,0.3,0.5,0.6,0.7,1c0.2,0.4,0.3,0.8,0.3,1.2v0.2c0,0.3-0.1,0.6-0.2,1c-0.1,0.4-0.3,0.6-0.5,0.9
		c-0.2,0.3-0.4,0.6-0.7,0.9c-0.2,0.3-0.5,0.6-0.8,0.9l-3.8,4.5h6.3v1.1h-7.8v-1L1454.9,702.5z"/>
	<path class="st0" d="M1461.2,707.3c0.4,0.2,0.8,0.4,1.2,0.5s0.9,0.2,1.4,0.2c0.6,0,1.1-0.1,1.6-0.3s0.8-0.6,1-1
		c0.2-0.4,0.4-1,0.5-1.6s0.2-1.3,0.2-2.1c-0.1,0.2-0.2,0.4-0.4,0.6c-0.2,0.2-0.4,0.4-0.6,0.6s-0.6,0.3-0.9,0.4s-0.7,0.2-1.2,0.2
		s-1-0.1-1.5-0.3s-0.9-0.4-1.2-0.8c-0.4-0.3-0.6-0.7-0.9-1.2c-0.2-0.5-0.3-1-0.3-1.6v-0.4c0-0.6,0.1-1.1,0.3-1.6
		c0.2-0.5,0.5-0.9,0.8-1.2c0.4-0.3,0.8-0.6,1.3-0.8s1-0.3,1.6-0.3s1.1,0.1,1.6,0.3s0.9,0.5,1.3,0.9c0.4,0.4,0.7,0.9,0.9,1.6
		c0.2,0.6,0.3,1.4,0.3,2.2v0.5c0,1.3-0.1,2.5-0.3,3.4c-0.2,0.9-0.5,1.6-0.8,2.2c-0.4,0.6-0.8,0.9-1.4,1.2c-0.6,0.3-1.2,0.3-2,0.3
		c-0.6,0-1.1-0.1-1.6-0.2c-0.5-0.1-1-0.4-1.5-0.6L1461.2,707.3z M1467,700.7c0-0.5-0.1-0.9-0.2-1.3c-0.1-0.4-0.3-0.7-0.6-1
		c-0.2-0.3-0.5-0.5-0.9-0.6c-0.3-0.2-0.7-0.2-1.1-0.2c-0.4,0-0.8,0.1-1.2,0.2c-0.4,0.1-0.7,0.3-0.9,0.6c-0.3,0.2-0.5,0.6-0.6,0.9
		c-0.1,0.4-0.2,0.8-0.2,1.2v0.3c0,0.5,0.1,0.9,0.2,1.2c0.2,0.4,0.4,0.7,0.6,0.9c0.3,0.2,0.6,0.4,0.9,0.6c0.3,0.1,0.7,0.2,1.1,0.2
		c0.4,0,0.7-0.1,1-0.2c0.3-0.1,0.6-0.3,0.9-0.6s0.5-0.5,0.6-0.9c0.2-0.3,0.2-0.7,0.2-1.1v-0.2L1467,700.7L1467,700.7z"/>
	<path class="st0" d="M1478.7,703.7c0,1.7-0.3,3.1-1,4c-0.7,0.9-1.7,1.4-3.2,1.4s-2.5-0.5-3.2-1.4c-0.7-0.9-1-2.3-1-4v-1.9
		c0-1.7,0.3-3,1-4c0.7-0.9,1.7-1.4,3.1-1.4c1.5,0,2.5,0.5,3.2,1.4c0.7,0.9,1,2.2,1,4v1.9H1478.7z M1477.5,701.8
		c0-1.5-0.2-2.6-0.7-3.3s-1.2-1-2.2-1c-0.9,0-1.7,0.3-2.2,1s-0.8,1.8-0.8,3.3v1.9c0,1.5,0.3,2.6,0.8,3.3s1.2,1,2.2,1s1.7-0.3,2.2-1
		s0.7-1.8,0.7-3.3V701.8z"/>
	<path class="st0" d="M1488.1,703.1h-6.9v-6.9h6.9V703.1z M1487,697.2h-4.6v4.8h4.6V697.2z M1488.5,704.7c0.6,0,1.2,0.1,1.8,0.2
		c0.6,0.1,1.1,0.3,1.5,0.6s0.8,0.6,1,0.9c0.2,0.4,0.4,0.8,0.4,1.2v0.7c0,0.4-0.1,0.8-0.4,1.2c-0.2,0.4-0.6,0.7-1,0.9
		s-0.9,0.4-1.5,0.6c-0.6,0.1-1.2,0.2-1.8,0.2s-1.2-0.1-1.8-0.2c-0.6-0.1-1.1-0.3-1.5-0.6c-0.4-0.2-0.8-0.6-1-0.9
		c-0.2-0.4-0.4-0.8-0.4-1.2v-0.7c0-0.5,0.1-0.9,0.4-1.2c0.2-0.4,0.6-0.7,1-0.9s0.9-0.4,1.5-0.6
		C1487.3,704.8,1487.9,704.7,1488.5,704.7z M1488.5,710.2c0.5,0,0.9,0,1.3-0.1c0.4-0.1,0.8-0.2,1.1-0.4c0.3-0.2,0.6-0.4,0.8-0.6
		c0.2-0.2,0.3-0.5,0.3-0.8v-0.6c0-0.3-0.1-0.6-0.3-0.8c-0.2-0.2-0.5-0.4-0.8-0.6c-0.3-0.2-0.7-0.3-1.1-0.4c-0.4-0.1-0.9-0.1-1.3-0.1
		c-0.5,0-0.9,0-1.3,0.1c-0.4,0.1-0.8,0.2-1.1,0.4c-0.3,0.2-0.6,0.4-0.8,0.6c-0.2,0.2-0.3,0.5-0.3,0.8v0.6c0,0.3,0.1,0.6,0.3,0.8
		c0.2,0.2,0.5,0.4,0.8,0.6c0.3,0.2,0.7,0.3,1.1,0.4C1487.7,710.1,1488.1,710.2,1488.5,710.2z M1492,697.6v-2.4h1.2v9.1h-1.2v-2.7
		h-2.8v-1.1h2.8v-2h-2.8v-1.1h2.8V697.6z"/>
	<path class="st0" d="M1497.7,703.8c0,1.3,0.2,2.6,0.5,3.8c0.3,1.3,0.9,2.5,1.8,3.7h-1.1c-0.9-1-1.5-2.2-1.9-3.4
		c-0.4-1.3-0.6-2.7-0.6-4.2V703c0-1.5,0.2-2.9,0.6-4.2c0.4-1.3,1-2.4,1.9-3.4h1.1c-0.8,1.1-1.4,2.3-1.8,3.6
		c-0.4,1.3-0.5,2.6-0.5,3.9V703.8z"/>
	<path class="st0" d="M1505.7,708.9v-10.8l-3,1.8l-0.5-1l3.8-2.3h0.9v12.3H1505.7z"/>
	<path class="st0" d="M1515.8,703.8c-0.6,0-1.1-0.1-1.6-0.3s-0.9-0.5-1.2-0.8c-0.3-0.3-0.6-0.7-0.8-1.1c-0.2-0.4-0.3-0.8-0.3-1.2v-1
		c0-0.4,0.1-0.8,0.3-1.2c0.2-0.4,0.4-0.8,0.8-1.1c0.3-0.3,0.7-0.6,1.2-0.8s1-0.3,1.6-0.3s1.1,0.1,1.6,0.3s0.9,0.5,1.2,0.8
		c0.3,0.3,0.6,0.7,0.8,1.1c0.2,0.4,0.3,0.8,0.3,1.2v1c0,0.4-0.1,0.8-0.3,1.2c-0.2,0.4-0.4,0.8-0.8,1.1c-0.4,0.3-0.7,0.6-1.2,0.8
		S1516.4,703.8,1515.8,703.8z M1515.8,697c-0.4,0-0.8,0.1-1.1,0.2c-0.3,0.1-0.6,0.3-0.8,0.5c-0.2,0.2-0.4,0.5-0.5,0.8
		s-0.2,0.6-0.2,0.9v0.8c0,0.3,0.1,0.6,0.2,0.9c0.1,0.3,0.3,0.6,0.5,0.8c0.2,0.2,0.5,0.4,0.8,0.5c0.3,0.1,0.7,0.2,1.1,0.2
		s0.8-0.1,1.1-0.2c0.3-0.1,0.6-0.3,0.8-0.5c0.2-0.2,0.4-0.5,0.5-0.8s0.2-0.6,0.2-0.9v-0.8c0-0.3-0.1-0.6-0.2-0.9
		c-0.1-0.3-0.3-0.6-0.5-0.8c-0.2-0.2-0.5-0.4-0.8-0.5C1516.5,697.1,1516.2,697,1515.8,697z M1515.8,709.5h8.7v1.1h-9.9v-5.1h1.2
		V709.5z M1524.1,706.4h-1.2v-11.1h1.2V706.4z"/>
	<path class="st0" d="M1527.5,696.2h7.1v1.1h-5.9v4.8c0.9,0,1.6,0,2.2,0c0.6,0,1.2,0,1.8-0.1s1.1-0.1,1.6-0.1s1.1-0.1,1.7-0.2
		l0.1,1.1c-0.4,0-0.8,0.1-1.2,0.1s-0.7,0.1-1.1,0.1c-0.4,0-0.8,0.1-1.2,0.1s-0.9,0-1.4,0s-1.1,0-1.7,0c-0.6,0-1.3,0-2.1,0v-6.9
		L1527.5,696.2L1527.5,696.2z M1534.4,704.7c0.6,0,1.2,0.1,1.8,0.2c0.6,0.1,1.1,0.3,1.5,0.6c0.4,0.2,0.8,0.6,1,0.9
		c0.2,0.4,0.4,0.8,0.4,1.2v0.6c0,0.4-0.1,0.8-0.4,1.2c-0.2,0.4-0.6,0.7-1,0.9s-0.9,0.4-1.5,0.6c-0.6,0.1-1.2,0.2-1.8,0.2
		s-1.2-0.1-1.8-0.2c-0.6-0.1-1.1-0.3-1.5-0.6c-0.4-0.2-0.8-0.6-1-0.9c-0.2-0.4-0.4-0.8-0.4-1.2v-0.6c0-0.5,0.1-0.9,0.4-1.2
		c0.2-0.4,0.6-0.7,1-0.9s0.9-0.4,1.5-0.6C1533.2,704.8,1533.8,704.7,1534.4,704.7z M1534.4,710.2c0.5,0,0.9,0,1.3-0.1
		c0.4-0.1,0.8-0.2,1.1-0.4c0.3-0.2,0.6-0.4,0.8-0.6c0.2-0.2,0.3-0.5,0.3-0.8v-0.5c0-0.3-0.1-0.6-0.3-0.8c-0.2-0.2-0.4-0.4-0.8-0.6
		c-0.4-0.2-0.7-0.3-1.1-0.4c-0.4-0.1-0.9-0.1-1.3-0.1c-0.4,0-0.9,0-1.3,0.1s-0.8,0.2-1.1,0.4c-0.3,0.2-0.6,0.4-0.8,0.6
		c-0.2,0.2-0.3,0.5-0.3,0.8v0.5c0,0.3,0.1,0.6,0.3,0.8c0.2,0.2,0.4,0.4,0.8,0.6c0.3,0.2,0.7,0.3,1.1,0.4
		C1533.5,710.1,1533.9,710.2,1534.4,710.2z M1538.9,699h2.4v1.1h-2.4v4.3h-1.2v-9.1h1.2V699z"/>
	<path class="st0" d="M1551.1,708.9v-10.8l-3,1.8l-0.5-1l3.8-2.3h0.9v12.3H1551.1z"/>
	<path class="st0" d="M1564,701.2v3.9h1.8v1.1h-1.8v2.7h-1.2v-2.7h-6.1v-1.1l5.9-8.4h1.4l-5.9,8.4h4.8v-3.9H1564z"/>
	<path class="st0" d="M1572.1,702.5c0.3-0.4,0.6-0.7,0.8-1c0.2-0.3,0.4-0.5,0.5-0.8c0.1-0.2,0.2-0.4,0.2-0.6c0-0.2,0.1-0.3,0.1-0.5
		v-0.1c0-0.6-0.2-1.1-0.6-1.5s-1-0.5-1.7-0.5c-0.5,0-1.1,0.1-1.5,0.4c-0.5,0.3-0.9,0.7-1.3,1.5l-1-0.6c0.1-0.3,0.3-0.5,0.5-0.8
		c0.2-0.3,0.5-0.5,0.8-0.8c0.3-0.2,0.7-0.4,1.1-0.6c0.4-0.1,0.9-0.2,1.4-0.2s1,0.1,1.5,0.2c0.4,0.1,0.8,0.4,1.1,0.6
		c0.3,0.3,0.5,0.6,0.7,1c0.2,0.4,0.3,0.8,0.3,1.2v0.2c0,0.3-0.1,0.6-0.2,1c-0.1,0.4-0.3,0.6-0.5,0.9c-0.2,0.3-0.4,0.6-0.7,0.9
		c-0.2,0.3-0.5,0.6-0.8,0.9l-3.8,4.5h6.3v1.1h-7.8v-1L1572.1,702.5z"/>
	<path class="st0" d="M1577.7,707.7h1.7v1.7h-1.7V707.7z"/>
	<path class="st0" d="M1584.9,708.9h-1.3l5-11.2h-6.9v-1.1h8.2v0.9L1584.9,708.9z"/>
	<path class="st0" d="M1592,703.8c0.9-0.4,1.7-0.8,2.3-1.1s1.2-0.6,1.6-0.9c0.4-0.3,0.8-0.5,1-0.8c0.3-0.2,0.5-0.5,0.6-0.8
		s0.2-0.5,0.3-0.8c0-0.3,0.1-0.6,0.1-1v-1.2h-5.4v-1.1h6.5v2.3c0,0.4,0,0.7-0.1,1h4v-4.3h1.2v11.1h-1.2v-5.8h-4.1
		c-0.1,0.4-0.4,0.7-0.6,1c-0.3,0.3-0.7,0.6-1.2,1c-0.5,0.3-1.1,0.7-1.8,1c-0.7,0.3-1.6,0.8-2.6,1.2L1592,703.8z M1596,709.5h8.7v1.1
		h-9.9v-5.1h1.2V709.5z"/>
	<path class="st0" d="M1609,703c0-1.4-0.2-2.7-0.5-3.9c-0.4-1.3-1-2.4-1.8-3.6h1.1c0.8,1,1.5,2.1,1.9,3.4c0.4,1.3,0.6,2.7,0.6,4.2
		v0.7c0,1.5-0.2,2.9-0.6,4.2c-0.4,1.3-1,2.4-1.9,3.4h-1.1c0.9-1.2,1.5-2.4,1.8-3.7c0.3-1.3,0.5-2.5,0.5-3.8V703z"/>
</g>
<g>
	<path class="st0" d="M1468.1,481.3c-0.4-0.2-0.8-0.4-1.2-0.5s-0.9-0.2-1.4-0.2c-0.6,0-1.1,0.1-1.5,0.3c-0.4,0.2-0.7,0.6-1,1
		c-0.3,0.4-0.5,1-0.6,1.6s-0.2,1.4-0.3,2.2c0.1-0.2,0.2-0.4,0.4-0.6c0.2-0.2,0.4-0.4,0.6-0.6c0.3-0.2,0.6-0.3,0.9-0.4
		s0.7-0.2,1.2-0.2s1,0.1,1.5,0.3s0.9,0.4,1.2,0.7c0.3,0.3,0.6,0.7,0.8,1.2c0.2,0.5,0.3,1,0.3,1.6v0.4c0,0.6-0.1,1.1-0.3,1.6
		c-0.2,0.5-0.5,0.9-0.8,1.2c-0.4,0.3-0.8,0.6-1.3,0.8c-0.5,0.2-1,0.3-1.6,0.3s-1.1-0.1-1.6-0.3s-0.9-0.5-1.3-0.9
		c-0.4-0.4-0.7-0.9-0.9-1.6c-0.2-0.7-0.3-1.4-0.3-2.2v-0.4c0-1.3,0.1-2.4,0.3-3.3c0.2-0.9,0.5-1.7,0.9-2.2c0.4-0.6,0.9-1,1.4-1.3
		c0.6-0.3,1.2-0.4,1.9-0.4c0.6,0,1.1,0.1,1.6,0.2s1,0.4,1.5,0.6L1468.1,481.3z M1462.3,488c0,0.5,0.1,0.9,0.2,1.3s0.3,0.7,0.6,1
		c0.2,0.3,0.5,0.5,0.9,0.6s0.7,0.2,1.1,0.2c0.4,0,0.8-0.1,1.2-0.2s0.7-0.3,0.9-0.6c0.3-0.2,0.5-0.5,0.6-0.9s0.2-0.8,0.2-1.2v-0.3
		c0-0.5-0.1-0.9-0.2-1.2c-0.2-0.4-0.4-0.7-0.6-0.9c-0.3-0.2-0.6-0.4-0.9-0.6s-0.7-0.2-1.1-0.2c-0.4,0-0.7,0.1-1.1,0.2
		c-0.3,0.1-0.6,0.3-0.9,0.6c-0.3,0.2-0.5,0.5-0.6,0.9c-0.2,0.3-0.2,0.7-0.2,1.1L1462.3,488L1462.3,488z"/>
	<path class="st0" d="M1478.3,481.3c-0.4-0.2-0.8-0.4-1.2-0.5s-0.9-0.2-1.4-0.2c-0.6,0-1.1,0.1-1.5,0.3c-0.4,0.2-0.7,0.6-1,1
		c-0.3,0.4-0.5,1-0.6,1.6s-0.2,1.4-0.3,2.2c0.1-0.2,0.2-0.4,0.4-0.6c0.2-0.2,0.4-0.4,0.6-0.6c0.3-0.2,0.6-0.3,0.9-0.4
		c0.3-0.1,0.7-0.2,1.2-0.2s1,0.1,1.5,0.3s0.9,0.4,1.2,0.7c0.3,0.3,0.6,0.7,0.8,1.2c0.2,0.5,0.3,1,0.3,1.6v0.4c0,0.6-0.1,1.1-0.3,1.6
		c-0.2,0.5-0.5,0.9-0.8,1.2c-0.4,0.3-0.8,0.6-1.3,0.8c-0.5,0.2-1,0.3-1.6,0.3s-1.1-0.1-1.6-0.3s-0.9-0.5-1.3-0.9
		c-0.4-0.4-0.7-0.9-0.9-1.6c-0.2-0.7-0.3-1.4-0.3-2.2v-0.4c0-1.3,0.1-2.4,0.3-3.3c0.2-0.9,0.5-1.7,0.9-2.2c0.4-0.6,0.9-1,1.4-1.3
		c0.6-0.3,1.2-0.4,1.9-0.4c0.6,0,1.1,0.1,1.6,0.2s1,0.4,1.5,0.6L1478.3,481.3z M1472.5,488c0,0.5,0.1,0.9,0.2,1.3
		c0.1,0.4,0.3,0.7,0.6,1c0.2,0.3,0.5,0.5,0.9,0.6s0.7,0.2,1.1,0.2c0.4,0,0.8-0.1,1.2-0.2s0.7-0.3,0.9-0.6c0.3-0.2,0.5-0.5,0.6-0.9
		s0.2-0.8,0.2-1.2v-0.3c0-0.5-0.1-0.9-0.2-1.2c-0.2-0.4-0.4-0.7-0.6-0.9c-0.3-0.2-0.6-0.4-0.9-0.6s-0.7-0.2-1.1-0.2
		s-0.7,0.1-1.1,0.2c-0.3,0.1-0.6,0.3-0.9,0.6c-0.3,0.2-0.5,0.5-0.6,0.9c-0.2,0.3-0.2,0.7-0.2,1.1v0.2H1472.5z"/>
	<path class="st0" d="M1488.2,484.3v3.9h1.8v1.1h-1.8v2.7h-1.2v-2.7h-6.1v-1.1l5.9-8.4h1.4l-5.9,8.4h4.8v-3.9H1488.2z"/>
	<path class="st0" d="M1498.9,486.2h-6.9v-6.9h6.9V486.2z M1497.8,480.3h-4.6v4.8h4.6V480.3z M1499.3,487.8c0.6,0,1.2,0.1,1.8,0.2
		s1.1,0.3,1.5,0.6s0.8,0.6,1,0.9c0.2,0.4,0.4,0.8,0.4,1.2v0.7c0,0.4-0.1,0.8-0.4,1.2c-0.2,0.4-0.6,0.7-1,0.9
		c-0.4,0.2-0.9,0.4-1.5,0.6c-0.6,0.1-1.2,0.2-1.8,0.2s-1.2-0.1-1.8-0.2s-1.1-0.3-1.5-0.6c-0.4-0.2-0.8-0.6-1-0.9
		c-0.2-0.4-0.4-0.8-0.4-1.2v-0.7c0-0.5,0.1-0.9,0.4-1.2c0.2-0.4,0.6-0.7,1-0.9c0.4-0.2,0.9-0.4,1.5-0.6
		C1498.1,487.9,1498.7,487.8,1499.3,487.8z M1499.3,493.2c0.5,0,0.9,0,1.3-0.1c0.4-0.1,0.8-0.2,1.1-0.4c0.3-0.2,0.6-0.4,0.8-0.6
		c0.2-0.2,0.3-0.5,0.3-0.8v-0.6c0-0.3-0.1-0.6-0.3-0.8c-0.2-0.2-0.5-0.4-0.8-0.6c-0.3-0.2-0.7-0.3-1.1-0.4c-0.4-0.1-0.9-0.1-1.3-0.1
		c-0.5,0-0.9,0-1.3,0.1s-0.8,0.2-1.1,0.4c-0.3,0.2-0.6,0.4-0.8,0.6c-0.2,0.2-0.3,0.5-0.3,0.8v0.6c0,0.3,0.1,0.6,0.3,0.8
		c0.2,0.2,0.5,0.4,0.8,0.6c0.3,0.2,0.7,0.3,1.1,0.4C1498.5,493.2,1498.9,493.2,1499.3,493.2z M1502.8,480.7v-2.4h1.2v9.1h-1.2v-2.7
		h-2.8v-1.1h2.8v-2h-2.8v-1.1h2.8V480.7z"/>
	<path class="st0" d="M1508.5,486.9c0,1.3,0.2,2.6,0.5,3.8c0.3,1.3,0.9,2.5,1.8,3.7h-1.1c-0.9-1-1.5-2.2-1.9-3.4
		c-0.4-1.3-0.6-2.7-0.6-4.2v-0.7c0-1.5,0.2-2.9,0.6-4.2c0.4-1.3,1-2.4,1.9-3.4h1.1c-0.8,1.1-1.4,2.3-1.8,3.6
		c-0.4,1.3-0.5,2.6-0.5,3.9V486.9z"/>
	<path class="st0" d="M1516.5,492v-10.8l-3,1.8l-0.5-1l3.8-2.3h0.9V492H1516.5z"/>
	<path class="st0" d="M1526.6,486.8c-0.6,0-1.1-0.1-1.6-0.3c-0.5-0.2-0.9-0.5-1.2-0.8c-0.3-0.3-0.6-0.7-0.8-1.1
		c-0.2-0.4-0.3-0.8-0.3-1.2v-1c0-0.4,0.1-0.8,0.3-1.2c0.2-0.4,0.4-0.8,0.8-1.1c0.3-0.3,0.7-0.6,1.2-0.8c0.5-0.2,1-0.3,1.6-0.3
		s1.1,0.1,1.6,0.3s0.9,0.5,1.2,0.8c0.3,0.3,0.6,0.7,0.8,1.1c0.2,0.4,0.3,0.8,0.3,1.2v1c0,0.4-0.1,0.8-0.3,1.2
		c-0.2,0.4-0.4,0.8-0.8,1.1c-0.4,0.3-0.7,0.6-1.2,0.8S1527.2,486.8,1526.6,486.8z M1526.6,480.1c-0.4,0-0.8,0.1-1.1,0.2
		c-0.3,0.1-0.6,0.3-0.8,0.5c-0.2,0.2-0.4,0.5-0.5,0.8s-0.2,0.6-0.2,0.9v0.8c0,0.3,0.1,0.6,0.2,0.9c0.1,0.3,0.3,0.6,0.5,0.8
		c0.2,0.2,0.5,0.4,0.8,0.5c0.3,0.1,0.7,0.2,1.1,0.2c0.4,0,0.8-0.1,1.1-0.2c0.3-0.1,0.6-0.3,0.8-0.5c0.2-0.2,0.4-0.5,0.5-0.8
		s0.2-0.6,0.2-0.9v-0.8c0-0.3-0.1-0.6-0.2-0.9s-0.3-0.6-0.5-0.8c-0.2-0.2-0.5-0.4-0.8-0.5C1527.3,480.1,1527,480.1,1526.6,480.1z
		 M1526.6,492.6h8.7v1.1h-9.9v-5.1h1.2V492.6z M1534.9,489.4h-1.2v-11.1h1.2V489.4z"/>
	<path class="st0" d="M1538.3,479.3h7.1v1.1h-5.9v4.8c0.9,0,1.6,0,2.2,0s1.2,0,1.8-0.1s1.1-0.1,1.6-0.1s1.1-0.1,1.7-0.2l0.1,1.1
		c-0.4,0-0.8,0.1-1.2,0.1s-0.7,0.1-1.1,0.1c-0.4,0-0.8,0.1-1.2,0.1s-0.9,0-1.4,0s-1.1,0-1.7,0c-0.6,0-1.3,0-2.1,0v-6.9H1538.3z
		 M1545.2,487.8c0.6,0,1.2,0.1,1.8,0.2s1.1,0.3,1.5,0.6c0.4,0.2,0.8,0.6,1,0.9c0.2,0.4,0.4,0.8,0.4,1.2v0.6c0,0.4-0.1,0.8-0.4,1.2
		c-0.2,0.4-0.6,0.7-1,0.9c-0.4,0.2-0.9,0.4-1.5,0.6c-0.6,0.1-1.2,0.2-1.8,0.2s-1.2-0.1-1.8-0.2s-1.1-0.3-1.5-0.6
		c-0.4-0.2-0.8-0.6-1-0.9c-0.2-0.4-0.4-0.8-0.4-1.2v-0.6c0-0.5,0.1-0.9,0.4-1.2c0.2-0.4,0.6-0.7,1-0.9c0.4-0.2,0.9-0.4,1.5-0.6
		C1544,487.9,1544.6,487.8,1545.2,487.8z M1545.2,493.2c0.5,0,0.9,0,1.3-0.1c0.4-0.1,0.8-0.2,1.1-0.4c0.3-0.2,0.6-0.4,0.8-0.6
		c0.2-0.2,0.3-0.5,0.3-0.8v-0.5c0-0.3-0.1-0.6-0.3-0.8c-0.2-0.2-0.4-0.4-0.8-0.6c-0.4-0.2-0.7-0.3-1.1-0.4c-0.4-0.1-0.9-0.1-1.3-0.1
		c-0.4,0-0.9,0-1.3,0.1s-0.8,0.2-1.1,0.4c-0.3,0.2-0.6,0.4-0.8,0.6c-0.2,0.2-0.3,0.5-0.3,0.8v0.5c0,0.3,0.1,0.6,0.3,0.8
		c0.2,0.2,0.4,0.4,0.8,0.6c0.3,0.2,0.7,0.3,1.1,0.4C1544.3,493.2,1544.7,493.2,1545.2,493.2z M1549.7,482.1h2.4v1.1h-2.4v4.3h-1.2
		v-9.1h1.2V482.1z"/>
	<path class="st0" d="M1564.8,481.3c-0.4-0.2-0.8-0.4-1.2-0.5s-0.9-0.2-1.4-0.2c-0.6,0-1.1,0.1-1.5,0.3c-0.4,0.2-0.7,0.6-1,1
		c-0.3,0.4-0.5,1-0.6,1.6s-0.2,1.4-0.3,2.2c0.1-0.2,0.2-0.4,0.4-0.6c0.2-0.2,0.4-0.4,0.6-0.6c0.3-0.2,0.6-0.3,0.9-0.4
		c0.3-0.1,0.7-0.2,1.2-0.2s1,0.1,1.5,0.3s0.9,0.4,1.2,0.7c0.3,0.3,0.6,0.7,0.8,1.2c0.2,0.5,0.3,1,0.3,1.6v0.4c0,0.6-0.1,1.1-0.3,1.6
		c-0.2,0.5-0.5,0.9-0.8,1.2c-0.4,0.3-0.8,0.6-1.3,0.8c-0.5,0.2-1,0.3-1.6,0.3s-1.1-0.1-1.6-0.3s-0.9-0.5-1.3-0.9
		c-0.4-0.4-0.7-0.9-0.9-1.6c-0.2-0.7-0.3-1.4-0.3-2.2v-0.4c0-1.3,0.1-2.4,0.3-3.3c0.2-0.9,0.5-1.7,0.9-2.2c0.4-0.6,0.9-1,1.4-1.3
		c0.6-0.3,1.2-0.4,1.9-0.4c0.6,0,1.1,0.1,1.6,0.2s1,0.4,1.5,0.6L1564.8,481.3z M1559.1,488c0,0.5,0.1,0.9,0.2,1.3
		c0.1,0.4,0.3,0.7,0.6,1c0.2,0.3,0.5,0.5,0.9,0.6s0.7,0.2,1.1,0.2c0.4,0,0.8-0.1,1.2-0.2s0.7-0.3,0.9-0.6c0.3-0.2,0.5-0.5,0.6-0.9
		s0.2-0.8,0.2-1.2v-0.3c0-0.5-0.1-0.9-0.2-1.2c-0.2-0.4-0.4-0.7-0.6-0.9c-0.3-0.2-0.6-0.4-0.9-0.6s-0.7-0.2-1.1-0.2
		s-0.7,0.1-1.1,0.2c-0.3,0.1-0.6,0.3-0.9,0.6c-0.3,0.2-0.5,0.5-0.6,0.9c-0.2,0.3-0.2,0.7-0.2,1.1v0.2H1559.1z"/>
	<path class="st0" d="M1572.7,485.6c0.3-0.4,0.6-0.7,0.8-1c0.2-0.3,0.4-0.5,0.5-0.8c0.1-0.2,0.2-0.4,0.2-0.6s0.1-0.3,0.1-0.5v-0.1
		c0-0.6-0.2-1.1-0.6-1.5c-0.4-0.4-1-0.5-1.7-0.5c-0.5,0-1.1,0.1-1.5,0.4c-0.5,0.3-0.9,0.7-1.3,1.5l-1-0.6c0.1-0.3,0.3-0.5,0.5-0.8
		c0.2-0.3,0.5-0.5,0.8-0.8c0.3-0.2,0.7-0.4,1.1-0.6c0.4-0.1,0.9-0.2,1.4-0.2s1,0.1,1.5,0.2c0.4,0.1,0.8,0.4,1.1,0.6
		c0.3,0.3,0.5,0.6,0.7,1c0.2,0.4,0.3,0.8,0.3,1.2v0.2c0,0.3-0.1,0.6-0.2,1c-0.1,0.4-0.3,0.6-0.5,0.9c-0.2,0.3-0.4,0.6-0.7,0.9
		c-0.2,0.3-0.5,0.6-0.8,0.9l-3.8,4.5h6.3v1.1h-7.8v-1L1572.7,485.6z"/>
	<path class="st0" d="M1578.3,490.8h1.7v1.7h-1.7V490.8z"/>
	<path class="st0" d="M1582.6,481.4c0.1-0.2,0.3-0.5,0.5-0.7c0.2-0.2,0.5-0.4,0.8-0.6c0.3-0.2,0.6-0.3,1-0.4s0.8-0.2,1.2-0.2
		c0.6,0,1.1,0.1,1.5,0.2s0.8,0.4,1.1,0.6c0.3,0.3,0.6,0.6,0.7,1c0.1,0.4,0.3,0.8,0.3,1.2v0.2c0,0.2,0,0.5-0.1,0.8s-0.2,0.5-0.3,0.8
		c-0.2,0.2-0.4,0.5-0.6,0.7c-0.3,0.2-0.6,0.4-1,0.5c0.9,0.1,1.5,0.5,1.9,1s0.7,1.1,0.7,1.9v0.3c0,0.4-0.1,0.9-0.2,1.3
		s-0.4,0.8-0.7,1.1c-0.3,0.3-0.7,0.6-1.3,0.8c-0.5,0.2-1.2,0.3-1.9,0.3c-0.7,0-1.4-0.1-2.1-0.3c-0.7-0.2-1.3-0.6-1.9-1l0.6-1
		c0.6,0.4,1.2,0.7,1.7,0.9c0.5,0.2,1.1,0.3,1.6,0.3s1-0.1,1.4-0.2s0.7-0.3,0.9-0.6c0.2-0.3,0.4-0.5,0.5-0.8s0.2-0.6,0.2-0.9v-0.2
		c0-0.5-0.1-0.8-0.3-1.1c-0.2-0.3-0.4-0.5-0.7-0.7c-0.3-0.2-0.6-0.3-0.9-0.4s-0.6-0.1-0.9-0.1h-1.4v-1h1.4c0.4,0,0.7-0.1,1-0.2
		c0.3-0.1,0.5-0.3,0.7-0.6c0.2-0.3,0.3-0.5,0.4-0.8c0.1-0.3,0.1-0.5,0.1-0.8v-0.1c0-0.6-0.2-1.1-0.6-1.5s-1-0.5-1.8-0.5
		c-0.5,0-1,0.1-1.4,0.3s-0.9,0.6-1.2,1.1L1582.6,481.4z"/>
	<path class="st0" d="M1592.6,486.9c0.9-0.4,1.7-0.8,2.3-1.1c0.6-0.3,1.2-0.6,1.6-0.9s0.8-0.5,1-0.8c0.3-0.2,0.5-0.5,0.6-0.8
		s0.2-0.5,0.3-0.8c0-0.3,0.1-0.6,0.1-1v-1.2h-5.4v-1.1h6.5v2.3c0,0.4,0,0.7-0.1,1h4v-4.3h1.2v11.1h-1.2v-5.8h-4.3
		c-0.1,0.4-0.4,0.7-0.6,1c-0.3,0.3-0.7,0.6-1.2,1c-0.5,0.3-1.1,0.7-1.8,1c-0.7,0.3-1.6,0.8-2.6,1.2L1592.6,486.9z M1596.6,492.6h8.7
		v1.1h-9.9v-5.1h1.2V492.6z"/>
	<path class="st0" d="M1609.6,486c0-1.4-0.2-2.7-0.5-3.9c-0.4-1.3-1-2.4-1.8-3.6h1.1c0.8,1,1.5,2.1,1.9,3.4s0.6,2.7,0.6,4.2v0.7
		c0,1.5-0.2,2.9-0.6,4.2c-0.4,1.3-1,2.4-1.9,3.4h-1.1c0.9-1.2,1.5-2.4,1.8-3.7c0.3-1.3,0.5-2.5,0.5-3.8V486z"/>
</g>
<g>
	<path class="st1" d="M1474.9,168.8c0-0.7,0.2-1.3,0.6-1.8s1-0.9,1.6-1.1c-0.6-0.3-1-0.7-1.4-1.1c-0.3-0.5-0.5-1.1-0.5-1.7v-0.3
		c0-0.4,0.1-0.8,0.3-1.2c0.2-0.4,0.4-0.7,0.7-1c0.3-0.3,0.7-0.5,1.1-0.6c0.4-0.2,0.9-0.2,1.4-0.2s1,0.1,1.4,0.2
		c0.4,0.2,0.8,0.4,1.1,0.6c0.3,0.3,0.6,0.6,0.7,1c0.2,0.4,0.3,0.8,0.3,1.2v0.3c0,0.6-0.2,1.2-0.5,1.7c-0.3,0.5-0.8,0.9-1.4,1.1
		c0.3,0.1,0.6,0.2,0.9,0.4c0.3,0.2,0.5,0.4,0.7,0.7c0.2,0.3,0.4,0.5,0.5,0.8s0.2,0.6,0.2,1v0.3c0,0.5-0.1,0.9-0.3,1.3
		c-0.2,0.4-0.5,0.8-0.8,1c-0.3,0.2-0.8,0.5-1.2,0.7c-0.5,0.2-1,0.2-1.6,0.2s-1.1-0.1-1.6-0.2c-0.5-0.2-0.9-0.4-1.2-0.7
		c-0.3-0.3-0.6-0.6-0.8-1c-0.2-0.4-0.3-0.9-0.3-1.3L1474.9,168.8L1474.9,168.8z M1476.1,169.1c0,0.3,0.1,0.6,0.2,0.9
		c0.1,0.3,0.3,0.5,0.5,0.7c0.2,0.2,0.5,0.4,0.9,0.5c0.3,0.1,0.7,0.2,1.1,0.2s0.8-0.1,1.2-0.2c0.3-0.1,0.6-0.3,0.9-0.5
		c0.2-0.2,0.4-0.4,0.5-0.7s0.2-0.6,0.2-0.9v-0.2c0-0.4-0.1-0.7-0.2-1c-0.1-0.3-0.3-0.5-0.6-0.8c-0.2-0.2-0.5-0.4-0.9-0.5
		c-0.3-0.1-0.7-0.2-1.1-0.2s-0.8,0.1-1.1,0.2c-0.3,0.1-0.6,0.3-0.9,0.5c-0.2,0.2-0.4,0.5-0.6,0.8c-0.1,0.3-0.2,0.6-0.2,1
		L1476.1,169.1L1476.1,169.1z M1476.5,163.1c0,0.3,0.1,0.6,0.2,0.9c0.1,0.3,0.3,0.5,0.5,0.8c0.2,0.2,0.5,0.4,0.8,0.5
		c0.3,0.1,0.6,0.2,1,0.2s0.7-0.1,1-0.2c0.3-0.1,0.5-0.3,0.8-0.5c0.2-0.2,0.4-0.5,0.5-0.8s0.2-0.6,0.2-0.9v-0.2
		c0-0.6-0.2-1.1-0.7-1.5c-0.4-0.4-1-0.6-1.7-0.6c-0.7,0-1.3,0.2-1.8,0.6c-0.4,0.4-0.6,0.9-0.6,1.5v0.2H1476.5z"/>
	<path class="st1" d="M1485.4,161.7c0.1-0.2,0.3-0.5,0.5-0.7c0.2-0.2,0.5-0.4,0.8-0.6c0.3-0.2,0.6-0.3,1-0.4
		c0.4-0.1,0.8-0.2,1.2-0.2c0.6,0,1.1,0.1,1.5,0.2c0.4,0.1,0.8,0.4,1.1,0.6c0.3,0.3,0.6,0.6,0.7,1c0.1,0.4,0.3,0.8,0.3,1.2v0.2
		c0,0.2,0,0.5-0.1,0.8s-0.2,0.5-0.3,0.8c-0.2,0.2-0.4,0.5-0.6,0.7c-0.3,0.2-0.6,0.4-1,0.5c0.9,0.1,1.5,0.5,1.9,1s0.7,1.1,0.7,1.9
		v0.3c0,0.4-0.1,0.9-0.2,1.3c-0.1,0.4-0.4,0.8-0.7,1.1c-0.3,0.3-0.7,0.6-1.3,0.8c-0.5,0.2-1.2,0.3-1.9,0.3c-0.7,0-1.4-0.1-2.1-0.3
		s-1.3-0.6-1.9-1l0.6-1c0.6,0.4,1.2,0.7,1.7,0.9s1.1,0.3,1.6,0.3s1-0.1,1.4-0.2s0.7-0.3,0.9-0.6c0.2-0.3,0.4-0.5,0.5-0.8
		s0.2-0.6,0.2-0.9v-0.2c0-0.5-0.1-0.8-0.3-1.1c-0.2-0.3-0.4-0.5-0.7-0.7c-0.3-0.2-0.6-0.3-0.9-0.4c-0.3-0.1-0.6-0.1-0.9-0.1h-1.4v-1
		h1.4c0.4,0,0.7-0.1,1-0.2c0.3-0.1,0.5-0.3,0.7-0.6c0.2-0.3,0.3-0.5,0.4-0.8c0.1-0.3,0.1-0.5,0.1-0.8v-0.1c0-0.6-0.2-1.1-0.6-1.5
		c-0.4-0.4-1-0.5-1.8-0.5c-0.5,0-1,0.1-1.4,0.3s-0.9,0.6-1.2,1.1L1485.4,161.7z"/>
	<path class="st1" d="M1500,165.8c0.3-0.4,0.6-0.7,0.8-1c0.2-0.3,0.4-0.5,0.5-0.8c0.1-0.2,0.2-0.4,0.2-0.6c0-0.2,0.1-0.3,0.1-0.5
		v-0.1c0-0.6-0.2-1.1-0.6-1.5s-1-0.5-1.7-0.5c-0.5,0-1.1,0.1-1.5,0.4c-0.5,0.3-0.9,0.7-1.3,1.5l-1-0.6c0.1-0.3,0.3-0.5,0.5-0.8
		c0.2-0.3,0.5-0.5,0.8-0.8c0.3-0.2,0.7-0.4,1.1-0.6c0.4-0.1,0.9-0.2,1.4-0.2s1,0.1,1.5,0.2c0.4,0.1,0.8,0.4,1.1,0.6
		c0.3,0.3,0.5,0.6,0.7,1c0.2,0.4,0.3,0.8,0.3,1.2v0.2c0,0.3-0.1,0.6-0.2,1c-0.1,0.4-0.3,0.6-0.5,0.9c-0.2,0.3-0.4,0.6-0.7,0.9
		c-0.2,0.3-0.5,0.6-0.8,0.9l-3.8,4.5h6.3v1.1h-7.8v-1L1500,165.8z"/>
	<path class="st1" d="M1512.8,166.4h-6.9v-6.9h6.9V166.4z M1511.7,160.5h-4.6v4.8h4.6V160.5z M1513.3,168c0.6,0,1.2,0.1,1.8,0.2
		c0.6,0.1,1.1,0.3,1.5,0.6s0.8,0.6,1,0.9c0.2,0.4,0.4,0.8,0.4,1.2v0.7c0,0.4-0.1,0.8-0.4,1.2c-0.2,0.4-0.6,0.7-1,0.9
		s-0.9,0.4-1.5,0.6c-0.6,0.1-1.2,0.2-1.8,0.2s-1.2-0.1-1.8-0.2c-0.6-0.1-1.1-0.3-1.5-0.6c-0.4-0.2-0.8-0.6-1-0.9
		c-0.2-0.4-0.4-0.8-0.4-1.2v-0.7c0-0.5,0.1-0.9,0.4-1.2c0.2-0.4,0.6-0.7,1-0.9s0.9-0.4,1.5-0.6C1512,168.1,1512.6,168,1513.3,168z
		 M1513.3,173.5c0.5,0,0.9,0,1.3-0.1c0.4-0.1,0.8-0.2,1.1-0.4c0.3-0.2,0.6-0.4,0.8-0.6c0.2-0.2,0.3-0.5,0.3-0.8V171
		c0-0.3-0.1-0.6-0.3-0.8c-0.2-0.2-0.5-0.4-0.8-0.6c-0.3-0.2-0.7-0.3-1.1-0.4c-0.4-0.1-0.9-0.1-1.3-0.1c-0.5,0-0.9,0-1.3,0.1
		s-0.8,0.2-1.1,0.4c-0.3,0.2-0.6,0.4-0.8,0.6c-0.2,0.2-0.3,0.5-0.3,0.8v0.6c0,0.3,0.1,0.6,0.3,0.8c0.2,0.2,0.5,0.4,0.8,0.6
		c0.3,0.2,0.7,0.3,1.1,0.4C1512.4,173.4,1512.8,173.5,1513.3,173.5z M1516.7,160.9v-2.4h1.2v9.1h-1.2V165h-2.8v-1h2.8v-2h-2.8v-1.1
		H1516.7z"/>
	<path class="st1" d="M1522.4,167.1c0,1.3,0.2,2.6,0.5,3.8c0.3,1.3,0.9,2.5,1.8,3.7h-1.1c-0.9-1-1.5-2.2-1.9-3.4
		c-0.4-1.3-0.6-2.7-0.6-4.2v-0.7c0-1.5,0.2-2.9,0.6-4.2c0.4-1.3,1-2.4,1.9-3.4h1.1c-0.8,1.1-1.4,2.3-1.8,3.6
		c-0.4,1.3-0.5,2.6-0.5,3.9V167.1z"/>
	<path class="st1" d="M1530.4,172.2v-10.8l-3,1.8l-0.5-1l3.8-2.3h0.9v12.3H1530.4z"/>
	<path class="st1" d="M1540.5,167.1c-0.6,0-1.1-0.1-1.6-0.3s-0.9-0.5-1.2-0.8c-0.3-0.3-0.6-0.7-0.8-1.1c-0.2-0.4-0.3-0.8-0.3-1.2v-1
		c0-0.4,0.1-0.8,0.3-1.2c0.2-0.4,0.4-0.8,0.8-1.1c0.3-0.3,0.7-0.6,1.2-0.8s1-0.3,1.6-0.3s1.1,0.1,1.6,0.3s0.9,0.5,1.2,0.8
		c0.3,0.3,0.6,0.7,0.8,1.1c0.2,0.4,0.3,0.8,0.3,1.2v1c0,0.4-0.1,0.8-0.3,1.2c-0.2,0.4-0.4,0.8-0.8,1.1c-0.4,0.3-0.7,0.6-1.2,0.8
		S1541.1,167.1,1540.5,167.1z M1540.5,160.3c-0.4,0-0.8,0.1-1.1,0.2c-0.3,0.1-0.6,0.3-0.8,0.5c-0.2,0.2-0.4,0.5-0.5,0.8
		s-0.2,0.6-0.2,0.9v0.8c0,0.3,0.1,0.6,0.2,0.9c0.1,0.3,0.3,0.6,0.5,0.8c0.2,0.2,0.5,0.4,0.8,0.5c0.3,0.1,0.7,0.2,1.1,0.2
		c0.4,0,0.8-0.1,1.1-0.2c0.3-0.1,0.6-0.3,0.8-0.5c0.2-0.2,0.4-0.5,0.5-0.8s0.2-0.6,0.2-0.9v-0.8c0-0.3-0.1-0.6-0.2-0.9
		c-0.1-0.3-0.3-0.6-0.5-0.8c-0.2-0.2-0.5-0.4-0.8-0.5C1541.2,160.4,1540.9,160.3,1540.5,160.3z M1540.5,172.8h8.7v1.1h-9.9v-5.1h1.2
		V172.8z M1548.8,169.7h-1.2v-11.1h1.2V169.7z"/>
	<path class="st1" d="M1552.3,159.5h7.1v1.1h-5.9v4.8c0.9,0,1.6,0,2.2,0s1.2,0,1.8-0.1s1.1-0.1,1.6-0.1s1.1-0.1,1.7-0.2l0.1,1.1
		c-0.4,0-0.8,0.1-1.2,0.1s-0.7,0.1-1.1,0.1c-0.4,0-0.8,0.1-1.2,0.1s-0.9,0-1.4,0s-1.1,0-1.7,0c-0.6,0-1.3,0-2.1,0v-6.9L1552.3,159.5
		L1552.3,159.5z M1559.1,168c0.6,0,1.2,0.1,1.8,0.2c0.6,0.1,1.1,0.3,1.5,0.6c0.4,0.2,0.8,0.6,1,0.9c0.2,0.4,0.4,0.8,0.4,1.2v0.6
		c0,0.4-0.1,0.8-0.4,1.2c-0.2,0.4-0.6,0.7-1,0.9s-0.9,0.4-1.5,0.6c-0.6,0.1-1.2,0.2-1.8,0.2s-1.2-0.1-1.8-0.2
		c-0.6-0.1-1.1-0.3-1.5-0.6c-0.4-0.2-0.8-0.6-1-0.9c-0.2-0.4-0.4-0.8-0.4-1.2v-0.6c0-0.5,0.1-0.9,0.4-1.2c0.2-0.4,0.6-0.7,1-0.9
		s0.9-0.4,1.5-0.6C1557.9,168.1,1558.5,168,1559.1,168z M1559.1,173.5c0.5,0,0.9,0,1.3-0.1s0.8-0.2,1.1-0.4c0.3-0.2,0.6-0.4,0.8-0.6
		c0.2-0.2,0.3-0.5,0.3-0.8V171c0-0.3-0.1-0.6-0.3-0.8c-0.2-0.2-0.4-0.4-0.8-0.6c-0.4-0.2-0.7-0.3-1.1-0.4c-0.4-0.1-0.9-0.1-1.3-0.1
		c-0.4,0-0.9,0-1.3,0.1c-0.4,0.1-0.8,0.2-1.1,0.4c-0.3,0.2-0.6,0.4-0.8,0.6c-0.2,0.2-0.3,0.5-0.3,0.8v0.5c0,0.3,0.1,0.6,0.3,0.8
		c0.2,0.2,0.4,0.4,0.8,0.6c0.3,0.2,0.7,0.3,1.1,0.4S1558.6,173.5,1559.1,173.5z M1563.6,162.3h2.4v1.1h-2.4v4.3h-1.2v-9.1h1.2V162.3
		z"/>
	<path class="st1" d="M1578.6,168.5c0-1-0.2-1.7-0.7-2.2c-0.5-0.4-1.2-0.7-2-0.7c-0.5,0-1,0.1-1.4,0.3s-0.7,0.4-1,0.7h-1.1l0.4-6.7
		h6.3v1.1h-5.3l-0.2,4.5c0.3-0.3,0.6-0.5,1.1-0.6c0.5-0.2,1-0.2,1.5-0.2c0.6,0,1.1,0.1,1.6,0.3s0.8,0.5,1.1,0.8
		c0.3,0.3,0.5,0.7,0.7,1.2c0.2,0.5,0.2,1,0.2,1.5v0.3c0,0.4-0.1,0.9-0.2,1.3c-0.1,0.4-0.4,0.8-0.7,1.2c-0.3,0.3-0.8,0.6-1.3,0.9
		c-0.5,0.2-1.2,0.3-1.9,0.3c-0.8,0-1.6-0.1-2.2-0.4c-0.6-0.2-1.2-0.6-1.8-1l0.6-1c0.6,0.5,1.2,0.8,1.7,1s1.1,0.3,1.7,0.3
		c0.5,0,1-0.1,1.4-0.2c0.4-0.2,0.7-0.4,0.9-0.6c0.2-0.2,0.4-0.5,0.5-0.8s0.2-0.6,0.2-0.9L1578.6,168.5L1578.6,168.5z"/>
	<path class="st1" d="M1590,167c0,1.7-0.3,3.1-1,4c-0.7,0.9-1.7,1.4-3.2,1.4s-2.5-0.5-3.2-1.4c-0.7-0.9-1-2.3-1-4v-1.9
		c0-1.7,0.3-3,1-4c0.7-0.9,1.7-1.4,3.1-1.4c1.5,0,2.5,0.5,3.2,1.4c0.7,0.9,1,2.2,1,4L1590,167L1590,167z M1588.8,165.1
		c0-1.5-0.2-2.6-0.7-3.3s-1.2-1-2.2-1c-0.9,0-1.7,0.3-2.2,1s-0.8,1.8-0.8,3.3v1.9c0,1.5,0.3,2.6,0.8,3.3s1.2,1,2.2,1s1.7-0.3,2.2-1
		s0.7-1.8,0.7-3.3V165.1z"/>
	<path class="st1" d="M1592.2,167.1c0.9-0.4,1.7-0.8,2.3-1.1s1.2-0.6,1.6-0.9c0.4-0.3,0.8-0.5,1-0.8c0.3-0.2,0.5-0.5,0.6-0.8
		s0.2-0.5,0.3-0.8c0-0.3,0.1-0.6,0.1-1v-1.2h-5.4v-1.1h6.5v2.3c0,0.4,0,0.7-0.1,1h4v-4.3h1.2v11.1h-1.2v-5.8h-4.3
		c-0.1,0.4-0.4,0.7-0.6,1c-0.3,0.3-0.7,0.6-1.2,1c-0.5,0.3-1.1,0.7-1.8,1c-0.7,0.3-1.6,0.8-2.6,1.2L1592.2,167.1z M1596.1,172.8h8.7
		v1.1h-9.9v-5.1h1.2V172.8z"/>
	<path class="st1" d="M1609.2,166.3c0-1.4-0.2-2.7-0.5-3.9c-0.4-1.3-1-2.4-1.8-3.6h1.1c0.8,1,1.5,2.1,1.9,3.4
		c0.4,1.3,0.6,2.7,0.6,4.2v0.7c0,1.5-0.2,2.9-0.6,4.2s-1,2.4-1.9,3.4h-1.2c0.9-1.2,1.5-2.4,1.8-3.7c0.3-1.3,0.5-2.5,0.5-3.8v-0.9
		L1609.2,166.3L1609.2,166.3z"/>
</g>
<g>
	<path class="st1" d="M1123.2,182.9c1.3-0.7,2.3-1.4,3.1-1.9c0.8-0.5,1.4-1,1.8-1.5s0.7-0.9,0.8-1.4s0.2-1,0.2-1.7v-2h-5.7v-1.1h6.8
		v3.1c0,0.5,0,1-0.1,1.4s-0.1,0.8-0.3,1.2c-0.2,0.4-0.4,0.7-0.7,1.1c-0.3,0.4-0.7,0.7-1.1,1.1c-0.5,0.4-1,0.8-1.7,1.2
		c-0.7,0.4-1.5,0.9-2.4,1.5L1123.2,182.9z M1135.2,187.4h-1.2v-15.5h1.2V187.4z"/>
	<path class="st1" d="M1152.2,179.6v1h-6.4v3.3h-1.2v-3.3h-6.7v-1H1152.2z M1145,175.9c-0.1,0.2-0.3,0.4-0.7,0.6
		c-0.4,0.2-0.8,0.4-1.3,0.6c-0.5,0.2-1,0.4-1.5,0.6c-0.5,0.2-1.2,0.4-1.9,0.7l-0.5-0.9c1.5-0.5,2.7-0.9,3.6-1.3
		c0.4-0.1,0.6-0.3,0.9-0.4c0.2-0.1,0.4-0.3,0.5-0.4c0.1-0.2,0.2-0.3,0.3-0.5s0.1-0.4,0.1-0.6v-0.7h-4.7v-1h10.5v1h-4.7v0.7
		c0,0.2,0,0.4,0.1,0.6c0.1,0.2,0.1,0.3,0.3,0.5c0.1,0.2,0.3,0.3,0.5,0.4s0.5,0.3,0.9,0.4c0.4,0.2,0.9,0.4,1.6,0.6s1.3,0.5,2,0.7
		l-0.4,0.9c-0.7-0.2-1.3-0.4-1.9-0.7c-0.6-0.2-1.1-0.4-1.5-0.6c-0.5-0.2-1-0.4-1.3-0.6C1145.4,176.3,1145.1,176.1,1145,175.9
		L1145,175.9z M1141.2,186.1h9.2v1.1H1140v-4.7h1.2V186.1z"/>
</g>
<g>
	<path class="st2" d="M262.2,765.4c-0.4,0-1-0.1-1.3-0.1c-1.5-0.2-3-0.5-4.2-1.2c-0.1,0-0.2,0-0.3,0c-0.4,0.3-0.8,0.3-1.3,0.2
		c-1-0.2-1.9-0.3-3-0.5c0,0,0,0-0.1,0c0-0.3,0-0.6,0-1c0-0.6,0-1.2,0.1-1.8c0-0.5,0.1-1,0.3-1.6c0.2-0.7,0.3-1.4,0.4-2.1
		c0.3-2.2,0.2-4.3,0-6.5c-0.2-1.8-0.4-3.5-0.6-5.3c-0.1-1-0.1-2,0.1-3c0.3-2,0.7-4,1-6c0.1-0.1,0-0.2,0-0.3c-1.6-3.4-3.3-6.7-5-10.1
		c-0.4-1-1-1.7-1.5-2.6c-0.4-0.8-1-1.5-1.3-2.3c-0.7-1.3-1-2.6-1-4.1c0.1-1.5,0.5-3,1-4.3c0.4-1.4,1-2.8,1.8-4c0,0,0-0.1,0-0.2
		c-0.1-0.5,0.1-1,0.4-1.2c0.1-0.1,0.1-0.2,0.1-0.3c0-1,0.5-2,1.3-2.8c0.2-0.2,0.5-0.3,0.8-0.5c0.2-0.2,0.5-0.3,0.7-0.5
		c0.4-0.3,0.7-0.7,1-1.2c0.6-1.4,1.2-2.7,1.7-4.1c0.6-1.7,1.5-3.4,2.4-5.1c0.3-0.4,0.5-1,0.8-1.3c0.4-0.5,0.8-1,1.4-1
		c0.1-0.1,0.2-0.1,0.3-0.1c0.3,0,0.5,0,0.7,0c0.4,0.1,0.8,0.2,1.2,0.3c1,0.3,2,0.8,3,1.3c2.5,1,5,2.3,7.4,3.4c1,0.5,1.8,1,2.6,1.8
		c0.7,0.7,1.4,1.3,2.1,1.9c1,0.8,2.2,1.2,3.5,1s2.6-0.4,3.9-0.5c1-0.1,2,0.1,3,0.7c0.8,0.6,1.3,1.3,1.7,2.2c0.4,1,0.6,1.8,0.7,2.8
		c0,0.1,0,0.1,0,0.2c0,0.4,0,0.8,0,1.2c-0.1,0.3-0.1,0.6-0.2,1c-0.2,0.5-0.4,1-0.6,1.6c-0.2,0.4-0.3,0.8-0.3,1.3
		c0,0.2-0.1,0.4-0.4,0.5c-0.6,0.2-1.2,0.2-1.8,0c-0.3-0.1-0.5-0.4-0.5-0.7c0,0,0,0,0-0.1c-0.1,0-0.2,0.1-0.3,0.1
		c-0.6,0.1-1.2,0.3-1.9,0.5c-0.4,0.1-0.8,0.2-1.2,0c-0.1,0-0.2,0-0.3,0c-0.5,0.2-1,0.5-1.5,0.7c-0.4,0.2-0.6-0.1-0.6-0.4
		c0-0.2,0-0.3,0-0.5c-0.4,0.1-0.7-0.1-1-0.5c-0.3,0.3-0.7,0.2-1,0.2s-0.6,0-1,0c-0.2,0-0.4-0.1-0.5-0.3s-0.2-0.5-0.2-0.7
		c0-0.5,0-1,0.1-1.7c0-0.2,0-0.4-0.2-0.6c-0.1,0.1-0.1,0.1-0.1,0.2c-0.2,0.5-0.4,1-0.8,1.3c-1.2,1.2-2.4,2.6-3.3,4.1
		c-0.1,0-0.1,0.1-0.2,0.1s-0.2,0.1-0.3,0.2c-1,1.8-2,3.8-2.8,5.8c-0.1,0.4-0.3,1-0.5,1.3c-0.5,1-1,1.8-1.5,2.7c-1,1.6-1.7,3.3-2.3,5
		c-0.1,0.4-0.3,0.8-0.3,1.2c0,1-0.1,2.2-0.4,3.3c-0.2,0.6-0.2,1.2-0.1,1.9c0.2,0.8,0.1,1.6-0.2,2.4c-0.3,0.5-0.6,1-0.8,1.5
		c-0.1,0.2-0.2,0.4-0.2,0.6c-0.1,0.7-0.2,1.5-0.2,2.2c-0.1,1.5-0.2,3-0.2,4.5c0,1.6-0.1,3.3-0.1,5c0,0.1,0.1,0.1,0.1,0.2
		c0.2,0.3,0.5,0.5,0.6,0.8c0.3,0.6,0.4,1.2,0.5,1.9c0.1,0.3,0.1,0.6,0.3,1c0.6,0.7,1.3,1.3,2.1,1.7c0.4,0.3,1,0.4,1.4,0.4
		c0.7,0,1.5,0,2.2,0.1c0.5,0.1,1,0.3,1.3,0.6s0.4,0.6,0.1,1c-0.1,0.2-0.4,0.5-0.6,0.6c-0.8,0.5-1.7,0.7-2.6,0.8
		c-1.5,0.2-3,0-4.5-0.4c-0.3-0.1-0.6-0.2-1-0.3c0,0.1,0,0.1,0,0.1c0.1,0.2,0.3,0.4,0.4,0.6c0.8,1,1.6,1.7,2.8,2
		c1,0.3,1.9,0.5,2.8,0.8c0.3,0.1,0.5,0.2,0.8,0.4s0.4,0.6,0.2,1c-0.1,0.2-0.2,0.4-0.4,0.5c-0.6,0.5-1.3,0.8-2.1,1
		c-0.4,0.1-1,0.1-1.3,0.2C263.3,765.3,262.7,765.3,262.2,765.4z M261.3,715.5c-0.5,0.2-1,0.5-1.5,0.8c-0.2,0.1-0.3,0.1-0.5,0
		c-0.1,0.2-0.3,0.4-0.4,0.6c0,0.1,0,0.1,0,0.2c1,2.5,1.4,5,1.8,7.6c0,0.5,0.1,1,0.2,1.5c0.1-0.3,0.1-0.7,0.2-1
		c0.3-1.9,0.7-3.9,1.2-5.8c0.5-1.8,1.2-3.6,2.2-5.2c0-0.1,0-0.1,0-0.2c0.1,0,0.1,0,0,0C263.3,714.5,262.2,714.9,261.3,715.5z
		 M260.5,698.5L260.5,698.5c0.2-0.2,0.3-0.4,0.2-0.5c-0.2-0.2-0.6-0.2-0.8-0.1c0,0.1-0.1,0.1-0.1,0.2c-0.4,0.6-1,1-1.4,1.3
		c0,0,0,0-0.1,0.1l0,0C259,699.3,259.8,699.1,260.5,698.5z"/>
</g>
<text transform="matrix(1 0 0 1 -427.5677 40.3998)" class="st2" style="font-family:'NanumSquareR'; font-size:30px;">290명(1인당 142.7건)</text>
<g>
	<path class="st1" d="M479.1,174.7c0.6-0.7,1.1-1.3,1.4-1.8s0.6-0.9,0.8-1.3c0.2-0.4,0.3-0.7,0.4-1c0.1-0.3,0.1-0.6,0.1-0.9v-0.2
		c0-1.1-0.4-1.9-1.1-2.6c-0.7-0.6-1.7-0.9-3-0.9c-1,0-1.9,0.2-2.7,0.7c-0.8,0.5-1.6,1.3-2.3,2.6l-1.7-1c0.3-0.5,0.6-0.9,1-1.4
		s0.8-0.9,1.4-1.3s1.2-0.7,1.9-1c0.7-0.3,1.5-0.4,2.4-0.4c1,0,1.8,0.1,2.6,0.4s1.4,0.6,2,1.1c0.5,0.5,1,1,1.3,1.7
		c0.3,0.7,0.5,1.4,0.5,2.2v0.3c0,0.6-0.1,1.1-0.3,1.7c-0.2,0.6-0.5,1.1-0.8,1.6c-0.3,0.5-0.7,1-1.2,1.6c-0.4,0.5-0.9,1-1.4,1.6
		l-6.7,7.9h11.1v1.9H471v-1.8L479.1,174.7z"/>
	<path class="st1" d="M490.1,183c0.7,0.4,1.4,0.7,2.2,1s1.6,0.4,2.5,0.4c1.1,0,2-0.2,2.8-0.6s1.3-1,1.8-1.8c0.4-0.8,0.8-1.7,1-2.8
		c0.2-1.1,0.3-2.4,0.4-3.8c-0.2,0.3-0.4,0.7-0.7,1c-0.3,0.4-0.7,0.7-1.1,1c-0.5,0.3-1,0.6-1.6,0.8c-0.6,0.2-1.3,0.3-2.1,0.3
		c-0.9,0-1.8-0.2-2.6-0.5c-0.8-0.3-1.6-0.8-2.2-1.3s-1.1-1.3-1.5-2.1s-0.6-1.8-0.6-2.8v-0.7c0-1.1,0.2-2,0.5-2.9
		c0.4-0.9,0.9-1.6,1.5-2.2c0.6-0.6,1.4-1.1,2.2-1.4c0.9-0.3,1.8-0.5,2.8-0.5c1,0,1.9,0.2,2.8,0.5c0.9,0.4,1.7,0.9,2.3,1.6
		c0.7,0.7,1.2,1.7,1.6,2.8c0.4,1.1,0.6,2.4,0.6,3.9v0.9c0,2.4-0.2,4.4-0.5,6c-0.3,1.6-0.8,2.9-1.5,3.9c-0.7,1-1.5,1.7-2.5,2.1
		c-1,0.4-2.2,0.6-3.5,0.6c-1,0-1.9-0.1-2.9-0.4s-1.8-0.6-2.6-1.1L490.1,183z M500.4,171.4c0-0.8-0.1-1.5-0.4-2.2
		c-0.2-0.7-0.6-1.3-1-1.8c-0.4-0.5-1-0.9-1.6-1.1c-0.6-0.3-1.3-0.4-2-0.4c-0.7,0-1.4,0.1-2,0.4c-0.6,0.2-1.2,0.6-1.6,1
		c-0.5,0.4-0.8,1-1.1,1.6c-0.2,0.7-0.4,1.4-0.4,2.2v0.4c0,0.8,0.1,1.5,0.4,2.2c0.3,0.6,0.7,1.2,1.1,1.6s1,0.8,1.6,1
		c0.6,0.2,1.2,0.3,1.9,0.3c0.6,0,1.2-0.1,1.8-0.4c0.6-0.2,1.1-0.6,1.6-1c0.5-0.4,0.8-1,1.1-1.5s0.4-1.2,0.4-1.9V171.4z"/>
	<path class="st1" d="M521,176.8c0,3.1-0.6,5.4-1.7,7s-3,2.4-5.6,2.4c-2.6,0-4.4-0.8-5.6-2.5s-1.7-4-1.7-7v-3.4c0-3,0.6-5.3,1.8-7
		c1.2-1.6,3-2.5,5.5-2.5c2.6,0,4.4,0.8,5.6,2.4c1.2,1.6,1.8,4,1.8,7V176.8z M518.9,173.4c0-2.7-0.4-4.6-1.3-5.8s-2.2-1.8-3.9-1.8
		c-1.7,0-2.9,0.6-3.8,1.8c-0.9,1.2-1.3,3.1-1.3,5.8v3.4c0,2.7,0.4,4.6,1.3,5.8s2.2,1.8,3.8,1.8c1.7,0,3-0.6,3.9-1.8
		c0.9-1.2,1.3-3.1,1.3-5.8V173.4z"/>
	<path class="st1" d="M537.7,175.7h-12.2v-12.2h12.2V175.7z M535.6,165.3h-8.2v8.5h8.2V165.3z M538.4,178.5c1.1,0,2.2,0.1,3.2,0.4
		s1.9,0.6,2.7,1c0.8,0.4,1.4,1,1.8,1.6c0.4,0.6,0.7,1.3,0.7,2.1v1.2c0,0.8-0.2,1.5-0.7,2.1c-0.4,0.6-1,1.2-1.8,1.6
		c-0.8,0.4-1.6,0.8-2.7,1c-1,0.2-2.1,0.4-3.2,0.4s-2.2-0.1-3.2-0.4c-1-0.2-1.9-0.6-2.7-1c-0.8-0.4-1.4-1-1.8-1.6
		c-0.4-0.6-0.7-1.3-0.7-2.1v-1.2c0-0.8,0.2-1.5,0.7-2.2c0.4-0.6,1-1.2,1.8-1.6c0.8-0.4,1.6-0.8,2.7-1
		C536.2,178.6,537.3,178.5,538.4,178.5z M538.4,188.1c0.8,0,1.6-0.1,2.3-0.2c0.8-0.2,1.4-0.4,2-0.7c0.6-0.3,1.1-0.6,1.4-1.1
		c0.3-0.4,0.5-0.9,0.5-1.4v-1c0-0.5-0.2-1-0.5-1.4c-0.4-0.4-0.8-0.8-1.4-1.1s-1.3-0.5-2-0.7c-0.8-0.1-1.5-0.2-2.3-0.2
		c-0.8,0-1.6,0.1-2.3,0.2c-0.8,0.2-1.4,0.4-2,0.7c-0.6,0.3-1.1,0.6-1.4,1.1c-0.4,0.4-0.5,0.9-0.5,1.4v1c0,0.5,0.2,1,0.5,1.4
		c0.3,0.4,0.8,0.8,1.4,1.1c0.6,0.3,1.3,0.5,2,0.7C536.8,188,537.6,188.1,538.4,188.1z M544.5,166v-4.2h2.1v16.1h-2.1v-4.7h-5v-1.9h5
		v-3.5h-5V166H544.5z"/>
	<path class="st1" d="M554.5,176.9c0,2.3,0.3,4.5,0.9,6.8c0.6,2.2,1.7,4.4,3.2,6.5h-1.9c-1.5-1.8-2.6-3.8-3.3-6.1
		c-0.7-2.3-1.1-4.7-1.1-7.4v-1.2c0-2.7,0.4-5.1,1.1-7.4c0.7-2.2,1.8-4.2,3.3-6h1.9c-1.5,2-2.5,4.1-3.2,6.3s-0.9,4.5-0.9,6.9V176.9z"
		/>
	<path class="st1" d="M568.7,185.9v-19l-5.2,3.2l-1-1.7l6.7-4.1h1.6v21.6H568.7z"/>
	<path class="st1" d="M586.4,176.8c-1,0-2-0.2-2.8-0.5s-1.5-0.8-2.1-1.4c-0.6-0.6-1-1.2-1.3-1.9c-0.3-0.7-0.5-1.5-0.5-2.2V169
		c0-0.7,0.2-1.5,0.5-2.2c0.3-0.7,0.8-1.4,1.3-1.9c0.6-0.6,1.3-1,2.1-1.4c0.8-0.3,1.8-0.5,2.8-0.5c1,0,2,0.2,2.8,0.5
		c0.8,0.4,1.5,0.8,2.1,1.4c0.6,0.6,1,1.2,1.4,1.9c0.3,0.7,0.5,1.5,0.5,2.2v1.8c0,0.7-0.2,1.5-0.5,2.2c-0.3,0.7-0.8,1.4-1.4,1.9
		c-0.6,0.6-1.3,1-2.1,1.4S587.5,176.8,586.4,176.8z M586.4,164.9c-0.7,0-1.3,0.1-1.9,0.4c-0.6,0.2-1.1,0.6-1.5,1s-0.7,0.9-1,1.4
		c-0.2,0.5-0.3,1.1-0.3,1.6v1.4c0,0.6,0.1,1.1,0.3,1.6c0.2,0.5,0.5,1,1,1.4c0.4,0.4,0.9,0.7,1.5,1c0.6,0.2,1.2,0.4,1.9,0.4
		s1.3-0.1,1.9-0.4c0.6-0.2,1.1-0.6,1.5-1c0.4-0.4,0.7-0.9,1-1.4c0.2-0.5,0.3-1.1,0.3-1.6v-1.4c0-0.6-0.1-1.1-0.3-1.6
		c-0.2-0.5-0.6-1-1-1.4c-0.4-0.4-0.9-0.7-1.5-1C587.8,165,587.1,164.9,586.4,164.9z M586.4,187h15.3v1.9h-17.5v-9h2.1V187z
		 M601.1,181.4H599v-19.6h2.1V181.4z"/>
	<path class="st1" d="M607.2,163.5h12.6v1.9h-10.4v8.4c1.5,0,2.8,0,3.9,0c1.1,0,2.2,0,3.2-0.1c1,0,1.9-0.1,2.8-0.2
		c0.9-0.1,1.9-0.2,3-0.3l0.2,1.9c-0.7,0.1-1.4,0.2-2.1,0.2c-0.7,0.1-1.3,0.1-2,0.2s-1.4,0.1-2.1,0.1c-0.7,0-1.5,0.1-2.4,0.1
		c-0.9,0-1.9,0-3,0c-1.1,0-2.3,0-3.7,0V163.5z M619.3,178.5c1.1,0,2.2,0.1,3.2,0.4c1,0.2,1.9,0.6,2.6,1c0.7,0.4,1.3,1,1.8,1.6
		c0.4,0.6,0.6,1.3,0.6,2.1v1.1c0,0.8-0.2,1.5-0.6,2.1c-0.4,0.6-1,1.2-1.8,1.6c-0.7,0.4-1.6,0.8-2.6,1c-1,0.2-2,0.4-3.2,0.4
		s-2.2-0.1-3.2-0.4c-1-0.2-1.9-0.6-2.6-1c-0.7-0.4-1.3-1-1.8-1.6c-0.4-0.6-0.6-1.3-0.6-2.1v-1.1c0-0.8,0.2-1.5,0.6-2.2
		c0.4-0.6,1-1.2,1.8-1.6c0.7-0.4,1.6-0.8,2.6-1C617.1,178.6,618.2,178.5,619.3,178.5z M619.3,188.1c0.8,0,1.6-0.1,2.3-0.2
		c0.7-0.2,1.4-0.4,2-0.7c0.6-0.3,1-0.6,1.3-1.1c0.3-0.4,0.5-0.9,0.5-1.4v-1c0-0.5-0.2-1-0.5-1.4s-0.8-0.8-1.3-1.1
		c-0.6-0.3-1.2-0.5-2-0.7c-0.7-0.2-1.5-0.2-2.3-0.2s-1.6,0.1-2.3,0.2c-0.7,0.2-1.4,0.4-2,0.7s-1,0.6-1.3,1.1
		c-0.3,0.4-0.5,0.9-0.5,1.4v1c0,0.5,0.2,1,0.5,1.4c0.3,0.4,0.8,0.8,1.3,1.1s1.2,0.5,2,0.7C617.7,188,618.5,188.1,619.3,188.1z
		 M627.3,168.4h4.2v1.9h-4.2v7.6h-2.1v-16.1h2.1V168.4z"/>
	<path class="st1" d="M648.8,185.9v-19l-5.2,3.2l-1-1.7l6.7-4.1h1.6v21.6H648.8z"/>
	<path class="st1" d="M671.6,172.4v6.8h3.2v1.9h-3.2v4.8h-2.1v-4.8h-10.8v-1.9l10.5-14.9h2.4l-10.5,14.9h8.4v-6.8H671.6z"/>
	<path class="st1" d="M685.9,174.7c0.6-0.7,1.1-1.3,1.4-1.8s0.6-0.9,0.8-1.3c0.2-0.4,0.3-0.7,0.4-1c0.1-0.3,0.1-0.6,0.1-0.9v-0.2
		c0-1.1-0.4-1.9-1.1-2.6c-0.7-0.6-1.7-0.9-3-0.9c-1,0-1.9,0.2-2.7,0.7c-0.8,0.5-1.6,1.3-2.3,2.6l-1.7-1c0.3-0.5,0.6-0.9,1-1.4
		s0.8-0.9,1.4-1.3s1.2-0.7,1.9-1c0.7-0.3,1.5-0.4,2.4-0.4c1,0,1.8,0.1,2.6,0.4s1.4,0.6,2,1.1c0.5,0.5,1,1,1.3,1.7
		c0.3,0.7,0.5,1.4,0.5,2.2v0.3c0,0.6-0.1,1.1-0.3,1.7c-0.2,0.6-0.5,1.1-0.8,1.6c-0.3,0.5-0.7,1-1.2,1.6c-0.4,0.5-0.9,1-1.4,1.6
		l-6.7,7.9h11.1v1.9h-13.7v-1.8L685.9,174.7z"/>
	<path class="st1" d="M695.6,183.8h3v3h-3V183.8z"/>
	<path class="st1" d="M708.4,185.9H706l8.8-19.7h-12.1v-1.9h14.5v1.6L708.4,185.9z"/>
	<path class="st1" d="M721,176.9c1.6-0.7,3-1.3,4.1-1.9s2.1-1.1,2.9-1.5c0.8-0.5,1.4-0.9,1.8-1.3c0.4-0.4,0.8-0.9,1-1.3
		c0.2-0.5,0.4-1,0.5-1.5c0.1-0.5,0.1-1.1,0.1-1.8v-2.1h-9.5v-1.9h11.5v4.1c0,0.6,0,1.2-0.1,1.7h7.1v-7.6h2.1v19.6h-2.1v-10.2H733
		c-0.3,0.6-0.6,1.2-1.1,1.8s-1.2,1.1-2.1,1.7c-0.9,0.6-2,1.2-3.2,1.8c-1.3,0.6-2.8,1.4-4.7,2.1L721,176.9z M727.9,187h15.4v1.9
		h-17.5v-8.9h2.1V187z"/>
	<path class="st1" d="M751,175.4c0-2.4-0.3-4.7-0.9-6.9s-1.7-4.3-3.2-6.3h1.9c1.5,1.8,2.6,3.8,3.3,6c0.7,2.2,1.1,4.7,1.1,7.4v1.2
		c0,2.7-0.4,5.2-1.1,7.4c-0.7,2.3-1.8,4.3-3.3,6.1h-1.9c1.5-2.1,2.6-4.3,3.2-6.5c0.6-2.2,0.9-4.5,0.9-6.8V175.4z"/>
</g>
<g>
	<path class="st1" d="M2.8,195c2.3-1.3,4.1-2.5,5.5-3.4c1.4-0.9,2.4-1.8,3.1-2.7c0.7-0.8,1.2-1.7,1.4-2.5c0.2-0.8,0.3-1.8,0.3-2.9
		V180h-10v-1.9h12v5.4c0,0.9-0.1,1.8-0.1,2.5c-0.1,0.7-0.3,1.4-0.6,2.1c-0.3,0.7-0.7,1.3-1.2,1.9s-1.2,1.3-2,1.9
		c-0.8,0.7-1.8,1.4-3,2.2c-1.2,0.8-2.6,1.6-4.2,2.6L2.8,195z M23.9,202.9h-2.1v-27.4h2.1V202.9z"/>
	<path class="st1" d="M53.8,189.3v1.8H42.6v5.9h-2.1v-5.9H28.6v-1.8H53.8z M41.2,182.8c-0.2,0.3-0.6,0.7-1.2,1
		c-0.6,0.4-1.4,0.7-2.4,1.1c-0.9,0.4-1.8,0.7-2.7,1s-2.1,0.7-3.4,1.2l-0.8-1.7c2.7-0.9,4.8-1.7,6.3-2.3c0.6-0.3,1.1-0.5,1.5-0.8
		c0.4-0.2,0.7-0.5,1-0.8c0.2-0.3,0.4-0.6,0.5-0.9c0.1-0.3,0.1-0.7,0.1-1.1v-1.2h-8.2v-1.8h18.6v1.8h-8.2v1.2c0,0.4,0,0.8,0.1,1.1
		c0.1,0.3,0.3,0.6,0.5,0.9c0.2,0.3,0.6,0.5,1,0.8c0.4,0.3,0.9,0.5,1.5,0.8c0.7,0.3,1.7,0.7,2.7,1.1c1.1,0.4,2.3,0.8,3.5,1.2
		l-0.8,1.7c-1.2-0.4-2.4-0.8-3.4-1.2s-1.9-0.7-2.7-1.1c-0.9-0.4-1.7-0.8-2.4-1.1C41.8,183.4,41.4,183.1,41.2,182.8L41.2,182.8z
		 M34.5,200.7h16.2v1.9H32.4v-8.3h2.1V200.7z"/>
</g>
<g>
	<path class="st0" d="M10.8,500.8c0.6-0.7,1.1-1.3,1.4-1.8c0.4-0.5,0.6-0.9,0.8-1.3c0.2-0.4,0.3-0.7,0.4-1c0.1-0.3,0.1-0.6,0.1-0.9
		v-0.2c0-1.1-0.4-1.9-1.1-2.6c-0.7-0.6-1.7-0.9-3-0.9c-1,0-1.9,0.2-2.7,0.7c-0.8,0.5-1.6,1.3-2.3,2.6l-1.7-1c0.3-0.5,0.6-0.9,1-1.4
		s0.8-0.9,1.4-1.3s1.2-0.7,1.9-1c0.7-0.3,1.5-0.4,2.4-0.4c1,0,1.8,0.1,2.6,0.4c0.8,0.3,1.4,0.6,2,1.1c0.5,0.5,1,1,1.3,1.7
		c0.3,0.7,0.5,1.4,0.5,2.2v0.3c0,0.6-0.1,1.1-0.3,1.7c-0.2,0.6-0.5,1.1-0.8,1.6c-0.3,0.5-0.7,1-1.2,1.6c-0.4,0.5-0.9,1-1.4,1.6
		l-6.7,7.9h11.1v1.9H2.8v-1.8L10.8,500.8z"/>
	<path class="st0" d="M34.8,502.9c0,3.1-0.6,5.4-1.7,7c-1.2,1.6-3,2.4-5.6,2.4c-2.6,0-4.4-0.8-5.6-2.5c-1.2-1.6-1.7-4-1.7-7v-3.4
		c0-3,0.6-5.3,1.8-7c1.2-1.6,3-2.5,5.6-2.5c2.6,0,4.4,0.8,5.6,2.4c1.2,1.6,1.8,4,1.8,7V502.9z M32.6,499.5c0-2.7-0.4-4.6-1.3-5.8
		c-0.9-1.2-2.2-1.8-3.9-1.8c-1.7,0-2.9,0.6-3.8,1.8c-0.9,1.2-1.3,3.1-1.3,5.8v3.4c0,2.7,0.4,4.6,1.3,5.8c0.9,1.2,2.2,1.8,3.8,1.8
		c1.7,0,3-0.6,3.9-1.8c0.9-1.2,1.3-3.1,1.3-5.8V499.5z"/>
	<path class="st0" d="M46.8,500.8c0.6-0.7,1.1-1.3,1.4-1.8c0.4-0.5,0.6-0.9,0.8-1.3c0.2-0.4,0.3-0.7,0.4-1c0.1-0.3,0.1-0.6,0.1-0.9
		v-0.2c0-1.1-0.4-1.9-1.1-2.6c-0.7-0.6-1.7-0.9-3-0.9c-1,0-1.9,0.2-2.7,0.7c-0.8,0.5-1.6,1.3-2.3,2.6l-1.7-1c0.3-0.5,0.6-0.9,1-1.4
		s0.8-0.9,1.4-1.3s1.2-0.7,1.9-1c0.7-0.3,1.5-0.4,2.4-0.4c1,0,1.8,0.1,2.6,0.4c0.8,0.3,1.4,0.6,2,1.1c0.5,0.5,1,1,1.3,1.7
		c0.3,0.7,0.5,1.4,0.5,2.2v0.3c0,0.6-0.1,1.1-0.3,1.7c-0.2,0.6-0.5,1.1-0.8,1.6c-0.3,0.5-0.7,1-1.2,1.6c-0.4,0.5-0.9,1-1.4,1.6
		l-6.7,7.9h11.1v1.9H38.8v-1.8L46.8,500.8z"/>
	<path class="st0" d="M63.8,512v-19l-5.2,3.2l-1-1.7l6.7-4.1h1.6V512H63.8z"/>
</g>
<g>
	<path class="st0" d="M10.8,704.8c0.6-0.7,1.1-1.3,1.4-1.8c0.4-0.5,0.6-0.9,0.8-1.3c0.2-0.4,0.3-0.7,0.4-1c0.1-0.3,0.1-0.6,0.1-0.9
		v-0.2c0-1.1-0.4-1.9-1.1-2.6c-0.7-0.6-1.7-0.9-3-0.9c-1,0-1.9,0.2-2.7,0.7c-0.8,0.5-1.6,1.3-2.3,2.6l-1.7-1c0.3-0.5,0.6-0.9,1-1.4
		s0.8-0.9,1.4-1.3s1.2-0.7,1.9-1c0.7-0.3,1.5-0.4,2.4-0.4c1,0,1.8,0.1,2.6,0.4c0.8,0.3,1.4,0.6,2,1.1c0.5,0.5,1,1,1.3,1.7
		c0.3,0.7,0.5,1.4,0.5,2.2v0.3c0,0.6-0.1,1.1-0.3,1.7c-0.2,0.6-0.5,1.1-0.8,1.6c-0.3,0.5-0.7,1-1.2,1.6c-0.4,0.5-0.9,1-1.4,1.6
		l-6.7,7.9h11.1v1.9H2.8v-1.8L10.8,704.8z"/>
	<path class="st0" d="M34.8,706.9c0,3.1-0.6,5.4-1.7,7c-1.2,1.6-3,2.4-5.6,2.4c-2.6,0-4.4-0.8-5.6-2.5c-1.2-1.6-1.7-4-1.7-7v-3.4
		c0-3,0.6-5.3,1.8-7c1.2-1.6,3-2.5,5.6-2.5c2.6,0,4.4,0.8,5.6,2.4c1.2,1.6,1.8,4,1.8,7V706.9z M32.6,703.5c0-2.7-0.4-4.6-1.3-5.8
		c-0.9-1.2-2.2-1.8-3.9-1.8c-1.7,0-2.9,0.6-3.8,1.8c-0.9,1.2-1.3,3.1-1.3,5.8v3.4c0,2.7,0.4,4.6,1.3,5.8c0.9,1.2,2.2,1.8,3.8,1.8
		c1.7,0,3-0.6,3.9-1.8c0.9-1.2,1.3-3.1,1.3-5.8V703.5z"/>
	<path class="st0" d="M46.8,704.8c0.6-0.7,1.1-1.3,1.4-1.8c0.4-0.5,0.6-0.9,0.8-1.3c0.2-0.4,0.3-0.7,0.4-1c0.1-0.3,0.1-0.6,0.1-0.9
		v-0.2c0-1.1-0.4-1.9-1.1-2.6c-0.7-0.6-1.7-0.9-3-0.9c-1,0-1.9,0.2-2.7,0.7c-0.8,0.5-1.6,1.3-2.3,2.6l-1.7-1c0.3-0.5,0.6-0.9,1-1.4
		s0.8-0.9,1.4-1.3s1.2-0.7,1.9-1c0.7-0.3,1.5-0.4,2.4-0.4c1,0,1.8,0.1,2.6,0.4c0.8,0.3,1.4,0.6,2,1.1c0.5,0.5,1,1,1.3,1.7
		c0.3,0.7,0.5,1.4,0.5,2.2v0.3c0,0.6-0.1,1.1-0.3,1.7c-0.2,0.6-0.5,1.1-0.8,1.6c-0.3,0.5-0.7,1-1.2,1.6c-0.4,0.5-0.9,1-1.4,1.6
		l-6.7,7.9h11.1v1.9H38.8v-1.8L46.8,704.8z"/>
	<path class="st0" d="M70.8,706.9c0,3.1-0.6,5.4-1.7,7c-1.2,1.6-3,2.4-5.6,2.4c-2.6,0-4.4-0.8-5.6-2.5c-1.2-1.6-1.7-4-1.7-7v-3.4
		c0-3,0.6-5.3,1.8-7c1.2-1.6,3-2.5,5.6-2.5c2.6,0,4.4,0.8,5.6,2.4c1.2,1.6,1.8,4,1.8,7V706.9z M68.6,703.5c0-2.7-0.4-4.6-1.3-5.8
		c-0.9-1.2-2.2-1.8-3.9-1.8c-1.7,0-2.9,0.6-3.8,1.8c-0.9,1.2-1.3,3.1-1.3,5.8v3.4c0,2.7,0.4,4.6,1.3,5.8c0.9,1.2,2.2,1.8,3.8,1.8
		c1.7,0,3-0.6,3.9-1.8c0.9-1.2,1.3-3.1,1.3-5.8V703.5z"/>
</g>
<text transform="matrix(1 0 0 1 -427.5677 94.3998)" class="st2" style="font-family:'NanumSquareR'; font-size:30px;">664명(1인당 62.3건)</text>
<g>
	<path class="st0" d="M501.2,493.4c-0.7-0.4-1.4-0.7-2.2-0.9c-0.8-0.2-1.6-0.3-2.4-0.3c-1,0-1.9,0.2-2.6,0.6s-1.3,1-1.7,1.8
		c-0.5,0.8-0.8,1.7-1.1,2.9c-0.2,1.1-0.4,2.4-0.5,3.9c0.2-0.3,0.4-0.7,0.7-1c0.3-0.4,0.7-0.7,1.1-1c0.5-0.3,1-0.5,1.6-0.7
		c0.6-0.2,1.3-0.3,2-0.3c0.9,0,1.8,0.2,2.6,0.5s1.6,0.7,2.2,1.3c0.6,0.6,1.1,1.3,1.5,2.1c0.4,0.8,0.6,1.8,0.6,2.8v0.7
		c0,1.1-0.2,2-0.5,2.9c-0.4,0.9-0.9,1.6-1.5,2.2s-1.4,1.1-2.2,1.4c-0.9,0.3-1.8,0.5-2.8,0.5c-1,0-2-0.2-2.9-0.5
		c-0.9-0.4-1.7-0.9-2.3-1.6c-0.7-0.7-1.2-1.6-1.6-2.7c-0.4-1.1-0.6-2.4-0.6-3.9V503c0-2.3,0.2-4.3,0.6-5.9c0.4-1.6,0.9-2.9,1.6-4
		c0.7-1,1.5-1.8,2.5-2.2c1-0.5,2.1-0.7,3.3-0.7c1,0,1.9,0.1,2.9,0.4c0.9,0.3,1.8,0.6,2.7,1.1L501.2,493.4z M490.9,505.2
		c0,0.8,0.1,1.6,0.4,2.2c0.2,0.7,0.6,1.2,1,1.7c0.4,0.5,1,0.9,1.6,1.1c0.6,0.3,1.3,0.4,2,0.4c0.7,0,1.4-0.1,2-0.3
		c0.6-0.2,1.2-0.6,1.6-1c0.5-0.4,0.8-1,1-1.6s0.4-1.4,0.4-2.2v-0.5c0-0.8-0.1-1.5-0.4-2.1c-0.3-0.6-0.7-1.2-1.1-1.6
		c-0.5-0.4-1-0.8-1.6-1c-0.6-0.2-1.2-0.3-1.9-0.3c-0.6,0-1.3,0.1-1.9,0.4c-0.6,0.2-1.1,0.6-1.6,1c-0.5,0.4-0.8,0.9-1.1,1.5
		s-0.4,1.2-0.4,1.9V505.2z"/>
	<path class="st0" d="M519.2,493.4c-0.7-0.4-1.4-0.7-2.2-0.9c-0.8-0.2-1.6-0.3-2.4-0.3c-1,0-1.9,0.2-2.6,0.6s-1.3,1-1.7,1.8
		c-0.5,0.8-0.8,1.7-1,2.9c-0.2,1.1-0.4,2.4-0.5,3.9c0.2-0.3,0.4-0.7,0.7-1c0.3-0.4,0.7-0.7,1.1-1c0.5-0.3,1-0.5,1.6-0.7
		c0.6-0.2,1.3-0.3,2-0.3c0.9,0,1.8,0.2,2.6,0.5s1.6,0.7,2.2,1.3c0.6,0.6,1.1,1.3,1.5,2.1s0.6,1.8,0.6,2.8v0.7c0,1.1-0.2,2-0.5,2.9
		c-0.4,0.9-0.9,1.6-1.5,2.2s-1.4,1.1-2.2,1.4c-0.9,0.3-1.8,0.5-2.8,0.5c-1,0-2-0.2-2.9-0.5c-0.9-0.4-1.7-0.9-2.3-1.6
		c-0.7-0.7-1.2-1.6-1.6-2.7c-0.4-1.1-0.6-2.4-0.6-3.9V503c0-2.3,0.2-4.3,0.6-5.9c0.4-1.6,0.9-2.9,1.6-4c0.7-1,1.5-1.8,2.5-2.2
		c1-0.5,2.1-0.7,3.3-0.7c1,0,1.9,0.1,2.9,0.4s1.8,0.6,2.7,1.1L519.2,493.4z M508.9,505.2c0,0.8,0.1,1.6,0.4,2.2s0.6,1.2,1,1.7
		c0.4,0.5,1,0.9,1.6,1.1s1.3,0.4,2,0.4c0.7,0,1.4-0.1,2-0.3c0.6-0.2,1.2-0.6,1.6-1c0.5-0.4,0.8-1,1.1-1.6c0.2-0.6,0.4-1.4,0.4-2.2
		v-0.5c0-0.8-0.1-1.5-0.4-2.1c-0.3-0.6-0.7-1.2-1.1-1.6c-0.5-0.4-1-0.8-1.6-1c-0.6-0.2-1.2-0.3-1.9-0.3c-0.6,0-1.3,0.1-1.9,0.4
		s-1.1,0.6-1.6,1c-0.5,0.4-0.8,0.9-1.1,1.5s-0.4,1.2-0.4,1.9V505.2z"/>
	<path class="st0" d="M536.8,498.7v6.8h3.2v1.9h-3.2v4.8h-2.1v-4.8h-10.8v-1.9l10.5-14.9h2.4l-10.5,14.9h8.4v-6.8H536.8z"/>
	<path class="st0" d="M555.7,502h-12.2v-12.2h12.2V502z M553.6,491.6h-8.2v8.5h8.2V491.6z M556.4,504.8c1.1,0,2.2,0.1,3.2,0.4
		s1.9,0.6,2.7,1c0.8,0.4,1.4,1,1.8,1.6c0.4,0.6,0.7,1.3,0.7,2.1v1.2c0,0.8-0.2,1.5-0.7,2.1c-0.4,0.6-1,1.2-1.8,1.6
		c-0.8,0.4-1.6,0.8-2.7,1c-1,0.2-2.1,0.4-3.2,0.4s-2.2-0.1-3.2-0.4c-1-0.2-1.9-0.6-2.7-1c-0.8-0.4-1.4-1-1.8-1.6
		c-0.4-0.6-0.7-1.3-0.7-2.1v-1.2c0-0.8,0.2-1.5,0.7-2.2c0.4-0.6,1-1.2,1.8-1.6c0.8-0.4,1.6-0.8,2.7-1
		C554.2,504.9,555.3,504.8,556.4,504.8z M556.4,514.4c0.8,0,1.6-0.1,2.3-0.2c0.8-0.2,1.4-0.4,2-0.7c0.6-0.3,1.1-0.6,1.4-1.1
		s0.5-0.9,0.5-1.4v-1c0-0.5-0.2-1-0.5-1.4s-0.8-0.8-1.4-1.1s-1.3-0.5-2-0.7c-0.8-0.1-1.5-0.2-2.3-0.2s-1.6,0.1-2.3,0.2
		c-0.8,0.2-1.4,0.4-2,0.7s-1.1,0.6-1.4,1.1c-0.3,0.4-0.5,0.9-0.5,1.4v1c0,0.5,0.2,1,0.5,1.4c0.4,0.4,0.8,0.8,1.4,1.1
		c0.6,0.3,1.3,0.5,2,0.7C554.8,514.3,555.6,514.4,556.4,514.4z M562.5,492.3v-4.2h2.1v16.1h-2.1v-4.7h-5v-1.9h5v-3.5h-5v-1.9H562.5z
		"/>
	<path class="st0" d="M572.5,503.2c0,2.3,0.3,4.5,0.9,6.8c0.6,2.2,1.7,4.4,3.2,6.5h-1.9c-1.5-1.8-2.6-3.8-3.3-6.1s-1.1-4.7-1.1-7.4
		v-1.2c0-2.7,0.4-5.1,1.1-7.4c0.7-2.2,1.8-4.2,3.3-6h1.9c-1.5,2-2.5,4.1-3.2,6.3s-0.9,4.5-0.9,6.9V503.2z"/>
	<path class="st0" d="M586.7,512.2v-19l-5.2,3.2l-1-1.7l6.7-4.1h1.6v21.6H586.7z"/>
	<path class="st0" d="M604.4,503.1c-1,0-2-0.2-2.8-0.5s-1.6-0.8-2.1-1.4c-0.6-0.6-1-1.2-1.4-1.9s-0.5-1.5-0.5-2.2v-1.8
		c0-0.7,0.2-1.5,0.5-2.2s0.8-1.4,1.4-1.9c0.6-0.6,1.3-1,2.1-1.4c0.8-0.3,1.8-0.5,2.8-0.5c1,0,1.9,0.2,2.8,0.5
		c0.8,0.4,1.5,0.8,2.1,1.4c0.6,0.6,1,1.2,1.3,1.9s0.5,1.5,0.5,2.2v1.8c0,0.7-0.2,1.5-0.5,2.2s-0.8,1.4-1.3,1.9
		c-0.6,0.6-1.3,1-2.1,1.4C606.4,503,605.5,503.1,604.4,503.1z M604.4,491.2c-0.7,0-1.3,0.1-1.9,0.4c-0.6,0.2-1.1,0.6-1.5,1
		c-0.4,0.4-0.7,0.9-1,1.4c-0.2,0.5-0.3,1.1-0.3,1.6v1.4c0,0.6,0.1,1.1,0.3,1.6c0.2,0.5,0.5,1,1,1.4c0.4,0.4,0.9,0.7,1.5,1
		c0.6,0.2,1.2,0.4,1.9,0.4c0.7,0,1.3-0.1,1.9-0.4c0.6-0.2,1.1-0.6,1.5-1c0.4-0.4,0.7-0.9,1-1.4c0.2-0.5,0.3-1.1,0.3-1.6v-1.4
		c0-0.6-0.1-1.1-0.3-1.6c-0.2-0.5-0.5-1-1-1.4s-0.9-0.7-1.5-1C605.8,491.3,605.1,491.2,604.4,491.2z M604.4,513.3h15.3v1.9h-17.5v-9
		h2.1V513.3z M619.1,507.7H617v-19.6h2.1V507.7z"/>
	<path class="st0" d="M625.2,489.8h12.6v1.9h-10.4v8.4c1.5,0,2.8,0,3.9,0c1.1,0,2.2,0,3.1-0.1s1.9-0.1,2.8-0.2
		c0.9-0.1,1.9-0.2,3-0.3l0.2,1.9c-0.7,0.1-1.4,0.2-2.1,0.2c-0.7,0.1-1.3,0.1-2,0.2s-1.4,0.1-2.1,0.1c-0.7,0-1.5,0.1-2.4,0.1
		s-1.9,0-3,0c-1.1,0-2.3,0-3.7,0V489.8z M637.3,504.8c1.1,0,2.2,0.1,3.2,0.4s1.9,0.6,2.6,1c0.7,0.4,1.3,1,1.8,1.6
		c0.4,0.6,0.6,1.3,0.6,2.1v1.1c0,0.8-0.2,1.5-0.6,2.1s-1,1.2-1.8,1.6c-0.7,0.4-1.6,0.8-2.6,1c-1,0.2-2,0.4-3.2,0.4s-2.2-0.1-3.2-0.4
		c-1-0.2-1.9-0.6-2.6-1c-0.7-0.4-1.3-1-1.8-1.6c-0.4-0.6-0.6-1.3-0.6-2.1v-1.1c0-0.8,0.2-1.5,0.6-2.2c0.4-0.6,1-1.2,1.8-1.6
		c0.7-0.4,1.6-0.8,2.6-1C635.1,504.9,636.2,504.8,637.3,504.8z M637.3,514.4c0.8,0,1.6-0.1,2.3-0.2s1.4-0.4,2-0.7s1-0.6,1.4-1.1
		c0.3-0.4,0.5-0.9,0.5-1.4v-1c0-0.5-0.2-1-0.5-1.4c-0.3-0.4-0.8-0.8-1.4-1.1s-1.2-0.5-2-0.7s-1.5-0.2-2.3-0.2s-1.6,0.1-2.3,0.2
		c-0.7,0.2-1.4,0.4-1.9,0.7c-0.6,0.3-1,0.6-1.4,1.1s-0.5,0.9-0.5,1.4v1c0,0.5,0.2,1,0.5,1.4c0.3,0.4,0.8,0.8,1.4,1.1
		c0.6,0.3,1.2,0.5,1.9,0.7C635.7,514.3,636.5,514.4,637.3,514.4z M645.3,494.7h4.2v1.9h-4.2v7.6h-2.1v-16.1h2.1V494.7z"/>
	<path class="st0" d="M672,493.4c-0.7-0.4-1.4-0.7-2.2-0.9c-0.8-0.2-1.6-0.3-2.4-0.3c-1,0-1.9,0.2-2.6,0.6s-1.3,1-1.7,1.8
		c-0.5,0.8-0.8,1.7-1,2.9c-0.2,1.1-0.4,2.4-0.5,3.9c0.2-0.3,0.4-0.7,0.7-1c0.3-0.4,0.7-0.7,1.1-1c0.5-0.3,1-0.5,1.6-0.7
		c0.6-0.2,1.3-0.3,2-0.3c0.9,0,1.8,0.2,2.6,0.5s1.6,0.7,2.2,1.3c0.6,0.6,1.1,1.3,1.5,2.1s0.6,1.8,0.6,2.8v0.7c0,1.1-0.2,2-0.5,2.9
		c-0.4,0.9-0.9,1.6-1.5,2.2s-1.4,1.1-2.2,1.4c-0.9,0.3-1.8,0.5-2.8,0.5c-1,0-2-0.2-2.9-0.5c-0.9-0.4-1.7-0.9-2.3-1.6
		c-0.7-0.7-1.2-1.6-1.6-2.7c-0.4-1.1-0.6-2.4-0.6-3.9V503c0-2.3,0.2-4.3,0.6-5.9c0.4-1.6,0.9-2.9,1.6-4c0.7-1,1.5-1.8,2.5-2.2
		c1-0.5,2.1-0.7,3.3-0.7c1,0,1.9,0.1,2.9,0.4s1.8,0.6,2.7,1.1L672,493.4z M661.7,505.2c0,0.8,0.1,1.6,0.4,2.2s0.6,1.2,1,1.7
		c0.4,0.5,1,0.9,1.6,1.1s1.3,0.4,2,0.4c0.7,0,1.4-0.1,2-0.3c0.6-0.2,1.2-0.6,1.6-1c0.5-0.4,0.8-1,1.1-1.6c0.2-0.6,0.4-1.4,0.4-2.2
		v-0.5c0-0.8-0.1-1.5-0.4-2.1c-0.3-0.6-0.7-1.2-1.1-1.6c-0.5-0.4-1-0.8-1.6-1c-0.6-0.2-1.2-0.3-1.9-0.3c-0.6,0-1.3,0.1-1.9,0.4
		s-1.1,0.6-1.6,1c-0.5,0.4-0.8,0.9-1.1,1.5s-0.4,1.2-0.4,1.9V505.2z"/>
	<path class="st0" d="M685.9,500.9c0.6-0.7,1.1-1.3,1.4-1.8c0.4-0.5,0.6-0.9,0.8-1.3c0.2-0.4,0.3-0.7,0.4-1c0.1-0.3,0.1-0.6,0.1-0.9
		v-0.2c0-1.1-0.4-1.9-1.1-2.6c-0.7-0.6-1.7-0.9-3-0.9c-1,0-1.9,0.2-2.7,0.7c-0.8,0.5-1.6,1.3-2.3,2.6l-1.7-1c0.3-0.5,0.6-0.9,1-1.4
		s0.8-0.9,1.4-1.3s1.2-0.7,1.9-1s1.5-0.4,2.4-0.4c1,0,1.8,0.1,2.6,0.4c0.8,0.3,1.4,0.6,2,1.1c0.5,0.5,1,1,1.3,1.7
		c0.3,0.7,0.5,1.4,0.5,2.2v0.3c0,0.6-0.1,1.1-0.3,1.7c-0.2,0.6-0.5,1.1-0.8,1.6c-0.3,0.5-0.7,1-1.2,1.6c-0.4,0.5-0.9,1-1.3,1.6
		l-6.7,7.9h11.1v1.9h-13.7v-1.8L685.9,500.9z"/>
	<path class="st0" d="M695.6,510.1h3v3h-3V510.1z"/>
	<path class="st0" d="M703.3,493.6c0.3-0.4,0.6-0.9,1-1.3c0.4-0.4,0.8-0.8,1.3-1.1c0.5-0.3,1.1-0.6,1.7-0.8c0.6-0.2,1.4-0.3,2.2-0.3
		c1,0,1.9,0.1,2.7,0.4c0.8,0.3,1.5,0.6,2,1.1c0.5,0.5,1,1,1.3,1.7c0.3,0.7,0.4,1.4,0.4,2.2v0.3c0,0.4-0.1,0.9-0.2,1.3
		s-0.3,0.9-0.6,1.4c-0.3,0.4-0.7,0.9-1.1,1.2c-0.5,0.4-1.1,0.7-1.8,0.9c1.5,0.3,2.6,0.9,3.4,1.8c0.8,0.9,1.2,2,1.2,3.3v0.5
		c0,0.8-0.1,1.5-0.4,2.3s-0.7,1.4-1.2,2c-0.6,0.6-1.3,1.1-2.2,1.4c-0.9,0.4-2.1,0.5-3.4,0.5c-1.3,0-2.5-0.2-3.6-0.6
		c-1.2-0.4-2.3-1-3.3-1.8l1-1.7c1.1,0.8,2.1,1.3,3,1.6c0.9,0.3,1.9,0.5,2.9,0.5c0.9,0,1.7-0.1,2.4-0.4c0.7-0.3,1.2-0.6,1.6-1
		c0.4-0.4,0.7-0.9,0.9-1.4c0.2-0.5,0.3-1,0.3-1.5v-0.4c0-0.8-0.2-1.5-0.5-2s-0.7-1-1.2-1.3c-0.5-0.3-1-0.5-1.6-0.6
		c-0.6-0.1-1.1-0.2-1.7-0.2h-2.4V500h2.5c0.7,0,1.3-0.1,1.8-0.4c0.5-0.2,0.9-0.6,1.2-1c0.3-0.4,0.6-0.8,0.8-1.3s0.3-1,0.3-1.4v-0.2
		c0-1.1-0.4-1.9-1.1-2.6c-0.8-0.6-1.8-0.9-3.1-0.9c-0.9,0-1.7,0.2-2.5,0.5c-0.8,0.4-1.5,1-2.1,2L703.3,493.6z"/>
	<path class="st0" d="M721,503.2c1.6-0.7,3-1.3,4.1-1.9s2.1-1.1,2.9-1.5c0.8-0.5,1.4-0.9,1.8-1.3c0.4-0.4,0.8-0.9,1-1.3
		c0.2-0.5,0.4-1,0.5-1.5c0.1-0.5,0.1-1.1,0.1-1.8v-2.1h-9.5v-1.9h11.5v4.1c0,0.6,0,1.2-0.1,1.7h7.1v-7.6h2.1v19.6h-2.1v-10.2H733
		c-0.3,0.6-0.6,1.2-1.1,1.8s-1.2,1.1-2.1,1.7c-0.9,0.6-2,1.2-3.2,1.8c-1.3,0.6-2.8,1.4-4.7,2.1L721,503.2z M727.9,513.3h15.4v1.9
		h-17.5v-8.9h2.1V513.3z"/>
	<path class="st0" d="M751,501.7c0-2.4-0.3-4.7-0.9-6.9s-1.7-4.3-3.2-6.3h1.9c1.5,1.8,2.6,3.8,3.3,6c0.7,2.2,1.1,4.7,1.1,7.4v1.2
		c0,2.7-0.4,5.2-1.1,7.4c-0.7,2.3-1.8,4.3-3.3,6.1h-1.9c1.5-2.1,2.6-4.3,3.2-6.5c0.6-2.2,0.9-4.5,0.9-6.8V501.7z"/>
</g>
<text transform="matrix(1 0 0 1 -427.5677 148.3998)" class="st2" style="font-family:'NanumSquareR'; font-size:30px;">832명(1인당 50건)</text>
<g>
	<path class="st0" d="M514.1,709c0-1.2,0.4-2.3,1.1-3.2c0.7-0.9,1.7-1.5,2.9-1.9c-1-0.5-1.8-1.1-2.4-2c-0.6-0.9-0.9-1.9-0.9-3v-0.5
		c0-0.8,0.2-1.5,0.5-2.2c0.3-0.7,0.7-1.2,1.3-1.7c0.6-0.5,1.2-0.9,2-1.1c0.8-0.3,1.6-0.4,2.5-0.4c0.9,0,1.7,0.1,2.5,0.4
		c0.8,0.3,1.4,0.6,2,1.1c0.6,0.5,1,1.1,1.3,1.7c0.3,0.7,0.5,1.4,0.5,2.2v0.5c0,1.1-0.3,2.1-0.9,3c-0.6,0.9-1.4,1.5-2.4,2
		c0.6,0.2,1.1,0.4,1.6,0.8c0.5,0.3,0.9,0.7,1.3,1.2c0.3,0.5,0.6,0.9,0.8,1.5c0.2,0.5,0.3,1.1,0.3,1.7v0.5c0,0.9-0.2,1.7-0.5,2.4
		s-0.8,1.3-1.4,1.8s-1.3,0.9-2.2,1.2c-0.9,0.3-1.8,0.4-2.8,0.4c-1,0-2-0.1-2.9-0.4c-0.9-0.3-1.6-0.7-2.2-1.2s-1.1-1.1-1.4-1.8
		s-0.5-1.5-0.5-2.4V709z M516.2,709.4c0,0.6,0.1,1.1,0.3,1.6c0.2,0.5,0.5,0.9,1,1.3c0.4,0.4,0.9,0.6,1.5,0.9s1.3,0.3,2,0.3
		c0.8,0,1.4-0.1,2-0.3c0.6-0.2,1.1-0.5,1.5-0.9c0.4-0.4,0.7-0.8,0.9-1.3c0.2-0.5,0.3-1,0.3-1.6V709c0-0.6-0.1-1.2-0.4-1.7
		c-0.2-0.5-0.6-1-1-1.3s-0.9-0.7-1.5-0.9s-1.2-0.3-2-0.3c-0.7,0-1.3,0.1-1.9,0.3s-1.1,0.5-1.5,0.9c-0.4,0.4-0.8,0.8-1,1.3
		c-0.2,0.5-0.4,1.1-0.4,1.8V709.4z M516.8,698.8c0,0.6,0.1,1.1,0.3,1.7c0.2,0.5,0.5,1,0.9,1.3s0.8,0.7,1.3,0.9
		c0.5,0.2,1.1,0.3,1.7,0.3c0.6,0,1.2-0.1,1.7-0.3c0.5-0.2,1-0.5,1.3-0.9c0.4-0.4,0.7-0.8,0.9-1.3c0.2-0.5,0.3-1.1,0.3-1.7v-0.4
		c0-1.1-0.4-2-1.2-2.7c-0.8-0.7-1.8-1-3.1-1c-1.3,0-2.3,0.3-3.1,1c-0.8,0.6-1.1,1.5-1.1,2.7V698.8z"/>
	<path class="st0" d="M532.6,696.4c0.3-0.4,0.6-0.9,1-1.3c0.4-0.4,0.8-0.8,1.3-1.1c0.5-0.3,1.1-0.6,1.7-0.8c0.6-0.2,1.4-0.3,2.2-0.3
		c1,0,1.9,0.1,2.7,0.4s1.5,0.6,2,1.1c0.5,0.5,1,1,1.3,1.7c0.3,0.7,0.5,1.4,0.5,2.2v0.3c0,0.4-0.1,0.9-0.2,1.3
		c-0.1,0.5-0.3,0.9-0.6,1.4c-0.3,0.4-0.7,0.9-1.1,1.2c-0.5,0.4-1.1,0.7-1.8,0.9c1.5,0.3,2.6,0.9,3.4,1.8s1.2,2,1.2,3.3v0.5
		c0,0.8-0.1,1.5-0.4,2.3c-0.3,0.7-0.7,1.4-1.2,2c-0.6,0.6-1.3,1.1-2.2,1.4c-0.9,0.4-2.1,0.5-3.4,0.5c-1.3,0-2.5-0.2-3.6-0.6
		c-1.2-0.4-2.3-1-3.3-1.8l1.1-1.7c1.1,0.8,2.1,1.3,3,1.6c0.9,0.3,1.9,0.5,2.9,0.5c0.9,0,1.7-0.1,2.4-0.4c0.7-0.3,1.2-0.6,1.6-1
		c0.4-0.4,0.7-0.9,0.9-1.4c0.2-0.5,0.3-1,0.3-1.5v-0.4c0-0.8-0.2-1.5-0.5-2c-0.3-0.5-0.7-1-1.2-1.3c-0.5-0.3-1-0.5-1.6-0.6
		s-1.1-0.2-1.7-0.2h-2.4v-1.8h2.5c0.7,0,1.3-0.1,1.8-0.4c0.5-0.2,0.9-0.6,1.2-1c0.3-0.4,0.6-0.8,0.8-1.3c0.2-0.5,0.3-1,0.3-1.4v-0.2
		c0-1.1-0.4-1.9-1.1-2.6c-0.8-0.6-1.8-0.9-3.1-0.9c-0.9,0-1.7,0.2-2.5,0.5c-0.8,0.4-1.5,1-2.1,2L532.6,696.4z"/>
	<path class="st0" d="M558.4,703.7c0.6-0.7,1.1-1.3,1.4-1.8s0.6-0.9,0.8-1.3c0.2-0.4,0.3-0.7,0.4-1c0.1-0.3,0.1-0.6,0.1-0.9v-0.2
		c0-1.1-0.4-1.9-1.1-2.6c-0.7-0.6-1.7-0.9-3-0.9c-1,0-1.9,0.2-2.7,0.7c-0.8,0.5-1.6,1.3-2.3,2.6l-1.7-1c0.3-0.5,0.6-0.9,1-1.4
		s0.8-0.9,1.4-1.3s1.2-0.7,1.9-1c0.7-0.3,1.5-0.4,2.4-0.4c1,0,1.8,0.1,2.6,0.4s1.4,0.6,2,1.1c0.5,0.5,1,1,1.3,1.7
		c0.3,0.7,0.5,1.4,0.5,2.2v0.3c0,0.6-0.1,1.1-0.3,1.7c-0.2,0.6-0.5,1.1-0.8,1.6c-0.3,0.5-0.7,1-1.2,1.6c-0.4,0.5-0.9,1-1.4,1.6
		L553,713h11.1v1.9h-13.7v-1.8L558.4,703.7z"/>
	<path class="st0" d="M581,704.7h-12.2v-12.2H581V704.7z M579,694.3h-8.2v8.5h8.2V694.3z M581.7,707.6c1.1,0,2.2,0.1,3.2,0.4
		s1.9,0.6,2.7,1c0.8,0.4,1.4,1,1.8,1.6c0.4,0.6,0.7,1.3,0.7,2.1v1.2c0,0.8-0.2,1.5-0.7,2.1c-0.4,0.6-1,1.2-1.8,1.6
		c-0.8,0.4-1.6,0.8-2.7,1c-1,0.2-2.1,0.4-3.2,0.4s-2.2-0.1-3.2-0.4c-1-0.2-1.9-0.6-2.7-1c-0.8-0.4-1.4-1-1.8-1.6
		c-0.4-0.6-0.7-1.3-0.7-2.1v-1.2c0-0.8,0.2-1.5,0.7-2.2c0.4-0.6,1-1.2,1.8-1.6c0.8-0.4,1.6-0.8,2.7-1
		C579.5,707.7,580.6,707.6,581.7,707.6z M581.7,717.2c0.8,0,1.6-0.1,2.3-0.2c0.8-0.2,1.4-0.4,2-0.7c0.6-0.3,1.1-0.6,1.4-1.1
		s0.5-0.9,0.5-1.4v-1c0-0.5-0.2-1-0.5-1.4s-0.8-0.8-1.4-1.1s-1.3-0.5-2-0.7c-0.8-0.1-1.5-0.2-2.3-0.2s-1.6,0.1-2.3,0.2
		c-0.8,0.2-1.4,0.4-2,0.7s-1.1,0.6-1.4,1.1c-0.3,0.4-0.5,0.9-0.5,1.4v1c0,0.5,0.2,1,0.5,1.4c0.4,0.4,0.8,0.8,1.4,1.1
		c0.6,0.3,1.3,0.5,2,0.7C580.1,717.1,580.9,717.2,581.7,717.2z M587.8,695v-4.2h2.1V707h-2.1v-4.7h-5v-1.9h5v-3.5h-5V695H587.8z"/>
	<path class="st0" d="M597.9,706c0,2.3,0.3,4.5,0.9,6.8c0.6,2.2,1.7,4.4,3.2,6.5h-1.9c-1.5-1.8-2.6-3.8-3.3-6.1s-1.1-4.7-1.1-7.4
		v-1.2c0-2.7,0.4-5.1,1.1-7.4c0.7-2.2,1.8-4.2,3.3-6h1.9c-1.5,2-2.5,4.1-3.2,6.3s-0.9,4.5-0.9,6.9V706z"/>
	<path class="st0" d="M612.1,715v-19l-5.2,3.2l-1-1.7l6.7-4.1h1.6V715H612.1z"/>
	<path class="st0" d="M629.8,705.9c-1,0-2-0.2-2.8-0.5s-1.6-0.8-2.1-1.4c-0.6-0.6-1-1.2-1.4-1.9s-0.5-1.5-0.5-2.2v-1.8
		c0-0.7,0.2-1.5,0.5-2.2s0.8-1.4,1.4-1.9c0.6-0.6,1.3-1,2.1-1.4c0.8-0.3,1.8-0.5,2.8-0.5c1,0,1.9,0.2,2.8,0.5
		c0.8,0.4,1.5,0.8,2.1,1.4c0.6,0.6,1,1.2,1.3,1.9s0.5,1.5,0.5,2.2v1.8c0,0.7-0.2,1.5-0.5,2.2s-0.8,1.4-1.3,1.9
		c-0.6,0.6-1.3,1-2.1,1.4C631.7,705.7,630.8,705.9,629.8,705.9z M629.8,693.9c-0.7,0-1.3,0.1-1.9,0.4c-0.6,0.2-1.1,0.6-1.5,1
		c-0.4,0.4-0.7,0.9-1,1.4c-0.2,0.5-0.3,1.1-0.3,1.6v1.4c0,0.6,0.1,1.1,0.3,1.6c0.2,0.5,0.5,1,1,1.4c0.4,0.4,0.9,0.7,1.5,1
		c0.6,0.2,1.2,0.4,1.9,0.4c0.7,0,1.3-0.1,1.9-0.4c0.6-0.2,1.1-0.6,1.5-1c0.4-0.4,0.7-0.9,1-1.4c0.2-0.5,0.3-1.1,0.3-1.6v-1.4
		c0-0.6-0.1-1.1-0.3-1.6c-0.2-0.5-0.5-1-1-1.4s-0.9-0.7-1.5-1C631.1,694,630.5,693.9,629.8,693.9z M629.8,716.1h15.3v1.9h-17.5v-9
		h2.1V716.1z M644.4,710.5h-2.1v-19.6h2.1V710.5z"/>
	<path class="st0" d="M650.5,692.6h12.6v1.9h-10.4v8.4c1.5,0,2.8,0,3.9,0c1.1,0,2.2,0,3.1-0.1s1.9-0.1,2.8-0.2
		c0.9-0.1,1.9-0.2,3-0.3l0.2,1.9c-0.7,0.1-1.4,0.2-2.1,0.2c-0.7,0.1-1.3,0.1-2,0.2s-1.4,0.1-2.1,0.1c-0.7,0-1.5,0.1-2.4,0.1
		s-1.9,0-3,0c-1.1,0-2.3,0-3.7,0V692.6z M662.6,707.6c1.1,0,2.2,0.1,3.2,0.4s1.9,0.6,2.6,1c0.7,0.4,1.3,1,1.8,1.6
		c0.4,0.6,0.6,1.3,0.6,2.1v1.1c0,0.8-0.2,1.5-0.6,2.1s-1,1.2-1.8,1.6c-0.7,0.4-1.6,0.8-2.6,1c-1,0.2-2,0.4-3.2,0.4s-2.2-0.1-3.2-0.4
		c-1-0.2-1.9-0.6-2.6-1c-0.7-0.4-1.3-1-1.8-1.6c-0.4-0.6-0.6-1.3-0.6-2.1v-1.1c0-0.8,0.2-1.5,0.6-2.2c0.4-0.6,1-1.2,1.8-1.6
		c0.7-0.4,1.6-0.8,2.6-1C660.5,707.7,661.5,707.6,662.6,707.6z M662.6,717.2c0.8,0,1.6-0.1,2.3-0.2s1.4-0.4,2-0.7s1-0.6,1.4-1.1
		c0.3-0.4,0.5-0.9,0.5-1.4v-1c0-0.5-0.2-1-0.5-1.4c-0.3-0.4-0.8-0.8-1.4-1.1s-1.2-0.5-2-0.7s-1.5-0.2-2.3-0.2s-1.6,0.1-2.3,0.2
		c-0.7,0.2-1.4,0.4-1.9,0.7c-0.6,0.3-1,0.6-1.4,1.1s-0.5,0.9-0.5,1.4v1c0,0.5,0.2,1,0.5,1.4c0.3,0.4,0.8,0.8,1.4,1.1
		c0.6,0.3,1.2,0.5,1.9,0.7C661.1,717.1,661.8,717.2,662.6,717.2z M670.6,697.5h4.2v1.9h-4.2v7.6h-2.1v-16.1h2.1V697.5z"/>
	<path class="st0" d="M697.1,708.4c0-1.7-0.4-3-1.3-3.8c-0.9-0.8-2.1-1.2-3.6-1.2c-0.9,0-1.7,0.2-2.5,0.5c-0.7,0.3-1.3,0.7-1.8,1.2
		h-2l0.7-11.8h11.1v1.9h-9.3l-0.3,7.9c0.5-0.5,1.1-0.8,2-1.1s1.7-0.4,2.6-0.4c1.1,0,2,0.2,2.8,0.5c0.8,0.4,1.5,0.8,2,1.4
		c0.5,0.6,0.9,1.3,1.2,2.1c0.3,0.8,0.4,1.7,0.4,2.7v0.5c0,0.8-0.1,1.6-0.4,2.3c-0.3,0.8-0.7,1.5-1.2,2.1c-0.6,0.6-1.3,1.1-2.3,1.5
		c-0.9,0.4-2.1,0.6-3.4,0.6c-1.5,0-2.8-0.2-3.9-0.6c-1.1-0.4-2.2-1-3.1-1.8l1.1-1.7c1,0.8,2,1.4,3,1.7s1.9,0.5,3,0.5
		c1,0,1.8-0.1,2.4-0.4s1.2-0.7,1.6-1.1c0.4-0.4,0.7-0.9,0.9-1.5c0.2-0.5,0.3-1,0.3-1.5V708.4z"/>
	<path class="st0" d="M717.2,705.8c0,3.1-0.6,5.4-1.7,7s-3,2.4-5.6,2.4c-2.6,0-4.4-0.8-5.6-2.5s-1.7-4-1.7-7v-3.4c0-3,0.6-5.3,1.8-7
		c1.2-1.6,3-2.5,5.5-2.5c2.6,0,4.4,0.8,5.6,2.4c1.2,1.6,1.8,4,1.8,7V705.8z M715,702.4c0-2.7-0.4-4.6-1.3-5.8s-2.2-1.8-3.9-1.8
		c-1.7,0-2.9,0.6-3.8,1.8c-0.9,1.2-1.3,3.1-1.3,5.8v3.4c0,2.7,0.4,4.6,1.3,5.8s2.2,1.8,3.8,1.8c1.7,0,3-0.6,3.9-1.8
		c0.9-1.2,1.3-3.1,1.3-5.8V702.4z"/>
	<path class="st0" d="M721,706c1.6-0.7,3-1.3,4.1-1.9s2.1-1.1,2.9-1.5c0.8-0.5,1.4-0.9,1.8-1.3c0.4-0.4,0.8-0.9,1-1.3
		c0.2-0.5,0.4-1,0.5-1.5c0.1-0.5,0.1-1.1,0.1-1.8v-2.1h-9.5v-1.9h11.5v4.1c0,0.6,0,1.2-0.1,1.7h7.1v-7.6h2.1v19.6h-2.1v-10.2H733
		c-0.3,0.6-0.6,1.2-1.1,1.8s-1.2,1.1-2.1,1.7c-0.9,0.6-2,1.2-3.2,1.8c-1.3,0.6-2.8,1.4-4.7,2.1L721,706z M727.9,716.1h15.4v1.9
		h-17.5V709h2.1V716.1z"/>
	<path class="st0" d="M751,704.5c0-2.4-0.3-4.7-0.9-6.9s-1.7-4.3-3.2-6.3h1.9c1.5,1.8,2.6,3.8,3.3,6c0.7,2.2,1.1,4.7,1.1,7.4v1.2
		c0,2.7-0.4,5.2-1.1,7.4c-0.7,2.3-1.8,4.3-3.3,6.1h-1.9c1.5-2.1,2.6-4.3,3.2-6.5c0.6-2.2,0.9-4.5,0.9-6.8V704.5z"/>
</g>
</svg>
