<?xml version="1.0" encoding="utf-8"?>
<!-- Generator: Adobe Illustrator 25.2.3, SVG Export Plug-In . SVG Version: 6.00 Build 0)  -->
<svg version="1.1" id="Layer_1" xmlns="http://www.w3.org/2000/svg" xmlns:xlink="http://www.w3.org/1999/xlink" x="0px" y="0px"
	 viewBox="0 0 480 480" style="enable-background:new 0 0 480 480;" xml:space="preserve">
<style type="text/css">
	.st0{fill:#2B2A2A;}
</style>
<path class="st0" d="M243.4,158.7c-0.2,0.4,0.2,0.2,0.3,0.3c2.4,0.3,4.5,1.4,6.1,3.1c0.3,0.3,0.8,0.6,1.3,0.7
	c6.5,1.1,12.5,4.1,17.3,8.5l0.1,0.1c0.5,0.3,0.8,1.1,1.3,1.1c0.5-0.1,0.8-0.8,1.2-1.2c0.1-0.1,0.2-0.2,0.2-0.3
	c0.7-0.7,1.3-1.6,2.5-1.6c1.5-0.1,2.9,0.4,4.1,1.3c0.8,0.7,0.9,1.3,0.3,2.4c-1,1.5-2.1,3.1-3.4,4.4c-0.4,0.3-0.5,1-0.2,1.5l0,0
	c3.2,5.3,5,11.5,5.1,17.8c0.2,8.8-2.7,17.3-8,24.2c-0.3,0.5-0.7,1.1-1.4,0.6c-0.6-0.6-0.7-1.4-0.4-2.1c2.8-3.7,4.6-7.9,5.5-12.5
	c1.6-8.5,0-16.5-4.5-23.9c-0.2-0.2-0.2-0.6-0.6-0.2c-3.1,3.9-6.1,7.9-7.9,12.6c-1.4,3.7-1.9,7.7-1.7,11.7c0.3,7.3,2.6,14.1,5.6,20.7
	c0.2,0.5,0.4,1,0.5,1.5c0.1,1-0.4,1.9-1.3,2.2c-4.4,2.5-9.2,4.2-14.1,4.9c-8.7,1.5-17.5,0.2-25.4-3.7c-10.7-5.3-17-14-19-25.8
	c-1.6-9.2,0.3-17.8,5-25.8c0.2-0.4,0.3-0.7-0.1-1.1c-0.4-0.4-0.7-0.9-1.1-1.4c-0.8-1.2-0.6-2,0.6-2.8c1.4-0.9,3.1-1.3,4.7-1.2
	c0.3,0,0.6-0.1,0.9-0.3c4.5-4.8,10-8.3,16.1-10.3c0.5-0.2,0.9-0.4,1.1-0.8c1.5-2.2,3.9-3.7,6.6-4.1c0.2-0.1,0.2-0.1,0.3-0.3
	L243.4,158.7z M228.9,228.1c0-0.5-0.1-1-0.1-1.4c-0.2-2.8-0.3-5.7-0.2-8.6c0.2-4.5,0.8-8.8,1.7-13.2c0.6-2.8-0.1-5.6-1.9-7.6
	c-3.4-3.9-7-7.5-10.6-11.1c-1.3-1.2-2.5-2.5-3.7-3.8C205,198.2,211.8,219.7,228.9,228.1z M231.9,167.8l-0.3,0.1
	c-4.5,1.5-8.8,3.9-12.2,7.2c-1.1,1.1-1.1,1.1,0,2.1c3.9,3.6,8.1,7,13,9.2c6.6,3.1,13.3,3.5,19.9,0.2c5-2.4,9.2-5.9,13.2-9.8
	c0.4-0.4,0.1-0.6-0.2-0.8c-2.7-2.6-5.8-4.8-9.1-6.4c-0.8-0.4-1.7-0.7-2.7-1.2c1,3.2,0.9,6.6-0.2,9.6c-1.4,3.8-3.8,6.6-7.9,7.5
	c-4.3,0.9-7.7-0.8-10.4-4c-3.2-3.8-4.1-8.3-3.2-13.2C231.9,168.3,232.1,168.1,231.9,167.8L231.9,167.8z"/>
<path class="st0" d="M170.1,296c0.3,0.2,0.2-0.2,0.3-0.3c0.6-5.5,4.9-10.4,11.8-11.5c3.9-0.7,7.9-0.2,11.5,1.3
	c0.9,0.4,1.4,0.8,1.3,1.9c-0.2,1.5,0,2.9,0,4.5c-1.8-1-3.6-1.7-5.6-2.2c-2.7-0.7-5.5-0.5-8.1,0.6c-3,1.5-4.5,3.8-4.4,7.2
	c0.2,3.2,1.9,5.3,4.9,6.6c3.2,1.3,6.3,1,9.5-0.2c1.3-0.5,2.6-1.1,3.9-1.7c0,1.8,0,3.6,0,5.3c0,0.4-0.3,0.5-0.6,0.6
	c-1.8,0.9-3.6,1.5-5.6,1.9c-0.2,0.1-0.2,0.1-0.3,0.3H182c0.1-0.1,0.2-0.2,0-0.2c-0.2-0.1-0.3-0.1-0.6-0.1c-2.4-0.4-4.5-1.4-6.4-2.8
	c-2.6-2-4.2-4.9-4.6-8.2c0-0.2,0.2-0.6-0.3-0.5L170.1,296L170.1,296z"/>
<path class="st0" d="M245.6,310.1c0.2-0.3-0.1-0.2-0.2-0.3c-4-1.1-6.2-5.2-5.8-9.5c0.2-3.2,1.5-5.7,4.3-7.2c2.4-1.3,5.3-1.4,7.7-0.2
	c0.7,0.2,0.8,0.2,0.8-0.6c-0.1-2.4,0-4.9,0-7.4c0-0.6,0.1-0.8,0.7-0.8c1.4,0.1,2.7,0.1,4.1,0c0.5,0,0.6,0.2,0.6,0.6
	c0,8.1,0,16.2,0,24.3c0,0.6-0.2,0.6-0.7,0.6c-1.3,0-2.6-0.1-3.9,0c-0.6,0-1-0.1-0.8-0.8c0-0.2,0-0.4,0-0.6c-0.8,0.6-1.8,1.1-2.8,1.5
	c0,0-0.1,0.1,0,0.1l0.1,0.1L245.6,310.1z M252.4,301c0-1.2,0-2.4,0-3.6c0-0.2,0.1-0.6-0.2-0.7c-2.4-1.5-5.4-1.1-6.6,1.5
	c-0.6,1.5-0.8,3.3-0.3,5c0.8,3.2,4.1,4.3,6.6,2.2c0.3-0.2,0.5-0.6,0.4-0.9C252.4,303.3,252.4,302.1,252.4,301L252.4,301z"/>
<path class="st0" d="M315.7,309.8c-1.6,0-3.3,0-4.9,0c-0.6,0-0.7-0.2-0.7-0.7c0-2.8,0-5.6,0-8.4c0-0.6,0-1.1-0.1-1.6
	c-0.2-1.5-0.9-2.6-2.2-2.8c-1.5-0.2-2.9,0.4-3.7,1.6c-0.3,0.6-0.5,1.2-0.5,1.9c0,3.2,0,6.2,0,9.4c0,0.6-0.2,0.7-0.7,0.7
	c-1.4-0.1-2.8,0-4.2,0c-0.5,0-0.6-0.2-0.6-0.6c0-5.3,0-10.7,0-16.1c0-0.4,0.1-0.6,0.6-0.6c1.5,0,2.9,0,4.4,0c0.4,0,0.6,0.1,0.6,0.6
	c0,0.6,0,1.2,0,1.9l1-1c3.2-3.2,9.7-2.2,10.7,3.1c0,0.2,0.1,0.2,0.2,0.4c0,0,0.1,0.1,0.1,0l0.1-0.1L315.7,309.8z"/>
<path class="st0" d="M284.3,310.1c0.1-0.5-0.3-0.2-0.5-0.3c-3.6-1-6-3-6.7-6.7c-1-4.1,1.1-8.3,4.9-10c3.9-1.8,8.7-0.7,11.1,2.4
	c1.3,1.8,1.9,4,1.9,6.2c0,0.6-0.4,0.5-0.7,0.5h-10.8c-0.9,0-1,0-0.7,1c0.5,2.2,2.3,3.6,4.9,3.9c2.2,0.2,4.4-0.5,6.2-1.9l0.7-0.5
	c0,0,0.1,0,0.2,0c0,1,0,2,0,3c0,0.3-0.2,0.5-0.5,0.6c-1.1,0.8-2.5,1.3-3.8,1.6c-0.2,0.1-0.2,0.1-0.3,0.3L284.3,310.1z M286.4,299.2
	c1.1,0,2.2,0,3.2,0c0.4,0,0.5-0.1,0.4-0.6c-0.2-1.9-1.8-3.2-3.6-3.2c-1.9-0.1-3.5,1.4-3.6,3.2c-0.1,0.4,0,0.5,0.4,0.5
	C284.3,299.1,285.4,299.2,286.4,299.2L286.4,299.2z"/>
<path class="st0" d="M234.3,310.1c0.2-0.2,0-0.2-0.2-0.3c-3.2-1.2-4.4-2.8-4.4-6.3c0-2.5,0-5,0-7.5c0-3.6,0-7.4,0-11
	c0-0.6,0.2-0.8,0.7-0.7c1.3,0.1,2.7,0.1,4,0c0.7,0,0.8,0.2,0.8,0.8c0,5.8,0,11.5,0,17.3c0,0.4,0,0.9,0.1,1.3
	c0.1,1.2,0.9,2.2,2.1,2.4c0.7,0.2,0.6,0.5,0.4,1c-0.4,0.9-0.8,1.8-1.1,2.7c-0.1,0.2-0.3,0.3-0.1,0.6L234.3,310.1L234.3,310.1z"/>
<path class="st0" d="M190.6,254.2c-1.5-0.6-2.9-1.2-4.5-1.7c-1.6-0.6-3.3-0.7-5-0.4c-0.2,0.1-0.4,0.1-0.6,0.2
	c-0.8,0.3-1.6,0.6-1.7,1.6c-0.2,1,0.6,1.5,1.3,1.9c1.1,0.6,2.3,1.1,3.5,1.5c1.7,0.6,3.3,1.4,4.9,2.3c4.9,3.3,4.4,10.2-0.9,12.6
	c-4.1,1.9-8.3,1.5-12.5-0.2c-2.4-1-2.4-1-2.4-3.6v-2.9c0.4,0,0.7,0.3,1,0.5c2.3,1.5,4.6,2.6,7.5,2.7c1,0.1,1.9-0.1,2.8-0.5
	c1.1-0.4,1.5-1.5,1.1-2.5c-0.2-0.4-0.4-0.6-0.6-0.9c-0.7-0.6-1.5-1-2.4-1.2c-1.5-0.6-3.2-1.1-4.7-1.8c-2.3-1.1-4.1-2.4-4.9-4.9
	c-1.2-4.1,1-7.9,5.4-9.1c4.2-1.1,8.3-0.4,12.3,1.3c0.2,0.1,0.4,0.2,0.3,0.5C190.6,251.1,190.6,252.6,190.6,254.2z"/>
<path class="st0" d="M281.5,258.1c0.5-0.5,1-1,1.5-1.4c2-1.5,4.7-1.7,7-0.6c2.4,1.1,3.2,3.2,3.2,5.6c0.1,3.5,0,7.1,0,10.5
	c0,0.6-0.1,0.8-0.7,0.8c-1.4-0.1-2.7-0.1-4.1,0c-0.6,0-0.7-0.2-0.7-0.7c0-3.1,0-6.1,0-9.2c0-0.4,0-0.7-0.1-1.1
	c-0.3-1.9-1.4-2.8-3.2-2.6c-1.7,0.1-3,1.5-3.1,3.2c0,3.2,0,6.4,0,9.6c0,0.7-0.2,0.9-0.8,0.9c-1.3-0.1-2.7-0.1-4,0
	c-0.6,0-0.7-0.2-0.7-0.7c0-8,0-16.1,0-24.2c0-0.6,0.2-0.7,0.8-0.7c1.3,0.1,2.5,0.1,3.8,0c0.7,0,1,0.2,1,0.9c-0.1,2.9,0,5.9,0,8.8
	C281.3,257.5,281.4,257.9,281.5,258.1z"/>
<path class="st0" d="M204.8,294.9c1.9-2.1,4-3.1,6.6-2.7c3,0.3,5.3,2.9,5.2,5.9c0.1,3.6,0,7.4,0,11c0,0.5-0.2,0.6-0.6,0.6
	c-1.4,0-2.8,0-4.2,0c-0.6,0-0.7-0.2-0.6-0.7c0-3.1,0-6.1,0-9.2c0-0.2,0-0.5,0-0.7c-0.1-1.9-1.1-3.1-2.9-3.1
	c-1.9-0.1-3.3,1.4-3.4,3.2c0,0,0,0,0,0.1c0,3.2,0,6.4,0,9.6c0,0.6-0.1,0.7-0.7,0.7c-1.4-0.1-2.8,0-4.2,0c-0.5,0-0.6-0.1-0.6-0.6
	c0-8.1,0-16.3,0-24.4c0-0.5,0.2-0.6,0.6-0.6c1.4,0,2.8,0.1,4.2,0c0.6,0,0.6,0.2,0.6,0.7c0,3,0,6.1,0,9.1L204.8,294.9z"/>
<path class="st0" d="M214.8,270.8l-3.7,2.5c-0.2,0.2-0.6,0-0.8-0.1c-1.1-0.3-2.1-1-2.8-1.9c-1.1,1.1-2.6,1.9-4.2,2
	c-3.2,0.2-5.8-0.8-7.5-3.6c-2-3-2.1-6.9-0.4-10.1c2.4-4.5,7.5-4.9,10.9-3.5c0.3,0.2,0.8,0.8,0.9-0.2c0-0.2,0.3-0.2,0.6-0.2
	c1.4,0,2.8,0,4.1,0c0.6,0,0.7,0.2,0.7,0.7c0,3.4,0,6.7,0,10.1c0,0.5,0,1.1,0.1,1.5C212.7,269.5,213.6,270.5,214.8,270.8z
	 M207.1,264.3c0-1.2,0-2.4,0-3.6c0-0.2,0.1-0.5-0.2-0.7c-1.9-1.1-4.9-1.5-6.2,1.5c-0.6,1.3-0.9,2.8-0.7,4.2c0.2,2.3,2.1,4.1,4.4,3.9
	c0.8-0.1,1.5-0.3,2.2-0.8c0.4-0.2,0.6-0.6,0.6-1.1C207.1,266.5,207.1,265.4,207.1,264.3L207.1,264.3z"/>
<path class="st0" d="M251,267.8c0,1.1,0,2.1,0,3.1c0,0.4-0.2,0.5-0.5,0.6c-2.4,1.5-5,2.1-7.8,1.9c-2.5-0.1-4.8-0.7-6.6-2.4
	c-2.8-2.6-3.2-5.8-2.3-9.3c1-3.5,3.3-5.3,6.7-6c3-0.6,5.8,0,8.1,2.1c2,1.9,2.8,4.4,2.8,7.1c0,0.6-0.4,0.4-0.7,0.4
	c-3.6,0-7.2,0-10.9,0c-0.7,0-0.9,0.2-0.7,0.9c0.6,2.4,2.4,3.8,5.2,4c2,0.1,4.1-0.6,5.7-1.7L251,267.8z M246.7,262.5
	c-0.1-0.2-0.1-0.5-0.2-0.7c-0.3-2-2.3-3.3-4.2-3c-1.6,0.2-2.8,1.5-3,3.2c-0.1,0.2-0.2,0.5,0.3,0.5
	C242,262.5,244.3,262.5,246.7,262.5L246.7,262.5z"/>
<path class="st0" d="M313.8,267.8c0,0.8-0.1,1.6,0,2.4c0.1,0.6-0.2,1.1-0.8,1.4c-3.7,2.2-8.2,2.4-12.2,0.6c-3.6-1.5-5.3-5.3-4.7-9.3
	c0.5-3.8,3.4-6.8,7.2-7.4c3.7-0.6,6.9,0.3,9.2,3.5c1.1,1.7,1.7,3.6,1.6,5.7c0,0.6-0.3,0.6-0.7,0.6c-3.6,0-7.3,0-10.9,0
	c-0.7,0-0.8,0.2-0.7,0.8c0.4,2.1,2.1,3.6,4.2,3.9c2.4,0.3,4.7-0.2,6.6-1.5l1.1-0.6C313.6,267.8,313.7,267.8,313.8,267.8z
	 M305.5,262.5c1.1,0,2.2,0,3.2,0c0.4,0,0.6-0.1,0.5-0.5c-0.2-1.9-1.8-3.2-3.6-3.2c-1.9-0.1-3.5,1.4-3.7,3.2c-0.1,0.4,0,0.5,0.4,0.5
	C303.4,262.5,304.5,262.5,305.5,262.5z"/>
<path class="st0" d="M273,268.4c0,1.2,0,2.4,0,3.6c0,0.2-0.2,0.5-0.4,0.6c-2.3,1-4.9,1.2-7.3,0.6c-2.7-0.8-4.1-2.8-4.1-6.2
	c0-2.2,0-4.3,0-6.5c0-0.8-0.2-1-1-0.9c-0.2,0-0.4,0-0.6,0c-0.3,0-0.7,0.2-0.9-0.2c-0.2-0.4,0-0.9,0.3-1.3c1.9-2,3.6-4.1,5.5-6.2
	c0.4-0.4,0.7-0.8,1.1-1.3c0.2-0.2,0.5-0.3,0.8-0.2s0.2,0.4,0.2,0.6c0,1.4,0,2.8,0,4.1c0,0.5,0.2,0.6,0.6,0.6c1.7,0,3.4,0,5.1,0
	c0.5,0,0.6,0.1,0.6,0.6c-0.1,0.8-0.1,1.6,0,2.4c0,0.6-0.1,0.7-0.7,0.7c-1.6-0.1-3.3,0-4.9,0c-0.6,0-0.7,0.2-0.7,0.7
	c0,2.1,0,4.1,0,6.2s1.3,3.2,3.4,2.9C271.1,269.2,272.1,268.9,273,268.4z"/>
<path class="st0" d="M214.7,255.8c1.6,0,3.2,0,4.7,0c0.5,0,0.7,0.2,0.9,0.6c1,2.6,2,5.2,3,7.9c0.1,0.3,0.2,0.6,0.4,1
	c1.1-2.9,2.3-5.8,3.3-8.6c0.1-0.6,0.6-0.9,1.2-0.8c1.6,0.1,3.2,0,4.9,0c-0.9,2-1.8,4-2.6,5.8c-1.6,3.6-3.2,7.1-4.9,10.8
	c-0.2,0.5-0.5,0.8-1.1,0.7c-0.6-0.1-1.1-0.1-1.6,0c-0.7,0.1-1.1-0.2-1.4-0.9c-2.2-5.3-4.5-10.5-6.7-15.8
	C214.8,256.2,214.8,256.1,214.7,255.8z"/>
<path class="st0" d="M274.9,298.5c-1.1-0.6-2-1.2-3.2-1.2c-2.4,0-4.1,1.4-4.3,3.9c-0.2,2.4-0.1,5.1-0.1,7.7c0,0.8-0.2,1-1,1
	c-1.3-0.1-2.7-0.1-4,0c-0.4,0-0.6-0.1-0.6-0.6c0-5.4,0-10.8,0-16.2c0-0.4,0.1-0.6,0.6-0.6c1.4,0,2.8,0,4.3,0c0.5,0,0.6,0.2,0.6,0.6
	c0,1,0,1.9,0,3.1c0.4-0.7,0.7-1.1,1.1-1.6c1.5-2.1,4.6-3.6,7.8-1.1c0.2,0.2,0.4,0.3,0.2,0.6C275.8,295.6,275.4,297,274.9,298.5z"/>
<path class="st0" d="M220.1,301c0-2.6,0-5.2,0-7.9c0-0.6,0.2-0.7,0.7-0.7c1.4,0.1,2.7,0,4.1,0c0.5,0,0.7,0.1,0.7,0.6
	c0,5.3,0,10.7,0,16.1c0,0.5-0.2,0.6-0.6,0.6c-1.4,0-2.8,0-4.2,0c-0.6,0-0.7-0.2-0.7-0.7C220.2,306.4,220.1,303.7,220.1,301z"/>
<path class="st0" d="M225.9,287c0,1.6-1.4,3-3.1,2.9c-1.7-0.1-3-1.4-2.9-3.1c0-1.6,1.4-3,3-2.9C224.5,283.9,225.9,285.2,225.9,287
	C225.9,286.9,225.9,286.9,225.9,287z"/>
</svg>
