<?xml version="1.0" encoding="utf-8"?>
<!-- Generator: Adobe Illustrator 25.2.3, SVG Export Plug-In . SVG Version: 6.00 Build 0)  -->
<svg version="1.1" id="Layer_1" xmlns="http://www.w3.org/2000/svg" xmlns:xlink="http://www.w3.org/1999/xlink" x="0px" y="0px"
	 viewBox="0 0 480 480" style="enable-background:new 0 0 480 480;" xml:space="preserve">
<style type="text/css">
	.st0{fill:#0F0F0F;}
	.st1{fill:#2B2A2A;}
</style>
<path class="st0" d="M179.4,282.7c0,0.1,0,0.1,0,0.2s-0.1,0.1-0.2,0.1c-0.2-0.1-0.2-0.3,0-0.4C179.2,282.6,179.3,282.7,179.4,282.7z
	"/>
<g>
	<path class="st1" d="M198,229.2c0.2,5.3,0.5,10.1,0.3,14.9c-0.3,6.8-0.1,13.6,0,20.5c0,2.1,0.2,4.2,0.1,6.3
		c-0.1,3.4-0.3,6.8-0.6,10.2c-0.1,1-2.3,1.5-3.4,1.4c-1.6-0.1-3.2-0.2-4.8-0.2c-2.3,0-4.3,1.1-6.6,0.8c-2-0.4-4.1-0.1-5.9,0.7
		c-1.7,1-1.2-2-2.1-0.7c-0.9,1.3-1.9,0.6-2.9,0.7c-6.9,0.7-13.7-1.3-20.6-0.2c-2,0.3-1.3-1.3-1.7-2.6c-1.3,2.4-3.4,1.5-5.1,1.8
		c-2.5,0.4-5-0.2-7.6,0s-1.4-2.8-2-4.2c-0.8-2.1,0.1-4.5,0-6.9c-0.2-10,0.2-20.1-0.2-30.1c-0.1-4.4,0.5-8.7,0.3-13.5
		c-3.4,2.3-6.6,4.2-9.4,6.6c-1.9,1.6-2.8,0.5-3.9-0.7c-1.5-1.6,0.1-2.1,1.1-2.9c5.3-3.9,10.4-7.9,15.7-11.8c2.2-1.5,5.3-2.6,6.7-4.2
		c2.3-2.7,5.3-4.1,7.9-6.1c1.5-1.2,3-2.8,5-3.3c0.6-0.2,1.2-0.5,1.1-1.2s-0.8-0.5-1.4-0.6c-5.5-1-10.8-2.7-15.8-5.3
		c-3.2-1.7-6-7.4-5.1-10.7c0.6-2.2,4.6-4,8.1-3.8c9.6,0.5,15.8,6,20.5,13.7c1.1,1.9,1.4,3.2,3.1,0.1c1.8-3.4,3.4-7,6.5-9.6
		c5.4-4.4,10.7-6.5,17.2-3.1c3.8,2,4.3,7.2,2,10.7c-4.1,6.2-10.8,7-16.8,9.2c-2.5,0.9-1.8,1.5-0.3,2.6c5.4,4,10.8,8.1,16.2,12.2
		c5.3,4,10.6,8.1,15.9,12.2c0.7,0.4,1,1.2,0.6,1.9c-0.1,0.2-0.3,0.4-0.5,0.6c-2,1.6-5,0.6-6.4-1.7
		C202.5,230.8,200.2,230.4,198,229.2z M163.1,278.2c1.9-1.2,4.1,0,5.9-0.7c1.3-0.5,3-0.4,3.4,0.2c0.8,1.2,1.6,0.7,2.1,0.4
		c2.3-1.1,4.4-0.6,6.7,0c1.3,0.3,3.5,0.6,4,0c1.4-1.7,3.1-0.9,4.3-0.8s2.7,1.3,3-0.4c0.3-1.1,1.5-1.7,1.3-3.2
		c-0.4-3.9-0.2-7.8-0.3-11.7c-0.2-5.5,0.5-11,0.3-16.6c-0.2-5.9,0.9-11.8,0.9-17.8c0-0.8,0.2-1.7-0.6-2.2c-4.2-2.3-7.2-6.1-11.1-8.7
		c-4.9-3.2-9-7.3-13.4-11.3c-1.4-1.3-2.6-1.8-4.9-0.3c-2.6,1.7-4.2,4.7-7.1,5.7c-3.4,1.3-5.5,4.1-8.3,6c-4.1,2.7-7.7,6.4-12.1,9.5
		c1.8,0,2.9-0.2,3,2.3c0,1.7-0.7,3.2-0.5,4.9c0.3,3.6,0.4,7.2,0.1,10.8c-0.5,8.7,0,17.6-1.1,26.3c-0.6,4.8,0.2,6.5,4.2,6.2
		c3.9-0.3,7.5,1.6,11.1,0.5c1.9-0.6,3.7,1.1,5.4-0.3C160.1,279.1,161.4,279.2,163.1,278.2z M147,189.1c-1.2,0-2.4,0-3.5,0.2
		c-1.8,0.5-3.3,3.2-2.3,3.9c4.1,2.6,8.3,5.2,13.1,5.6c3.1,0.3,5.7,1.9,8.7,2.4c0.3,0.1,0.6,0.9,1.3,0.4c0.5-0.4,0.7-1,0.5-1.6
		c-0.3-1-0.7-1.9-1.4-2.6C158.9,192.7,153.9,189.1,147,189.1z M170.8,201.7c7.8-1.1,14.9-2.8,20.3-8.4c2.2-2.3,1.9-3.7-1.1-4.4
		c-1.5-0.4-3.1-0.5-4.6-0.3C177.9,189.7,174,194.9,170.8,201.7z M179.4,282.7c-0.1,0-0.1-0.1-0.2-0.1c-0.2,0.1-0.2,0.2,0,0.4
		c0,0,0.1,0,0.2-0.1S179.4,282.9,179.4,282.7L179.4,282.7z"/>
	<path class="st1" d="M271.3,247.1c3.5,0.8,7.1-0.3,10.7,0.4c3.3,0.7,6.9-0.3,10.4-0.9c1.9-0.4,3.8-0.1,5.6,0.7
		c2.1,1,0.9,2.3,0.2,2.7c-2.6,1.6-5.4,3.5-8.6,2.4c-1.3-0.5-3.8,1.4-4.2-1.8c-0.1-0.7-3.6,1.4-4,2.5c-0.5,1.4,0.2,2.7-0.4,4.2
		c-0.7,1.7,0.2,3.3,2.4,3.3c2.9-0.1,5.8,0.7,8.4,2.3c0.9,0.3,1.8,0.3,2.7,0.1c1.3-0.2,2.5,0.6,2.8,1.9c0.1,0.3,0.1,0.6,0,0.8
		c-0.4,3.8-1.5,7.7-3.9,10.6c-0.8,1-2.2,2.7-4,3c-0.6,0.1-1.3,0.4-1.4,1c-0.4,2.3-2.9,2.1-3.7,2c-3.9-0.3-7.6,1-11.5,0.9
		c-1.5,0-2.8,1.7-3.4,3.2c-0.5,1.3-1,2.6-1.5,3.9c-0.8,2.1,0,3.2,2.3,3.9c6.6,1.9,13.4,1,20.1,1.1c1.2,0,1.6,0.5,1.6,1.6
		c0,1.8,0.3,4.4-2,4.3c-3.7-0.1-7.7,1.1-11.3-1.2c-1.1-0.6-2.4-0.7-3.5-0.2c-4.4,1.5-7.5-1.4-10.8-3.3c-0.5-0.5-0.8-1.2-0.7-1.9
		c0.8-2.8-1-5.8,0.4-8.4c0.9-1.6,2.2-3,3.7-4.1c0.6-0.5,1-1.1,1.6-1.6c1.1-1,2.5-1.7,3.9-2.1c4-1.3,7.6-0.2,11.4,0
		c3.1,0.1,8.1-6.5,7.3-9.6c-0.4-1.5-1-3-3.5-2.4c-2.2,0.6-4.5,0.4-6.5-0.6c-2.2-1.1-4.7,0.2-7.1-0.3c-1.6-0.2-2.9-1.5-3.2-3.1
		c-0.3-1.6,1.1-2.8,3.1-2.5c2,0.2,2.8-0.7,2.8-2.8c-0.2-6.4,0.9-5.9-5.6-5.6c-2.8,0.2-5-1.9-7.7-1.4c-0.6,0.1-0.8-0.6-0.7-1.1
		c0.3-1,0.9-1.9,2.1-1.9C267.2,247.1,269.2,247.1,271.3,247.1z"/>
	<path class="st1" d="M234.5,242.1c3.5-0.5,7.1,1.5,10.4-1c0.4-0.3,0.9,0.3,1.4,0.3c2.1,0.2,4,0.2,3.6-2.9c-0.1-1.6,0.1-3.3,0.7-4.8
		c0.3-1.1,0.4-2.8,2.4-2.4c1.6,0.3,2.9,1.1,2.8,2.9c-0.2,2.7,0,5.4,0,8c-0.1,4.2-1.1,8.2-1.1,12.4c0,2.9-1.3,4.3-4,4.1
		c-2-0.1-3.1,0.6-3.2,2.4c0,2.2,1.7,1.5,3.1,1.7c4.7,0.5,9.4,0.9,14.1,1c1.2,0,2.6,0.2,2.5,1.8c-0.1,1.4-1.4,1.8-2.7,1.7
		c-3.1-0.3-6.1-1.6-9.3-1.7c-2.5,0-5-0.2-7.5-0.6c-4.8-0.8-7.2-4.1-6.1-9c0.4-1.7,0.7-3.2,2.7-3.6c0.3-0.1,0.7-0.4,0.8-0.3
		c3.4,3.2,2.4-0.7,3.4-1.9s1.1-2.3,0.5-2.9c-1-0.9-2.7-1.6-4-0.9c-1.4,1-3.3,1-4.8,0.1c-2.5-1.5-5.3,1.3-7.8-0.8
		c-0.2-0.2-1.7,0.7-2-0.5c-0.2-0.9,0.7-1.6,1.3-2.3C232.3,242.1,233.4,241.7,234.5,242.1z"/>
	<path class="st1" d="M350.5,239.3c1.8,1.9,1,4.5,1.4,6.7c0.5,3,0.1,6.3,0.1,9.4c0,1.1-0.3,2.3-1.9,2.1c-1.6-0.1-1-1.4-1-2.3
		c-0.1-1,0-2,0.2-3c0.3-1.3,0.1-2.1-1.3-2c-1.7,0.1-0.7-1.1-0.8-2.7c-1.7,2.9-3.5,2.6-5.6,2c-3.6-1-5.3,0.3-5.3,3.9
		c0,3-1.4,5.6-2,8.4c-0.4,1.3-1.7,2-3,1.6c-0.1,0-0.1,0-0.2-0.1c-1.3-0.6-1-1.9-0.3-3.4c2.4-5.7,4.2-11.7,5.3-17.8
		c0.5-2.1-0.8-3.5-2.9-3c-2.1,0.4-4.7-1.3-6.6,1.1c-0.4,0.5-1.1-0.1-1.5-0.6c-0.6-0.7-0.6-1.8-0.1-2.5c0.7-0.8,2.1-1.9,2.7-1.6
		c2.7,1,5.3-0.7,8.1-0.1c2.9,0.7,4.8,2.6,4.1,5.6c-0.8,3.7,1.1,6,4.7,5.1c1.9-0.5,4.2,0.6,5.1-0.4s0.1-3.3,0.1-5
		C349.5,240.2,349.9,239.6,350.5,239.3z"/>
	<path class="st1" d="M223.6,247.3c-1.7,3.2-3.2,5.7-4.4,8.4c-0.5,1.3-1.9,1.9-3.1,1.5c-0.2-0.1-0.4-0.2-0.6-0.3
		c-0.8-0.6-2.5-1.6-0.8-4c2.6-3.6,4.6-7.9,7.2-11.5c2.4-3.3,4-7.9,9-9.2c-0.6,2.4-1.7,4.7-3.1,6.7c-1.9,2.6-1,5.6,0.5,7.8
		c2,3,2.2,6.8,4.4,9.6c0.8,0.8,0.8,2.1,0,2.9c0,0,0,0-0.1,0.1c-1.1,1.1-1.7-0.1-2.5-0.2c-3.4-0.2-3-2.3-3.4-4.8
		C226.3,252.1,224.3,250.2,223.6,247.3z"/>
	<path class="st1" d="M216.1,205.8c-0.4-2.9,0-6.9,2.9-9.6c2.3-2.1,5-4,8.6-3.9c6.4,0.2,13.5,6.5,13.5,12.1c0,2.9-6.8,11.1-8.8,11.6
		c-5,1.3-9.5,0.6-13-3.3C217.9,211.1,215.8,209.5,216.1,205.8z M227.6,195.9c-3.4,0.4-6,2.5-8,5.4c-1.9,2.9-1.4,5.9,0.2,8.8
		c3.1,5.6,9.1,5.4,12.9,2c2.6-2.5,4.2-5.9,4.4-9.5c0.2-1.8-0.3-4.5-2.5-5.4C232.4,196.5,230.1,196.4,227.6,195.9z"/>
	<path class="st1" d="M255.3,210.8c0.5-0.2,1.1-0.8,1.6-0.7c2.8,0.4,4-0.8,3.9-3.6c0-1.4,1.3-3.1-0.6-3.9c-1.7-0.8-3.7-1.7-5.4,0.1
		c-0.7,0.8-1.8,1.3-2.9,1.3c-1.1,0.1-3.1-0.1-2.8,2.4c0.2,1.2-1,1.1-2,1.1c-0.9,0-1.8-0.1-1.8-1.4c0-2.3,0-4.5,0-6.7
		c-0.1-0.8,0.5-1.5,1.3-1.6h0.1c0.8-0.1,1.5,0.4,1.7,1.2c0,0.2,0,0.3,0,0.5c-0.1,4.4,2.9,1.4,4.3,1.8c2.3,0.6,1.8-1.3,1.7-2.5
		c-0.2-1.9,0.5-3.7,0.1-5.6c-0.3-1.2,0.4-2.3,1.6-2.6c0.2-0.1,0.4-0.1,0.6-0.1c4.1-0.2,8.2-0.4,12.3-0.5c0.2,0,0.4,0.3,0.9,0.8
		c-2.4,0.6-4.9,0.8-7.4,0.4c-1.8-0.1-4.2-0.1-4.7,1.4c-0.9,2.5-0.6,5.3,0.8,7.6c1,1.4,3.2,0.8,4.8,0.5c3.2-0.7,6.5,0.3,9.7-0.9
		c0.5-0.2,1.1,0.1,1.3,0.7c0,0.1,0,0.1,0,0.2c0.1,0.7-0.4,1.3-1.1,1.4c-0.1,0-0.1,0-0.2,0c-2.9,0.4-5.9,0.5-8.8,0.3
		c-2.3-0.2-1.7,0.5-1.1,1.7s1.4,2.4,0.1,3.7c-0.4,0.3-0.4,0.9-0.1,1.3c0.1,0.1,0.2,0.2,0.3,0.2c1,0.4,2,1,3.2,0.3
		c1.4-0.8,3.1-1,4.6-0.6c0.7,0.2,1.2,0.8,1.3,1.5c0.2,0.7-0.5,0.8-1,0.8c-5.5,0.9-10.9,0.4-16.4,0.3L255.3,210.8z"/>
	<path class="st1" d="M310,243.2c-0.3,5.1-1.2,10.1-2.8,14.9c-0.5,1.5-0.9,3-1,4.6c0,1.7-1.1,2.4-2.9,2.1c-1.1-0.1-2-1-1.9-2.2
		c0-0.2,0.1-0.5,0.2-0.7c1.6-4.3,1.8-8.9,3.5-13.2c0.5-1.8,0.7-3.7,0.6-5.6c0.1-1.1-0.6-1.5-1.7-1.6c-2.4,0-4.8-0.4-7.2-0.3
		c-0.8,0-1,0-1.3-0.7c-0.4-1,0.2-1.3,1-1.5c3.8-0.9,7.6-1.6,11.5-1.1C310.8,238.4,309.9,241,310,243.2z"/>
	<path class="st1" d="M277.1,228c2.1,1.1,4.5,0.5,6.7,1c2.8,0.8,2.2,3.7,2.8,5.6c0.2,0.8-0.1,2.1,0.2,3.1c0.2,1-0.1,2.1-1,2.7
		c-3.4,3.2-7.8,3.4-12,3.3c-1.3,0-2.7-2.3-2.8-4.2c-0.3-3.3,0.6-6.5,1.4-9.7C272.8,227.9,275.4,228.9,277.1,228z M281.9,235.9
		c-0.3-3.8-1.7-4.9-5.9-4.7c-1.9,0.1-2.3,1.1-1.9,5.9c0.2,2.5,1.3,3,5.6,2.7C282.5,239.6,282.1,237.7,281.9,235.9L281.9,235.9z"/>
	<path class="st1" d="M311.9,220.3c-5.1,0-5.9-1.6-4.5-5.1c1.3-3.3,3.5-5,7.1-4.7c1.5,0.1,3.8-0.2,3.8-1.2c0-2-2.3-1.6-3.7-1.7
		c-1.7-0.2-3.5,0.1-5.2-0.2c-0.6-0.1-2-0.3-1.7-1.6c0.2-0.9,0.9-1.2,1.8-1.3c2.7-0.3,5.4-0.1,8-0.5c1.9-0.3,3.7,0.9,4,2.8
		c0,0.2,0,0.4,0,0.5c0.1,2,0.3,4.3-3.1,4.7c-2.3,0.2-4.9,0.3-6.8,2.2c-1,0.9-1.7,2-1.3,3.1s1.8,0.7,2.9,0.7c3,0,6-0.4,8.9-1.2
		c0.8-0.1,1.6-0.1,2.4,0.2c0.7,0.2,0.6,0.9,0.7,1.5c0.1,0.9-0.6,0.7-0.9,0.6C319.4,218.6,315,220.2,311.9,220.3z"/>
	<path class="st1" d="M316.5,233.4c0.5,2.9,3.5,4.8,2.5,8.4c-1.1,4.3,1.1,6,5.6,5c0.3-0.1,0.6-0.3,0.8-0.3c0.9,0.1,2.3-0.6,2.7,0.5
		s-0.9,1.4-1.5,2.1c-1.6,1.9-3,1.3-4.8,0.6c-1.8-0.8-3.2,0.4-2.5,2.3c0.8,2.3,0,4.3,0.2,6.5c0.1,1-0.3,2.8-1.9,2.4
		c-1.1-0.2-2.4-0.3-2.3-2.7C315.7,250,316.6,241.8,316.5,233.4z"/>
	<path class="st1" d="M335.5,200.1c-2.9,0.2-5.8-0.1-8.7-0.9c3.2-0.4,6.3-1.3,9.5-0.5c1.6,0.4,1.9,0.6,1.3,2.3
		c-1.2,3.6-3.2,5.2-7,4.3c-0.8-0.2-1.9-0.5-2.3-0.1c-0.8,0.7-2,1.6-1.7,2.9c0.2,1.2,1.3,1.4,2.4,1.5c1.8,0.1,3.6,0,5.3-0.4
		c0.8-0.3,1.7,0.2,1.9,1c0.3,1.1-1.3,1.4-1.6,1.4c-3.1-0.1-6.2-0.3-9.2-0.8c-1.2-0.3-1.9-1.5-1.6-2.6v-0.1c0.8-1.6,0.9-3.9,3.3-4.3
		c0.9-0.2,1.8-0.2,2.7,0C333.6,205.4,334.5,202.7,335.5,200.1z"/>
	<path class="st1" d="M301.8,189.3c0.2-0.1,0.5-0.1,0.8-0.1c1.3,0.2,9,8,9.2,9.2s-1.4,1.7-1.5,2.8c-0.8-0.4-1.9-0.2-2.3-1.4
		c-1-2.9-4.1-4.1-5.5-6.6c-0.4-0.7-1.3-0.5-1.8,0.6c-0.9,1.7-1.4,3.5-1.6,5.4c0,1.1-0.3,1.8-1.6,1.6s-1.1-0.8-1-1.9
		c0.2-3.5,2.6-6,3.7-9C300.7,188.7,301.6,190,301.8,189.3z"/>
	<path class="st1" d="M346,205.3c0.7-0.4,1.4-0.7,2.1-0.8c3.2,0,6.4-0.2,9.6-0.7c0.9-0.2,2.1-0.1,2.3,1c0.2,1.1-0.9,1.2-1.8,1.5
		c-2.3,0.9-4.7-0.2-7,0.8c0,0.2,0,0.4,0.1,0.4c1.5,1-0.5,3.4,1.1,3.9c2.3,0.5,4.7,0.8,7.1,0.8c0.8,0,1.7-0.5,1.6,0.9
		c0,1-0.6,2-1.7,1.6c-3.2-1.1-6.5-0.3-9.7-0.5c-1.1-0.1-1.4-0.5-1.1-1.6c0.2-0.8,0.3-1.6,0.4-2.4C349.3,208,349.1,206,346,205.3z"/>
	<path class="st1" d="M275.3,217.2c1.8,0,3.3,0,4.8,0c1.2,0,2.3,0.5,2.1,1.8c-0.2,1.6-1.5,1.5-2.5,1c-1.6-0.6-3.2-1-4.9-1
		c-2.4-0.3-2.9-1.4-1.6-3.3c1.3-2,3.5-3.2,5.9-3.3c0.9-0.1,1.5-0.1,1.8-1.1c0.3-1.3-0.8-1.1-1.4-1.4c-0.8-0.2-1.5-0.5-2.3-0.8
		c-0.7-0.4-2.1-0.3-1.7-1.6c0.3-1.1,1.6-0.8,2.4-0.7c1.4,0.2,2.7,0.5,4,1c0.9,0.3,2,0.7,1.8,2.1c-0.2,1.1,0.5,2.4-1.1,3.1
		s-2.9,1.7-4.7,1.7C276.6,214.8,275.8,215.5,275.3,217.2z"/>
	<path class="st1" d="M357.7,234.2c3.4,5.6,0,12.2,2.3,18.2c0.2,0.4,0,1,0,1.5c0.1,1.1-0.2,2.7-1.1,2.7c-1.2-0.3-2.1-1.4-1.9-2.6
		c0.3-5.5-0.9-11-0.7-16.5C356.4,235.8,356.7,234.7,357.7,234.2z"/>
	<path class="st1" d="M325.9,195.7c-1.1,0.2-2.3,0.5-3.3,0.7c-1.3,0.2-3.2-0.4-3,2.2c0,0.6-0.9,0.9-1.7,1c-0.9,0.1-1.3-0.5-1.5-1.1
		c-0.8-2.5-0.2-5.2-0.6-7.7c-0.1-0.7,0.6-1,1.3-0.9c0.7,0.1,1.2,0.2,1.2,1.3c0,2.1,0.5,3.7,3.4,2.6
		C323.1,193.2,325.5,192.9,325.9,195.7z"/>
	<path class="st1" d="M353.4,202.4c-1.8-0.3-3.5-0.7-5.3-1c-1-0.2-1.9-0.8-2.3-1.8c-0.6-1.4-1.1-3.3,0.3-4c1.5-0.8,2.4,1.1,2.6,2.2
		c0.3,1.8,1.3,1.9,2.7,1.8s2.6,0.1,3.9-0.1c0.9-0.2,1.8,0.4,2,1.3c0,0.1,0,0.2,0,0.3c0.1,1.1-1,0.9-1.8,0.9S354.1,202.3,353.4,202.4
		z"/>
	<path class="st1" d="M266.8,218.8c-0.1,2.7-1.8,3.8-3.5,3.7c-1.8-0.1-4.2-0.6-3.9-3.5c0.2-1.8,0.8-3.8,2.8-3.4
		C264,215.9,266.7,216.1,266.8,218.8z M262,220.2c1.4,0.2,2.1-0.3,2.1-1c0.1-1.1-1.1-1.3-1.8-1.6s-1,0.4-1.1,1
		C261.1,219.6,261.6,220.1,262,220.2z"/>
	<path class="st1" d="M344.1,206.9c-0.3,1.3-0.9,2.9,0,4.6c0.2,0.4-0.3,1.4-1.1,1.5c-1.2,0.1-2.3-0.7-2.3-1.6
		c0.1-3.6,0.6-7.2,0.9-10.7c0-0.5,0.5-0.6,0.9-0.5c0.5,0.2,0.8,0.6,0.8,1.1C343.5,203.1,343.8,204.8,344.1,206.9z"/>
	<path class="st1" d="M281.7,199.9c-2.8-0.4-5.2-0.2-5.3-3.3c-0.1-2,0.9-2.7,2.8-2.6s3.5,1.1,3.9,2.9
		C283.3,198.2,282.8,199.8,281.7,199.9z"/>
	<path class="st1" d="M275.2,204.1c1.9-1.6,4.5-2.1,6.8-1.4c2,0.6,4.1,1,6.2,1.1c0.8,0,1.5,0.4,1.5,1.1c0,1-1,0.7-1.7,0.7
		C283.9,205.7,279.9,204.7,275.2,204.1z"/>
	<path class="st1" d="M183.6,255.2c0,2-1.7,2.5-2.8,3c-9.6,4.9-19.2,3.9-28.6-0.7c-0.8-0.4-1.3-0.7-0.8-1.8c0.5-1.1,1.1-1.2,2.1-0.8
		c1.7,0.8,3.5,1.4,5.3,2c7.4,2.7,14.6,2.5,21.7-1.1C181.4,255.5,182.5,255.3,183.6,255.2z"/>
	<path class="st1" d="M157,243.8c0.2,1.2-0.6,2.3-1.8,2.5c-0.2,0-0.4,0-0.6,0c-1.3,0.1-2.4-0.9-2.5-2.2c0-0.1,0-0.2,0-0.2
		c-0.1-1.3,0.9-2.5,2.3-2.6c0.1,0,0.2,0,0.4,0c1.2,0,2.3,1,2.2,2.3C157,243.6,157,243.7,157,243.8z"/>
	<path class="st1" d="M179.6,241.2c1.3,0.2,2.3,1.2,2.4,2.5c0.2,1.2-0.6,2.4-1.9,2.6c-0.1,0-0.3,0-0.4,0c-1.3,0.2-2.5-0.7-2.6-2
		c0-0.2,0-0.4,0-0.6C177.1,242,178.2,241.6,179.6,241.2z"/>
</g>
</svg>
