<?xml version="1.0" encoding="utf-8"?>
<!-- Generator: Adobe Illustrator 25.2.3, SVG Export Plug-In . SVG Version: 6.00 Build 0)  -->
<svg version="1.1" id="Layer_1" xmlns="http://www.w3.org/2000/svg" xmlns:xlink="http://www.w3.org/1999/xlink" x="0px" y="0px"
	 viewBox="0 0 480 480" style="enable-background:new 0 0 480 480;" xml:space="preserve">
<style type="text/css">
	.st0{fill:#2B2A2A;}
</style>
<path class="st0" d="M238.1,231.2c-4.3,0.2-8.2-0.8-12.2-1.4c-7.8-1.4-15.5-3.1-23.2-5.1c-4.9-1.3-10-2.2-14.4-4.7
	c-7.9-4.4-12.1-11.2-12.1-20.4c0-9.4,4.6-16.2,12.7-20.4c9.8-5,21.4-2.8,29,5.9c1.1,1.3,2,2.7,3.2,4.3c1.2-2.8,2.3-5.3,3.4-7.8
	c3.4-7.7,8.1-14.2,15.6-18.4c5-2.8,10.2-4.9,16.1-4.7c4.1,0.2,8.3-0.5,12.4,0.3c10.7,2.1,19.4,7.2,24,17.6
	c2.3,5.2,2.9,10.8,2.2,16.5c-0.7,5.9-2.2,11.5-5.8,16.4c-1.9,2.6-4.3,4.9-7.1,6.6c-0.8,0.5-1.1,0.2-1.1-0.5c-0.2-3.5-0.9-7-1.4-10.5
	c-0.1-0.7,0.2-1.3,0.8-1.7c3.6-2.7,6.2-6.6,7.2-11.1c0.4-1.5,0.6-3.1,0.5-4.7c-0.1-1.5-0.7-1.7-2.1-1.4c-1.8,0.4-3.1,2-3.2,3.8
	c-1,7.2-7.4,12.5-14.7,11.9c-4.2-0.3-7.5-2.4-10.1-5.7c-1.2-1.5-3-2.3-4.9-2.1c-1.5,0.1-1.8,0.7-1.2,2c3.6,6.8,9.1,10.8,17,10.9
	c0.7,0,1.5,0,2.2,0c1.2-0.2,2.2,0.6,2.4,1.8v0.1c0.3,1.2-0.3,2.4-1.4,2.9c-2,1-4.2,0.8-6.3,0.5c-1.3-0.2-1.2,0.2-1.1,1.1
	c0.5,3.4,1.4,6.6,2.8,9.8c0.5,1.3,0.3,1.8-0.9,2.4c-4,1.9-8.2,3.4-12.5,4.6c-0.7,0.2-1.2,0.1-1.5-0.8c-1-2.9-2.2-5.7-3.3-8.6
	c-0.3-0.9-0.7-1.1-1.5-0.4c-1.1,1.1-2.5,1.9-4,2.4c-1.7,0.5-2.6,0.2-3.3-1.3s0-2.3,1.2-3c5.8-3.6,8.8-8.7,8.7-15.6
	c-0.1-1.2-0.3-2.3-0.7-3.4c-0.5-1.6-1.1-1.8-2.4-0.7c-1.1,1-1.6,2.4-1.4,3.8c0.3,4.8-1.4,8.7-5.3,11.5c-5.1,3.6-12,2.8-16.1-1.8
	c-1.2-1.3-2.5-2-4.3-1.4c-1.1,0.4-1.5,1-0.8,2.1c2.8,4.3,7.3,7.1,12.4,7.7c0.6,0.1,1,0,1.4,0.7C234.7,224.6,236.4,227.8,238.1,231.2
	z M269.4,198.2c3.4,0,5.7-2.2,5.7-5.4c0-3.3-1.7-5.5-4.1-5.4c-3,0.2-6.3,1.7-6.2,5.2C265,196.9,267.1,198.6,269.4,198.2L269.4,198.2
	z M234.7,203c-2.6,0-5.5,1.9-5.3,3.6c0.3,2.7,2.6,5.7,5.1,5.6c2.4,0,4.6-1.9,4.6-4C239.1,205.5,237,203,234.7,203L234.7,203z
	 M245.2,167.9c0,0.8,0,1.4,0,2c0.2,4,3.7,6.9,6.9,5.7c3-1.1,3.9-3.4,4.3-6.6c0.1-1.3-0.4-1.5-1.5-0.9c-2.1,1.1-3.7,3.1-4.2,5.5
	C250,170.4,248,168.9,245.2,167.9z M274.4,174.2c0,0.8,0,1.5,0,2.1c0.2,2.6,2.8,4.7,5,3.9c2-0.7,3.1-2.3,3.3-4.4
	c0.1-0.5,0.2-0.9-0.2-1.2s-0.7,0-1.1,0.2c-1.5,0.8-2.6,2.2-3,3.9C277.8,176.2,276.6,174.8,274.4,174.2L274.4,174.2z M233.9,190.8
	c-0.5-0.5-1-1-1.5-1.4c-0.8-0.7-2.1-1.2-2.7-0.7s0.3,1.6,0.7,2.3c1.5,2.4,4.4,2.7,5.8,0.5c0.9-1.3,1.1-3,0.6-4.5
	c-0.3-0.8-0.5-0.8-1.1-0.3C234.6,187.9,234.4,189.4,233.9,190.8L233.9,190.8z M262.8,175c0,1.3,0.7,1.9,1.7,2
	c0.9,0.1,1.7-0.5,1.8-1.4c0-0.1,0-0.2,0-0.3c0.1-0.9-0.6-1.8-1.5-1.9c-0.1,0-0.1,0-0.2,0c-0.9-0.1-1.7,0.5-1.9,1.4
	C262.9,174.9,262.9,175,262.8,175L262.8,175z M246.3,187.4c0.7-0.1,1.2-0.5,1.1-1.1c0-0.6-0.5-1-1.1-1c-0.1,0-0.1,0-0.2,0
	c-0.6,0.1-1,0.4-0.9,1.1S245.8,187.3,246.3,187.4z"/>
<path class="st0" d="M274.5,276.6c-4,0-7.9,0-11.9,0c-1.1,0-1.5-0.3-1.5-1.4c0-3.3-0.1-3.3,3.2-3.3c2.2,0,4.3,0,6.4,0
	c1,0,1.2-0.2,1.2-1.2c0-2.9,0.1-2.9-2.8-2.9c-2.7,0-2.7,0-2.7-2.8c0-4.1,0-8.3,0-12.4c0-1.4,0.3-2.1,1.8-1.8c0.1,0,0.2,0,0.3,0
	c3.7,0,3-0.2,2.9,3c0,1.3,0.3,1.7,1.5,1.5c0.1,0,0.2,0,0.3,0c3.8,0,3.8,0,3.9-3.6c0-0.1-0.1-0.4,0-0.4c1.3-0.9,2.7-0.3,4.1-0.4
	c0.7-0.1,0.8,0.6,0.8,1.2c0,4.8-0.1,9.6,0,14.4c0,1.1-0.4,1.4-1.4,1.3c-0.6-0.1-1.3,0.1-1.9,0c-1.7-0.3-2.2,0.4-2.2,2.1s0.4,2.1,2,2
	c2.5-0.2,5,0,7.5-0.1c0.8,0,1.1,0.1,1.1,1c0.2,3.7,0.2,3.7-3.5,3.7L274.5,276.6L274.5,276.6z M274.4,259.7c-2.8,0-2.7,0-2.8,2.3
	c-0.1,1.6,0.4,1.9,1.9,1.8c1-0.1,1.9-0.1,2.9,0c0.5,0.1,0.9-0.2,1.1-0.6c0.7-2.2-0.2-3.4-2.5-3.4L274.4,259.7z"/>
<path class="st0" d="M177.3,272.3c-3.9,0-7.8,0-11.7,0c-0.9,0-1.2-0.2-1.2-1.2c0-3.2-0.1-3.2,3.1-3.2c2,0,4.1-0.1,6.1,0
	c1.2,0.1,1.5-0.4,1.4-1.4c0-0.3,0-0.6,0-0.8c0.2-1.1-0.2-1.7-1.4-1.5c-0.9,0.1-1.8,0-2.7,0c-0.7,0-1-0.3-1-1c0-3.7,0-7.5,0-11.2
	c0-0.8,0.2-1.1,1.1-1.1c4.2,0,8.5,0,12.7,0c0.9,0,1.1,0.3,1.2,1.2c0.2,3.2,0.2,3.2-3.1,3.2c-1.9,0-3.9,0-5.8,0
	c-0.9,0-1.3,0.2-1.4,1.2c-0.2,3.2-0.2,3.2,3,3.2c2,0,4.1,0,6.1,0c0.8,0,1,0.2,1.1,1c0.1,3.4,0.2,3.4-3.4,3.4c-0.6,0-1.5-0.4-1.7,0.3
	c-0.2,1.1-0.2,2.1,0,3.2c0,0.4,0.7,0.2,1.1,0.2c2.7,0,5.4,0.1,8.2,0c1.4-0.1,1.6,0.4,1.6,1.6c-0.1,2.8,0,2.8-2.9,2.8h-10.4
	L177.3,272.3L177.3,272.3z"/>
<path class="st0" d="M236.7,274.6c-1.9,0-3.9,0-5.8,0c-0.8,0-1.1-0.2-1.1-1c0-3.6,0-7.2,0-10.9c0-0.8,0.3-1.1,1.1-1c2,0,4.1,0,6.1,0
	c1,0,1.4-0.1,1.4-1.2c0-2.8,0-2.8-2.8-2.8c-1.6,0-3.2,0-4.8,0c-0.7,0-0.9-0.2-1-0.9c-0.2-3.5-0.2-3.5,3.3-3.5c2.9,0,5.9,0,8.8,0
	c0.9,0,1.2,0.2,1.2,1.1c0,3.5,0,7,0,10.5c0,1-0.4,1.3-1.3,1.3c-2,0-4,0-5.9,0c-1,0-1.4,0.3-1.3,1.4c0,2.8,0,2.8,2.8,2.8
	c1.7,0,3.4,0,5.1,0c0.7,0,0.9,0.1,1,0.9c0.1,3.5,0.1,3.5-3.3,3.5L236.7,274.6z"/>
<path class="st0" d="M298.7,259.7l-4.4,6.1c-0.1,0.1-0.1,0.3-0.2,0.3c-1.7,0.4-2.3-1.2-3.5-1.7c-0.6-0.3-0.8-0.5-0.3-1.2
	c1.7-2.2,3.3-4.4,5-6.8c-0.2,0-0.4-0.1-0.6-0.1c-3.7,0-3.7,0-3.5-3.7c0-0.7,0.2-1,1-1c4.4,0,8.7,0,13.1,0c0.4,0,0.9,0,0.9,0.5
	c0.1,1.3,0.1,2.6,0,3.9c0,0.6-0.6,0.4-1,0.4c-1,0-1.9,0-3,0c1.4,2.4,3,4.4,4.5,6.5c0.6,0.9,0.5,1.3-0.4,1.9c-2.8,1.9-2.7,2-4.8-0.8
	C300.8,262.5,299.8,261.1,298.7,259.7z"/>
<path class="st0" d="M131.5,262.3c-0.5-4.9,3.9-7.8,7.5-7.7c4.8,0.2,7.8,3.4,7.7,7.8c-0.1,4.8-3,7.5-7.8,7.7
	C135.1,270.3,130.9,267.1,131.5,262.3z M138.9,265.1c1.6,0,3-1.2,3.1-2.8c0-1.2-1.8-3-3.1-3c-1.5,0.2-2.6,1.4-2.7,2.8
	C136.2,264,137.2,265.1,138.9,265.1z"/>
<path class="st0" d="M333.3,265.5c-3.5,0.3-7.6-3-7.6-7.6c0.1-4.3,3.7-7.7,8-7.6c4.1,0.1,7.4,3.4,7.6,7.5c0.1,4.2-3.3,7.6-7.4,7.7
	C333.6,265.5,333.4,265.5,333.3,265.5z M330.8,257.8c-0.1,1.5,1,2.8,2.5,2.9c0.1,0,0.2,0,0.2,0c1.5-0.2,2.8-1.4,3-2.9
	c0.1-1.4-1.5-2.9-3-2.9c-1.5-0.1-2.7,1-2.8,2.5C330.8,257.5,330.8,257.7,330.8,257.8z"/>
<path class="st0" d="M177.7,290.3c-4.4,0-7.8-3.2-7.9-7.4c-0.3-4.3,3-8.1,7.3-8.4s8.1,3,8.4,7.3s-3,8.1-7.3,8.4
	C178,290.3,177.8,290.3,177.7,290.3z M177.4,285.8c1.6,0.1,3.3-1.6,3.3-3.1c0-1.4-1.6-2.9-3.1-3c-1.6,0-2.9,1.2-3.2,2.8
	C174.5,284.2,175.7,285.6,177.4,285.8L177.4,285.8z"/>
<path class="st0" d="M315.2,277c0.3,3.7-3.5,7.7-8.2,7.5c-3.5-0.1-7.8-3.7-7.5-8.2c0.3-3.9,3.8-7.2,8.2-7.1
	C311.6,269.2,315.5,272.9,315.2,277z M307.4,274c-1.7-0.1-3.1,1.1-3.2,2.8s1.1,3.1,2.8,3.2c0.1,0,0.1,0,0.2,0c1.5,0.1,3.2-1.6,3.2-3
	C310.3,275.3,309,274,307.4,274z"/>
<path class="st0" d="M250.6,267c0-4.9,0-9.7,0-14.6c0-1.3,0.4-1.6,1.7-1.6c3.1,0.1,3.1,0,3.1,3c0,9.1,0,18.2,0,27.3
	c0,1.5-0.3,2-1.9,1.9c-2.9-0.1-2.9,0-2.9-3C250.7,275.8,250.6,271.4,250.6,267z"/>
<path class="st0" d="M150.5,264.9c0-4.1,0-8.1,0-12.2c0-0.9,0.2-1.1,1.1-1.2c3.7-0.1,3.7-0.2,3.7,3.5c0,1.3,0,2.6,0,3.9
	c0,0.9,0.2,1.3,1.1,1.1c0.2,0,0.3,0,0.5,0c3.3,0,3.2,0,3.2,3.4c0,0.8-0.2,1.1-1,1.1h-0.3c-3.6,0.1-3.6,0.1-3.6,3.6c0,3,0,6,0,9
	c0,1-0.2,1.4-1.3,1.4c-3.5,0-3.5,0.1-3.5-3.3L150.5,264.9L150.5,264.9z"/>
<path class="st0" d="M352.4,263.5c0,3.6,0,7.2,0,10.9c0,1-0.3,1.4-1.3,1.4c-3.7,0-3.7,0.1-3.7-3.5c0-2.1,0-4.3,0-6.4
	c0-0.9-0.1-1.3-1.2-1.3c-3.3,0-3.2-0.1-3.2-3.3c0-0.9,0.2-1.1,1-1.1c1.1,0,2.5,0.5,3.1-0.2c0.7-0.8,0.2-2.3,0.2-3.4
	c0-1.5,0-2.9,0-4.4c0-0.8,0.2-1.2,1.1-1.1h0.2c3.7-0.2,3.7-0.2,3.8,3.5C352.4,257.4,352.3,260.5,352.4,263.5L352.4,263.5z"/>
<path class="st0" d="M223.8,263.6c0,3.6,0,7.1,0,10.7c0,1-0.2,1.4-1.3,1.4c-3.8,0-3.8,0-3.8-3.7c0-2.1,0-4.2,0-6.3
	c0-0.9-0.2-1.4-1.2-1.2c-0.4,0.1-0.9,0-1.4,0c-1.2,0.1-1.8-0.1-1.8-1.6c0-2.8-0.1-2.9,2.8-2.8c1.2,0,1.5-0.3,1.5-1.5
	c-0.2-1.9-0.2-3.8,0-5.8c0.3-2.6,2.4-0.8,3.6-1.2c0.8-0.3,1.6-0.2,1.5,1.2C223.7,256.4,223.7,260,223.8,263.6L223.8,263.6z"/>
<path class="st0" d="M333.5,267.5c2.5,0,5,0.1,7.5,0c1.1,0,1.5,0.3,1.4,1.4c0,3.3,0,3.3-3.3,3.2s-3.2,0-3.2,3.2
	c0,0.7,0.5,1.9-0.4,2.1c-1.3,0.2-2.7,0.2-4,0c-0.5,0-0.2-0.8-0.3-1.2c-0.1-1.4,0.6-3.2-0.3-3.9c-0.9-0.7-2.7-0.2-4.1-0.3
	c-0.8-0.1-2,0.6-2.3-0.4c-0.2-1.2-0.3-2.5,0-3.7c0.1-0.6,0.8-0.5,1.3-0.5L333.5,267.5L333.5,267.5z"/>
<path class="st0" d="M204.9,265.8c2.5,0,5.1,0,7.6,0c1,0,1.4,0.1,1.4,1.3c-0.1,3.2,0,3.2-3.3,3.2c-3.4,0-3.6,0-3.4,3.4
	c0.1,1.8-0.5,2.1-2.1,2c-2.7-0.1-2.7,0-2.7-2.6c0-2.8,0-2.8-2.9-2.8h-0.7c-3.4,0.1-3.3,0.1-3.2-3.2c0-1.1,0.5-1.3,1.5-1.3
	C199.7,265.8,202.3,265.8,204.9,265.8z"/>
<path class="st0" d="M345.1,290.3c-2.1,0-4.2,0-6.3,0c-0.9,0-1.3-0.1-1.3-1.2c0.1-3.2,0-6.3,0-9.5c0-0.9,0.3-1.3,1.3-1.3
	c3.5-0.1,3.5-0.2,3.5,3.3c0,1.4-0.4,3.1,0.3,3.9s2.5,0.2,3.9,0.3c1.6,0,3.2,0,4.8,0c0.9,0,1.3,0.2,1.3,1.2c0.1,3.2,0.1,3.2-3.2,3.2
	L345.1,290.3L345.1,290.3z"/>
<path class="st0" d="M216.4,290.3c-2,0-4,0-5.9,0c-0.9,0-1.3-0.2-1.3-1.2c0.1-3.2,0.1-6.3,0-9.5c0-0.9,0.1-1.3,1.2-1.3
	c3.5,0,3.5-0.1,3.5,3.4c0,4.1,0,4.1,4.1,4.1c1.6,0,3.3,0,4.9,0c0.8,0,1,0.3,1,1.1c0.1,3.4,0.2,3.4-3.2,3.4H216.4L216.4,290.3z"/>
<path class="st0" d="M310.4,259.1c0-2.3,0-4.6,0-7c0-1,0.3-1.3,1.3-1.3c4,0.2,3.5-0.9,3.5,3.5c0,2.9,0,3,3,2.9
	c1.4,0,1.8,0.4,1.7,1.7c-0.1,0.5-0.1,0.9,0,1.4c0.1,1-0.3,1.4-1.3,1.4c-3.4,0.1-3.5,0.1-3.3,3.5c0.1,1.6-0.3,2.1-2,2
	c-2.8-0.2-2.8-0.1-2.8-2.8L310.4,259.1L310.4,259.1z"/>
<path class="st0" d="M205.5,250.9h5.3c0.6,0,1,0,1,0.9c-0.1,3.5,0,7.1,0.1,10.6c0,0.4-0.1,0.6-0.5,0.7c-0.1,0-0.2,0-0.3,0
	c-4.1,0.3-4.1,0.3-4.1-3.7c0-1.4,0.6-3.1-0.3-3.9c-0.8-0.7-2.5-0.2-3.8-0.2c-0.6,0-1.1,0-1.7,0c-2.4,0-2.3,0-2.4-2.4
	c-0.1-1.7,0.4-2.2,2.1-2S203.9,250.9,205.5,250.9z"/>
<path class="st0" d="M134.8,302c0,1.3,0,2.6,0,3.9c0,0.4,0.1,0.9-0.7,0.8c-0.6,0-0.8-0.3-0.7-0.8c0-2.1,0-4.3,0-6.4
	c0-0.4-0.3-1,0.5-1c0.5,0,1.1-0.1,1.4,0.6c0.6,1.4,1.4,2.8,2.3,4.7c0-1.8,0-3.1,0-4.4c0-0.6,0-1,0.8-1c0.6,0,0.9,0.2,0.9,0.9
	c0,2.2,0,4.4,0,6.6c0,0.5-0.2,0.9-0.7,0.9c-0.6,0.2-1.2-0.1-1.4-0.7c-0.6-1.4-1.4-2.8-2-4.1H134.8z"/>
<path class="st0" d="M268,305.9c-2.2-1.9-2-4.8,0.4-5.7c1.3-0.5,2.5,0.5,3.8,0.1c0.3-0.1,0.3,0.5,0.3,0.8c0,1.5,0.1,2.9,0,4.4
	c0,1.1-0.7,2.2-1.8,2.6c-1.2,0.6-2.2,0.2-3.1-0.4c-0.4-0.3-1-0.7-0.8-1.4c0.2-0.7,0.9-0.2,1.4-0.3h0.4c0.9,1.1,1.5,1.1,2.2-0.4
	c-0.7,0.6-1.5,0.3-2.2,0.4C268.3,306,268.2,305.9,268,305.9z M270.9,303.3c-0.1-0.8-0.6-1.6-1.5-1.7s-1.4,0.6-1.5,1.4
	c-0.2,0.8,0.4,1.5,1.1,1.7c0.1,0,0.1,0,0.2,0C270.2,304.7,270.8,304.1,270.9,303.3L270.9,303.3z"/>
<path class="st0" d="M259.1,304c0,0.7,0,1.4,0,2s-0.3,0.8-0.9,0.8c-0.4,0.1-0.7-0.1-0.8-0.5c0-0.1,0-0.2,0-0.3c0-2.3,0-4.6,0-6.9
	c0-0.2,0.1-0.4,0.2-0.6c0.3-0.3,3.6-0.1,4.1,0.3c1,0.8,1.5,1.8,0.9,3.1c-0.6,1.3-0.6,2.8,0,4.1c0.1,0.3,0.4,0.5-0.1,0.7
	c-0.6,0.3-1.4,0.1-1.7-0.5c-0.5-0.7-0.9-1.5-1.4-2.2H259.1z M261.2,301c0-0.7-0.5-0.9-1.1-0.9s-0.9,0.1-0.9,0.8c0,0.6,0.1,1,0.8,0.9
	C260.5,301.8,261,301.7,261.2,301z"/>
<path class="st0" d="M187.1,301.3c-0.8,0.3-1.7,0.1-2.2-0.5c-0.9-1-2-0.9-3,0c-0.9,1-0.9,2.5-0.1,3.5c0.8,0.9,2.1,1,3,0.2l0,0
	c0.6-0.5,1.4-0.7,2.1-0.5c-0.7,2-2.2,3.1-4.1,2.8c-2-0.2-3.4-1.9-3.4-3.9c-0.2-2,1.2-3.9,3.2-4.4C184.4,298,186.1,299.2,187.1,301.3
	z"/>
<path class="st0" d="M333.8,304c-1.1,2.4-2.4,3.1-4.7,2.6c-1.6-0.4-2.8-2.1-2.7-4.3c0.1-1.9,1.4-3.5,3.3-3.9
	c1.7-0.3,3.3,0.7,4.2,2.9c-0.8,0.4-1.7,0.2-2.2-0.5c-0.6-0.8-1.8-1-2.7-0.3c-0.2,0.1-0.3,0.3-0.4,0.4c-0.8,0.9-0.8,2.3,0,3.2
	c0.9,1.1,2.1,1,3.1,0.2C332.2,303.9,333,303.7,333.8,304z"/>
<path class="st0" d="M350.5,301.1c0-0.6,0-1.3,0-1.9c0-0.7,0.5-0.8,1-0.8c0.6,0,0.7,0.3,0.7,0.8c0,2.2,0,4.5,0.1,6.7
	c0,0.4-0.2,0.8-0.4,0.7c-1.3-0.5-2.6,0.6-3.9,0c-1.5-0.8-2.1-2.6-1.5-4.1C347,301.1,348.5,300.6,350.5,301.1z M350.5,304.1
	c0-1.2-0.4-1.7-1.3-1.7c-0.7,0-1.3,0.5-1.4,1.2c0,0.1,0,0.1,0,0.2c-0.1,0.7,0.5,1.4,1.2,1.4c0.1,0,0.2,0,0.3,0
	C350.2,305.2,350.5,304.7,350.5,304.1z"/>
<path class="st0" d="M336.6,301c2.4-0.6,3.4,0.2,3.6,2.5c0,0.7,0,1.5,0.1,2.2c0.1,0.5-0.1,0.9-0.6,1.1c-0.1,0-0.2,0-0.3,0
	c-0.7,0.1-0.8-0.4-0.7-1c0-0.7,0-1.5,0-2.2c-0.1-0.6-0.2-1.3-1.1-1.2c-0.7,0.1-0.9,0.6-0.9,1.2s0,1.5,0,2.2c0.1,0.4-0.2,0.9-0.6,0.9
	c-0.1,0-0.2,0-0.3,0c-0.6,0-0.8-0.4-0.8-1c0-2.1,0-4.3,0-6.4c0-0.7,0.2-1,1-1s0.8,0.5,0.8,1C336.5,299.9,336.6,300.4,336.6,301z"/>
<path class="st0" d="M242.8,301c2.5-0.6,3.7,0.4,3.7,2.8c0,0.7,0,1.4,0,2s-0.4,0.9-1,0.9c-0.5,0-0.7-0.4-0.7-0.9c0-0.8,0-1.6,0-2.4
	c0.1-0.5-0.3-1.1-0.8-1.1h-0.1c-0.7-0.1-1,0.5-1,1.1c-0.1,0.8-0.1,1.7,0,2.5c0,0.5-0.2,0.9-0.8,0.8c-0.6,0-0.9-0.3-0.9-0.8
	c0-2.3,0-4.6,0-6.9c0-0.7,0.6-0.7,1.1-0.7s0.6,0.4,0.6,0.8L242.8,301z"/>
<path class="st0" d="M311.8,301c2.4-0.6,3.6,0.3,3.7,2.7c0,0.7,0,1.5,0,2.2c0,0.5-0.4,0.9-0.9,1h-0.1c-0.8,0.1-0.7-0.5-0.7-1
	c0-0.8,0-1.7-0.1-2.5c-0.1-0.4-0.3-1.1-0.9-1c-0.6,0-1.1,0.5-1,1.1l0,0c0,0.8,0,1.7,0,2.5c0,0.6-0.2,0.8-0.8,0.8
	c-0.6,0-0.9-0.2-0.9-0.7c0-2.3,0-4.6,0-6.9c0-0.6,0.4-0.7,0.9-0.7s0.8,0.2,0.8,0.8C311.8,299.7,311.8,300.4,311.8,301z"/>
<path class="st0" d="M275.1,301.1c2.4-0.6,3.5,0.2,3.5,2.6c0,0.7,0,1.5,0.1,2.2c0.1,0.6-0.1,0.8-0.7,0.9s-0.8-0.2-0.8-0.8
	c0-0.7-0.1-1.5-0.1-2.2s-0.2-1.5-1-1.5s-1,0.7-1,1.5s0,1.4,0,2s-0.3,0.9-0.9,1c-0.7,0.1-0.8-0.4-0.8-1c0-2.2,0-4.4,0-6.6
	c0-0.5,0.1-0.9,0.7-0.8c0.7,0,1,0.1,1,0.8C275.1,299.8,275.1,300.4,275.1,301.1z"/>
<path class="st0" d="M172.5,304.2c-0.1,0.5,0.5,1.8-0.2,2.2c-0.9,0.5-2.1,0.5-3.2,0.4c-1.5-0.1-2.8-2-2.5-3.4c0.4-1.9,1.8-3,3.6-2.5
	c0.1,0,0.1,0.1,0.1,0.1C173.1,300.3,172.6,302.3,172.5,304.2z M170.9,303.8c0-0.9-0.4-1.4-1.3-1.4c-0.7,0-1.4,0.6-1.4,1.3
	c0,0.1,0,0.1,0,0.2c0,0.7,0.6,1.3,1.3,1.3c0.1,0,0.1,0,0.2,0c0.7,0,1.2-0.5,1.2-1.1C170.9,304,170.9,303.9,170.9,303.8L170.9,303.8z
	"/>
<path class="st0" d="M317.9,304.2c0.6,1.2,1.4,1.1,2.2,0.6c0.5-0.3,1.1-0.5,1.5,0c0.3,0.5-0.2,1-0.6,1.2c-1,0.8-2.4,0.8-3.4,0.1
	c-1.3-1-1.6-2.7-0.9-4.1c0.5-1,1.6-1.6,2.8-1.4c1.6,0.2,2.3,1.2,2.5,2.7c0.1,0.6-0.1,0.9-0.8,0.9
	C320.1,304.1,319.1,304.2,317.9,304.2z"/>
<path class="st0" d="M146.1,303.7c0,0.2,0,0.3,0,0.5c-0.2,0.8,0.6,1.9-0.5,2.3c-2.2,0.8-4.1,0.3-4.9-0.8c-0.8-1.3-0.6-2.9,0.3-4.1
	c0.6-0.7,1.5-1,2.4-0.8c0.2,0,0.4,0.3,0.6,0.3C146.9,300.1,145.9,302.4,146.1,303.7z M143.2,302.3c-0.8,0-1.5,0.7-1.4,1.5v0.1
	c0,0.7,0.6,1.3,1.4,1.3h0.1c0.8,0,1.4-0.6,1.4-1.4c0,0,0,0,0-0.1C144.6,303,144,302.4,143.2,302.3L143.2,302.3L143.2,302.3z"/>
<path class="st0" d="M249.1,304.2c0.7,1.3,1.4,1.1,2.1,0.6c0.5-0.4,1.2-0.5,1.5,0s-0.2,1.1-0.7,1.4c-1,0.7-2.3,0.7-3.3,0
	c-1.3-0.8-1.7-2.5-1-3.8c0.4-1.2,1.6-1.9,2.8-1.7c1.3,0.1,2.4,1.2,2.6,2.5c0.1,0.7,0,1.2-0.9,1.1
	C251.2,304.1,250.2,304.2,249.1,304.2z"/>
<path class="st0" d="M206.2,304.2c0.9,1.1,1.6,1.2,2.4,0.5c0.4-0.4,1.2-0.4,1.5,0c0.3,0.5-0.3,1-0.8,1.3c-1.1,0.8-2.6,0.8-3.6-0.1
	s-1.3-2.3-0.8-3.5c0.3-1.2,1.5-1.9,2.7-1.8c1.6,0.1,2.4,1.2,2.7,2.7c0.2,0.8-0.2,0.9-0.8,0.9H206.2z"/>
<path class="st0" d="M189.6,304.2c0.8,0.9,1.4,1.4,2.2,0.7c0.6-0.5,1.4-0.5,1.7-0.1c0.3,0.6-0.3,1.2-0.9,1.5
	c-1.1,0.7-2.5,0.6-3.4-0.3c-1-0.9-1.3-2.5-0.6-3.7c0.4-1.2,1.6-1.8,2.8-1.6c1.5,0.2,2.2,1.3,2.5,2.7c0.2,0.8-0.3,0.8-0.9,0.8H189.6z
	"/>
<path class="st0" d="M159.4,303.5c0,1.8-1.2,3.1-2.8,3.2c-1.7,0-3.1-1.3-3.2-3.1c0-1.7,1.3-3.1,3.1-3.2l0,0
	C158.1,300.5,159.4,301.9,159.4,303.5z M157.8,303.5c-0.2-0.6-0.6-1.3-1.2-1.3c-0.7-0.1-1.2,0.4-1.3,1.1c0,0.1,0,0.2,0,0.3
	c0.1,0.7,0.4,1.2,1.3,1.2C157.4,304.8,157.6,304.3,157.8,303.5z"/>
<path class="st0" d="M223.1,303.4c-0.1-1.6,1.1-2.9,2.7-3c0.1,0,0.2,0,0.2,0c1.6,0.1,2.9,1.5,2.9,3.1c-0.1,1.6-1.3,2.9-2.9,3
	C224.1,306.6,223.1,305.4,223.1,303.4z M227.2,303.6c-0.3-0.7-0.5-1.4-1.4-1.4c-0.8,0-1.4,0.6-1.4,1.4s0.6,1.4,1.4,1.4
	C226.7,304.9,226.9,304.2,227.2,303.6L227.2,303.6z"/>
<path class="st0" d="M295,306.6c-1.5,0.1-2.8-1.1-2.9-2.6c0-0.1,0-0.2,0-0.3c0-1.7,1.4-3.2,2.9-3.2c1.6,0.1,2.9,1.5,2.9,3.1
	c0.1,1.5-1,2.9-2.5,3C295.2,306.6,295.1,306.6,295,306.6z M295,302c-0.5,0.3-1.2,0.5-1.2,1.4s0.3,1.4,1.2,1.4
	c0.5,0.1,1.1-0.3,1.2-0.8c0-0.1,0-0.2,0-0.3C296.2,303,295.7,302.3,295,302L295,302z"/>
<path class="st0" d="M194.6,303.8c0-0.1,0-0.2,0-0.3c0.1-0.9-0.5-2.2,0.4-2.5c1.2-0.4,2.4-0.4,3.6-0.1c0.8,0.3,1.4,1.1,1.4,2
	c0,1,0,1.9,0,2.9c0,0.7-0.3,0.8-0.9,0.8c-0.6,0-0.8-0.2-0.8-0.8c0-0.7,0-1.5,0-2.2c0.1-0.6-0.3-1.3-1-1.4c-0.7,0-1,0.7-1,1.3
	c0,0.7,0,1.4,0,2s0,1.1-0.9,1.1c-0.8,0-0.8-0.5-0.8-1.1S194.6,304.4,194.6,303.8z"/>
<path class="st0" d="M160.3,303.7c0-0.5,0-1,0-1.5c0-1,0.2-1.8,1.4-1.2c0.1,0,0.2,0.1,0.3,0.1c1.1-0.4,2.1-0.6,3,0.5
	c1,1.4,0.6,2.9,0.7,4.4c0,0.6-0.3,0.6-0.8,0.6s-0.9,0.1-0.9-0.6c0-0.8,0-1.7,0-2.5c0-0.6-0.4-1.2-1-1.2s-1.1,0.6-1.1,1.2
	c0,0,0,0,0,0.1c0,0.7,0,1.5,0,2.2s-0.2,0.9-0.9,0.9s-0.9-0.2-0.9-0.9C160.3,305.1,160.3,304.4,160.3,303.7z"/>
<path class="st0" d="M285.1,302.1c1.1,1.2,3.5,1.4,2.5,3.6c-0.4,0.8-1.4,0.9-2.2,0.9c-1.1,0-1.9-0.9-2-2c0.6-0.2,1.3-0.3,1.8,0.3
	c0.3,0.3,0.6,0.3,0.8,0c0.3-0.5-0.1-0.6-0.5-0.7c-0.3-0.1-0.5-0.2-0.7-0.3c-0.7-0.3-1.3-0.6-1.3-1.6c0-0.8,0.5-1.4,1.2-1.7
	c0.8-0.4,1.7-0.3,2.4,0.3c0.4,0.4,0.8,0.8,0.5,1.3s-1,0.3-1.5,0.1C285.9,302.3,285.9,301.8,285.1,302.1z"/>
<path class="st0" d="M306.7,304.3c-0.1-0.6,0.4-1.6-0.7-2c-0.1-0.1-0.1-0.8,0-0.9c0.9-0.5,0.6-1.3,0.7-2s0.4-1,1.1-0.9
	c0.8,0.1,0.6,0.6,0.6,1.1c0,0.6-0.3,1.5,0.8,1.8c0.4,0.1,0.3,0.9,0.1,1c-1.6,0.7-0.6,2-0.9,3c-0.2,0.5,0.6,1.5-0.7,1.5
	c-1.2,0-1-0.9-1-1.7C306.8,304.9,306.7,304.7,306.7,304.3z"/>
<path class="st0" d="M150.4,301.8c-1.5,1.2-0.7,2.8-0.9,4.2c0,0.4-0.3,0.8-0.7,0.8h-0.1c-0.4,0.1-0.7-0.1-0.8-0.5c0-0.1,0-0.2,0-0.3
	c0-0.7,0-1.5,0-2.2c0-0.6,0.3-1.2-0.7-1.5c-0.3-0.1,0.8-3.9,1.1-3.9s0.9-0.1,1.1,0.3C149.6,299.8,149.3,301,150.4,301.8z"/>
<path class="st0" d="M201.4,304.3c-0.1-0.6,0.4-1.6-0.6-2.1c-0.1-0.1-0.1-0.9,0-0.9c0.9-0.4,0.6-1.2,0.6-1.9c0-0.6,0.3-1,1-1
	c0.8,0,0.7,0.5,0.7,1c0,0.7-0.3,1.6,0.8,1.9c0.3,0.1,0.3,0.6,0.1,0.7c-1.5,0.8-0.7,2.2-0.9,3.4c-0.1,0.5,0.3,1.4-0.7,1.4
	c-1,0.1-1-0.6-1-1.4C201.4,305.1,201.4,304.8,201.4,304.3z"/>
<path class="st0" d="M222.1,298.4c-0.1,0.7,0.4,1.3-0.3,1.8c-0.4,0.3-0.4,0.5,0,0.7s0.5,0.7,0.3,1c0,0,0,0.1-0.1,0.1
	c-1.4,0.5-0.6,1.7-0.8,2.6c-0.1,0.4-0.1,0.9,0,1.4c0.1,0.6-0.1,1-0.7,1s-0.8-0.4-0.8-1c0-0.8,0-1.7,0-2.5c0-0.3,0.1-0.6,0-0.8
	c-0.3-0.5-1-0.7-0.7-1.5C219.7,299.8,220.7,298.8,222.1,298.4z"/>
<path class="st0" d="M301.7,298.4c0.5,0.3,0.6,1,0.2,1.4c0,0,0,0,0,0.1c-0.2,0.4-1.2,0.6,0,1c0.1,0.2,0.2,0.5,0.1,0.8
	c-1.1,1.1-0.5,2.6-0.7,3.9c-0.1,0.7,0,1.2-0.9,1.2s-0.7-0.6-0.8-1.1c-0.2-1.3,0.4-2.6-0.6-3.9C298.4,301,300.5,298.4,301.7,298.4z"
	/>
<path class="st0" d="M282.8,301.7c-1.4,1.4-0.8,3-0.9,4.5c-0.1,0.4-0.4,0.7-0.9,0.6c-0.4,0.1-0.8-0.2-0.8-0.6c0-0.1,0-0.1,0-0.2
	c0-0.8,0-1.6,0-2.4c0-0.4,0.3-1-0.5-1.2c-0.4-0.1-0.5-0.8-0.2-1c1-0.5,0.6-1.4,0.7-2.2c0-0.4-0.1-0.8,0.5-0.8c0.4,0,0.9-0.1,1.1,0.3
	C282.1,299.7,281.5,301,282.8,301.7z"/>
<path class="st0" d="M238.1,304.6c-0.1-0.8,0.5-2-0.9-2.4c0.4-1.3,0.8-2.5,1.3-3.7c0.3-0.2,0.8-0.1,1,0.2c0.1,0.2,0.2,0.4,0.1,0.6
	c-0.1,0.8-0.3,1.6,0.8,2c0.1,0.1,0.2,0.8,0.1,0.9c-1.7,0.9-0.6,2.5-0.9,3.7c-0.1,0.5,0.1,1-0.7,1s-0.8-0.4-0.8-1
	C238.1,305.5,238.1,305.1,238.1,304.6z"/>
<path class="st0" d="M343.7,302.4c0-1,0-2,0-3c0-0.5,0-1,0.8-1c0.7,0,0.9,0.4,0.9,1c0,2.1,0,4.3,0,6.4c0,0.5-0.1,1.1-0.8,1
	c-0.4,0-0.8-0.3-0.9-0.7c0-0.1,0-0.2,0-0.2C343.7,304.7,343.7,303.5,343.7,302.4z"/>
<path class="st0" d="M175.3,302.6v3c0,0.6-0.1,1.1-0.9,1.1c-0.7,0-0.8-0.4-0.8-1c0-2.1,0-4.3,0-6.4c0-0.5,0-0.9,0.7-0.9
	c0.5-0.1,0.9,0.2,1,0.7c0,0.1,0,0.2,0,0.3V302.6z"/>
<path class="st0" d="M211.3,303.7c0-0.6,0-1.1,0-1.7c-0.1-1.1,0.6-1.6,1.4-1.1c0.7,0.4,1.6-0.9,1.9,0.3c0.3,1-0.8,1-1.2,1.5
	c-0.7,0.9-0.3,1.9-0.5,2.9c-0.1,0.4,0.3,1.1-0.6,1c-0.7,0-1.1-0.3-1.1-1.1C211.3,304.9,211.3,304.3,211.3,303.7L211.3,303.7z"/>
<path class="st0" d="M230.9,300.8c0,0,0.2,0,0.2,0.1c0.5,0.8,1.4-0.8,1.8,0.3c0.5,1.2-0.8,1-1.2,1.5c-0.4,0.8-0.6,1.7-0.4,2.6
	c0,0.5,0.4,1.4-0.7,1.4c-1,0-0.8-0.7-0.8-1.3c0-1.2,0.1-2.4-0.1-3.5C229.7,300.9,230.1,300.7,230.9,300.8z"/>
<path class="st0" d="M265.4,303.7c0,0.7,0,1.4,0,2.2c0,0.5-0.1,0.9-0.7,0.9s-0.8-0.3-0.8-0.9c0-1.5,0-2.9,0-4.4
	c0-0.5,0.1-0.7,0.6-0.7s0.9,0.1,0.9,0.7C265.4,302.2,265.4,303,265.4,303.7L265.4,303.7z"/>
<path class="st0" d="M342.7,303.8c0,0.7,0,1.4,0,2s-0.1,1-0.8,1c-0.6,0-0.9-0.3-0.9-0.9c0-1.4,0-2.8,0-4.2c0-0.6,0.3-0.9,1-0.9
	c0.8-0.1,0.7,0.5,0.7,1L342.7,303.8L342.7,303.8z"/>
<path class="st0" d="M152.5,303.7c0,0.7,0,1.5,0,2.2s-0.3,0.9-0.9,0.9c-0.6,0-0.5-0.5-0.5-0.9c0-1.4-0.1-2.7,0-4
	c0-0.5-0.3-1.2,0.7-1.2c1.1,0,0.7,0.8,0.7,1.3C152.5,302.6,152.5,303.2,152.5,303.7z"/>
<path class="st0" d="M265.6,299c0,0.8-0.4,1.2-0.9,1.2c-0.5,0.1-1-0.3-1.1-0.8v-0.1c0-0.5,0.3-0.9,0.8-1c0,0,0,0,0.1,0
	C265,298.2,265.5,298.5,265.6,299L265.6,299z"/>
<path class="st0" d="M151.8,298.2c0.5,0.2,1.1,0.4,1,1.1c0,0.5-0.4,0.9-0.9,0.9h-0.1c-0.7,0-1.1-0.3-1-1
	C150.9,298.4,151.3,298.3,151.8,298.2z"/>
<path class="st0" d="M341.9,298.2c0.6,0,1,0.5,1,1.1v0.1c0,0.5-0.4,0.9-0.9,0.9h-0.1c-0.7,0-0.9-0.5-0.9-1.1
	C340.9,298.4,341.4,298.3,341.9,298.2z"/>
<path class="st0" d="M268,305.9c0.2,0,0.3,0.1,0.3,0.3l0,0h-0.4L268,305.9z"/>
</svg>
