<?xml version="1.0" encoding="utf-8"?>
<!-- Generator: Adobe Illustrator 25.2.3, SVG Export Plug-In . SVG Version: 6.00 Build 0)  -->
<svg version="1.1" id="Layer_1" xmlns="http://www.w3.org/2000/svg" xmlns:xlink="http://www.w3.org/1999/xlink" x="0px" y="0px"
	 viewBox="0 0 760 760" style="enable-background:new 0 0 760 760;" xml:space="preserve">
<style type="text/css">
	.st0{fill:#BCBCBC;}
	.st1{fill:#FCCD03;}
	.st2{fill:#FFFFFF;}
	.st3{enable-background:new    ;}
	.st4{fill:#FCCC00;}
	.st5{fill:none;stroke:#BCBCBC;stroke-width:3;stroke-miterlimit:10;}
	.st6{fill:none;stroke:#BCBCBC;stroke-width:3;stroke-miterlimit:10;stroke-dasharray:12.4623,12.4623;}
	.st7{fill:none;stroke:#BCBCBC;stroke-width:3;stroke-miterlimit:10;stroke-dasharray:9.2448,9.2448;}
	.st8{fill:none;stroke:#BCBCBC;stroke-width:3;stroke-miterlimit:10;stroke-dasharray:13.6048,13.6048;}
</style>
<path class="st0" d="M842.6,518.7v-0.2l-0.2-1c-0.5,0-0.5,0-0.5,1l-0.7-0.5v0.5c0,0-0.2,0-0.2-0.2c-0.5-1-0.5-2-0.5-2.9
	c0-1,0.2-2,0.2-2.9c0-1.2,1-3.7,2.4-4.1c0.7-0.2,1.2-0.5,2-0.7c1.5-0.2,2.9,0,3.9,1c0.5,0.5,1.2,1,1.7,1.2v0.2l-0.5-0.2v0.2
	c1,1.5,1.2,3.4,0.5,5.1c-0.7,1.2-1.2,2.4-1.5,3.7c-0.2,0.5-0.5,1-0.7,1.5c0.5,0.7,1.2,1.2,2,1.7c0.5,0.2,1,0.5,1.2,0.7
	s0.5,0.7,0.5,1c0,0.2,0.2,0.5,0.2,0.7l0.7-0.5c0.2,1,0.7,2.2,1.2,3.2s1.2,2,1.7,2.7c-1.7,0.7-1.7,0.7-1.2,2.4c0.5,1.2,0,2.4-1,3.2
	c-0.7,0.5-1.2,1-1,2c0,0.7,0.2,1.2,0.2,2c0,0.7,0.2,1.2,0.2,2c0.2,1.5,0.5,2.7,0.7,4.1c0.2,1-0.2,2-1,2.2c-0.2,0-0.2,0-0.5,0
	c-0.5,0-0.7,0.2-0.7,0.7c0,0,0,0,0,0.2c0,2.2-0.2,4.4-0.7,6.3c-0.2,1.5-0.5,2.7-0.7,4.1c0,0.2,0,0.2,0.2,0.5c0.5,0.5,0.5,1,0.2,1.5
	c-0.5,1-0.5,2,0,2.7c0.5,1.2-0.2,2.2-1,3.2l-1,1c0,0.2,0,0.2,0,0.2c1.5,1,1.5,1.2,0.7,2.7c-0.5,1-0.7,2.2-0.2,3.2
	c0.2,0.5,0,1-0.5,1.2c-0.2,0-0.2,0-0.5,0c-1,0-1.7,0-2.7,0s-1.5-0.7-1-1.7s0.7-2.2,0.2-3.2c-0.7,0-0.7,0.5-0.7,1
	c0.2,0.5,0,1.2-0.5,1.7c-0.2,0,0,0.5,0,0.7c0,0.7-0.2,1.2-1,1.2c-1,0-2,0-2.7,0s-1-0.5-0.7-1.7l-0.5-0.5l0.5-0.5
	c0.5-0.5,1.2-0.7,1.5-1.7c0,0,0-0.2,0.2-0.2c0.5-0.5,0.5-0.7-0.2-1c-0.5,0-0.7-0.2-0.7-0.7c0.2-0.7,0.5-1.2,0.7-2.2
	c-1.2-1-1-2.4-0.7-3.9c0-0.5,0-0.7-0.2-1c-0.2-0.5-0.2-1,0-1.2c0.5-0.7,0.5-1.7,0-2.2c-0.2-0.2-0.2-0.5-0.2-0.7
	c-0.2-1.7-0.5-3.7-0.7-5.4c-0.2-1.2-0.2-2.4,0-3.4c0-1.5-0.2-2.7-1-3.9c0-0.2,0-0.5,0-0.5c0-2.7,0.2-5.4,0.2-8.1
	c0-0.2-0.2-0.7-0.5-0.7c-0.5-0.2-1-0.7-1-1.5s0-1.2,0-2c0-1-0.5-2-1.5-2.2c-0.5-0.2-0.7-0.7-0.7-1.2v-0.2c0.2-0.5,0.2-1,0.5-1.5
	c0.7-1.5,1.2-3.2,2.2-4.6c0.2-0.5,0.7-0.5,1.2-0.7c0.2-0.2,0.7-0.5,1.2-0.5c1-0.2,1.2-1,1.7-2C841.6,519.2,841.6,518.5,842.6,518.7z
	 M845.3,560.5c0.5-1,0.5-2,0-2.2C845.3,559,844.3,559.7,845.3,560.5L845.3,560.5z M845.8,563.9L845.8,563.9l-0.2,1.7h0.2V563.9z"/>
<path class="st1" d="M839,749.3h1.2c-1.7-1.2-2-2.7-2.2-4.4c-0.2-2.2,0-4.1-0.2-6.3c-0.2-1.2,0-2.4,0.5-3.7v-0.2
	c-0.7-0.7-0.5-1.5-0.5-2.4s-0.2-1.7-0.2-2.7c0-0.5,0.2-1,0.5-1.7c0-0.5,0.2-0.7,0-1.2c-0.2-1-0.5-1.7-0.5-2.7c0-0.5,0-1,0-1.5
	c0-0.7,0.2-1.2,0.5-2c0.5-1,0.2-2-0.5-2.7c-0.2-0.2-0.5-0.2-0.5-0.2c-2.2-0.2-2.2-0.2-2.4-2.4c0-0.5,0-0.7,0-1.2c0-1.2,0-2.2,0-3.4
	c0-0.5-0.5-0.7-1-0.7c-0.7,0-1-0.2-1-1c0-0.5,0-1.2,0-2c0-0.2,0.2-0.7,0.5-0.7l0,0c1,0,1.5-1,2-1.7s0.5-1.7,1.5-2l0,0
	c0.2-0.7,0.5-1.2,0.7-2c0.2-0.2,0.5-0.2,0.5-0.5c0.5-0.7,1.2-1.2,1.5-2.4c0-0.7,0.7-1,1.5-1c-0.2-0.5-0.5-1.2-0.7-1.7l-0.2-0.2
	c-1-0.2-1-0.5-1.2-1.5c0-0.2,0-0.5,0-0.7l0.2-0.2c-1-1.5-1.2-3.2-0.7-4.6c0.5-1.2,1.5-2.2,2.7-2.7c0.2,0,0.5-0.2,0.7-0.2
	c0.5-0.5,1.2-0.5,2-0.2c0.5,0.2,1,0.7,1.7,0.5c0.2,0,0.7,0.2,1,0.5c1,0.7,1.5,1.7,1.7,2.9c0.2,1,0.2,2.2,0,3.2
	c-0.5,1.2-0.7,2.4-1.2,3.7c-0.2,0.5-0.5,1-1,1.5c0,0.2,0,0.5,0,0.5c0.7,0.7,1.2,1.5,2,2.2c0.2,0.2,0.7,0.2,1,0.2
	c1.2,0,1.5,0.5,1.2,1.5s-0.2,2.2,0,3.2c0.2,1.7,0.2,3.2,0.5,4.9c0.2,1.2,0,2.4,0.5,3.7c0.5,0.7,0.2,1.7-0.2,2.2
	c-0.2,0.5-0.2,1.2,0.2,1.7c0.5,0.7,0.7,1.5,0.2,2.2c-0.2,0.5-0.5,1-0.5,1.5c-0.2,1-0.2,1.7-0.2,2.7c0,0.2,0,0.7-0.2,1
	c-0.2,1-0.5,2.2-0.2,3.4c0,1.2,0,2.2,0,3.4c0,1,0.2,1.7,0.2,2.7c0.2,1,0,2.2-0.5,2.9c-0.2,0.5-0.2,0.7-0.2,1.2
	c0.2,0.7,0.2,1.7,0.5,2.4c0,1.2-0.2,2.2-0.5,3.4c0,0.5-0.2,0.7,0.2,1c0.2,0.2,0.5,0.7,0.5,1.2c0,1-0.2,1,0.7,1.5l0.2,0.2
	c-0.2,0.5,0.5,1.5,1,1.5s1.2,0,1.7-0.2c0.2,0,0.2,0,0.5,0c1.2,0,2,0.7,1.2,2c-0.2,0.5-0.5,1-0.7,1.5l0.2,0.5c-1,0-2,0-2.9,0
	c-1,0-1.7-0.2-2.4-0.7c-0.2,0-0.2,0-0.5,0c-2.2,0.7-4.4,1-6.6,0.2c-0.7-0.2-1.2-0.5-2-1c-0.2,0-0.5-0.2-1-0.2
	c0.2-0.2,0.5-0.2,0.7-0.2c0.7-0.2,0.7-0.7,0.2-1.2c-0.2-0.2-0.5-0.5-1-0.5C839.8,750.1,839.5,749.8,839,749.3z M845.1,745.7
	c0-0.5,0-1,0-1.5c0-2.2,0-4.1,0.2-6.3c0.2-0.7,0-1.5-0.2-2.2c-0.2-0.5-0.2-1.2,0-1.7c0.2-0.7,0-1.5-0.7-1.7c-0.2,1-0.2,2-0.2,2.7
	c0,0.5,0,1-0.2,1.5c-0.5,0.7-0.5,1.7-0.2,2.4c0.2,2,0.5,3.9,0.7,5.9C844.2,745.7,844.2,745.9,845.1,745.7L845.1,745.7z"/>
<rect y="57.6" class="st0" width="197" height="665.9"/>
<path class="st1" d="M434,57.6v628.3h-6V349c-2.7,5.4-6.3,10.3-10.5,14.5c-10.2,10.2-24.2,16.5-39.8,16.5H266.3
	c-3.6,0-6.9,1.5-9.3,3.8c-2.4,2.4-3.8,5.7-3.8,9.3v330.4H197V378.2l0,0c0.9-30.3,25.8-54.5,56.2-54.5h111.4c3.6,0,6.9-1.5,9.3-3.8
	c2.4-2.4,3.8-5.7,3.8-9.3v-253L434,57.6L434,57.6z"/>
<path class="st2" d="M709.4,58.3v383.4c0,7.8-6.3,14.1-14.1,14.1l-400.8-0.7c-2.2,0-4.2,0.9-5.7,2.4s-2.4,3.5-2.4,5.7v260.4h-33.2
	V441c0-10.6,8.6-19.1,19.1-19.1l400.9,0.7c2.2,0,4.2-0.9,5.7-2.4s2.4-3.5,2.4-5.7V58.3H709.4z"/>
<g>
	<text transform="matrix(1 0 0 1 -656.9156 37.2208)" class="st0" style="font-family:'NanumSquareR'; font-size:17px;">벌금수납액 287억3천6백원</text>
	<text transform="matrix(1 0 0 1 -431.2103 37.2208)" class="st1" style="font-family:'NanumSquareR'; font-size:17px;">복권기금 86억5천5백만원</text>
	<text transform="matrix(1 0 0 1 -211.4916 37.2208)" class="st2" style="font-family:'NanumSquareR'; font-size:17px;">보건복지부 42억원</text>
	<text transform="matrix(1 0 0 1 -385.6985 756.8105)" class="st4" style="font-family:'NanumSquareR'; font-size:17px;">쉼터 주택 예산 3억원</text>
	<text transform="matrix(1 0 0 1 -201.1999 756.8105)" class="st0" style="font-family:'NanumSquareR'; font-size:17px;">서울 주택 평균 6억원</text>
	<text transform="matrix(1 0 0 1 -607.2345 756.8104)" class="st0" style="font-family:'NanumSquareR'; font-size:17px;">아동학대 예산 413억원</text>
</g>
<g class="st3">
	<path class="st0" d="M9.5,27.3h3.7V24h1.2v7.9h-1.2v-3.5H9.5v2.9H2.4v-6.7h1.2V27h4.8v-2.4h1.2v2.7H9.5z M3.6,30.1h4.8v-2.3H3.6
		V30.1z M14.3,32.8v3.9H6v1.9h8.7v1H4.8v-3.9h8.3v-1.9H4.7v-1H14.3z"/>
	<path class="st0" d="M29,24.7v2.2c0,1.2-0.1,2.4-0.4,3.6h2.6v1H16.9v-1h10.5c0.2-0.7,0.3-1.3,0.3-1.9c0.1-0.6,0.1-1.2,0.1-1.8v-1.1
		h-9v-1.1L29,24.7L29,24.7z M19,33.7h10.1v5.8H19V33.7z M20.2,38.4H28v-3.6h-7.8V38.4z"/>
	<path class="st0" d="M46.7,32.9v1h-6.5v5.6H39V34h-6.5v-1L46.7,32.9L46.7,32.9z M41.5,29.6c-1.1-0.6-1.8-1-2-1.4l0,0
		c-0.2,0.4-0.9,0.9-2,1.4c-0.5,0.2-1,0.5-1.6,0.8s-1.3,0.6-2,0.8l-0.5-1c0.6-0.2,1.3-0.5,1.9-0.8s1.3-0.6,1.8-0.9
		c0.3-0.2,0.6-0.3,0.8-0.5s0.4-0.3,0.6-0.6c0.1-0.2,0.2-0.4,0.3-0.7c0.1-0.3,0.1-0.6,0.1-1v-1.4h1.2v1.4c0,0.4,0,0.7,0.1,1
		s0.2,0.5,0.3,0.7s0.3,0.4,0.5,0.6s0.5,0.3,0.8,0.5c0.5,0.3,1.1,0.6,1.8,0.9s1.3,0.6,1.9,0.8L45,31.1c-0.7-0.3-1.3-0.5-2-0.8
		C42.5,30.1,42,29.8,41.5,29.6z"/>
	<path class="st0" d="M50,24.8v5.1c0.8,0,1.6,0,2.2,0c0.6,0,1.2,0,1.8-0.1s1.1-0.1,1.6-0.1s1.1-0.1,1.8-0.2l0.1,1.1
		c-0.7,0.1-1.3,0.2-1.8,0.2s-1.1,0.1-1.8,0.1c-0.6,0-1.3,0-2.1,0.1c-0.8,0-1.8,0-2.9,0v-6.2H50z M60.1,32.8v6.7h-9.3v-6.7H52V35h7
		v-2.2H60.1z M58.9,38.4V36h-7v2.4H58.9z M60.1,27.4h2.4v1.1h-2.4v3.4h-1.2V24h1.2V27.4z"/>
	<path class="st0" d="M66.9,32c-0.5,0-1-0.1-1.4-0.3s-0.8-0.4-1.1-0.7c-0.3-0.3-0.5-0.6-0.7-1s-0.2-0.8-0.2-1.2v-0.9
		c0-0.4,0.1-0.8,0.2-1.2c0.2-0.4,0.4-0.7,0.7-1s0.7-0.5,1.1-0.7s0.9-0.3,1.4-0.3s1,0.1,1.4,0.3c0.4,0.2,0.8,0.4,1.1,0.7
		c0.3,0.3,0.5,0.6,0.7,1s0.2,0.8,0.2,1.2v0.9c0,0.4-0.1,0.8-0.2,1.2c-0.2,0.4-0.4,0.7-0.7,1c-0.3,0.3-0.7,0.5-1.1,0.7
		C67.9,31.9,67.4,32,66.9,32z M66.9,25.7c-0.3,0-0.6,0.1-0.9,0.2s-0.5,0.3-0.7,0.5s-0.3,0.4-0.5,0.7c-0.1,0.3-0.2,0.6-0.2,0.9v0.6
		c0,0.3,0.1,0.6,0.2,0.9s0.3,0.5,0.5,0.7s0.4,0.4,0.7,0.5s0.6,0.2,0.9,0.2s0.6-0.1,0.9-0.2s0.5-0.3,0.7-0.5s0.3-0.4,0.5-0.7
		c0.1-0.3,0.2-0.6,0.2-0.9V28c0-0.3-0.1-0.6-0.2-0.9s-0.3-0.5-0.5-0.7s-0.4-0.4-0.7-0.5S67.2,25.7,66.9,25.7z M66.4,34h10.1v5.7
		h-1.2V35h-8.9V34z M73,27.8h2.2V24h1.2v9h-1.2v-4.2H73V33h-1.2v-8.8H73V27.8z"/>
	<path class="st0" d="M88.3,31.3c0.3-0.4,0.6-0.7,0.8-1c0.2-0.3,0.4-0.5,0.5-0.8c0.1-0.2,0.2-0.4,0.2-0.6s0.1-0.3,0.1-0.5v-0.1
		c0-0.6-0.2-1.1-0.6-1.5s-1-0.5-1.7-0.5c-0.5,0-1.1,0.1-1.5,0.4c-0.5,0.3-0.9,0.7-1.3,1.5l-1-0.6c0.1-0.3,0.3-0.5,0.5-0.8
		s0.5-0.5,0.8-0.8c0.3-0.2,0.7-0.4,1.1-0.6c0.4-0.1,0.9-0.2,1.4-0.2s1,0.1,1.5,0.2c0.4,0.1,0.8,0.4,1.1,0.6c0.3,0.3,0.5,0.6,0.7,1
		s0.3,0.8,0.3,1.2v0.2c0,0.3-0.1,0.6-0.2,1s-0.3,0.6-0.5,0.9s-0.4,0.6-0.7,0.9c-0.2,0.3-0.5,0.6-0.8,0.9l-3.8,4.5h6.3v1.1h-7.8v-1
		L88.3,31.3z"/>
	<path class="st0" d="M93.8,34.3c0-0.7,0.2-1.3,0.6-1.8s1-0.9,1.6-1.1c-0.6-0.3-1-0.7-1.4-1.1c-0.3-0.5-0.5-1.1-0.5-1.7v-0.3
		c0-0.4,0.1-0.8,0.3-1.2c0.2-0.4,0.4-0.7,0.7-1c0.3-0.3,0.7-0.5,1.1-0.6c0.4-0.2,0.9-0.2,1.4-0.2s1,0.1,1.4,0.2
		c0.4,0.2,0.8,0.4,1.1,0.6c0.3,0.3,0.6,0.6,0.7,1c0.2,0.4,0.3,0.8,0.3,1.2v0.3c0,0.6-0.2,1.2-0.5,1.7s-0.8,0.9-1.4,1.1
		c0.3,0.1,0.6,0.2,0.9,0.4c0.3,0.2,0.5,0.4,0.7,0.7s0.4,0.5,0.5,0.8s0.2,0.6,0.2,1v0.3c0,0.5-0.1,0.9-0.3,1.3s-0.5,0.8-0.8,1
		s-0.8,0.5-1.2,0.7c-0.5,0.2-1,0.2-1.6,0.2s-1.1-0.1-1.6-0.2c-0.5-0.2-0.9-0.4-1.2-0.7s-0.6-0.6-0.8-1s-0.3-0.9-0.3-1.3v-0.3H93.8z
		 M95,34.5c0,0.3,0.1,0.6,0.2,0.9c0.1,0.3,0.3,0.5,0.5,0.7s0.5,0.4,0.9,0.5c0.3,0.1,0.7,0.2,1.1,0.2s0.8-0.1,1.2-0.2
		c0.3-0.1,0.6-0.3,0.9-0.5c0.2-0.2,0.4-0.4,0.5-0.7s0.2-0.6,0.2-0.9v-0.2c0-0.4-0.1-0.7-0.2-1s-0.3-0.5-0.6-0.8
		c-0.2-0.2-0.5-0.4-0.9-0.5c-0.3-0.1-0.7-0.2-1.1-0.2s-0.8,0.1-1.1,0.2c-0.3,0.1-0.6,0.3-0.9,0.5c-0.2,0.2-0.4,0.5-0.6,0.8
		c-0.1,0.3-0.2,0.6-0.2,1L95,34.5L95,34.5z M95.4,28.5c0,0.3,0.1,0.6,0.2,0.9s0.3,0.5,0.5,0.8c0.2,0.2,0.5,0.4,0.8,0.5
		s0.6,0.2,1,0.2s0.7-0.1,1-0.2s0.5-0.3,0.8-0.5c0.2-0.2,0.4-0.5,0.5-0.8s0.2-0.6,0.2-0.9v-0.2c0-0.6-0.2-1.1-0.7-1.5
		c-0.4-0.4-1-0.6-1.7-0.6s-1.3,0.2-1.8,0.6c-0.4,0.4-0.6,0.9-0.6,1.5v0.2H95.4z"/>
	<path class="st0" d="M107.1,37.7h-1.3l5-11.2h-6.9v-1.1h8.2v0.9L107.1,37.7z"/>
	<path class="st0" d="M118,32.1c-0.6,0-1.1-0.1-1.6-0.3c-0.5-0.2-0.9-0.5-1.2-0.8c-0.3-0.3-0.6-0.7-0.7-1.1
		c-0.2-0.4-0.3-0.8-0.3-1.2v-1c0-0.4,0.1-0.8,0.3-1.2c0.2-0.4,0.4-0.7,0.7-1.1c0.3-0.3,0.7-0.6,1.2-0.8c0.5-0.2,1-0.3,1.6-0.3
		s1.1,0.1,1.6,0.3s0.9,0.4,1.2,0.8c0.3,0.3,0.6,0.7,0.7,1.1c0.2,0.4,0.3,0.8,0.3,1.2h3.5V24h1.2v9h-1.2v-4.1h-3.5
		c0,0.4-0.1,0.8-0.3,1.2c-0.2,0.4-0.4,0.7-0.7,1c-0.3,0.3-0.7,0.6-1.2,0.7C119.1,32,118.6,32.1,118,32.1z M118,25.7
		c-0.4,0-0.7,0.1-1.1,0.2c-0.3,0.1-0.6,0.3-0.8,0.5c-0.2,0.2-0.4,0.4-0.5,0.7c-0.1,0.3-0.2,0.6-0.2,0.9v0.8c0,0.3,0.1,0.6,0.2,0.9
		s0.3,0.5,0.5,0.7s0.5,0.4,0.8,0.5s0.7,0.2,1.1,0.2s0.7-0.1,1.1-0.2c0.3-0.1,0.6-0.3,0.8-0.5c0.2-0.2,0.4-0.4,0.5-0.7
		c0.1-0.3,0.2-0.6,0.2-0.9V28c0-0.3-0.1-0.6-0.2-0.9s-0.3-0.5-0.5-0.7s-0.5-0.4-0.8-0.5C118.7,25.7,118.4,25.7,118,25.7z
		 M116.6,33.9h9.9v5.8h-1.2V35h-8.8L116.6,33.9L116.6,33.9z"/>
	<path class="st0" d="M129.9,27.1c0.1-0.2,0.3-0.5,0.5-0.7s0.5-0.4,0.8-0.6s0.6-0.3,1-0.4s0.8-0.2,1.2-0.2c0.6,0,1.1,0.1,1.5,0.2
		s0.8,0.4,1.1,0.6c0.3,0.3,0.6,0.6,0.7,1s0.3,0.8,0.3,1.2v0.2c0,0.2,0,0.5-0.1,0.8s-0.2,0.5-0.3,0.8c-0.2,0.2-0.4,0.5-0.6,0.7
		c-0.3,0.2-0.6,0.4-1,0.5c0.9,0.1,1.5,0.5,1.9,1s0.7,1.1,0.7,1.9v0.3c0,0.4-0.1,0.9-0.2,1.3c-0.1,0.4-0.4,0.8-0.7,1.1
		s-0.7,0.6-1.3,0.8c-0.5,0.2-1.2,0.3-1.9,0.3s-1.4-0.1-2.1-0.3c-0.7-0.2-1.3-0.6-1.9-1l0.6-1c0.6,0.4,1.2,0.7,1.7,0.9
		s1.1,0.3,1.6,0.3s1-0.1,1.4-0.2s0.7-0.3,0.9-0.6s0.4-0.5,0.5-0.8s0.2-0.6,0.2-0.9v-0.2c0-0.5-0.1-0.8-0.3-1.1s-0.4-0.5-0.7-0.7
		s-0.6-0.3-0.9-0.4c-0.3-0.1-0.6-0.1-0.9-0.1h-1.4v-1h1.4c0.4,0,0.7-0.1,1-0.2s0.5-0.3,0.7-0.6s0.3-0.5,0.4-0.8s0.1-0.5,0.1-0.8
		v-0.1c0-0.6-0.2-1.1-0.6-1.5c-0.4-0.4-1-0.5-1.8-0.5c-0.5,0-1,0.1-1.4,0.3s-0.9,0.6-1.2,1.1L129.9,27.1z"/>
	<path class="st0" d="M144.3,30.1c0,0.1-0.2,0.3-0.4,0.6s-0.5,0.5-0.9,0.9c-0.1,0.1-0.3,0.3-0.5,0.5c-0.2,0.2-0.4,0.3-0.7,0.5
		c-0.2,0.2-0.5,0.4-0.7,0.5c-0.2,0.2-0.4,0.3-0.6,0.5l-0.7-0.8c0.5-0.4,1-0.7,1.5-1.1s1-0.8,1.4-1.2c0.4-0.4,0.7-0.8,0.8-1.1
		c0.1-0.3,0.2-0.7,0.2-1.2V27h-3.6v-1h3.6v-2h1.2v2h3.4v1h-3.4v1c0,0.2,0,0.5,0,0.6c0,0.2,0.1,0.4,0.2,0.6c0.1,0.2,0.2,0.4,0.4,0.5
		c0.2,0.2,0.4,0.4,0.7,0.6s0.6,0.5,1.1,0.8c0.4,0.3,0.9,0.7,1.4,1l-0.7,0.8c-0.3-0.2-0.7-0.5-1.1-0.8c-0.4-0.3-0.7-0.5-0.9-0.7
		c-0.4-0.3-0.7-0.6-1-0.9C144.6,30.4,144.4,30.2,144.3,30.1L144.3,30.1z M143.9,38.3h8.7v1.1h-9.9v-4.9h1.2V38.3z M151,28.6V24h1.2
		v11.1H151v-5.5h-3.2v-1.1h3.2V28.6z"/>
	<path class="st0" d="M162.4,27c-0.4-0.2-0.8-0.4-1.2-0.5s-0.9-0.2-1.4-0.2c-0.6,0-1.1,0.1-1.5,0.3c-0.4,0.2-0.7,0.6-1,1
		s-0.5,1-0.6,1.6s-0.2,1.4-0.3,2.2c0.1-0.2,0.2-0.4,0.4-0.6s0.4-0.4,0.6-0.6c0.3-0.2,0.6-0.3,0.9-0.4c0.3-0.1,0.7-0.2,1.2-0.2
		s1,0.1,1.5,0.3s0.9,0.4,1.2,0.7s0.6,0.7,0.8,1.2s0.3,1,0.3,1.6v0.4c0,0.6-0.1,1.1-0.3,1.6s-0.5,0.9-0.8,1.2
		c-0.4,0.3-0.8,0.6-1.3,0.8s-1,0.3-1.6,0.3s-1.1-0.1-1.6-0.3s-0.9-0.5-1.3-0.9s-0.7-0.9-0.9-1.6s-0.3-1.4-0.3-2.2v-0.4
		c0-1.3,0.1-2.4,0.3-3.3s0.5-1.7,0.9-2.2c0.4-0.6,0.9-1,1.4-1.3c0.6-0.3,1.2-0.4,1.9-0.4c0.6,0,1.1,0.1,1.6,0.2s1,0.4,1.5,0.6
		L162.4,27z M156.6,33.7c0,0.5,0.1,0.9,0.2,1.3c0.1,0.4,0.3,0.7,0.6,1c0.2,0.3,0.5,0.5,0.9,0.6s0.7,0.2,1.1,0.2s0.8-0.1,1.2-0.2
		c0.4-0.1,0.7-0.3,0.9-0.6c0.3-0.2,0.5-0.5,0.6-0.9s0.2-0.8,0.2-1.2v-0.3c0-0.5-0.1-0.9-0.2-1.2c-0.2-0.4-0.4-0.7-0.6-0.9
		c-0.3-0.2-0.6-0.4-0.9-0.6s-0.7-0.2-1.1-0.2c-0.4,0-0.7,0.1-1.1,0.2c-0.3,0.1-0.6,0.3-0.9,0.6c-0.3,0.2-0.5,0.5-0.6,0.9
		c-0.2,0.3-0.2,0.7-0.2,1.1L156.6,33.7L156.6,33.7z"/>
	<path class="st0" d="M171.6,24.8V32h-6v-7.1h1.2v2.5h3.7v-2.5h1.1V24.8z M170.4,30.9v-2.5h-3.7v2.5H170.4z M168.1,34h10.1v5.6H177
		V35h-8.9V34z M174.7,27.8h2.3V24h1.2v9.1H177v-4.2h-2.3V33h-1.2v-8.8h1.2V27.8z"/>
	<path class="st0" d="M190.9,31.8c-0.4,0-0.8,0.1-1.1,0.1c-0.4,0-0.8,0.1-1.2,0.1s-0.8,0.1-1.3,0.1c-0.4,0-0.9,0-1.4,0.1v2.5h-1.2
		v-2.4c-0.6,0-1.2,0-1.9,0s-1.4,0-2.2,0v-1c1.2,0,2.3,0,3.2,0s1.8,0,2.6-0.1s1.5-0.1,2.2-0.1s1.4-0.1,2.1-0.2L190.9,31.8z M185.6,30
		c-0.5,0-1-0.1-1.5-0.2s-0.9-0.3-1.2-0.5s-0.6-0.5-0.8-0.8s-0.3-0.6-0.3-1v-0.6c0-0.4,0.1-0.7,0.3-1s0.5-0.6,0.8-0.8
		c0.3-0.2,0.7-0.4,1.2-0.5s0.9-0.2,1.5-0.2s1,0.1,1.5,0.2s0.9,0.3,1.2,0.5s0.6,0.5,0.8,0.8s0.3,0.6,0.3,1v0.6c0,0.4-0.1,0.7-0.3,1
		s-0.5,0.6-0.8,0.8c-0.3,0.2-0.7,0.4-1.2,0.5S186.1,30,185.6,30z M185.6,25.3c-0.4,0-0.7,0-1,0.1s-0.6,0.2-0.8,0.3s-0.4,0.3-0.6,0.5
		c-0.1,0.2-0.2,0.4-0.2,0.6v0.4c0,0.2,0.1,0.4,0.2,0.6c0.1,0.2,0.3,0.4,0.6,0.5s0.5,0.3,0.8,0.3c0.3,0.1,0.6,0.1,1,0.1s0.7,0,1-0.1
		s0.6-0.2,0.8-0.3c0.2-0.1,0.4-0.3,0.6-0.5c0.1-0.2,0.2-0.4,0.2-0.6v-0.4c0-0.2-0.1-0.4-0.2-0.6c-0.1-0.2-0.3-0.4-0.6-0.5
		c-0.2-0.1-0.5-0.3-0.8-0.3S185.9,25.3,185.6,25.3z M184.6,38.3h9.1v1.1h-10.3v-4.1h1.2V38.3z M192.1,33.4V24h1.2v12.1h-1.2v-1.6
		h-3.5v-1.1H192.1z"/>
</g>
<g class="st3">
	<path class="st1" d="M317.9,32v-1.8h-4.4v-5.8h1.2v2h7.7v-2h1.2v5.8h-4.4V32h6.5v1h-14.3v-1H317.9z M313.2,34.8h10.4v4.9h-1.2v-3.8
		h-9.2L313.2,34.8L313.2,34.8z M314.7,29.2h7.7v-1.8h-7.7V29.2z"/>
	<path class="st1" d="M337.4,30.7c-0.7,0.1-1.5,0.2-2.3,0.2c-0.8,0.1-1.7,0.1-2.7,0.1v3h-1.2v-3c-0.6,0-1.2,0-1.9,0s-1.4,0-2.1,0v-1
		c1.5,0,2.8,0,3.9,0s2.1,0,3-0.1c0.1-0.6,0.2-1.1,0.2-1.6c0.1-0.5,0.1-1,0.1-1.5v-1h-6v-1.1h7.2v1.9c0,0.5,0,1.1-0.1,1.6
		s-0.1,1-0.2,1.6c0.4,0,0.7,0,1-0.1c0.3,0,0.6-0.1,1-0.1L337.4,30.7z M331,38.3h9.1v1.1h-10.3V35h1.2L331,38.3L331,38.3z
		 M338.5,32.3V24h1.2v12h-1.2v-2.7H335v-1.1L338.5,32.3L338.5,32.3z"/>
	<path class="st1" d="M343.1,35c1.3-0.7,2.3-1.4,3.1-1.9c0.8-0.5,1.4-1,1.8-1.5s0.7-0.9,0.8-1.4c0.1-0.5,0.2-1,0.2-1.7v-2h-5.6v-1.1
		h6.8v3.1c0,0.5,0,1-0.1,1.4s-0.2,0.8-0.3,1.2s-0.4,0.7-0.7,1.1c-0.3,0.4-0.7,0.7-1.1,1.1c-0.5,0.4-1,0.8-1.7,1.2s-1.5,0.9-2.4,1.5
		L343.1,35z M355.1,39.5h-1.2V24h1.2V39.5z"/>
	<path class="st1" d="M369.9,24.7v2.2c0,1.2-0.1,2.4-0.4,3.6h2.6v1h-14.3v-1h10.5c0.2-0.7,0.3-1.3,0.3-1.9c0.1-0.6,0.1-1.2,0.1-1.8
		v-1.1h-9v-1.1L369.9,24.7L369.9,24.7z M359.9,33.7H370v5.8h-10.1V33.7z M361,38.4h7.8v-3.6H361V38.4z"/>
	<path class="st1" d="M378.1,34.3c0-0.7,0.2-1.3,0.6-1.8s1-0.9,1.6-1.1c-0.6-0.3-1-0.7-1.4-1.1c-0.3-0.5-0.5-1.1-0.5-1.7v-0.3
		c0-0.4,0.1-0.8,0.3-1.2c0.2-0.4,0.4-0.7,0.7-1c0.3-0.3,0.7-0.5,1.1-0.6c0.4-0.2,0.9-0.2,1.4-0.2s1,0.1,1.4,0.2
		c0.4,0.2,0.8,0.4,1.1,0.6c0.3,0.3,0.6,0.6,0.7,1c0.2,0.4,0.3,0.8,0.3,1.2v0.3c0,0.6-0.2,1.2-0.5,1.7s-0.8,0.9-1.4,1.1
		c0.3,0.1,0.6,0.2,0.9,0.4c0.3,0.2,0.5,0.4,0.7,0.7s0.4,0.5,0.5,0.8s0.2,0.6,0.2,1v0.3c0,0.5-0.1,0.9-0.3,1.3s-0.5,0.8-0.8,1
		s-0.8,0.5-1.2,0.7c-0.5,0.2-1,0.2-1.6,0.2s-1.1-0.1-1.6-0.2c-0.5-0.2-0.9-0.4-1.2-0.7s-0.6-0.6-0.8-1S378,35,378,34.6L378.1,34.3
		L378.1,34.3z M379.3,34.5c0,0.3,0.1,0.6,0.2,0.9c0.1,0.3,0.3,0.5,0.5,0.7s0.5,0.4,0.9,0.5c0.3,0.1,0.7,0.2,1.1,0.2s0.8-0.1,1.2-0.2
		c0.3-0.1,0.6-0.3,0.9-0.5c0.2-0.2,0.4-0.4,0.5-0.7s0.2-0.6,0.2-0.9v-0.2c0-0.4-0.1-0.7-0.2-1s-0.3-0.5-0.6-0.8
		c-0.2-0.2-0.5-0.4-0.9-0.5c-0.3-0.1-0.7-0.2-1.1-0.2s-0.8,0.1-1.1,0.2c-0.3,0.1-0.6,0.3-0.9,0.5c-0.2,0.2-0.4,0.5-0.6,0.8
		c-0.1,0.3-0.2,0.6-0.2,1v0.2H379.3z M379.6,28.5c0,0.3,0.1,0.6,0.2,0.9s0.3,0.5,0.5,0.8c0.2,0.2,0.5,0.4,0.8,0.5s0.6,0.2,1,0.2
		s0.7-0.1,1-0.2s0.5-0.3,0.8-0.5c0.2-0.2,0.4-0.5,0.5-0.8s0.2-0.6,0.2-0.9v-0.2c0-0.6-0.2-1.1-0.7-1.5c-0.4-0.4-1-0.6-1.7-0.6
		s-1.3,0.2-1.8,0.6c-0.4,0.4-0.6,0.9-0.6,1.5v0.2H379.6z"/>
	<path class="st1" d="M395.3,27c-0.4-0.2-0.8-0.4-1.2-0.5c-0.4-0.1-0.9-0.2-1.4-0.2c-0.6,0-1.1,0.1-1.5,0.3c-0.4,0.2-0.7,0.6-1,1
		s-0.5,1-0.6,1.6s-0.2,1.4-0.3,2.2c0.1-0.2,0.2-0.4,0.4-0.6s0.4-0.4,0.6-0.6c0.3-0.2,0.6-0.3,0.9-0.4s0.7-0.2,1.2-0.2s1,0.1,1.5,0.3
		c0.5,0.2,0.9,0.4,1.2,0.7c0.4,0.3,0.6,0.7,0.8,1.2c0.2,0.5,0.3,1,0.3,1.6v0.4c0,0.6-0.1,1.1-0.3,1.6s-0.5,0.9-0.8,1.2
		c-0.4,0.3-0.8,0.6-1.3,0.8s-1,0.3-1.6,0.3s-1.1-0.1-1.6-0.3s-0.9-0.5-1.3-0.9s-0.7-0.9-0.9-1.6s-0.3-1.4-0.3-2.2v-0.4
		c0-1.3,0.1-2.4,0.3-3.3c0.2-0.9,0.5-1.7,0.9-2.2c0.4-0.6,0.9-1,1.4-1.3c0.6-0.3,1.2-0.4,1.9-0.4c0.6,0,1.1,0.1,1.6,0.2
		s1,0.4,1.5,0.6L395.3,27z M389.5,33.7c0,0.5,0.1,0.9,0.2,1.3c0.1,0.4,0.3,0.7,0.6,1c0.2,0.3,0.5,0.5,0.9,0.6s0.7,0.2,1.1,0.2
		s0.8-0.1,1.2-0.2c0.4-0.1,0.7-0.3,0.9-0.6c0.3-0.2,0.5-0.5,0.6-0.9s0.2-0.8,0.2-1.2v-0.3c0-0.5-0.1-0.9-0.2-1.2
		c-0.2-0.4-0.4-0.7-0.6-0.9c-0.3-0.2-0.6-0.4-0.9-0.6s-0.7-0.2-1.1-0.2s-0.7,0.1-1.1,0.2c-0.3,0.1-0.6,0.3-0.9,0.6
		c-0.3,0.2-0.5,0.5-0.6,0.9c-0.2,0.3-0.2,0.7-0.2,1.1v0.2H389.5z"/>
	<path class="st1" d="M402.2,32.1c-0.6,0-1.1-0.1-1.6-0.3c-0.5-0.2-0.9-0.5-1.2-0.8s-0.6-0.7-0.7-1.1c-0.2-0.4-0.3-0.8-0.3-1.2v-1
		c0-0.4,0.1-0.8,0.3-1.2c0.2-0.4,0.4-0.7,0.7-1.1s0.7-0.6,1.2-0.8c0.5-0.2,1-0.3,1.6-0.3s1.1,0.1,1.6,0.3c0.5,0.2,0.9,0.4,1.2,0.8
		c0.3,0.3,0.6,0.7,0.7,1.1c0.2,0.4,0.3,0.8,0.3,1.2h3.5V24h1.2v9h-1.2v-4.1H406c0,0.4-0.1,0.8-0.3,1.2c-0.2,0.4-0.4,0.7-0.7,1
		c-0.3,0.3-0.7,0.6-1.2,0.7C403.4,32,402.8,32.1,402.2,32.1z M402.2,25.7c-0.4,0-0.7,0.1-1.1,0.2c-0.3,0.1-0.6,0.3-0.8,0.5
		c-0.2,0.2-0.4,0.4-0.5,0.7c-0.1,0.3-0.2,0.6-0.2,0.9v0.8c0,0.3,0.1,0.6,0.2,0.9s0.3,0.5,0.5,0.7s0.5,0.4,0.8,0.5s0.7,0.2,1.1,0.2
		s0.7-0.1,1.1-0.2c0.3-0.1,0.6-0.3,0.8-0.5c0.2-0.2,0.4-0.4,0.5-0.7c0.1-0.3,0.2-0.6,0.2-0.9V28c0-0.3-0.1-0.6-0.2-0.9
		s-0.3-0.5-0.5-0.7s-0.5-0.4-0.8-0.5C403,25.7,402.6,25.7,402.2,25.7z M400.8,33.9h9.9v5.8h-1.2V35h-8.8v-1.1H400.8z"/>
	<path class="st1" d="M420.9,34c0-1-0.2-1.7-0.7-2.2c-0.5-0.4-1.2-0.7-2-0.7c-0.5,0-1,0.1-1.4,0.3c-0.4,0.2-0.7,0.4-1,0.7h-1.1
		l0.4-6.7h6.3v1.1H416l-0.2,4.5c0.3-0.3,0.6-0.5,1.1-0.6c0.5-0.2,1-0.2,1.5-0.2c0.6,0,1.1,0.1,1.6,0.3s0.8,0.5,1.1,0.8
		c0.3,0.3,0.5,0.7,0.7,1.2s0.2,1,0.2,1.5v0.3c0,0.4-0.1,0.9-0.2,1.3s-0.4,0.8-0.7,1.2c-0.3,0.3-0.8,0.6-1.3,0.9
		c-0.5,0.2-1.2,0.3-1.9,0.3c-0.8,0-1.6-0.1-2.2-0.4c-0.6-0.2-1.2-0.6-1.8-1l0.6-1c0.6,0.5,1.2,0.8,1.7,1s1.1,0.3,1.7,0.3
		c0.5,0,1-0.1,1.4-0.2c0.4-0.2,0.7-0.4,0.9-0.6c0.2-0.2,0.4-0.5,0.5-0.8s0.2-0.6,0.2-0.9L420.9,34L420.9,34z"/>
	<path class="st1" d="M428.6,30.1c0,0.1-0.2,0.3-0.4,0.6c-0.2,0.3-0.5,0.5-0.9,0.9c-0.1,0.1-0.3,0.3-0.5,0.5
		c-0.2,0.2-0.4,0.3-0.7,0.5s-0.5,0.4-0.7,0.5c-0.2,0.2-0.4,0.3-0.6,0.5l-0.7-0.8c0.5-0.4,1-0.7,1.5-1.1s1-0.8,1.4-1.2
		c0.4-0.4,0.7-0.8,0.8-1.1c0.1-0.3,0.2-0.7,0.2-1.2V27h-3.6v-1h3.6v-2h1.2v2h3.4v1h-3.4v1c0,0.2,0,0.5,0,0.6c0,0.2,0.1,0.4,0.2,0.6
		s0.2,0.4,0.4,0.5c0.2,0.2,0.4,0.4,0.7,0.6c0.3,0.2,0.6,0.5,1.1,0.8c0.4,0.3,0.9,0.7,1.4,1l-0.7,0.8c-0.3-0.2-0.7-0.5-1.1-0.8
		s-0.7-0.5-0.9-0.7c-0.4-0.3-0.7-0.6-1-0.9C428.8,30.4,428.7,30.2,428.6,30.1L428.6,30.1z M428.2,38.3h8.7v1.1H427v-4.9h1.2V38.3z
		 M435.3,28.6V24h1.2v11.1h-1.2v-5.5h-3.2v-1.1h3.2V28.6z"/>
	<path class="st1" d="M446.5,34c0-1-0.2-1.7-0.7-2.2c-0.5-0.4-1.2-0.7-2-0.7c-0.5,0-1,0.1-1.4,0.3c-0.4,0.2-0.7,0.4-1,0.7h-1.1
		l0.4-6.7h6.3v1.1h-5.3l-0.2,4.5c0.3-0.3,0.6-0.5,1.1-0.6c0.5-0.2,1-0.2,1.5-0.2c0.6,0,1.1,0.1,1.6,0.3s0.8,0.5,1.1,0.8
		c0.3,0.3,0.5,0.7,0.7,1.2s0.2,1,0.2,1.5v0.3c0,0.4-0.1,0.9-0.2,1.3s-0.4,0.8-0.7,1.2c-0.3,0.3-0.8,0.6-1.3,0.9
		c-0.5,0.2-1.2,0.3-1.9,0.3c-0.8,0-1.6-0.1-2.2-0.4c-0.6-0.2-1.2-0.6-1.8-1l0.6-1c0.6,0.5,1.2,0.8,1.7,1s1.1,0.3,1.7,0.3
		c0.5,0,1-0.1,1.4-0.2c0.4-0.2,0.7-0.4,0.9-0.6c0.2-0.2,0.4-0.5,0.5-0.8s0.2-0.6,0.2-0.9V34H446.5z"/>
	<path class="st1" d="M455.9,24.8V32h-6v-7.1h1.2v2.5h3.7v-2.5h1.1V24.8z M454.7,30.9v-2.5H451v2.5H454.7z M452.3,34h10.1v5.6h-1.2
		V35h-8.9V34z M459,27.8h2.3V24h1.2v9.1h-1.2v-4.2H459V33h-1.2v-8.8h1.2V27.8z"/>
	<path class="st1" d="M472.4,32.3h-6.9V25h6.9V32.3z M471.3,26h-4.6v5.2h4.6V26z M468.8,38.3h8.6v1.1h-9.8v-5.1h1.2L468.8,38.3
		L468.8,38.3z M476.9,28.5h2.4v1.1h-2.4v5.5h-1.2V24h1.2V28.5z"/>
	<path class="st1" d="M490.7,31.8c-0.4,0-0.8,0.1-1.1,0.1c-0.4,0-0.8,0.1-1.2,0.1s-0.8,0.1-1.3,0.1s-0.9,0-1.4,0.1v2.5h-1.2v-2.4
		c-0.6,0-1.2,0-1.9,0s-1.4,0-2.2,0v-1c1.2,0,2.3,0,3.2,0c0.9,0,1.8,0,2.6-0.1s1.5-0.1,2.2-0.1s1.4-0.1,2.1-0.2L490.7,31.8z
		 M485.3,30c-0.5,0-1-0.1-1.5-0.2s-0.9-0.3-1.2-0.5c-0.3-0.2-0.6-0.5-0.8-0.8c-0.2-0.3-0.3-0.6-0.3-1v-0.6c0-0.4,0.1-0.7,0.3-1
		c0.2-0.3,0.5-0.6,0.8-0.8c0.3-0.2,0.7-0.4,1.2-0.5s0.9-0.2,1.5-0.2s1,0.1,1.5,0.2s0.8,0.3,1.2,0.5c0.3,0.2,0.6,0.5,0.8,0.8
		c0.2,0.3,0.3,0.6,0.3,1v0.6c0,0.4-0.1,0.7-0.3,1c-0.2,0.3-0.5,0.6-0.8,0.8c-0.3,0.2-0.7,0.4-1.2,0.5S485.8,30,485.3,30z
		 M485.3,25.3c-0.4,0-0.7,0-1,0.1s-0.6,0.2-0.8,0.3c-0.2,0.1-0.4,0.3-0.6,0.5c-0.1,0.2-0.2,0.4-0.2,0.6v0.4c0,0.2,0.1,0.4,0.2,0.6
		s0.3,0.4,0.6,0.5c0.2,0.1,0.5,0.3,0.8,0.3s0.6,0.1,1,0.1s0.7,0,1-0.1s0.6-0.2,0.8-0.3s0.4-0.3,0.6-0.5c0.1-0.2,0.2-0.4,0.2-0.6
		v-0.4c0-0.2-0.1-0.4-0.2-0.6s-0.3-0.4-0.6-0.5s-0.5-0.3-0.8-0.3S485.7,25.3,485.3,25.3z M484.3,38.3h9.1v1.1h-10.3v-4.1h1.2
		L484.3,38.3L484.3,38.3z M491.9,33.4V24h1.2v12.1h-1.2v-1.6h-3.5v-1.1H491.9z"/>
</g>
<g>
	<path class="st0" d="M639.2,25.2V33h-4.4v3.4h6.5v1H627v-1h6.5V33h-4.4v-7.8h1.2V28h7.7v-2.8H639.2z M638,31.9V29h-7.7v2.9H638z"/>
	<path class="st0" d="M643.1,32.6c0.9-0.4,1.7-0.8,2.3-1.1c0.6-0.3,1.2-0.6,1.6-0.9c0.4-0.3,0.8-0.5,1-0.8c0.3-0.2,0.5-0.5,0.6-0.8
		s0.2-0.5,0.3-0.8c0-0.3,0.1-0.6,0.1-1V26h-5.4v-1h6.5v2.3c0,0.4,0,0.7-0.1,1h4V24h1.2v11.1H654v-5.8h-4.3c-0.1,0.4-0.4,0.7-0.6,1
		c-0.3,0.3-0.7,0.6-1.2,1c-0.5,0.3-1.1,0.7-1.8,1c-0.7,0.4-1.6,0.8-2.6,1.2L643.1,32.6z M647,38.3h8.7v1.1h-9.9v-5.1h1.2V38.3z"/>
	<path class="st0" d="M664.5,32v-1.8h-4.4v-5.8h1.2v2h7.7v-2h1.2v5.8h-4.4V32h6.5v1H658v-1H664.5z M659.8,34.8h10.4v4.9H669v-3.8
		h-9.2V34.8z M661.2,29.2h7.7v-1.8h-7.7V29.2z"/>
	<path class="st0" d="M682.7,26.5h-3.5V29c0,0.3,0,0.6,0,0.8c0,0.2,0.1,0.5,0.1,0.7c0.1,0.2,0.2,0.4,0.3,0.6s0.3,0.4,0.5,0.7
		c0.3,0.4,0.7,0.8,1.2,1.3s1.1,1,1.7,1.6l-0.8,0.8c-0.6-0.5-1.1-1-1.5-1.5c-0.4-0.4-0.8-0.8-1.1-1.2c-0.2-0.3-0.5-0.5-0.7-0.7
		s-0.3-0.4-0.4-0.5l0,0c0,0.1-0.1,0.2-0.2,0.3c-0.1,0.1-0.2,0.3-0.3,0.4s-0.2,0.3-0.4,0.5c-0.1,0.2-0.3,0.3-0.4,0.4
		c-0.1,0.1-0.3,0.3-0.5,0.5s-0.4,0.4-0.6,0.6s-0.5,0.5-0.7,0.7c-0.3,0.3-0.5,0.5-0.8,0.7l-0.8-0.8c0.5-0.5,1.1-0.9,1.5-1.4
		c0.5-0.5,0.9-0.9,1.3-1.4c0.3-0.3,0.5-0.6,0.6-0.8c0.2-0.2,0.3-0.5,0.4-0.7s0.1-0.5,0.2-0.7c0-0.2,0-0.5,0-0.9v-2.6h-3.6v-1.1h8.3
		v1.2H682.7z M686.4,39.5h-1.2V24h1.2V39.5z"/>
	<path class="st0" d="M703.2,33.3v1h-6.5v5.2h-1.2v-5.2H689v-1H703.2z M701.1,24.6v6.7H691v-6.7h1.2v2.3h7.7v-2.3
		C699.9,24.6,701.1,24.6,701.1,24.6z M699.9,30.3V28h-7.7v2.3H699.9z"/>
	<path class="st0" d="M716,30v3.9h1.8V35H716v2.7h-1.2V35h-6.1v-1.1l5.9-8.4h1.4l-5.9,8.4h4.8V30H716z"/>
	<path class="st0" d="M724.1,31.3c0.3-0.4,0.6-0.7,0.8-1s0.4-0.5,0.5-0.8c0.1-0.2,0.2-0.4,0.2-0.6s0.1-0.3,0.1-0.5v-0.1
		c0-0.6-0.2-1.1-0.6-1.5c-0.4-0.4-1-0.5-1.7-0.5c-0.5,0-1.1,0.1-1.5,0.4c-0.5,0.3-0.9,0.7-1.3,1.5l-1-0.6c0.1-0.3,0.3-0.5,0.5-0.8
		s0.5-0.5,0.8-0.8s0.7-0.4,1.1-0.6c0.4-0.1,0.9-0.2,1.4-0.2s1,0.1,1.5,0.2c0.4,0.1,0.8,0.4,1.1,0.6c0.3,0.3,0.5,0.6,0.7,1
		s0.3,0.8,0.3,1.2v0.2c0,0.3-0.1,0.6-0.2,1s-0.3,0.6-0.5,0.9s-0.4,0.6-0.7,0.9c-0.2,0.3-0.5,0.6-0.8,0.9l-3.8,4.5h6.3v1.1h-7.8v-1
		L724.1,31.3z"/>
	<path class="st0" d="M733.3,32.1c-0.6,0-1.1-0.1-1.6-0.3c-0.5-0.2-0.9-0.5-1.2-0.8s-0.6-0.7-0.7-1.1c-0.2-0.4-0.3-0.8-0.3-1.2v-1
		c0-0.4,0.1-0.8,0.3-1.2c0.2-0.4,0.4-0.7,0.7-1.1c0.3-0.3,0.7-0.6,1.2-0.8c0.5-0.2,1-0.3,1.6-0.3s1.1,0.1,1.6,0.3
		c0.5,0.2,0.9,0.4,1.2,0.8c0.3,0.3,0.6,0.7,0.7,1.1c0.2,0.4,0.3,0.8,0.3,1.2h3.5V24h1.2v9h-1.2v-4.1h-3.5c0,0.4-0.1,0.8-0.3,1.2
		c-0.2,0.4-0.4,0.7-0.7,1s-0.7,0.6-1.2,0.7C734.5,32,733.9,32.1,733.3,32.1z M733.3,25.7c-0.4,0-0.7,0.1-1.1,0.2s-0.6,0.3-0.8,0.5
		s-0.4,0.4-0.5,0.7c-0.1,0.3-0.2,0.6-0.2,0.9v0.8c0,0.3,0.1,0.6,0.2,0.9c0.1,0.3,0.3,0.5,0.5,0.7s0.5,0.4,0.8,0.5s0.7,0.2,1.1,0.2
		c0.4,0,0.7-0.1,1.1-0.2c0.3-0.1,0.6-0.3,0.8-0.5s0.4-0.4,0.5-0.7s0.2-0.6,0.2-0.9V28c0-0.3-0.1-0.6-0.2-0.9s-0.3-0.5-0.5-0.7
		s-0.5-0.4-0.8-0.5S733.7,25.7,733.3,25.7z M731.9,33.9h9.9v5.8h-1.2V35h-8.8L731.9,33.9L731.9,33.9z"/>
	<path class="st0" d="M755,31.8c-0.4,0-0.8,0.1-1.1,0.1s-0.8,0.1-1.2,0.1s-0.8,0.1-1.3,0.1c-0.4,0-0.9,0-1.4,0.1v2.5h-1.2v-2.4
		c-0.6,0-1.2,0-1.9,0s-1.4,0-2.2,0v-1c1.2,0,2.3,0,3.2,0s1.8,0,2.6-0.1s1.5-0.1,2.2-0.1s1.4-0.1,2.1-0.2L755,31.8z M749.6,30
		c-0.5,0-1-0.1-1.5-0.2s-0.8-0.3-1.2-0.5c-0.3-0.2-0.6-0.5-0.8-0.8s-0.3-0.6-0.3-1v-0.6c0-0.4,0.1-0.7,0.3-1s0.5-0.6,0.8-0.8
		c0.3-0.2,0.7-0.4,1.2-0.5s0.9-0.2,1.5-0.2s1,0.1,1.5,0.2s0.9,0.3,1.2,0.5s0.6,0.5,0.8,0.8s0.3,0.6,0.3,1v0.6c0,0.4-0.1,0.7-0.3,1
		s-0.5,0.6-0.8,0.8c-0.3,0.2-0.7,0.4-1.2,0.5S750.1,30,749.6,30z M749.6,25.3c-0.4,0-0.7,0-1,0.1s-0.6,0.2-0.8,0.3
		c-0.2,0.1-0.4,0.3-0.6,0.5s-0.2,0.4-0.2,0.6v0.4c0,0.2,0.1,0.4,0.2,0.6s0.3,0.4,0.6,0.5c0.2,0.1,0.5,0.3,0.8,0.3
		c0.3,0.1,0.6,0.1,1,0.1s0.7,0,1-0.1s0.6-0.2,0.8-0.3c0.2-0.1,0.4-0.3,0.6-0.5s0.2-0.4,0.2-0.6v-0.4c0-0.2-0.1-0.4-0.2-0.6
		s-0.3-0.4-0.6-0.5c-0.2-0.1-0.5-0.3-0.8-0.3S749.9,25.3,749.6,25.3z M748.6,38.3h9.1v1.1h-10.3v-4.1h1.2V38.3z M756.2,33.4V24h1.2
		v12.1h-1.2v-1.6h-3.5v-1.1H756.2z"/>
</g>
<g class="st3">
	<path class="st4" d="M367.2,750.9c-0.7,0.1-1.5,0.1-2.3,0.2c-0.8,0.1-1.6,0.1-2.6,0.1v2.2h-1.2v-2.1c-0.6,0-1.2,0-1.9,0
		c-0.7,0-1.4,0-2.3,0v-1c1.2,0,2.3,0,3.2,0c0.9,0,1.8,0,2.6-0.1c0.8,0,1.5-0.1,2.2-0.1c0.7-0.1,1.4-0.1,2.1-0.2L367.2,750.9z
		 M361.8,746.8c-0.1,0.1-0.2,0.3-0.4,0.4c-0.2,0.2-0.5,0.4-0.9,0.6c-0.4,0.3-0.8,0.5-1.2,0.8c-0.4,0.2-0.9,0.5-1.3,0.7l-0.6-0.9
		c0.5-0.3,1-0.5,1.5-0.8s0.9-0.6,1.3-0.8c0.2-0.2,0.4-0.3,0.5-0.5c0.1-0.1,0.2-0.3,0.3-0.5s0.1-0.3,0.1-0.5s0-0.4,0-0.7v-0.9h1.2
		v0.9c0,0.3,0,0.5,0,0.7s0.1,0.4,0.2,0.5c0.1,0.2,0.2,0.3,0.4,0.4s0.4,0.3,0.6,0.5c0.4,0.2,0.8,0.5,1.2,0.7c0.4,0.2,0.8,0.5,1.2,0.7
		l-0.6,0.9c-0.1-0.1-0.3-0.2-0.5-0.2c-0.2-0.1-0.4-0.2-0.6-0.3s-0.4-0.2-0.6-0.4c-0.2-0.1-0.4-0.2-0.6-0.3c-0.4-0.3-0.8-0.5-1-0.6
		C362.1,747.1,361.9,747,361.8,746.8L361.8,746.8z M359.6,754.2h9.9v4.9h-9.9V754.2z M360.8,758h7.6v-2.7h-7.6V758z M369.5,753.3
		h-1.2v-9.7h1.2V753.3z"/>
	<path class="st4" d="M380.3,744.8v1.1h-5.9v3.4h5.3v1.1h-5.3v3.6h2.2c0.8,0,1.6,0,2.5-0.1s1.8-0.1,2.7-0.3l0.1,1.1
		c-0.9,0.1-1.9,0.2-2.8,0.3c-1,0.1-1.9,0.1-2.8,0.1h-3.1v-10.3L380.3,744.8L380.3,744.8z M383.9,749.3v-5.7h1.2v15.5h-1.2v-8.7h-3.1
		v-1.1H383.9z"/>
	<path class="st4" d="M406.1,752.5v1h-6.5v5.6h-1.2v-5.6h-6.5v-1H406.1z M401,749.4c-1.1-0.6-1.8-1-2-1.4l0,0
		c-0.2,0.4-0.8,0.9-2,1.4c-0.5,0.2-1,0.5-1.6,0.8s-1.2,0.6-2,0.8l-0.5-1c0.6-0.2,1.3-0.5,1.9-0.8s1.2-0.6,1.8-0.9
		c0.4-0.2,0.7-0.4,1-0.6c0.2-0.2,0.4-0.4,0.5-0.6c0.1-0.2,0.2-0.4,0.2-0.7c0-0.2,0.1-0.5,0.1-0.8v-0.2h-4.7v-1h10.6v1h-4.7v0.2
		c0,0.3,0,0.5,0,0.8c0,0.2,0.1,0.5,0.2,0.7s0.3,0.4,0.5,0.6c0.2,0.2,0.6,0.4,1,0.6c0.5,0.3,1.1,0.6,1.8,0.8c0.6,0.3,1.3,0.5,1.9,0.8
		l-0.5,0.9c-0.6-0.2-1.3-0.5-1.9-0.8C402,749.9,401.5,749.6,401,749.4z"/>
	<path class="st4" d="M413.8,744.5v1h-4.6v2.2h4.5v1h-4.5v2.2c0.5,0,1,0,1.5,0c0.4,0,0.9,0,1.3,0s0.8,0,1.3-0.1
		c0.4,0,0.9-0.1,1.4-0.1l0.1,1c-0.5,0.1-1,0.1-1.4,0.1s-0.9,0.1-1.5,0.1c-0.5,0-1.1,0-1.7,0s-1.3,0-2.1,0v-7.5L413.8,744.5
		L413.8,744.5z M410.4,753.8h10.1v5.4h-1.2v-4.4h-8.9V753.8z M417.1,747.5h2.3v-3.9h1.2v9.3h-1.2v-4.3h-2.3v4.3h-1.2v-9.1h1.2V747.5
		z"/>
	<path class="st4" d="M430.8,755.2c-1.1,0-2-0.4-2.5-1.2s-0.8-1.9-0.8-3.3v-1.4c0-1.5,0.3-2.6,0.8-3.3c0.5-0.8,1.4-1.2,2.5-1.2
		c0.8,0,1.5,0.2,2,0.6c0.5,0.4,0.9,1,1.1,1.8h2.4v-3.3h1.2v14.5h-1.2v-5.5h-2.4C433.5,754.4,432.4,755.2,430.8,755.2z M430.8,745.9
		c-0.8,0-1.3,0.3-1.6,0.9s-0.5,1.5-0.5,2.6v1.1c0,1.2,0.2,2,0.5,2.6s0.9,0.9,1.6,0.9c0.8,0,1.3-0.3,1.6-0.9c0.3-0.6,0.5-1.5,0.5-2.6
		v-1.1c0-1.2-0.2-2-0.5-2.6S431.6,745.9,430.8,745.9z M434.2,750.7c0,0.4,0,0.7-0.1,1h2.2v-3.5h-2.2c0,0.2,0,0.4,0.1,0.5
		c0,0.2,0,0.4,0,0.6V750.7z M440.4,759.1h-1.2v-15.5h1.2V759.1z"/>
	<path class="st4" d="M447,749.1c0,0.1-0.2,0.3-0.4,0.6c-0.2,0.3-0.6,0.6-0.9,0.9c-0.3,0.3-0.7,0.6-1.1,1c-0.5,0.4-0.9,0.8-1.4,1.1
		l-0.7-0.9c0.5-0.3,0.9-0.7,1.4-1.1c0.5-0.4,0.9-0.8,1.3-1.2c0.3-0.3,0.5-0.5,0.6-0.7s0.3-0.4,0.4-0.6s0.1-0.4,0.2-0.6
		c0-0.2,0-0.5,0-0.8v-2.5h1.2v2.5c0,0.3,0,0.6,0,0.8s0.1,0.4,0.2,0.6c0.1,0.2,0.2,0.4,0.4,0.6s0.4,0.4,0.7,0.7
		c0.4,0.4,0.8,0.7,1.3,1.1s0.8,0.7,1.2,0.9l-0.7,0.8c-0.5-0.3-0.9-0.7-1.2-1c-0.4-0.3-0.7-0.6-1-0.8
		C447.6,749.8,447.1,749.4,447,749.1L447,749.1z M446.6,757.9h8.6v1.1h-9.8v-5.2h1.2L446.6,757.9L446.6,757.9z M454.7,748.1h2.4v1.1
		h-2.4v5.6h-1.2v-11.1h1.2V748.1z"/>
	<path class="st4" d="M463.1,746.7c0.1-0.2,0.3-0.5,0.5-0.7s0.5-0.4,0.8-0.6s0.6-0.3,1-0.4c0.4-0.1,0.8-0.2,1.2-0.2
		c0.6,0,1.1,0.1,1.5,0.2c0.4,0.1,0.8,0.4,1.1,0.6c0.3,0.3,0.6,0.6,0.7,1s0.3,0.8,0.3,1.2v0.2c0,0.2,0,0.5-0.1,0.8s-0.2,0.5-0.3,0.8
		c-0.2,0.2-0.4,0.5-0.6,0.7c-0.3,0.2-0.6,0.4-1,0.5c0.8,0.1,1.5,0.5,1.9,1s0.7,1.1,0.7,1.9v0.3c0,0.4-0.1,0.9-0.2,1.3
		c-0.1,0.4-0.4,0.8-0.7,1.1s-0.7,0.6-1.3,0.8c-0.5,0.2-1.2,0.3-1.9,0.3c-0.7,0-1.4-0.1-2.1-0.3s-1.3-0.6-1.9-1l0.6-1
		c0.6,0.4,1.2,0.7,1.7,0.9s1.1,0.3,1.6,0.3s1-0.1,1.4-0.2s0.7-0.3,0.9-0.6s0.4-0.5,0.5-0.8s0.2-0.6,0.2-0.9v-0.2
		c0-0.5-0.1-0.8-0.3-1.1c-0.2-0.3-0.4-0.5-0.7-0.7c-0.3-0.2-0.6-0.3-0.9-0.4c-0.3-0.1-0.6-0.1-0.9-0.1h-1.4v-1h1.4
		c0.4,0,0.7-0.1,1-0.2c0.3-0.1,0.5-0.3,0.7-0.6c0.2-0.2,0.3-0.5,0.4-0.8s0.1-0.5,0.1-0.8v-0.1c0-0.6-0.2-1.1-0.6-1.5s-1-0.5-1.8-0.5
		c-0.5,0-1,0.1-1.4,0.3s-0.9,0.6-1.2,1.1L463.1,746.7z"/>
	<path class="st4" d="M476.8,751.7c-0.6,0-1.1-0.1-1.6-0.3s-0.9-0.5-1.2-0.8c-0.3-0.3-0.6-0.7-0.7-1.1c-0.2-0.4-0.3-0.8-0.3-1.2v-1
		c0-0.4,0.1-0.8,0.3-1.2c0.2-0.4,0.4-0.7,0.7-1.1c0.3-0.3,0.7-0.6,1.2-0.8s1-0.3,1.6-0.3s1.1,0.1,1.6,0.3s0.9,0.4,1.2,0.8
		c0.3,0.3,0.6,0.7,0.7,1.1c0.2,0.4,0.3,0.8,0.3,1.2h3.5v-3.9h1.2v9h-1.2v-4.1h-3.5c0,0.4-0.1,0.8-0.3,1.2c-0.2,0.4-0.4,0.7-0.7,1
		s-0.7,0.6-1.2,0.7C477.9,751.6,477.4,751.7,476.8,751.7z M476.8,745.3c-0.4,0-0.7,0.1-1.1,0.2s-0.6,0.3-0.8,0.5
		c-0.2,0.2-0.4,0.4-0.5,0.7s-0.2,0.6-0.2,0.9v0.8c0,0.3,0.1,0.6,0.2,0.9c0.1,0.3,0.3,0.5,0.5,0.7s0.5,0.4,0.8,0.5s0.7,0.2,1.1,0.2
		s0.7-0.1,1.1-0.2c0.3-0.1,0.6-0.3,0.8-0.5s0.4-0.4,0.5-0.7s0.2-0.6,0.2-0.9v-0.8c0-0.3-0.1-0.6-0.2-0.9s-0.3-0.5-0.5-0.7
		s-0.5-0.4-0.8-0.5S477.2,745.3,476.8,745.3z M475.3,753.5h9.9v5.8H484v-4.7h-8.8v-1.1H475.3z"/>
	<path class="st4" d="M498.4,751.4c-0.4,0-0.8,0.1-1.1,0.1c-0.4,0-0.8,0.1-1.2,0.1s-0.8,0.1-1.3,0.1s-0.9,0-1.4,0.1v2.5h-1.2v-2.4
		c-0.6,0-1.2,0-1.9,0s-1.4,0-2.2,0v-1c1.2,0,2.3,0,3.2,0c0.9,0,1.8,0,2.6-0.1s1.5-0.1,2.2-0.1s1.4-0.1,2.1-0.2L498.4,751.4z
		 M493,749.6c-0.5,0-1-0.1-1.5-0.2c-0.5-0.1-0.9-0.3-1.2-0.5c-0.3-0.2-0.6-0.5-0.8-0.8c-0.2-0.3-0.3-0.6-0.3-1v-0.6
		c0-0.4,0.1-0.7,0.3-1c0.2-0.3,0.5-0.6,0.8-0.8s0.7-0.4,1.2-0.5s0.9-0.2,1.5-0.2s1,0.1,1.5,0.2c0.5,0.1,0.8,0.3,1.2,0.5
		c0.3,0.2,0.6,0.5,0.8,0.8c0.2,0.3,0.3,0.6,0.3,1v0.6c0,0.4-0.1,0.7-0.3,1c-0.2,0.3-0.5,0.6-0.8,0.8s-0.7,0.4-1.2,0.5
		S493.5,749.6,493,749.6z M493,744.9c-0.4,0-0.7,0-1,0.1s-0.6,0.2-0.8,0.3c-0.2,0.1-0.4,0.3-0.6,0.5c-0.1,0.2-0.2,0.4-0.2,0.6v0.4
		c0,0.2,0.1,0.4,0.2,0.6c0.1,0.2,0.3,0.4,0.6,0.5c0.2,0.1,0.5,0.3,0.8,0.3s0.6,0.1,1,0.1s0.7,0,1-0.1s0.6-0.2,0.8-0.3
		s0.4-0.3,0.6-0.5c0.1-0.2,0.2-0.4,0.2-0.6v-0.4c0-0.2-0.1-0.4-0.2-0.6c-0.1-0.2-0.3-0.4-0.6-0.5s-0.5-0.3-0.8-0.3
		S493.4,744.9,493,744.9z M492.1,757.9h9.1v1.1h-10.3v-4.1h1.2L492.1,757.9L492.1,757.9z M499.6,753v-9.4h1.2v12.1h-1.2V754h-3.5v-1
		H499.6z"/>
</g>
<g class="st3">
	<path class="st0" d="M618.3,751.6c0.3-0.3,0.5-0.6,0.6-0.8c0.2-0.2,0.3-0.5,0.4-0.7s0.2-0.5,0.2-0.8s0-0.6,0-0.9v-3.7h1.2v3.6
		c0,0.3,0,0.6,0,0.9c0,0.2,0.1,0.5,0.1,0.7c0.1,0.2,0.2,0.4,0.3,0.7c0.1,0.2,0.3,0.5,0.5,0.7c0.3,0.4,0.8,0.8,1.2,1.3s1.1,1,1.7,1.6
		L624,755c-0.5-0.5-1-1-1.5-1.5s-0.9-0.9-1.2-1.2s-0.5-0.5-0.7-0.8c-0.2-0.2-0.3-0.4-0.4-0.5l0,0c0,0.1-0.1,0.1-0.1,0.3
		s-0.2,0.3-0.3,0.4s-0.2,0.3-0.4,0.5c-0.1,0.2-0.3,0.3-0.4,0.5c-0.1,0.2-0.3,0.3-0.5,0.6c-0.2,0.2-0.4,0.4-0.7,0.7
		c-0.2,0.2-0.5,0.5-0.7,0.7c-0.3,0.2-0.5,0.5-0.8,0.7l-0.8-0.8c0.6-0.5,1.1-1,1.6-1.4C617.5,752.5,617.9,752.1,618.3,751.6z
		 M628.3,759.1h-1.2v-9.5h-3.7v-1.1h3.7v-4.9h1.2V759.1z"/>
	<path class="st0" d="M645.2,750.3v1h-6.5v1.7h4.4v3.6h-8.9v1.6h9.3v1H633v-3.6h8.9V754H633v-1h4.5v-1.7H631v-1H645.2z M642.9,746.7
		c0,0.4-0.1,0.7-0.4,1c-0.2,0.3-0.6,0.6-1,0.8s-1,0.4-1.5,0.5s-1.2,0.2-1.9,0.2s-1.3-0.1-1.9-0.2s-1.1-0.3-1.5-0.5s-0.8-0.5-1-0.8
		s-0.4-0.7-0.4-1v-0.5c0-0.4,0.1-0.7,0.4-1c0.2-0.3,0.6-0.6,1-0.8s1-0.4,1.5-0.5s1.2-0.2,1.9-0.2s1.3,0.1,1.9,0.2s1.1,0.3,1.5,0.5
		s0.8,0.5,1,0.8s0.4,0.7,0.4,1V746.7z M634.4,746.6c0,0.2,0.1,0.4,0.3,0.6c0.2,0.2,0.5,0.4,0.8,0.5s0.7,0.3,1.2,0.3
		c0.4,0.1,0.9,0.1,1.4,0.1s1,0,1.4-0.1s0.8-0.2,1.2-0.3c0.3-0.1,0.6-0.3,0.8-0.5s0.3-0.4,0.3-0.6v-0.3c0-0.2-0.1-0.4-0.3-0.6
		c-0.2-0.2-0.5-0.4-0.8-0.5s-0.7-0.3-1.2-0.3c-0.4-0.1-0.9-0.1-1.4-0.1s-1,0-1.4,0.1s-0.8,0.2-1.2,0.3s-0.6,0.3-0.8,0.5
		s-0.3,0.4-0.3,0.6V746.6z"/>
	<path class="st0" d="M664.9,752.5v1h-6.5v5.6h-1.2v-5.6h-6.5v-1H664.9z M659.8,749.4c-1.1-0.6-1.8-1-2-1.4l0,0
		c-0.2,0.4-0.8,0.9-2,1.4c-0.5,0.2-1,0.5-1.6,0.8s-1.2,0.6-2,0.8l-0.5-1c0.6-0.2,1.3-0.5,1.9-0.8s1.2-0.6,1.8-0.9
		c0.4-0.2,0.7-0.4,1-0.6c0.2-0.2,0.4-0.4,0.5-0.6c0.1-0.2,0.2-0.4,0.2-0.7c0-0.2,0.1-0.5,0.1-0.8v-0.2h-4.7v-1h10.6v1h-4.7v0.2
		c0,0.3,0,0.5,0,0.8c0,0.2,0.1,0.5,0.2,0.7c0.1,0.2,0.3,0.4,0.5,0.6c0.2,0.2,0.6,0.4,1,0.6c0.5,0.3,1.1,0.6,1.8,0.8
		c0.6,0.3,1.3,0.5,1.9,0.8l-0.5,0.9c-0.6-0.2-1.3-0.5-1.9-0.8C660.9,749.9,660.3,749.6,659.8,749.4z"/>
	<path class="st0" d="M672.6,744.5v1H668v2.2h4.5v1H668v2.2c0.5,0,1,0,1.5,0c0.4,0,0.9,0,1.3,0c0.4,0,0.8,0,1.3-0.1
		c0.4,0,0.9-0.1,1.4-0.1l0.1,1c-0.5,0.1-1,0.1-1.4,0.1s-0.9,0.1-1.5,0.1c-0.5,0-1.1,0-1.7,0c-0.6,0-1.3,0-2.1,0v-7.5L672.6,744.5
		L672.6,744.5z M669.2,753.8h10.1v5.4h-1.2v-4.4h-8.9L669.2,753.8L669.2,753.8z M675.9,747.5h2.3v-3.9h1.2v9.3h-1.2v-4.3h-2.3v4.3
		h-1.2v-9.1h1.2V747.5z"/>
	<path class="st0" d="M695.6,751.7c-1.4,0.1-2.9,0.2-4.5,0.3c-1.6,0-3.2,0-4.8,0v-1h1.6v-5.4h-1.5v-1h8.5v1h-1.7v5.3
		c0.4,0,0.8,0,1.2-0.1s0.8-0.1,1.2-0.1V751.7z M689.1,750.9c1,0,2,0,2.9-0.1v-5.3h-2.9V750.9z M694.2,753.2c0.6,0,1.2,0.1,1.8,0.2
		s1.1,0.3,1.5,0.6c0.4,0.2,0.8,0.5,1,0.9s0.4,0.7,0.4,1.2v0.6c0,0.4-0.1,0.8-0.4,1.2s-0.6,0.6-1,0.9c-0.4,0.2-0.9,0.4-1.5,0.6
		c-0.6,0.1-1.2,0.2-1.8,0.2s-1.2-0.1-1.8-0.2c-0.6-0.1-1.1-0.3-1.5-0.6c-0.4-0.2-0.8-0.5-1-0.9s-0.4-0.7-0.4-1.2v-0.6
		c0-0.5,0.1-0.9,0.4-1.2s0.6-0.6,1-0.9s0.9-0.4,1.5-0.5S693.5,753.2,694.2,753.2z M694.2,758.5c0.5,0,0.9,0,1.3-0.1s0.8-0.2,1.1-0.4
		s0.6-0.4,0.8-0.6c0.2-0.2,0.3-0.5,0.3-0.8v-0.5c0-0.3-0.1-0.6-0.3-0.8s-0.5-0.4-0.8-0.6c-0.3-0.2-0.7-0.3-1.1-0.4s-0.9-0.1-1.3-0.1
		s-0.9,0-1.3,0.1s-0.8,0.2-1.1,0.4s-0.6,0.4-0.8,0.6s-0.3,0.5-0.3,0.8v0.5c0,0.3,0.1,0.6,0.3,0.8s0.5,0.4,0.8,0.6
		c0.3,0.2,0.7,0.3,1.1,0.4S693.7,758.5,694.2,758.5z M697.6,746.2v-2.7h1.2v9.3h-1.2v-3.2h-2.7v-1h2.7v-1.4h-2.7v-1L697.6,746.2
		L697.6,746.2z"/>
	<path class="st0" d="M711.8,750.2c0.2-0.7,0.3-1.3,0.3-2c0.1-0.6,0.1-1.3,0.1-1.8v-1h-9v-1.1h10.2v2.2c0,0.6,0,1.2-0.1,1.8
		s-0.2,1.3-0.3,1.9h2.6v1h-3.9v4.1h-1.2v-4.1h-3v4.1h-1.2v-4.1h-5v-1L711.8,750.2L711.8,750.2z M704.6,757.9h9.4v1.1h-10.6v-5h1.2
		L704.6,757.9L704.6,757.9z"/>
	<path class="st0" d="M728.7,746.6c-0.4-0.2-0.8-0.4-1.2-0.5s-0.9-0.2-1.4-0.2c-0.6,0-1.1,0.1-1.5,0.3s-0.7,0.6-1,1s-0.5,1-0.6,1.6
		s-0.2,1.4-0.3,2.2c0.1-0.2,0.2-0.4,0.4-0.6s0.4-0.4,0.6-0.6s0.6-0.3,0.9-0.4s0.7-0.2,1.2-0.2s1,0.1,1.5,0.3s0.9,0.4,1.2,0.7
		c0.4,0.3,0.6,0.7,0.8,1.2s0.3,1,0.3,1.6v0.4c0,0.6-0.1,1.1-0.3,1.6s-0.5,0.9-0.8,1.2s-0.8,0.6-1.3,0.8s-1,0.3-1.6,0.3
		s-1.1-0.1-1.6-0.3s-0.9-0.5-1.3-0.9s-0.7-0.9-0.9-1.6c-0.2-0.6-0.3-1.4-0.3-2.2v-0.4c0-1.3,0.1-2.4,0.3-3.3s0.5-1.7,0.9-2.2
		c0.4-0.6,0.9-1,1.4-1.3c0.6-0.3,1.2-0.4,1.9-0.4c0.6,0,1.1,0.1,1.6,0.2c0.5,0.1,1,0.4,1.5,0.6L728.7,746.6z M722.9,753.3
		c0,0.5,0.1,0.9,0.2,1.3s0.3,0.7,0.6,1s0.5,0.5,0.9,0.6s0.7,0.2,1.1,0.2c0.4,0,0.8-0.1,1.2-0.2c0.4-0.1,0.7-0.3,0.9-0.6
		c0.3-0.2,0.5-0.5,0.6-0.9s0.2-0.8,0.2-1.2v-0.3c0-0.5-0.1-0.9-0.2-1.2c-0.2-0.4-0.4-0.7-0.6-0.9c-0.3-0.2-0.6-0.4-0.9-0.6
		s-0.7-0.2-1.1-0.2c-0.4,0-0.7,0.1-1.1,0.2c-0.3,0.1-0.6,0.3-0.9,0.6c-0.3,0.2-0.5,0.5-0.6,0.9c-0.2,0.3-0.2,0.7-0.2,1.1v0.2H722.9z
		"/>
	<path class="st0" d="M735.6,751.7c-0.6,0-1.1-0.1-1.6-0.3s-0.9-0.5-1.2-0.8s-0.6-0.7-0.7-1.1c-0.2-0.4-0.3-0.8-0.3-1.2v-1
		c0-0.4,0.1-0.8,0.3-1.2s0.4-0.7,0.7-1.1c0.3-0.3,0.7-0.6,1.2-0.8s1-0.3,1.6-0.3s1.1,0.1,1.6,0.3s0.9,0.4,1.2,0.8
		c0.3,0.3,0.6,0.7,0.7,1.1c0.2,0.4,0.3,0.8,0.3,1.2h3.5v-3.9h1.2v9h-1.2v-4.1h-3.5c0,0.4-0.1,0.8-0.3,1.2s-0.4,0.7-0.7,1
		s-0.7,0.6-1.2,0.7C736.7,751.6,736.2,751.7,735.6,751.7z M735.6,745.3c-0.4,0-0.7,0.1-1.1,0.2s-0.6,0.3-0.8,0.5s-0.4,0.4-0.5,0.7
		s-0.2,0.6-0.2,0.9v0.8c0,0.3,0.1,0.6,0.2,0.9c0.1,0.3,0.3,0.5,0.5,0.7s0.5,0.4,0.8,0.5s0.7,0.2,1.1,0.2c0.4,0,0.7-0.1,1.1-0.2
		c0.3-0.1,0.6-0.3,0.8-0.5s0.4-0.4,0.5-0.7s0.2-0.6,0.2-0.9v-0.8c0-0.3-0.1-0.6-0.2-0.9s-0.3-0.5-0.5-0.7s-0.5-0.4-0.8-0.5
		S736,745.3,735.6,745.3z M734.2,753.5h9.9v5.8h-1.2v-4.7h-8.8L734.2,753.5L734.2,753.5z"/>
	<path class="st0" d="M757.2,751.4c-0.4,0-0.8,0.1-1.1,0.1c-0.4,0-0.8,0.1-1.2,0.1s-0.8,0.1-1.3,0.1s-0.9,0-1.4,0.1v2.5H751v-2.4
		c-0.6,0-1.2,0-1.9,0s-1.4,0-2.2,0v-1c1.2,0,2.3,0,3.2,0s1.8,0,2.6-0.1s1.5-0.1,2.2-0.1s1.4-0.1,2.1-0.2L757.2,751.4z M751.8,749.6
		c-0.5,0-1-0.1-1.5-0.2c-0.5-0.1-0.9-0.3-1.2-0.5s-0.6-0.5-0.8-0.8s-0.3-0.6-0.3-1v-0.6c0-0.4,0.1-0.7,0.3-1s0.5-0.6,0.8-0.8
		s0.7-0.4,1.2-0.5s0.9-0.2,1.5-0.2s1,0.1,1.5,0.2c0.5,0.1,0.8,0.3,1.2,0.5c0.3,0.2,0.6,0.5,0.8,0.8s0.3,0.6,0.3,1v0.6
		c0,0.4-0.1,0.7-0.3,1s-0.5,0.6-0.8,0.8s-0.7,0.4-1.2,0.5S752.4,749.6,751.8,749.6z M751.8,744.9c-0.4,0-0.7,0-1,0.1
		s-0.6,0.2-0.8,0.3s-0.4,0.3-0.6,0.5c-0.1,0.2-0.2,0.4-0.2,0.6v0.4c0,0.2,0.1,0.4,0.2,0.6c0.1,0.2,0.3,0.4,0.6,0.5
		c0.2,0.1,0.5,0.3,0.8,0.3s0.6,0.1,1,0.1s0.7,0,1-0.1s0.6-0.2,0.8-0.3s0.4-0.3,0.6-0.5c0.1-0.2,0.2-0.4,0.2-0.6v-0.4
		c0-0.2-0.1-0.4-0.2-0.6c-0.1-0.2-0.3-0.4-0.6-0.5s-0.5-0.3-0.8-0.3S752.2,744.9,751.8,744.9z M750.9,757.9h9.1v1.1h-10.3v-4.1h1.2
		V757.9z M758.4,753v-9.4h1.2v12.1h-1.2V754h-3.5v-1H758.4z"/>
</g>
<g class="st3">
	<path class="st0" d="M78.9,750.8c0,1.4-0.3,2.5-1,3.3s-1.6,1.2-2.8,1.2s-2.1-0.4-2.8-1.2c-0.7-0.8-1-1.9-1-3.3v-1.6
		c0-1.4,0.3-2.5,1-3.3s1.6-1.2,2.8-1.2s2.1,0.4,2.8,1.2c0.7,0.8,1,1.9,1,3.3V750.8z M77.7,749.4c0-0.6-0.1-1.2-0.2-1.6
		c-0.1-0.5-0.3-0.8-0.5-1.1s-0.5-0.5-0.8-0.6s-0.7-0.2-1.1-0.2s-0.8,0.1-1.1,0.2c-0.3,0.1-0.6,0.3-0.8,0.6c-0.2,0.3-0.4,0.7-0.5,1.1
		c-0.1,0.5-0.2,1-0.2,1.6v1.2c0,0.6,0.1,1.2,0.2,1.7s0.3,0.8,0.5,1.1s0.5,0.5,0.8,0.6s0.7,0.2,1.1,0.2s0.8-0.1,1.1-0.2
		c0.3-0.1,0.6-0.3,0.8-0.6c0.2-0.3,0.4-0.7,0.5-1.1c0.1-0.5,0.2-1,0.2-1.7V749.4z M82.8,749.4h2.6v1.1h-2.6v8.6h-1.2v-15.5h1.2
		V749.4z"/>
	<path class="st0" d="M92.7,751.3v-2h-4.4v-5.1h9.9v1h-8.7v3h8.8v1h-4.4v2h6.5v1H86.2v-1L92.7,751.3L92.7,751.3z M93.3,753.5
		c0.6,0,1.2,0.1,1.8,0.2c0.6,0.1,1.1,0.3,1.5,0.5s0.8,0.5,1.1,0.9c0.3,0.3,0.4,0.7,0.4,1.2v0.6c0,0.4-0.1,0.8-0.4,1.2
		c-0.3,0.3-0.6,0.6-1.1,0.9s-1,0.4-1.5,0.5c-0.6,0.1-1.2,0.2-1.8,0.2s-1.2-0.1-1.8-0.2c-0.6-0.1-1.1-0.3-1.5-0.5s-0.8-0.5-1.1-0.9
		c-0.3-0.3-0.4-0.7-0.4-1.2v-0.6c0-0.5,0.1-0.8,0.4-1.2c0.3-0.3,0.6-0.6,1.1-0.9c0.4-0.2,1-0.4,1.5-0.5
		C92.1,753.6,92.7,753.5,93.3,753.5z M93.3,758.5c0.5,0,0.9,0,1.3-0.1s0.8-0.2,1.2-0.3c0.3-0.1,0.6-0.3,0.8-0.6
		c0.2-0.2,0.3-0.5,0.3-0.8v-0.4c0-0.3-0.1-0.5-0.3-0.8c-0.2-0.2-0.5-0.4-0.8-0.6c-0.3-0.1-0.7-0.3-1.2-0.3c-0.4-0.1-0.9-0.1-1.3-0.1
		c-0.5,0-0.9,0-1.4,0.1c-0.4,0.1-0.8,0.2-1.2,0.3c-0.3,0.1-0.6,0.3-0.8,0.6c-0.2,0.2-0.3,0.5-0.3,0.8v0.4c0,0.3,0.1,0.5,0.3,0.8
		c0.2,0.2,0.5,0.4,0.8,0.6c0.3,0.1,0.7,0.3,1.2,0.3C92.4,758.5,92.9,758.5,93.3,758.5z"/>
	<path class="st0" d="M106.9,745.3h3.9v1h-8.9v-1h3.9v-2h1.2L106.9,745.3L106.9,745.3z M106.3,753c-0.5,0-1-0.1-1.5-0.2
		c-0.4-0.1-0.8-0.3-1.1-0.6c-0.3-0.2-0.5-0.5-0.7-0.8s-0.2-0.6-0.2-1v-0.6c0-0.4,0.1-0.7,0.2-1c0.2-0.3,0.4-0.6,0.7-0.8
		c0.3-0.2,0.7-0.4,1.1-0.6c0.4-0.1,0.9-0.2,1.5-0.2s1,0.1,1.5,0.2c0.4,0.1,0.8,0.3,1.1,0.6c0.3,0.2,0.5,0.5,0.7,0.8s0.2,0.6,0.2,1
		v0.6c0,0.4-0.1,0.7-0.2,1c-0.2,0.3-0.4,0.6-0.7,0.8c-0.3,0.2-0.7,0.4-1.1,0.6C107.3,752.9,106.8,753,106.3,753z M106.3,748.2
		c-0.4,0-0.7,0-1,0.1s-0.5,0.2-0.8,0.4c-0.2,0.2-0.4,0.3-0.5,0.5s-0.2,0.4-0.2,0.6v0.5c0,0.2,0.1,0.4,0.2,0.6s0.3,0.4,0.5,0.5
		c0.2,0.2,0.5,0.3,0.8,0.4c0.3,0.1,0.6,0.1,1,0.1s0.7,0,1-0.1s0.6-0.2,0.8-0.4c0.2-0.2,0.4-0.3,0.5-0.5s0.2-0.4,0.2-0.6v-0.5
		c0-0.2-0.1-0.4-0.2-0.6c-0.1-0.2-0.3-0.4-0.5-0.5c-0.2-0.2-0.5-0.3-0.8-0.4S106.6,748.2,106.3,748.2z M104.1,754.2h9.7v5.1h-1.2v-4
		H104L104.1,754.2L104.1,754.2z M113.9,747.8h2.4v1.1h-2.4v4.4h-1.2v-9.7h1.2V747.8z"/>
	<path class="st0" d="M123.7,745.1v1.1H119v7.7h0.7c0.5,0,0.9,0,1.3,0s0.8,0,1.2-0.1c0.4,0,0.8-0.1,1.1-0.1c0.4,0,0.8-0.1,1.1-0.2
		l0.1,1.1c-0.8,0.1-1.6,0.2-2.4,0.3s-1.6,0.1-2.4,0.1h-2v-9.8L123.7,745.1L123.7,745.1z M127,749.2h2.3v-5.6h1.2v15.5h-1.2v-8.9H127
		v8.1h-1.2v-14.5h1.2V749.2z"/>
	<path class="st0" d="M140.6,755.2c-1.1,0-2-0.4-2.5-1.2s-0.8-1.9-0.8-3.3v-1.4c0-1.5,0.3-2.6,0.8-3.3c0.5-0.8,1.4-1.2,2.5-1.2
		c0.8,0,1.5,0.2,2,0.6s0.9,1,1.1,1.8h2.4v-3.3h1.2v14.5h-1.2v-5.5h-2.4C143.3,754.4,142.2,755.2,140.6,755.2z M140.6,745.9
		c-0.8,0-1.3,0.3-1.6,0.9c-0.3,0.6-0.5,1.5-0.5,2.6v1.1c0,1.2,0.2,2,0.5,2.6s0.9,0.9,1.6,0.9c0.8,0,1.3-0.3,1.6-0.9
		c0.3-0.6,0.5-1.5,0.5-2.6v-1.1c0-1.2-0.2-2-0.5-2.6C141.9,746.2,141.4,745.9,140.6,745.9z M143.9,750.7c0,0.4,0,0.7-0.1,1h2.2v-3.5
		h-2.2c0,0.2,0,0.4,0.1,0.5c0,0.2,0,0.4,0,0.6V750.7z M150.2,759.1H149v-15.5h1.2V759.1z"/>
	<path class="st0" d="M156.8,749.1c0,0.1-0.2,0.3-0.4,0.6s-0.6,0.6-0.9,0.9c-0.3,0.3-0.7,0.6-1.1,1c-0.5,0.4-0.9,0.8-1.4,1.1
		l-0.7-0.9c0.5-0.3,0.9-0.7,1.4-1.1c0.5-0.4,0.9-0.8,1.3-1.2c0.3-0.3,0.5-0.5,0.6-0.7c0.2-0.2,0.3-0.4,0.4-0.6s0.1-0.4,0.2-0.6
		c0-0.2,0-0.5,0-0.8v-2.5h1.2v2.5c0,0.3,0,0.6,0,0.8s0.1,0.4,0.2,0.6c0.1,0.2,0.2,0.4,0.4,0.6c0.2,0.2,0.4,0.4,0.7,0.7
		c0.4,0.4,0.8,0.7,1.3,1.1s0.8,0.7,1.2,0.9l-0.7,0.8c-0.5-0.3-0.9-0.7-1.2-1c-0.4-0.3-0.7-0.6-1-0.8
		C157.4,749.8,156.9,749.4,156.8,749.1L156.8,749.1z M156.4,757.9h8.6v1.1h-9.8v-5.2h1.2V757.9z M164.5,748.1h2.4v1.1h-2.4v5.6h-1.2
		v-11.1h1.2V748.1z"/>
	<path class="st0" d="M179.4,749.6v3.9h1.8v1.1h-1.8v2.7h-1.2v-2.7h-6.1v-1.1l5.9-8.4h1.4l-5.9,8.4h4.8v-3.9H179.4z"/>
	<path class="st0" d="M186.9,757.3v-10.8l-3,1.8l-0.5-1l3.8-2.3h0.9v12.3H186.9z"/>
	<path class="st0" d="M193.3,746.7c0.1-0.2,0.3-0.5,0.5-0.7s0.5-0.4,0.8-0.6s0.6-0.3,1-0.4c0.4-0.1,0.8-0.2,1.2-0.2
		c0.6,0,1.1,0.1,1.5,0.2c0.4,0.1,0.8,0.4,1.1,0.6c0.3,0.3,0.6,0.6,0.7,1s0.3,0.8,0.3,1.2v0.2c0,0.2,0,0.5-0.1,0.8s-0.2,0.5-0.3,0.8
		c-0.2,0.2-0.4,0.5-0.6,0.7c-0.3,0.2-0.6,0.4-1,0.5c0.9,0.1,1.5,0.5,1.9,1s0.7,1.1,0.7,1.9v0.3c0,0.4-0.1,0.9-0.2,1.3
		c-0.1,0.4-0.4,0.8-0.7,1.1s-0.7,0.6-1.3,0.8c-0.5,0.2-1.2,0.3-1.9,0.3s-1.4-0.1-2.1-0.3c-0.7-0.2-1.3-0.6-1.9-1l0.6-1
		c0.6,0.4,1.2,0.7,1.7,0.9s1.1,0.3,1.6,0.3s1-0.1,1.4-0.2s0.7-0.3,0.9-0.6s0.4-0.5,0.5-0.8s0.2-0.6,0.2-0.9v-0.2
		c0-0.5-0.1-0.8-0.3-1.1s-0.4-0.5-0.7-0.7s-0.6-0.3-0.9-0.4c-0.3-0.1-0.6-0.1-0.9-0.1h-1.4v-1h1.4c0.4,0,0.7-0.1,1-0.2
		c0.3-0.1,0.5-0.3,0.7-0.6s0.3-0.5,0.4-0.8s0.1-0.5,0.1-0.8v-0.1c0-0.6-0.2-1.1-0.6-1.5c-0.4-0.4-1-0.5-1.8-0.5
		c-0.5,0-1,0.1-1.4,0.3s-0.9,0.6-1.2,1.1L193.3,746.7z"/>
	<path class="st0" d="M207,751.7c-0.6,0-1.1-0.1-1.6-0.3s-0.9-0.5-1.2-0.8s-0.6-0.7-0.7-1.1c-0.2-0.4-0.3-0.8-0.3-1.2v-1
		c0-0.4,0.1-0.8,0.3-1.2s0.4-0.7,0.7-1.1c0.3-0.3,0.7-0.6,1.2-0.8s1-0.3,1.6-0.3s1.1,0.1,1.6,0.3s0.9,0.4,1.2,0.8
		c0.3,0.3,0.6,0.7,0.7,1.1c0.2,0.4,0.3,0.8,0.3,1.2h3.5v-3.9h1.2v9h-1.2v-4.1h-3.5c0,0.4-0.1,0.8-0.3,1.2s-0.4,0.7-0.7,1
		s-0.7,0.6-1.2,0.7C208.1,751.6,207.6,751.7,207,751.7z M207,745.3c-0.4,0-0.7,0.1-1.1,0.2c-0.3,0.1-0.6,0.3-0.8,0.5
		s-0.4,0.4-0.5,0.7s-0.2,0.6-0.2,0.9v0.8c0,0.3,0.1,0.6,0.2,0.9c0.1,0.3,0.3,0.5,0.5,0.7s0.5,0.4,0.8,0.5s0.7,0.2,1.1,0.2
		c0.4,0,0.7-0.1,1.1-0.2c0.3-0.1,0.6-0.3,0.8-0.5s0.4-0.4,0.5-0.7s0.2-0.6,0.2-0.9v-0.8c0-0.3-0.1-0.6-0.2-0.9
		c-0.1-0.3-0.3-0.5-0.5-0.7s-0.5-0.4-0.8-0.5C207.7,745.3,207.4,745.3,207,745.3z M205.5,753.5h9.9v5.8h-1.2v-4.7h-8.8v-1.1H205.5z"
		/>
	<path class="st0" d="M228.6,751.4c-0.4,0-0.8,0.1-1.1,0.1c-0.4,0-0.8,0.1-1.2,0.1s-0.8,0.1-1.3,0.1c-0.4,0-0.9,0-1.4,0.1v2.5h-1.2
		v-2.4c-0.6,0-1.2,0-1.9,0s-1.4,0-2.2,0v-1c1.2,0,2.3,0,3.2,0s1.8,0,2.6-0.1s1.5-0.1,2.2-0.1s1.4-0.1,2.1-0.2L228.6,751.4z
		 M223.2,749.6c-0.5,0-1-0.1-1.5-0.2c-0.5-0.1-0.9-0.3-1.2-0.5s-0.6-0.5-0.8-0.8s-0.3-0.6-0.3-1v-0.6c0-0.4,0.1-0.7,0.3-1
		s0.5-0.6,0.8-0.8s0.7-0.4,1.2-0.5s0.9-0.2,1.5-0.2s1,0.1,1.5,0.2c0.5,0.1,0.9,0.3,1.2,0.5s0.6,0.5,0.8,0.8s0.3,0.6,0.3,1v0.6
		c0,0.4-0.1,0.7-0.3,1s-0.5,0.6-0.8,0.8s-0.7,0.4-1.2,0.5S223.7,749.6,223.2,749.6z M223.2,744.9c-0.4,0-0.7,0-1,0.1
		s-0.6,0.2-0.8,0.3s-0.4,0.3-0.6,0.5c-0.1,0.2-0.2,0.4-0.2,0.6v0.4c0,0.2,0.1,0.4,0.2,0.6c0.1,0.2,0.3,0.4,0.6,0.5s0.5,0.3,0.8,0.3
		c0.3,0.1,0.6,0.1,1,0.1s0.7,0,1-0.1s0.6-0.2,0.8-0.3s0.4-0.3,0.6-0.5c0.1-0.2,0.2-0.4,0.2-0.6v-0.4c0-0.2-0.1-0.4-0.2-0.6
		c-0.1-0.2-0.3-0.4-0.6-0.5c-0.2-0.1-0.5-0.3-0.8-0.3S223.6,744.9,223.2,744.9z M222.2,757.9h9.1v1.1H221v-4.1h1.2V757.9z
		 M229.8,753v-9.4h1.2v12.1h-1.2V754h-3.5v-1H229.8z"/>
</g>
<polygon class="st4" points="429.6,669.6 402.4,694.6 409.7,694.6 409.7,723.5 449.5,723.5 449.5,694.6 456.8,694.6 "/>
<g>
	<polyline class="st5" points="696.3,619.6 692.1,615.7 687.8,619.6 	"/>
	<line class="st6" x1="678.6" y1="628" x2="646.5" y2="657.6"/>
	<polyline class="st5" points="641.9,661.8 637.7,665.7 643.5,665.7 	"/>
	<polyline class="st5" points="646.5,665.7 652.3,665.7 652.3,671.5 	"/>
	<line class="st7" x1="652.3" y1="680.7" x2="652.3" y2="713.1"/>
	<polyline class="st5" points="652.3,717.7 652.3,723.5 658.1,723.5 	"/>
	<line class="st8" x1="671.7" y1="723.5" x2="719.3" y2="723.5"/>
	<polyline class="st5" points="726.1,723.5 731.9,723.5 731.9,717.7 	"/>
	<line class="st7" x1="731.9" y1="708.5" x2="731.9" y2="676.1"/>
	<polyline class="st5" points="731.9,671.5 731.9,665.7 737.7,665.7 	"/>
	<polyline class="st5" points="740.7,665.7 746.5,665.7 742.2,661.8 	"/>
	<line class="st6" x1="733" y1="653.3" x2="700.9" y2="623.8"/>
</g>
</svg>
