<?xml version="1.0" encoding="utf-8"?>
<!-- Generator: Adobe Illustrator 25.2.3, SVG Export Plug-In . SVG Version: 6.00 Build 0)  -->
<svg version="1.1" id="Layer_1" xmlns="http://www.w3.org/2000/svg" xmlns:xlink="http://www.w3.org/1999/xlink" x="0px" y="0px"
	 viewBox="0 0 760 760" style="enable-background:new 0 0 760 760;" xml:space="preserve">
<style type="text/css">
	.st0{fill:#BCBCBC;}
	.st1{fill:#FCCD03;}
	.st2{fill:#FFFFFF;}
	.st3{enable-background:new    ;}
	.st4{fill:#FCCC00;}
	.st5{fill:none;stroke:#BCBCBC;stroke-width:3;stroke-miterlimit:10;}
	.st6{fill:none;stroke:#BCBCBC;stroke-width:3;stroke-miterlimit:10;stroke-dasharray:12.4623,12.4623;}
	.st7{fill:none;stroke:#BCBCBC;stroke-width:3;stroke-miterlimit:10;stroke-dasharray:9.2448,9.2448;}
	.st8{fill:none;stroke:#BCBCBC;stroke-width:3;stroke-miterlimit:10;stroke-dasharray:13.6048,13.6048;}
</style>
<rect y="146.1" class="st0" width="197" height="481.8"/>
<path class="st1" d="M434,146.1v444.2h-6V349c-2.7,5.4-6.3,10.3-10.5,14.5c-10.2,10.2-24.2,16.5-39.8,16.5H266.3
	c-3.6,0-6.9,1.5-9.3,3.8c-2.4,2.4-3.8,5.7-3.8,9.3v234.8H197V378.2l0,0c0.9-30.3,25.8-54.5,56.2-54.5h111.4c3.6,0,6.9-1.5,9.3-3.8
	c2.4-2.4,3.8-5.7,3.8-9.3V146.1L434,146.1L434,146.1z"/>
<path class="st2" d="M709.4,146.1v295.6c0,7.8-6.3,14.1-14.1,14.1l-400.8-0.7c-2.2,0-4.2,0.9-5.7,2.4s-2.4,3.5-2.4,5.7V628h-33.2
	V441c0-10.6,8.6-19.1,19.1-19.1l400.9,0.7c2.2,0,4.2-0.9,5.7-2.4s2.4-3.5,2.4-5.7V146.1H709.4z"/>
<g class="st3">
	<path class="st0" d="M-843,27.3h3.7V24h1.2v7.9h-1.2v-3.5h-3.7v2.9h-7.1v-6.7h1.2V27h4.8v-2.4h1.2L-843,27.3
		C-842.9,27.3-843,27.3-843,27.3z M-848.9,30.1h4.8v-2.3h-4.8V30.1z M-838.2,32.8v3.9h-8.3v1.9h8.7v1h-9.9v-3.9h8.3v-1.9h-8.4v-1
		H-838.2z"/>
	<path class="st0" d="M-823.5,24.7v2.2c0,1.2-0.1,2.4-0.4,3.6h2.6v1h-14.3v-1h10.5c0.2-0.7,0.3-1.3,0.3-1.9c0.1-0.6,0.1-1.2,0.1-1.8
		v-1.1h-9v-1.1L-823.5,24.7L-823.5,24.7z M-833.5,33.7h10.1v5.8h-10.1V33.7z M-832.3,38.4h7.8v-3.6h-7.8V38.4z"/>
	<path class="st0" d="M-805.8,32.9v1h-6.5v5.6h-1.2V34h-6.5v-1L-805.8,32.9L-805.8,32.9z M-811,29.6c-1.1-0.6-1.8-1-2-1.4l0,0
		c-0.2,0.4-0.9,0.9-2,1.4c-0.5,0.2-1,0.5-1.6,0.8c-0.6,0.3-1.3,0.6-2,0.8l-0.5-1c0.6-0.2,1.3-0.5,1.9-0.8c0.6-0.3,1.3-0.6,1.8-0.9
		c0.3-0.2,0.6-0.3,0.8-0.5s0.4-0.3,0.6-0.6c0.1-0.2,0.2-0.4,0.3-0.7c0.1-0.3,0.1-0.6,0.1-1v-1.4h1.2v1.4c0,0.4,0,0.7,0.1,1
		c0.1,0.3,0.2,0.5,0.3,0.7c0.1,0.2,0.3,0.4,0.5,0.6c0.2,0.2,0.5,0.3,0.8,0.5c0.5,0.3,1.1,0.6,1.8,0.9s1.3,0.6,1.9,0.8l-0.5,0.9
		c-0.7-0.3-1.3-0.5-2-0.8C-810,30.1-810.5,29.8-811,29.6z"/>
	<path class="st0" d="M-802.5,24.8v5.1c0.8,0,1.6,0,2.2,0c0.6,0,1.2,0,1.8-0.1c0.6-0.1,1.1-0.1,1.6-0.1s1.1-0.1,1.8-0.2l0.1,1.1
		c-0.7,0.1-1.3,0.2-1.8,0.2s-1.1,0.1-1.8,0.1c-0.6,0-1.3,0-2.1,0.1c-0.8,0-1.8,0-2.9,0v-6.2H-802.5z M-792.4,32.8v6.7h-9.3v-6.7h1.2
		V35h7v-2.2H-792.4z M-793.6,38.4V36h-7v2.4H-793.6z M-792.4,27.4h2.4v1.1h-2.4v3.4h-1.2V24h1.2V27.4z"/>
	<path class="st0" d="M-785.6,32c-0.5,0-1-0.1-1.4-0.3c-0.4-0.2-0.8-0.4-1.1-0.7c-0.3-0.3-0.5-0.6-0.7-1c-0.2-0.4-0.2-0.8-0.2-1.2
		v-0.9c0-0.4,0.1-0.8,0.2-1.2c0.2-0.4,0.4-0.7,0.7-1s0.7-0.5,1.1-0.7c0.4-0.2,0.9-0.3,1.4-0.3s1,0.1,1.4,0.3
		c0.4,0.2,0.8,0.4,1.1,0.7c0.3,0.3,0.5,0.6,0.7,1s0.2,0.8,0.2,1.2v0.9c0,0.4-0.1,0.8-0.2,1.2c-0.2,0.4-0.4,0.7-0.7,1
		s-0.7,0.5-1.1,0.7C-784.6,31.9-785.1,32-785.6,32z M-785.6,25.7c-0.3,0-0.6,0.1-0.9,0.2c-0.3,0.1-0.5,0.3-0.7,0.5s-0.3,0.4-0.5,0.7
		c-0.1,0.3-0.2,0.6-0.2,0.9v0.6c0,0.3,0.1,0.6,0.2,0.9c0.1,0.3,0.3,0.5,0.5,0.7s0.4,0.4,0.7,0.5c0.3,0.1,0.6,0.2,0.9,0.2
		s0.6-0.1,0.9-0.2s0.5-0.3,0.7-0.5c0.2-0.2,0.3-0.4,0.5-0.7c0.1-0.3,0.2-0.6,0.2-0.9V28c0-0.3-0.1-0.6-0.2-0.9
		c-0.1-0.3-0.3-0.5-0.5-0.7c-0.2-0.2-0.4-0.4-0.7-0.5S-785.3,25.7-785.6,25.7z M-786.1,34h10.1v5.7h-1.2V35h-8.9V34z M-779.5,27.8
		h2.2V24h1.2v9h-1.2v-4.2h-2.2V33h-1.2v-8.8h1.2V27.8z"/>
	<path class="st0" d="M-764.2,31.3c0.3-0.4,0.6-0.7,0.8-1s0.4-0.5,0.5-0.8c0.1-0.2,0.2-0.4,0.2-0.6s0.1-0.3,0.1-0.5v-0.1
		c0-0.6-0.2-1.1-0.6-1.5c-0.4-0.4-1-0.5-1.7-0.5c-0.5,0-1.1,0.1-1.5,0.4c-0.5,0.3-0.9,0.7-1.3,1.5l-1-0.6c0.1-0.3,0.3-0.5,0.5-0.8
		s0.5-0.5,0.8-0.8c0.3-0.2,0.7-0.4,1.1-0.6c0.4-0.1,0.9-0.2,1.4-0.2s1,0.1,1.5,0.2c0.4,0.1,0.8,0.4,1.1,0.6c0.3,0.3,0.5,0.6,0.7,1
		s0.3,0.8,0.3,1.2v0.2c0,0.3-0.1,0.6-0.2,1c-0.1,0.4-0.3,0.6-0.5,0.9c-0.2,0.3-0.4,0.6-0.7,0.9c-0.2,0.3-0.5,0.6-0.8,0.9l-3.8,4.5
		h6.3v1.1h-7.8v-1L-764.2,31.3z"/>
	<path class="st0" d="M-758.7,34.3c0-0.7,0.2-1.3,0.6-1.8c0.4-0.5,1-0.9,1.6-1.1c-0.6-0.3-1-0.7-1.4-1.1c-0.3-0.5-0.5-1.1-0.5-1.7
		v-0.3c0-0.4,0.1-0.8,0.3-1.2c0.2-0.4,0.4-0.7,0.7-1s0.7-0.5,1.1-0.6c0.4-0.2,0.9-0.2,1.4-0.2s1,0.1,1.4,0.2
		c0.4,0.2,0.8,0.4,1.1,0.6c0.3,0.3,0.6,0.6,0.7,1c0.2,0.4,0.3,0.8,0.3,1.2v0.3c0,0.6-0.2,1.2-0.5,1.7s-0.8,0.9-1.4,1.1
		c0.3,0.1,0.6,0.2,0.9,0.4c0.3,0.2,0.5,0.4,0.7,0.7c0.2,0.3,0.4,0.5,0.5,0.8c0.1,0.3,0.2,0.6,0.2,1v0.3c0,0.5-0.1,0.9-0.3,1.3
		s-0.5,0.8-0.8,1s-0.8,0.5-1.2,0.7c-0.5,0.2-1,0.2-1.6,0.2c-0.6,0-1.1-0.1-1.6-0.2c-0.5-0.2-0.9-0.4-1.2-0.7s-0.6-0.6-0.8-1
		c-0.2-0.4-0.3-0.9-0.3-1.3v-0.3H-758.7z M-757.5,34.5c0,0.3,0.1,0.6,0.2,0.9c0.1,0.3,0.3,0.5,0.5,0.7c0.2,0.2,0.5,0.4,0.9,0.5
		c0.3,0.1,0.7,0.2,1.1,0.2c0.4,0,0.8-0.1,1.2-0.2c0.3-0.1,0.6-0.3,0.9-0.5c0.2-0.2,0.4-0.4,0.5-0.7c0.1-0.3,0.2-0.6,0.2-0.9v-0.2
		c0-0.4-0.1-0.7-0.2-1c-0.1-0.3-0.3-0.5-0.6-0.8c-0.2-0.2-0.5-0.4-0.9-0.5c-0.3-0.1-0.7-0.2-1.1-0.2c-0.4,0-0.8,0.1-1.1,0.2
		c-0.3,0.1-0.6,0.3-0.9,0.5c-0.2,0.2-0.4,0.5-0.6,0.8c-0.1,0.3-0.2,0.6-0.2,1L-757.5,34.5L-757.5,34.5z M-757.1,28.5
		c0,0.3,0.1,0.6,0.2,0.9s0.3,0.5,0.5,0.8c0.2,0.2,0.5,0.4,0.8,0.5s0.6,0.2,1,0.2c0.4,0,0.7-0.1,1-0.2s0.5-0.3,0.8-0.5
		c0.2-0.2,0.4-0.5,0.5-0.8c0.1-0.3,0.2-0.6,0.2-0.9v-0.2c0-0.6-0.2-1.1-0.7-1.5c-0.4-0.4-1-0.6-1.7-0.6c-0.7,0-1.3,0.2-1.8,0.6
		c-0.4,0.4-0.6,0.9-0.6,1.5v0.2H-757.1z"/>
	<path class="st0" d="M-745.4,37.7h-1.3l5-11.2h-6.9v-1.1h8.2v0.9L-745.4,37.7z"/>
	<path class="st0" d="M-734.5,32.1c-0.6,0-1.1-0.1-1.6-0.3c-0.5-0.2-0.9-0.5-1.2-0.8c-0.3-0.3-0.6-0.7-0.7-1.1
		c-0.2-0.4-0.3-0.8-0.3-1.2v-1c0-0.4,0.1-0.8,0.3-1.2c0.2-0.4,0.4-0.7,0.7-1.1c0.3-0.3,0.7-0.6,1.2-0.8c0.5-0.2,1-0.3,1.6-0.3
		c0.6,0,1.1,0.1,1.6,0.3s0.9,0.4,1.2,0.8c0.3,0.3,0.6,0.7,0.7,1.1c0.2,0.4,0.3,0.8,0.3,1.2h3.5V24h1.2v9h-1.2v-4.1h-3.5
		c0,0.4-0.1,0.8-0.3,1.2c-0.2,0.4-0.4,0.7-0.7,1c-0.3,0.3-0.7,0.6-1.2,0.7C-733.4,32-733.9,32.1-734.5,32.1z M-734.5,25.7
		c-0.4,0-0.7,0.1-1.1,0.2c-0.3,0.1-0.6,0.3-0.8,0.5s-0.4,0.4-0.5,0.7c-0.1,0.3-0.2,0.6-0.2,0.9v0.8c0,0.3,0.1,0.6,0.2,0.9
		s0.3,0.5,0.5,0.7s0.5,0.4,0.8,0.5s0.7,0.2,1.1,0.2c0.4,0,0.7-0.1,1.1-0.2c0.3-0.1,0.6-0.3,0.8-0.5s0.4-0.4,0.5-0.7
		c0.1-0.3,0.2-0.6,0.2-0.9V28c0-0.3-0.1-0.6-0.2-0.9c-0.1-0.3-0.3-0.5-0.5-0.7s-0.5-0.4-0.8-0.5C-733.8,25.7-734.1,25.7-734.5,25.7z
		 M-735.9,33.9h9.9v5.8h-1.2V35h-8.8L-735.9,33.9L-735.9,33.9z"/>
	<path class="st0" d="M-722.6,27.1c0.1-0.2,0.3-0.5,0.5-0.7s0.5-0.4,0.8-0.6c0.3-0.2,0.6-0.3,1-0.4c0.4-0.1,0.8-0.2,1.2-0.2
		c0.6,0,1.1,0.1,1.5,0.2c0.4,0.1,0.8,0.4,1.1,0.6c0.3,0.3,0.6,0.6,0.7,1c0.1,0.4,0.3,0.8,0.3,1.2v0.2c0,0.2,0,0.5-0.1,0.8
		c-0.1,0.3-0.2,0.5-0.3,0.8c-0.2,0.2-0.4,0.5-0.6,0.7c-0.3,0.2-0.6,0.4-1,0.5c0.9,0.1,1.5,0.5,1.9,1c0.4,0.5,0.7,1.1,0.7,1.9v0.3
		c0,0.4-0.1,0.9-0.2,1.3c-0.1,0.4-0.4,0.8-0.7,1.1s-0.7,0.6-1.3,0.8c-0.5,0.2-1.2,0.3-1.9,0.3c-0.7,0-1.4-0.1-2.1-0.3
		s-1.3-0.6-1.9-1l0.6-1c0.6,0.4,1.2,0.7,1.7,0.9s1.1,0.3,1.6,0.3s1-0.1,1.4-0.2c0.4-0.1,0.7-0.3,0.9-0.6s0.4-0.5,0.5-0.8
		c0.1-0.3,0.2-0.6,0.2-0.9v-0.2c0-0.5-0.1-0.8-0.3-1.1c-0.2-0.3-0.4-0.5-0.7-0.7s-0.6-0.3-0.9-0.4s-0.6-0.1-0.9-0.1h-1.4v-1h1.4
		c0.4,0,0.7-0.1,1-0.2s0.5-0.3,0.7-0.6c0.2-0.3,0.3-0.5,0.4-0.8s0.1-0.5,0.1-0.8v-0.1c0-0.6-0.2-1.1-0.6-1.5c-0.4-0.4-1-0.5-1.8-0.5
		c-0.5,0-1,0.1-1.4,0.3c-0.4,0.2-0.9,0.6-1.2,1.1L-722.6,27.1z"/>
	<path class="st0" d="M-708.2,30.1c0,0.1-0.2,0.3-0.4,0.6c-0.2,0.3-0.5,0.5-0.9,0.9c-0.1,0.1-0.3,0.3-0.5,0.5
		c-0.2,0.2-0.4,0.3-0.7,0.5c-0.2,0.2-0.5,0.4-0.7,0.5c-0.2,0.2-0.4,0.3-0.6,0.5l-0.7-0.8c0.5-0.4,1-0.7,1.5-1.1s1-0.8,1.4-1.2
		c0.4-0.4,0.7-0.8,0.8-1.1c0.1-0.3,0.2-0.7,0.2-1.2V27h-3.6v-1h3.6v-2h1.2v2h3.4v1h-3.4v1c0,0.2,0,0.5,0,0.6c0,0.2,0.1,0.4,0.2,0.6
		c0.1,0.2,0.2,0.4,0.4,0.5c0.2,0.2,0.4,0.4,0.7,0.6c0.3,0.2,0.6,0.5,1.1,0.8c0.4,0.3,0.9,0.7,1.4,1l-0.7,0.8
		c-0.3-0.2-0.7-0.5-1.1-0.8c-0.4-0.3-0.7-0.5-0.9-0.7c-0.4-0.3-0.7-0.6-1-0.9C-707.9,30.4-708.1,30.2-708.2,30.1L-708.2,30.1z
		 M-708.6,38.3h8.7v1.1h-9.9v-4.9h1.2V38.3z M-701.5,28.6V24h1.2v11.1h-1.2v-5.5h-3.2v-1.1h3.2V28.6z"/>
	<path class="st0" d="M-690.1,27c-0.4-0.2-0.8-0.4-1.2-0.5c-0.4-0.1-0.9-0.2-1.4-0.2c-0.6,0-1.1,0.1-1.5,0.3c-0.4,0.2-0.7,0.6-1,1
		s-0.5,1-0.6,1.6c-0.1,0.6-0.2,1.4-0.3,2.2c0.1-0.2,0.2-0.4,0.4-0.6c0.2-0.2,0.4-0.4,0.6-0.6c0.3-0.2,0.6-0.3,0.9-0.4
		s0.7-0.2,1.2-0.2s1,0.1,1.5,0.3s0.9,0.4,1.2,0.7s0.6,0.7,0.8,1.2c0.2,0.5,0.3,1,0.3,1.6v0.4c0,0.6-0.1,1.1-0.3,1.6
		c-0.2,0.5-0.5,0.9-0.8,1.2c-0.4,0.3-0.8,0.6-1.3,0.8s-1,0.3-1.6,0.3c-0.6,0-1.1-0.1-1.6-0.3s-0.9-0.5-1.3-0.9
		c-0.4-0.4-0.7-0.9-0.9-1.6s-0.3-1.4-0.3-2.2v-0.4c0-1.3,0.1-2.4,0.3-3.3s0.5-1.7,0.9-2.2c0.4-0.6,0.9-1,1.4-1.3
		c0.6-0.3,1.2-0.4,1.9-0.4c0.6,0,1.1,0.1,1.6,0.2s1,0.4,1.5,0.6L-690.1,27z M-695.9,33.7c0,0.5,0.1,0.9,0.2,1.3
		c0.1,0.4,0.3,0.7,0.6,1c0.2,0.3,0.5,0.5,0.9,0.6c0.4,0.1,0.7,0.2,1.1,0.2c0.4,0,0.8-0.1,1.2-0.2c0.4-0.1,0.7-0.3,0.9-0.6
		c0.3-0.2,0.5-0.5,0.6-0.9c0.1-0.4,0.2-0.8,0.2-1.2v-0.3c0-0.5-0.1-0.9-0.2-1.2c-0.2-0.4-0.4-0.7-0.6-0.9c-0.3-0.2-0.6-0.4-0.9-0.6
		s-0.7-0.2-1.1-0.2c-0.4,0-0.7,0.1-1.1,0.2c-0.3,0.1-0.6,0.3-0.9,0.6c-0.3,0.2-0.5,0.5-0.6,0.9c-0.2,0.3-0.2,0.7-0.2,1.1
		L-695.9,33.7L-695.9,33.7z"/>
	<path class="st0" d="M-680.9,24.8V32h-6v-7.1h1.2v2.5h3.7v-2.5h1.1V24.8z M-682.1,30.9v-2.5h-3.7v2.5H-682.1z M-684.4,34h10.1v5.6
		h-1.2V35h-8.9V34z M-677.8,27.8h2.3V24h1.2v9.1h-1.2v-4.2h-2.3V33h-1.2v-8.8h1.2V27.8z"/>
	<path class="st0" d="M-661.6,31.8c-0.4,0-0.8,0.1-1.1,0.1c-0.4,0-0.8,0.1-1.2,0.1c-0.4,0-0.8,0.1-1.3,0.1c-0.4,0-0.9,0-1.4,0.1v2.5
		h-1.2v-2.4c-0.6,0-1.2,0-1.9,0s-1.4,0-2.2,0v-1c1.2,0,2.3,0,3.2,0c0.9,0,1.8,0,2.6-0.1c0.8-0.1,1.5-0.1,2.2-0.1s1.4-0.1,2.1-0.2
		L-661.6,31.8z M-666.9,30c-0.5,0-1-0.1-1.5-0.2s-0.9-0.3-1.2-0.5c-0.3-0.2-0.6-0.5-0.8-0.8s-0.3-0.6-0.3-1v-0.6
		c0-0.4,0.1-0.7,0.3-1s0.5-0.6,0.8-0.8c0.3-0.2,0.7-0.4,1.2-0.5s0.9-0.2,1.5-0.2c0.6,0,1,0.1,1.5,0.2s0.9,0.3,1.2,0.5
		s0.6,0.5,0.8,0.8s0.3,0.6,0.3,1v0.6c0,0.4-0.1,0.7-0.3,1s-0.5,0.6-0.8,0.8c-0.3,0.2-0.7,0.4-1.2,0.5S-666.4,30-666.9,30z
		 M-666.9,25.3c-0.4,0-0.7,0-1,0.1s-0.6,0.2-0.8,0.3s-0.4,0.3-0.6,0.5c-0.1,0.2-0.2,0.4-0.2,0.6v0.4c0,0.2,0.1,0.4,0.2,0.6
		c0.1,0.2,0.3,0.4,0.6,0.5s0.5,0.3,0.8,0.3c0.3,0.1,0.6,0.1,1,0.1c0.4,0,0.7,0,1-0.1s0.6-0.2,0.8-0.3c0.2-0.1,0.4-0.3,0.6-0.5
		c0.1-0.2,0.2-0.4,0.2-0.6v-0.4c0-0.2-0.1-0.4-0.2-0.6c-0.1-0.2-0.3-0.4-0.6-0.5c-0.2-0.1-0.5-0.3-0.8-0.3S-666.6,25.3-666.9,25.3z
		 M-667.9,38.3h9.1v1.1h-10.3v-4.1h1.2V38.3z M-660.4,33.4V24h1.2v12.1h-1.2v-1.6h-3.5v-1.1H-660.4z"/>
</g>
<g class="st3">
	<path class="st1" d="M-534.6,32v-1.8h-4.4v-5.8h1.2v2h7.7v-2h1.2v5.8h-4.4V32h6.5v1h-14.3v-1H-534.6z M-539.3,34.8h10.4v4.9h-1.2
		v-3.8h-9.2L-539.3,34.8L-539.3,34.8z M-537.8,29.2h7.7v-1.8h-7.7V29.2z"/>
	<path class="st1" d="M-515.1,30.7c-0.7,0.1-1.5,0.2-2.3,0.2c-0.8,0.1-1.7,0.1-2.7,0.1v3h-1.2v-3c-0.6,0-1.2,0-1.9,0
		c-0.7,0-1.4,0-2.1,0v-1c1.5,0,2.8,0,3.9,0c1.1,0,2.1,0,3-0.1c0.1-0.6,0.2-1.1,0.2-1.6c0.1-0.5,0.1-1,0.1-1.5v-1h-6v-1.1h7.2v1.9
		c0,0.5,0,1.1-0.1,1.6c-0.1,0.5-0.1,1-0.2,1.6c0.4,0,0.7,0,1-0.1c0.3,0,0.6-0.1,1-0.1L-515.1,30.7z M-521.5,38.3h9.1v1.1h-10.3V35
		h1.2V38.3L-521.5,38.3z M-514,32.3V24h1.2v12h-1.2v-2.7h-3.5v-1.1L-514,32.3L-514,32.3z"/>
	<path class="st1" d="M-509.4,35c1.3-0.7,2.3-1.4,3.1-1.9c0.8-0.5,1.4-1,1.8-1.5s0.7-0.9,0.8-1.4c0.1-0.5,0.2-1,0.2-1.7v-2h-5.6
		v-1.1h6.8v3.1c0,0.5,0,1-0.1,1.4s-0.2,0.8-0.3,1.2s-0.4,0.7-0.7,1.1c-0.3,0.4-0.7,0.7-1.1,1.1c-0.5,0.4-1,0.8-1.7,1.2
		s-1.5,0.9-2.4,1.5L-509.4,35z M-497.4,39.5h-1.2V24h1.2V39.5z"/>
	<path class="st1" d="M-482.6,24.7v2.2c0,1.2-0.1,2.4-0.4,3.6h2.6v1h-14.3v-1h10.5c0.2-0.7,0.3-1.3,0.3-1.9c0.1-0.6,0.1-1.2,0.1-1.8
		v-1.1h-9v-1.1L-482.6,24.7L-482.6,24.7z M-492.6,33.7h10.1v5.8h-10.1V33.7z M-491.5,38.4h7.8v-3.6h-7.8V38.4z"/>
	<path class="st1" d="M-474.4,34.3c0-0.7,0.2-1.3,0.6-1.8s1-0.9,1.6-1.1c-0.6-0.3-1-0.7-1.4-1.1c-0.3-0.5-0.5-1.1-0.5-1.7v-0.3
		c0-0.4,0.1-0.8,0.3-1.2c0.2-0.4,0.4-0.7,0.7-1c0.3-0.3,0.7-0.5,1.1-0.6c0.4-0.2,0.9-0.2,1.4-0.2s1,0.1,1.4,0.2
		c0.4,0.2,0.8,0.4,1.1,0.6c0.3,0.3,0.6,0.6,0.7,1c0.2,0.4,0.3,0.8,0.3,1.2v0.3c0,0.6-0.2,1.2-0.5,1.7s-0.8,0.9-1.4,1.1
		c0.3,0.1,0.6,0.2,0.9,0.4c0.3,0.2,0.5,0.4,0.7,0.7s0.4,0.5,0.5,0.8s0.2,0.6,0.2,1v0.3c0,0.5-0.1,0.9-0.3,1.3s-0.5,0.8-0.8,1
		s-0.8,0.5-1.2,0.7c-0.5,0.2-1,0.2-1.6,0.2s-1.1-0.1-1.6-0.2c-0.5-0.2-0.9-0.4-1.2-0.7s-0.6-0.6-0.8-1s-0.3-0.9-0.3-1.3L-474.4,34.3
		L-474.4,34.3z M-473.2,34.5c0,0.3,0.1,0.6,0.2,0.9c0.1,0.3,0.3,0.5,0.5,0.7s0.5,0.4,0.9,0.5c0.3,0.1,0.7,0.2,1.1,0.2
		s0.8-0.1,1.2-0.2c0.3-0.1,0.6-0.3,0.9-0.5c0.2-0.2,0.4-0.4,0.5-0.7s0.2-0.6,0.2-0.9v-0.2c0-0.4-0.1-0.7-0.2-1s-0.3-0.5-0.6-0.8
		c-0.2-0.2-0.5-0.4-0.9-0.5c-0.3-0.1-0.7-0.2-1.1-0.2s-0.8,0.1-1.1,0.2c-0.3,0.1-0.6,0.3-0.9,0.5c-0.2,0.2-0.4,0.5-0.6,0.8
		c-0.1,0.3-0.2,0.6-0.2,1v0.2H-473.2z M-472.9,28.5c0,0.3,0.1,0.6,0.2,0.9s0.3,0.5,0.5,0.8c0.2,0.2,0.5,0.4,0.8,0.5s0.6,0.2,1,0.2
		s0.7-0.1,1-0.2s0.5-0.3,0.8-0.5c0.2-0.2,0.4-0.5,0.5-0.8s0.2-0.6,0.2-0.9v-0.2c0-0.6-0.2-1.1-0.7-1.5c-0.4-0.4-1-0.6-1.7-0.6
		s-1.3,0.2-1.8,0.6c-0.4,0.4-0.6,0.9-0.6,1.5v0.2H-472.9z"/>
	<path class="st1" d="M-457.2,27c-0.4-0.2-0.8-0.4-1.2-0.5c-0.4-0.1-0.9-0.2-1.4-0.2c-0.6,0-1.1,0.1-1.5,0.3c-0.4,0.2-0.7,0.6-1,1
		s-0.5,1-0.6,1.6s-0.2,1.4-0.3,2.2c0.1-0.2,0.2-0.4,0.4-0.6s0.4-0.4,0.6-0.6c0.3-0.2,0.6-0.3,0.9-0.4s0.7-0.2,1.2-0.2s1,0.1,1.5,0.3
		c0.5,0.2,0.9,0.4,1.2,0.7c0.4,0.3,0.6,0.7,0.8,1.2c0.2,0.5,0.3,1,0.3,1.6v0.4c0,0.6-0.1,1.1-0.3,1.6s-0.5,0.9-0.8,1.2
		c-0.4,0.3-0.8,0.6-1.3,0.8s-1,0.3-1.6,0.3s-1.1-0.1-1.6-0.3s-0.9-0.5-1.3-0.9s-0.7-0.9-0.9-1.6s-0.3-1.4-0.3-2.2v-0.4
		c0-1.3,0.1-2.4,0.3-3.3c0.2-0.9,0.5-1.7,0.9-2.2c0.4-0.6,0.9-1,1.4-1.3c0.6-0.3,1.2-0.4,1.9-0.4c0.6,0,1.1,0.1,1.6,0.2
		s1,0.4,1.5,0.6L-457.2,27z M-463,33.7c0,0.5,0.1,0.9,0.2,1.3c0.1,0.4,0.3,0.7,0.6,1c0.2,0.3,0.5,0.5,0.9,0.6s0.7,0.2,1.1,0.2
		s0.8-0.1,1.2-0.2c0.4-0.1,0.7-0.3,0.9-0.6c0.3-0.2,0.5-0.5,0.6-0.9s0.2-0.8,0.2-1.2v-0.3c0-0.5-0.1-0.9-0.2-1.2
		c-0.2-0.4-0.4-0.7-0.6-0.9c-0.3-0.2-0.6-0.4-0.9-0.6s-0.7-0.2-1.1-0.2s-0.7,0.1-1.1,0.2c-0.3,0.1-0.6,0.3-0.9,0.6
		c-0.3,0.2-0.5,0.5-0.6,0.9c-0.2,0.3-0.2,0.7-0.2,1.1v0.2C-462.9,33.7-463,33.7-463,33.7z"/>
	<path class="st1" d="M-450.3,32.1c-0.6,0-1.1-0.1-1.6-0.3c-0.5-0.2-0.9-0.5-1.2-0.8s-0.6-0.7-0.7-1.1c-0.2-0.4-0.3-0.8-0.3-1.2v-1
		c0-0.4,0.1-0.8,0.3-1.2c0.2-0.4,0.4-0.7,0.7-1.1s0.7-0.6,1.2-0.8c0.5-0.2,1-0.3,1.6-0.3s1.1,0.1,1.6,0.3c0.5,0.2,0.9,0.4,1.2,0.8
		c0.3,0.3,0.6,0.7,0.7,1.1c0.2,0.4,0.3,0.8,0.3,1.2h3.5V24h1.2v9h-1.2v-4.1h-3.5c0,0.4-0.1,0.8-0.3,1.2c-0.2,0.4-0.4,0.7-0.7,1
		c-0.3,0.3-0.7,0.6-1.2,0.7C-449.1,32-449.7,32.1-450.3,32.1z M-450.3,25.7c-0.4,0-0.7,0.1-1.1,0.2c-0.3,0.1-0.6,0.3-0.8,0.5
		c-0.2,0.2-0.4,0.4-0.5,0.7c-0.1,0.3-0.2,0.6-0.2,0.9v0.8c0,0.3,0.1,0.6,0.2,0.9s0.3,0.5,0.5,0.7s0.5,0.4,0.8,0.5s0.7,0.2,1.1,0.2
		s0.7-0.1,1.1-0.2c0.3-0.1,0.6-0.3,0.8-0.5c0.2-0.2,0.4-0.4,0.5-0.7c0.1-0.3,0.2-0.6,0.2-0.9V28c0-0.3-0.1-0.6-0.2-0.9
		s-0.3-0.5-0.5-0.7s-0.5-0.4-0.8-0.5C-449.5,25.7-449.9,25.7-450.3,25.7z M-451.7,33.9h9.9v5.8h-1.2V35h-8.8v-1.1H-451.7z"/>
	<path class="st1" d="M-431.6,34c0-1-0.2-1.7-0.7-2.2c-0.5-0.4-1.2-0.7-2-0.7c-0.5,0-1,0.1-1.4,0.3c-0.4,0.2-0.7,0.4-1,0.7h-1.1
		l0.4-6.7h6.3v1.1h-5.4l-0.2,4.5c0.3-0.3,0.6-0.5,1.1-0.6c0.5-0.2,1-0.2,1.5-0.2c0.6,0,1.1,0.1,1.6,0.3s0.8,0.5,1.1,0.8
		c0.3,0.3,0.5,0.7,0.7,1.2s0.2,1,0.2,1.5v0.3c0,0.4-0.1,0.9-0.2,1.3s-0.4,0.8-0.7,1.2c-0.3,0.3-0.8,0.6-1.3,0.9
		c-0.5,0.2-1.2,0.3-1.9,0.3c-0.8,0-1.6-0.1-2.2-0.4c-0.6-0.2-1.2-0.6-1.8-1l0.6-1c0.6,0.5,1.2,0.8,1.7,1s1.1,0.3,1.7,0.3
		c0.5,0,1-0.1,1.4-0.2c0.4-0.2,0.7-0.4,0.9-0.6c0.2-0.2,0.4-0.5,0.5-0.8s0.2-0.6,0.2-0.9L-431.6,34L-431.6,34z"/>
	<path class="st1" d="M-423.9,30.1c0,0.1-0.2,0.3-0.4,0.6c-0.2,0.3-0.5,0.5-0.9,0.9c-0.1,0.1-0.3,0.3-0.5,0.5
		c-0.2,0.2-0.4,0.3-0.7,0.5s-0.5,0.4-0.7,0.5c-0.2,0.2-0.4,0.3-0.6,0.5l-0.7-0.8c0.5-0.4,1-0.7,1.5-1.1s1-0.8,1.4-1.2
		c0.4-0.4,0.7-0.8,0.8-1.1c0.1-0.3,0.2-0.7,0.2-1.2V27h-3.6v-1h3.6v-2h1.2v2h3.4v1h-3.4v1c0,0.2,0,0.5,0,0.6c0,0.2,0.1,0.4,0.2,0.6
		s0.2,0.4,0.4,0.5c0.2,0.2,0.4,0.4,0.7,0.6c0.3,0.2,0.6,0.5,1.1,0.8c0.4,0.3,0.9,0.7,1.4,1l-0.7,0.8c-0.3-0.2-0.7-0.5-1.1-0.8
		s-0.7-0.5-0.9-0.7c-0.4-0.3-0.7-0.6-1-0.9C-423.7,30.4-423.8,30.2-423.9,30.1L-423.9,30.1z M-424.3,38.3h8.7v1.1h-9.9v-4.9h1.2
		V38.3z M-417.2,28.6V24h1.2v11.1h-1.2v-5.5h-3.2v-1.1h3.2V28.6z"/>
	<path class="st1" d="M-406,34c0-1-0.2-1.7-0.7-2.2c-0.5-0.4-1.2-0.7-2-0.7c-0.5,0-1,0.1-1.4,0.3c-0.4,0.2-0.7,0.4-1,0.7h-1.1
		l0.4-6.7h6.3v1.1h-5.3L-411,31c0.3-0.3,0.6-0.5,1.1-0.6c0.5-0.2,1-0.2,1.5-0.2c0.6,0,1.1,0.1,1.6,0.3s0.8,0.5,1.1,0.8
		c0.3,0.3,0.5,0.7,0.7,1.2s0.2,1,0.2,1.5v0.3c0,0.4-0.1,0.9-0.2,1.3s-0.4,0.8-0.7,1.2c-0.3,0.3-0.8,0.6-1.3,0.9
		c-0.5,0.2-1.2,0.3-1.9,0.3c-0.8,0-1.6-0.1-2.2-0.4c-0.6-0.2-1.2-0.6-1.8-1l0.6-1c0.6,0.5,1.2,0.8,1.7,1s1.1,0.3,1.7,0.3
		c0.5,0,1-0.1,1.4-0.2c0.4-0.2,0.7-0.4,0.9-0.6c0.2-0.2,0.4-0.5,0.5-0.8s0.2-0.6,0.2-0.9V34H-406z"/>
	<path class="st1" d="M-396.6,24.8V32h-6v-7.1h1.2v2.5h3.7v-2.5h1.1L-396.6,24.8L-396.6,24.8z M-397.8,30.9v-2.5h-3.7v2.5H-397.8z
		 M-400.2,34h10.1v5.6h-1.2V35h-8.9V34z M-393.5,27.8h2.3V24h1.2v9.1h-1.2v-4.2h-2.3V33h-1.2v-8.8h1.2V27.8z"/>
	<path class="st1" d="M-380.1,32.3h-6.9V25h6.9V32.3z M-381.2,26h-4.6v5.2h4.6V26z M-383.7,38.3h8.6v1.1h-9.8v-5.1h1.2L-383.7,38.3
		L-383.7,38.3z M-375.6,28.5h2.4v1.1h-2.4v5.5h-1.2V24h1.2V28.5z"/>
	<path class="st1" d="M-361.8,31.8c-0.4,0-0.8,0.1-1.1,0.1c-0.4,0-0.8,0.1-1.2,0.1s-0.8,0.1-1.3,0.1s-0.9,0-1.4,0.1v2.5h-1.2v-2.4
		c-0.6,0-1.2,0-1.9,0s-1.4,0-2.2,0v-1c1.2,0,2.3,0,3.2,0c0.9,0,1.8,0,2.6-0.1s1.5-0.1,2.2-0.1s1.4-0.1,2.1-0.2L-361.8,31.8z
		 M-367.2,30c-0.5,0-1-0.1-1.5-0.2s-0.9-0.3-1.2-0.5c-0.3-0.2-0.6-0.5-0.8-0.8c-0.2-0.3-0.3-0.6-0.3-1v-0.6c0-0.4,0.1-0.7,0.3-1
		c0.2-0.3,0.5-0.6,0.8-0.8c0.3-0.2,0.7-0.4,1.2-0.5s0.9-0.2,1.5-0.2s1,0.1,1.5,0.2s0.8,0.3,1.2,0.5c0.3,0.2,0.6,0.5,0.8,0.8
		c0.2,0.3,0.3,0.6,0.3,1v0.6c0,0.4-0.1,0.7-0.3,1c-0.2,0.3-0.5,0.6-0.8,0.8c-0.3,0.2-0.7,0.4-1.2,0.5S-366.7,30-367.2,30z
		 M-367.2,25.3c-0.4,0-0.7,0-1,0.1s-0.6,0.2-0.8,0.3c-0.2,0.1-0.4,0.3-0.6,0.5c-0.1,0.2-0.2,0.4-0.2,0.6v0.4c0,0.2,0.1,0.4,0.2,0.6
		s0.3,0.4,0.6,0.5c0.2,0.1,0.5,0.3,0.8,0.3s0.6,0.1,1,0.1s0.7,0,1-0.1s0.6-0.2,0.8-0.3s0.4-0.3,0.6-0.5c0.1-0.2,0.2-0.4,0.2-0.6
		v-0.4c0-0.2-0.1-0.4-0.2-0.6s-0.3-0.4-0.6-0.5s-0.5-0.3-0.8-0.3S-366.8,25.3-367.2,25.3z M-368.2,38.3h9.1v1.1h-10.3v-4.1h1.2
		L-368.2,38.3L-368.2,38.3z M-360.6,33.4V24h1.2v12.1h-1.2v-1.6h-3.5v-1.1H-360.6z"/>
</g>
<g class="st3">
	<path class="st2" d="M-213.3,25.2V33h-4.4v3.4h6.5v1h-14.3v-1h6.5V33h-4.4v-7.8h1.2V28h7.7v-2.8H-213.3z M-214.5,31.9V29h-7.7v2.9
		H-214.5z"/>
	<path class="st2" d="M-209.4,32.6c0.9-0.4,1.7-0.8,2.3-1.1c0.6-0.3,1.2-0.6,1.6-0.9c0.4-0.3,0.8-0.5,1-0.8c0.3-0.2,0.5-0.5,0.6-0.8
		s0.2-0.5,0.3-0.8c0-0.3,0.1-0.6,0.1-1V26h-5.4v-1h6.5v2.3c0,0.4,0,0.7-0.1,1h4V24h1.2v11.1h-1.2v-5.8h-4.3c-0.1,0.4-0.4,0.7-0.6,1
		c-0.3,0.3-0.7,0.6-1.2,1c-0.5,0.3-1.1,0.7-1.8,1c-0.7,0.4-1.6,0.8-2.6,1.2L-209.4,32.6z M-205.5,38.3h8.7v1.1h-9.9v-5.1h1.2V38.3z"
		/>
	<path class="st2" d="M-188,32v-1.8h-4.4v-5.8h1.2v2h7.7v-2h1.2v5.8h-4.4V32h6.5v1h-14.3v-1H-188z M-192.7,34.8h10.4v4.9h-1.2v-3.8
		h-9.2V34.8z M-191.3,29.2h7.7v-1.8h-7.7V29.2z"/>
	<path class="st2" d="M-169.8,26.5h-3.5V29c0,0.3,0,0.6,0,0.8c0,0.2,0.1,0.5,0.1,0.7c0.1,0.2,0.2,0.4,0.3,0.6s0.3,0.4,0.5,0.7
		c0.3,0.4,0.7,0.8,1.2,1.3s1.1,1,1.7,1.6l-0.8,0.8c-0.6-0.5-1.1-1-1.5-1.5c-0.4-0.4-0.8-0.8-1.1-1.2c-0.2-0.3-0.5-0.5-0.7-0.7
		s-0.3-0.4-0.4-0.5l0,0c0,0.1-0.1,0.2-0.2,0.3c-0.1,0.1-0.2,0.3-0.3,0.4s-0.2,0.3-0.4,0.5c-0.1,0.2-0.3,0.3-0.4,0.4
		c-0.1,0.1-0.3,0.3-0.5,0.5s-0.4,0.4-0.6,0.6s-0.5,0.5-0.7,0.7c-0.3,0.3-0.5,0.5-0.8,0.7l-0.8-0.8c0.5-0.5,1.1-0.9,1.5-1.4
		c0.5-0.5,0.9-0.9,1.3-1.4c0.3-0.3,0.5-0.6,0.6-0.8c0.2-0.2,0.3-0.5,0.4-0.7s0.1-0.5,0.2-0.7c0-0.2,0-0.5,0-0.9v-2.6h-3.6v-1.1h8.3
		v1.2C-170,26.5-169.8,26.5-169.8,26.5z M-166.1,39.5h-1.2V24h1.2V39.5z"/>
	<path class="st2" d="M-149.3,33.3v1h-6.5v5.2h-1.2v-5.2h-6.5v-1H-149.3z M-151.4,24.6v6.7h-10.1v-6.7h1.2v2.3h7.7v-2.3
		C-152.6,24.6-151.4,24.6-151.4,24.6z M-152.6,30.3V28h-7.7v2.3H-152.6z"/>
	<path class="st2" d="M-136.5,30v3.9h1.8V35h-1.8v2.7h-1.2V35h-6.1v-1.1l5.9-8.4h1.4l-5.9,8.4h4.8V30H-136.5z"/>
	<path class="st2" d="M-128.4,31.3c0.3-0.4,0.6-0.7,0.8-1s0.4-0.5,0.5-0.8c0.1-0.2,0.2-0.4,0.2-0.6s0.1-0.3,0.1-0.5v-0.1
		c0-0.6-0.2-1.1-0.6-1.5c-0.4-0.4-1-0.5-1.7-0.5c-0.5,0-1.1,0.1-1.5,0.4c-0.5,0.3-0.9,0.7-1.3,1.5l-1-0.6c0.1-0.3,0.3-0.5,0.5-0.8
		s0.5-0.5,0.8-0.8s0.7-0.4,1.1-0.6c0.4-0.1,0.9-0.2,1.4-0.2s1,0.1,1.5,0.2c0.4,0.1,0.8,0.4,1.1,0.6c0.3,0.3,0.5,0.6,0.7,1
		s0.3,0.8,0.3,1.2v0.2c0,0.3-0.1,0.6-0.2,1s-0.3,0.6-0.5,0.9s-0.4,0.6-0.7,0.9c-0.2,0.3-0.5,0.6-0.8,0.9l-3.8,4.5h6.3v1.1h-7.8v-1
		L-128.4,31.3z"/>
	<path class="st2" d="M-119.2,32.1c-0.6,0-1.1-0.1-1.6-0.3c-0.5-0.2-0.9-0.5-1.2-0.8s-0.6-0.7-0.7-1.1c-0.2-0.4-0.3-0.8-0.3-1.2v-1
		c0-0.4,0.1-0.8,0.3-1.2c0.2-0.4,0.4-0.7,0.7-1.1c0.3-0.3,0.7-0.6,1.2-0.8c0.5-0.2,1-0.3,1.6-0.3s1.1,0.1,1.6,0.3
		c0.5,0.2,0.9,0.4,1.2,0.8c0.3,0.3,0.6,0.7,0.7,1.1c0.2,0.4,0.3,0.8,0.3,1.2h3.5V24h1.2v9h-1.2v-4.1h-3.5c0,0.4-0.1,0.8-0.3,1.2
		c-0.2,0.4-0.4,0.7-0.7,1s-0.7,0.6-1.2,0.7C-118,32-118.6,32.1-119.2,32.1z M-119.2,25.7c-0.4,0-0.7,0.1-1.1,0.2s-0.6,0.3-0.8,0.5
		s-0.4,0.4-0.5,0.7c-0.1,0.3-0.2,0.6-0.2,0.9v0.8c0,0.3,0.1,0.6,0.2,0.9c0.1,0.3,0.3,0.5,0.5,0.7s0.5,0.4,0.8,0.5s0.7,0.2,1.1,0.2
		c0.4,0,0.7-0.1,1.1-0.2c0.3-0.1,0.6-0.3,0.8-0.5s0.4-0.4,0.5-0.7s0.2-0.6,0.2-0.9V28c0-0.3-0.1-0.6-0.2-0.9s-0.3-0.5-0.5-0.7
		s-0.5-0.4-0.8-0.5S-118.8,25.7-119.2,25.7z M-120.6,33.9h9.9v5.8h-1.2V35h-8.8L-120.6,33.9L-120.6,33.9z"/>
	<path class="st2" d="M-97.5,31.8c-0.4,0-0.8,0.1-1.1,0.1s-0.8,0.1-1.2,0.1s-0.8,0.1-1.3,0.1c-0.4,0-0.9,0-1.4,0.1v2.5h-1.2v-2.4
		c-0.6,0-1.2,0-1.9,0s-1.4,0-2.2,0v-1c1.2,0,2.3,0,3.2,0s1.8,0,2.6-0.1s1.5-0.1,2.2-0.1s1.4-0.1,2.1-0.2L-97.5,31.8z M-102.9,30
		c-0.5,0-1-0.1-1.5-0.2s-0.8-0.3-1.2-0.5c-0.3-0.2-0.6-0.5-0.8-0.8s-0.3-0.6-0.3-1v-0.6c0-0.4,0.1-0.7,0.3-1s0.5-0.6,0.8-0.8
		c0.3-0.2,0.7-0.4,1.2-0.5s0.9-0.2,1.5-0.2s1,0.1,1.5,0.2s0.9,0.3,1.2,0.5s0.6,0.5,0.8,0.8s0.3,0.6,0.3,1v0.6c0,0.4-0.1,0.7-0.3,1
		s-0.5,0.6-0.8,0.8c-0.3,0.2-0.7,0.4-1.2,0.5S-102.4,30-102.9,30z M-102.9,25.3c-0.4,0-0.7,0-1,0.1s-0.6,0.2-0.8,0.3
		c-0.2,0.1-0.4,0.3-0.6,0.5s-0.2,0.4-0.2,0.6v0.4c0,0.2,0.1,0.4,0.2,0.6s0.3,0.4,0.6,0.5c0.2,0.1,0.5,0.3,0.8,0.3
		c0.3,0.1,0.6,0.1,1,0.1s0.7,0,1-0.1s0.6-0.2,0.8-0.3c0.2-0.1,0.4-0.3,0.6-0.5s0.2-0.4,0.2-0.6v-0.4c0-0.2-0.1-0.4-0.2-0.6
		s-0.3-0.4-0.6-0.5c-0.2-0.1-0.5-0.3-0.8-0.3S-102.6,25.3-102.9,25.3z M-103.9,38.3h9.1v1.1h-10.3v-4.1h1.2V38.3z M-96.3,33.4V24
		h1.2v12.1h-1.2v-1.6h-3.5v-1.1H-96.3z"/>
</g>
<g class="st3">
	<path class="st4" d="M-508.8,750.9c-0.7,0.1-1.5,0.1-2.3,0.2c-0.8,0.1-1.6,0.1-2.6,0.1v2.2h-1.2v-2.1c-0.6,0-1.2,0-1.9,0
		c-0.7,0-1.4,0-2.3,0v-1c1.2,0,2.3,0,3.2,0c0.9,0,1.8,0,2.6-0.1c0.8,0,1.5-0.1,2.2-0.1c0.7-0.1,1.4-0.1,2.1-0.2L-508.8,750.9z
		 M-514.2,746.8c-0.1,0.1-0.2,0.3-0.4,0.4c-0.2,0.2-0.5,0.4-0.9,0.6c-0.4,0.3-0.8,0.5-1.2,0.8c-0.4,0.2-0.9,0.5-1.3,0.7l-0.6-0.9
		c0.5-0.3,1-0.5,1.5-0.8s0.9-0.6,1.3-0.8c0.2-0.2,0.4-0.3,0.5-0.5c0.1-0.1,0.2-0.3,0.3-0.5s0.1-0.3,0.1-0.5s0-0.4,0-0.7v-0.9h1.2
		v0.9c0,0.3,0,0.5,0,0.7s0.1,0.4,0.2,0.5c0.1,0.2,0.2,0.3,0.4,0.4c0.2,0.1,0.4,0.3,0.6,0.5c0.4,0.2,0.8,0.5,1.2,0.7
		c0.4,0.2,0.8,0.5,1.2,0.7l-0.6,0.9c-0.1-0.1-0.3-0.2-0.5-0.2c-0.2-0.1-0.4-0.2-0.6-0.3s-0.4-0.2-0.6-0.4c-0.2-0.1-0.4-0.2-0.6-0.3
		c-0.4-0.3-0.8-0.5-1-0.6C-513.9,747.1-514.1,747-514.2,746.8L-514.2,746.8z M-516.4,754.2h9.9v4.9h-9.9V754.2z M-515.2,758h7.6
		v-2.7h-7.6V758z M-506.5,753.3h-1.2v-9.7h1.2V753.3z"/>
	<path class="st4" d="M-495.7,744.8v1.1h-5.9v3.4h5.3v1.1h-5.3v3.6h2.2c0.8,0,1.6,0,2.5-0.1s1.8-0.1,2.7-0.3l0.1,1.1
		c-0.9,0.1-1.9,0.2-2.8,0.3c-1,0.1-1.9,0.1-2.8,0.1h-3.1v-10.3L-495.7,744.8L-495.7,744.8z M-492.1,749.3v-5.7h1.2v15.5h-1.2v-8.7
		h-3.1v-1.1H-492.1z"/>
	<path class="st4" d="M-469.9,752.5v1h-6.5v5.6h-1.2v-5.6h-6.5v-1H-469.9z M-475,749.4c-1.1-0.6-1.8-1-2-1.4l0,0
		c-0.2,0.4-0.8,0.9-2,1.4c-0.5,0.2-1,0.5-1.6,0.8s-1.2,0.6-2,0.8l-0.5-1c0.6-0.2,1.3-0.5,1.9-0.8s1.2-0.6,1.8-0.9
		c0.4-0.2,0.7-0.4,1-0.6c0.2-0.2,0.4-0.4,0.5-0.6c0.1-0.2,0.2-0.4,0.2-0.7c0-0.2,0.1-0.5,0.1-0.8v-0.2h-4.7v-1h10.6v1h-4.7v0.2
		c0,0.3,0,0.5,0,0.8c0,0.2,0.1,0.5,0.2,0.7s0.3,0.4,0.5,0.6c0.2,0.2,0.6,0.4,1,0.6c0.5,0.3,1.1,0.6,1.8,0.8c0.6,0.3,1.3,0.5,1.9,0.8
		l-0.5,0.9c-0.6-0.2-1.3-0.5-1.9-0.8C-474,749.9-474.5,749.6-475,749.4z"/>
	<path class="st4" d="M-462.2,744.5v1h-4.6v2.2h4.5v1h-4.5v2.2c0.5,0,1,0,1.5,0c0.4,0,0.9,0,1.3,0s0.8,0,1.3-0.1
		c0.4,0,0.9-0.1,1.4-0.1l0.1,1c-0.5,0.1-1,0.1-1.4,0.1s-0.9,0.1-1.5,0.1c-0.5,0-1.1,0-1.7,0s-1.3,0-2.1,0v-7.5L-462.2,744.5
		L-462.2,744.5z M-465.6,753.8h10.1v5.4h-1.2v-4.4h-8.9V753.8z M-458.9,747.5h2.3v-3.9h1.2v9.3h-1.2v-4.3h-2.3v4.3h-1.2v-9.1h1.2
		V747.5z"/>
	<path class="st4" d="M-445.2,755.2c-1.1,0-2-0.4-2.5-1.2s-0.8-1.9-0.8-3.3v-1.4c0-1.5,0.3-2.6,0.8-3.3c0.5-0.8,1.4-1.2,2.5-1.2
		c0.8,0,1.5,0.2,2,0.6c0.5,0.4,0.9,1,1.1,1.8h2.4v-3.3h1.2v14.5h-1.2v-5.5h-2.4C-442.5,754.4-443.6,755.2-445.2,755.2z
		 M-445.2,745.9c-0.8,0-1.3,0.3-1.6,0.9s-0.5,1.5-0.5,2.6v1.1c0,1.2,0.2,2,0.5,2.6s0.9,0.9,1.6,0.9c0.8,0,1.3-0.3,1.6-0.9
		c0.3-0.6,0.5-1.5,0.5-2.6v-1.1c0-1.2-0.2-2-0.5-2.6S-444.4,745.9-445.2,745.9z M-441.8,750.7c0,0.4,0,0.7-0.1,1h2.2v-3.5h-2.2
		c0,0.2,0,0.4,0.1,0.5c0,0.2,0,0.4,0,0.6V750.7z M-435.6,759.1h-1.2v-15.5h1.2V759.1z"/>
	<path class="st4" d="M-429,749.1c0,0.1-0.2,0.3-0.4,0.6c-0.2,0.3-0.6,0.6-0.9,0.9c-0.3,0.3-0.7,0.6-1.1,1c-0.5,0.4-0.9,0.8-1.4,1.1
		l-0.7-0.9c0.5-0.3,0.9-0.7,1.4-1.1c0.5-0.4,0.9-0.8,1.3-1.2c0.3-0.3,0.5-0.5,0.6-0.7s0.3-0.4,0.4-0.6s0.1-0.4,0.2-0.6
		c0-0.2,0-0.5,0-0.8v-2.5h1.2v2.5c0,0.3,0,0.6,0,0.8s0.1,0.4,0.2,0.6c0.1,0.2,0.2,0.4,0.4,0.6s0.4,0.4,0.7,0.7
		c0.4,0.4,0.8,0.7,1.3,1.1s0.8,0.7,1.2,0.9l-0.7,0.8c-0.5-0.3-0.9-0.7-1.2-1c-0.4-0.3-0.7-0.6-1-0.8
		C-428.4,749.8-428.9,749.4-429,749.1L-429,749.1z M-429.4,757.9h8.6v1.1h-9.8v-5.2h1.2L-429.4,757.9L-429.4,757.9z M-421.3,748.1
		h2.4v1.1h-2.4v5.6h-1.2v-11.1h1.2V748.1z"/>
	<path class="st4" d="M-412.9,746.7c0.1-0.2,0.3-0.5,0.5-0.7s0.5-0.4,0.8-0.6s0.6-0.3,1-0.4c0.4-0.1,0.8-0.2,1.2-0.2
		c0.6,0,1.1,0.1,1.5,0.2c0.4,0.1,0.8,0.4,1.1,0.6c0.3,0.3,0.6,0.6,0.7,1s0.3,0.8,0.3,1.2v0.2c0,0.2,0,0.5-0.1,0.8s-0.2,0.5-0.3,0.8
		c-0.2,0.2-0.4,0.5-0.6,0.7c-0.3,0.2-0.6,0.4-1,0.5c0.8,0.1,1.5,0.5,1.9,1s0.7,1.1,0.7,1.9v0.3c0,0.4-0.1,0.9-0.2,1.3
		c-0.1,0.4-0.4,0.8-0.7,1.1s-0.7,0.6-1.3,0.8c-0.5,0.2-1.2,0.3-1.9,0.3c-0.7,0-1.4-0.1-2.1-0.3s-1.3-0.6-1.9-1l0.6-1
		c0.6,0.4,1.2,0.7,1.7,0.9s1.1,0.3,1.6,0.3s1-0.1,1.4-0.2s0.7-0.3,0.9-0.6s0.4-0.5,0.5-0.8s0.2-0.6,0.2-0.9v-0.2
		c0-0.5-0.1-0.8-0.3-1.1c-0.2-0.3-0.4-0.5-0.7-0.7c-0.3-0.2-0.6-0.3-0.9-0.4c-0.3-0.1-0.6-0.1-0.9-0.1h-1.4v-1h1.4
		c0.4,0,0.7-0.1,1-0.2c0.3-0.1,0.5-0.3,0.7-0.6c0.2-0.2,0.3-0.5,0.4-0.8s0.1-0.5,0.1-0.8v-0.1c0-0.6-0.2-1.1-0.6-1.5s-1-0.5-1.8-0.5
		c-0.5,0-1,0.1-1.4,0.3s-0.9,0.6-1.2,1.1L-412.9,746.7z"/>
	<path class="st4" d="M-399.2,751.7c-0.6,0-1.1-0.1-1.6-0.3s-0.9-0.5-1.2-0.8c-0.3-0.3-0.6-0.7-0.7-1.1c-0.2-0.4-0.3-0.8-0.3-1.2v-1
		c0-0.4,0.1-0.8,0.3-1.2c0.2-0.4,0.4-0.7,0.7-1.1c0.3-0.3,0.7-0.6,1.2-0.8s1-0.3,1.6-0.3s1.1,0.1,1.6,0.3s0.9,0.4,1.2,0.8
		c0.3,0.3,0.6,0.7,0.7,1.1c0.2,0.4,0.3,0.8,0.3,1.2h3.5v-3.9h1.2v9h-1.2v-4.1h-3.5c0,0.4-0.1,0.8-0.3,1.2c-0.2,0.4-0.4,0.7-0.7,1
		s-0.7,0.6-1.2,0.7C-398.1,751.6-398.6,751.7-399.2,751.7z M-399.2,745.3c-0.4,0-0.7,0.1-1.1,0.2s-0.6,0.3-0.8,0.5
		c-0.2,0.2-0.4,0.4-0.5,0.7s-0.2,0.6-0.2,0.9v0.8c0,0.3,0.1,0.6,0.2,0.9c0.1,0.3,0.3,0.5,0.5,0.7s0.5,0.4,0.8,0.5s0.7,0.2,1.1,0.2
		s0.7-0.1,1.1-0.2c0.3-0.1,0.6-0.3,0.8-0.5s0.4-0.4,0.5-0.7s0.2-0.6,0.2-0.9v-0.8c0-0.3-0.1-0.6-0.2-0.9s-0.3-0.5-0.5-0.7
		s-0.5-0.4-0.8-0.5S-398.8,745.3-399.2,745.3z M-400.7,753.5h9.9v5.8h-1.2v-4.7h-8.8L-400.7,753.5L-400.7,753.5z"/>
	<path class="st4" d="M-377.6,751.4c-0.4,0-0.8,0.1-1.1,0.1c-0.4,0-0.8,0.1-1.2,0.1s-0.8,0.1-1.3,0.1s-0.9,0-1.4,0.1v2.5h-1.2v-2.4
		c-0.6,0-1.2,0-1.9,0s-1.4,0-2.2,0v-1c1.2,0,2.3,0,3.2,0c0.9,0,1.8,0,2.6-0.1s1.5-0.1,2.2-0.1s1.4-0.1,2.1-0.2L-377.6,751.4z
		 M-383,749.6c-0.5,0-1-0.1-1.5-0.2c-0.5-0.1-0.9-0.3-1.2-0.5c-0.3-0.2-0.6-0.5-0.8-0.8c-0.2-0.3-0.3-0.6-0.3-1v-0.6
		c0-0.4,0.1-0.7,0.3-1c0.2-0.3,0.5-0.6,0.8-0.8s0.7-0.4,1.2-0.5s0.9-0.2,1.5-0.2s1,0.1,1.5,0.2c0.5,0.1,0.8,0.3,1.2,0.5
		c0.3,0.2,0.6,0.5,0.8,0.8c0.2,0.3,0.3,0.6,0.3,1v0.6c0,0.4-0.1,0.7-0.3,1c-0.2,0.3-0.5,0.6-0.8,0.8s-0.7,0.4-1.2,0.5
		S-382.5,749.6-383,749.6z M-383,744.9c-0.4,0-0.7,0-1,0.1s-0.6,0.2-0.8,0.3c-0.2,0.1-0.4,0.3-0.6,0.5c-0.1,0.2-0.2,0.4-0.2,0.6v0.4
		c0,0.2,0.1,0.4,0.2,0.6c0.1,0.2,0.3,0.4,0.6,0.5c0.2,0.1,0.5,0.3,0.8,0.3s0.6,0.1,1,0.1s0.7,0,1-0.1s0.6-0.2,0.8-0.3
		s0.4-0.3,0.6-0.5c0.1-0.2,0.2-0.4,0.2-0.6v-0.4c0-0.2-0.1-0.4-0.2-0.6c-0.1-0.2-0.3-0.4-0.6-0.5s-0.5-0.3-0.8-0.3
		S-382.6,744.9-383,744.9z M-383.9,757.9h9.1v1.1h-10.3v-4.1h1.2L-383.9,757.9L-383.9,757.9z M-376.4,753v-9.4h1.2v12.1h-1.2V754
		h-3.5v-1H-376.4z"/>
</g>
<g class="st3">
	<path class="st0" d="M-257.7,751.6c0.3-0.3,0.5-0.6,0.6-0.8c0.2-0.2,0.3-0.5,0.4-0.7s0.2-0.5,0.2-0.8s0-0.6,0-0.9v-3.7h1.2v3.6
		c0,0.3,0,0.6,0,0.9c0,0.2,0.1,0.5,0.1,0.7c0.1,0.2,0.2,0.4,0.3,0.7c0.1,0.2,0.3,0.5,0.5,0.7c0.3,0.4,0.8,0.8,1.2,1.3s1.1,1,1.7,1.6
		l-0.5,0.8c-0.5-0.5-1-1-1.5-1.5s-0.9-0.9-1.2-1.2s-0.5-0.5-0.7-0.8c-0.2-0.2-0.3-0.4-0.4-0.5l0,0c0,0.1-0.1,0.1-0.1,0.3
		s-0.2,0.3-0.3,0.4s-0.2,0.3-0.4,0.5c-0.1,0.2-0.3,0.3-0.4,0.5c-0.1,0.2-0.3,0.3-0.5,0.6c-0.2,0.2-0.4,0.4-0.7,0.7
		c-0.2,0.2-0.5,0.5-0.7,0.7c-0.3,0.2-0.5,0.5-0.8,0.7l-0.8-0.8c0.6-0.5,1.1-1,1.6-1.4C-258.5,752.5-258.1,752.1-257.7,751.6z
		 M-247.7,759.1h-1.2v-9.5h-3.7v-1.1h3.7v-4.9h1.2V759.1z"/>
	<path class="st0" d="M-230.8,750.3v1h-6.5v1.7h4.4v3.6h-8.9v1.6h9.3v1H-243v-3.6h8.9V754h-8.9v-1h4.5v-1.7h-6.5v-1H-230.8z
		 M-233.1,746.7c0,0.4-0.1,0.7-0.4,1c-0.2,0.3-0.6,0.6-1,0.8s-1,0.4-1.5,0.5s-1.2,0.2-1.9,0.2s-1.3-0.1-1.9-0.2s-1.1-0.3-1.5-0.5
		s-0.8-0.5-1-0.8s-0.4-0.7-0.4-1v-0.5c0-0.4,0.1-0.7,0.4-1c0.2-0.3,0.6-0.6,1-0.8s1-0.4,1.5-0.5s1.2-0.2,1.9-0.2s1.3,0.1,1.9,0.2
		s1.1,0.3,1.5,0.5s0.8,0.5,1,0.8s0.4,0.7,0.4,1V746.7z M-241.6,746.6c0,0.2,0.1,0.4,0.3,0.6c0.2,0.2,0.5,0.4,0.8,0.5
		s0.7,0.3,1.2,0.3c0.4,0.1,0.9,0.1,1.4,0.1s1,0,1.4-0.1s0.8-0.2,1.2-0.3c0.3-0.1,0.6-0.3,0.8-0.5s0.3-0.4,0.3-0.6v-0.3
		c0-0.2-0.1-0.4-0.3-0.6c-0.2-0.2-0.5-0.4-0.8-0.5s-0.7-0.3-1.2-0.3c-0.4-0.1-0.9-0.1-1.4-0.1s-1,0-1.4,0.1s-0.8,0.2-1.2,0.3
		s-0.6,0.3-0.8,0.5s-0.3,0.4-0.3,0.6V746.6z"/>
	<path class="st0" d="M-211.1,752.5v1h-6.5v5.6h-1.2v-5.6h-6.5v-1H-211.1z M-216.2,749.4c-1.1-0.6-1.8-1-2-1.4l0,0
		c-0.2,0.4-0.8,0.9-2,1.4c-0.5,0.2-1,0.5-1.6,0.8s-1.2,0.6-2,0.8l-0.5-1c0.6-0.2,1.3-0.5,1.9-0.8s1.2-0.6,1.8-0.9
		c0.4-0.2,0.7-0.4,1-0.6c0.2-0.2,0.4-0.4,0.5-0.6c0.1-0.2,0.2-0.4,0.2-0.7c0-0.2,0.1-0.5,0.1-0.8v-0.2h-4.7v-1h10.6v1h-4.7v0.2
		c0,0.3,0,0.5,0,0.8c0,0.2,0.1,0.5,0.2,0.7c0.1,0.2,0.3,0.4,0.5,0.6c0.2,0.2,0.6,0.4,1,0.6c0.5,0.3,1.1,0.6,1.8,0.8
		c0.6,0.3,1.3,0.5,1.9,0.8l-0.5,0.9c-0.6-0.2-1.3-0.5-1.9-0.8C-215.1,749.9-215.7,749.6-216.2,749.4z"/>
	<path class="st0" d="M-203.4,744.5v1h-4.6v2.2h4.5v1h-4.5v2.2c0.5,0,1,0,1.5,0c0.4,0,0.9,0,1.3,0c0.4,0,0.8,0,1.3-0.1
		c0.4,0,0.9-0.1,1.4-0.1l0.1,1c-0.5,0.1-1,0.1-1.4,0.1s-0.9,0.1-1.5,0.1c-0.5,0-1.1,0-1.7,0c-0.6,0-1.3,0-2.1,0v-7.5L-203.4,744.5
		L-203.4,744.5z M-206.8,753.8h10.1v5.4h-1.2v-4.4h-8.9L-206.8,753.8L-206.8,753.8z M-200.1,747.5h2.3v-3.9h1.2v9.3h-1.2v-4.3h-2.3
		v4.3h-1.2v-9.1h1.2V747.5z"/>
	<path class="st0" d="M-180.4,751.7c-1.4,0.1-2.9,0.2-4.5,0.3c-1.6,0-3.2,0-4.8,0v-1h1.6v-5.4h-1.5v-1h8.5v1h-1.7v5.3
		c0.4,0,0.8,0,1.2-0.1s0.8-0.1,1.2-0.1V751.7z M-186.9,750.9c1,0,2,0,2.9-0.1v-5.3h-2.9V750.9z M-181.8,753.2c0.6,0,1.2,0.1,1.8,0.2
		s1.1,0.3,1.5,0.6c0.4,0.2,0.8,0.5,1,0.9s0.4,0.7,0.4,1.2v0.6c0,0.4-0.1,0.8-0.4,1.2s-0.6,0.6-1,0.9c-0.4,0.2-0.9,0.4-1.5,0.6
		c-0.6,0.1-1.2,0.2-1.8,0.2s-1.2-0.1-1.8-0.2c-0.6-0.1-1.1-0.3-1.5-0.6c-0.4-0.2-0.8-0.5-1-0.9s-0.4-0.7-0.4-1.2v-0.6
		c0-0.5,0.1-0.9,0.4-1.2s0.6-0.6,1-0.9s0.9-0.4,1.5-0.5S-182.5,753.2-181.8,753.2z M-181.8,758.5c0.5,0,0.9,0,1.3-0.1
		s0.8-0.2,1.1-0.4s0.6-0.4,0.8-0.6c0.2-0.2,0.3-0.5,0.3-0.8v-0.5c0-0.3-0.1-0.6-0.3-0.8s-0.5-0.4-0.8-0.6c-0.3-0.2-0.7-0.3-1.1-0.4
		s-0.9-0.1-1.3-0.1s-0.9,0-1.3,0.1s-0.8,0.2-1.1,0.4s-0.6,0.4-0.8,0.6s-0.3,0.5-0.3,0.8v0.5c0,0.3,0.1,0.6,0.3,0.8s0.5,0.4,0.8,0.6
		c0.3,0.2,0.7,0.3,1.1,0.4S-182.3,758.5-181.8,758.5z M-178.4,746.2v-2.7h1.2v9.3h-1.2v-3.2h-2.7v-1h2.7v-1.4h-2.7v-1L-178.4,746.2
		L-178.4,746.2z"/>
	<path class="st0" d="M-164.2,750.2c0.2-0.7,0.3-1.3,0.3-2c0.1-0.6,0.1-1.3,0.1-1.8v-1h-9v-1.1h10.2v2.2c0,0.6,0,1.2-0.1,1.8
		s-0.2,1.3-0.3,1.9h2.6v1h-3.9v4.1h-1.2v-4.1h-3v4.1h-1.2v-4.1h-5v-1L-164.2,750.2L-164.2,750.2z M-171.4,757.9h9.4v1.1h-10.6v-5
		h1.2L-171.4,757.9L-171.4,757.9z"/>
	<path class="st0" d="M-147.3,746.6c-0.4-0.2-0.8-0.4-1.2-0.5s-0.9-0.2-1.4-0.2c-0.6,0-1.1,0.1-1.5,0.3s-0.7,0.6-1,1s-0.5,1-0.6,1.6
		s-0.2,1.4-0.3,2.2c0.1-0.2,0.2-0.4,0.4-0.6s0.4-0.4,0.6-0.6s0.6-0.3,0.9-0.4s0.7-0.2,1.2-0.2s1,0.1,1.5,0.3s0.9,0.4,1.2,0.7
		c0.4,0.3,0.6,0.7,0.8,1.2s0.3,1,0.3,1.6v0.4c0,0.6-0.1,1.1-0.3,1.6s-0.5,0.9-0.8,1.2s-0.8,0.6-1.3,0.8s-1,0.3-1.6,0.3
		s-1.1-0.1-1.6-0.3s-0.9-0.5-1.3-0.9s-0.7-0.9-0.9-1.6c-0.2-0.6-0.3-1.4-0.3-2.2v-0.4c0-1.3,0.1-2.4,0.3-3.3s0.5-1.7,0.9-2.2
		c0.4-0.6,0.9-1,1.4-1.3c0.6-0.3,1.2-0.4,1.9-0.4c0.6,0,1.1,0.1,1.6,0.2c0.5,0.1,1,0.4,1.5,0.6L-147.3,746.6z M-153.1,753.3
		c0,0.5,0.1,0.9,0.2,1.3s0.3,0.7,0.6,1s0.5,0.5,0.9,0.6s0.7,0.2,1.1,0.2c0.4,0,0.8-0.1,1.2-0.2c0.4-0.1,0.7-0.3,0.9-0.6
		c0.3-0.2,0.5-0.5,0.6-0.9s0.2-0.8,0.2-1.2v-0.3c0-0.5-0.1-0.9-0.2-1.2c-0.2-0.4-0.4-0.7-0.6-0.9c-0.3-0.2-0.6-0.4-0.9-0.6
		s-0.7-0.2-1.1-0.2c-0.4,0-0.7,0.1-1.1,0.2c-0.3,0.1-0.6,0.3-0.9,0.6c-0.3,0.2-0.5,0.5-0.6,0.9c-0.2,0.3-0.2,0.7-0.2,1.1v0.2
		L-153.1,753.3L-153.1,753.3z"/>
	<path class="st0" d="M-140.4,751.7c-0.6,0-1.1-0.1-1.6-0.3s-0.9-0.5-1.2-0.8s-0.6-0.7-0.7-1.1c-0.2-0.4-0.3-0.8-0.3-1.2v-1
		c0-0.4,0.1-0.8,0.3-1.2s0.4-0.7,0.7-1.1c0.3-0.3,0.7-0.6,1.2-0.8s1-0.3,1.6-0.3s1.1,0.1,1.6,0.3s0.9,0.4,1.2,0.8
		c0.3,0.3,0.6,0.7,0.7,1.1c0.2,0.4,0.3,0.8,0.3,1.2h3.5v-3.9h1.2v9h-1.2v-4.1h-3.5c0,0.4-0.1,0.8-0.3,1.2s-0.4,0.7-0.7,1
		s-0.7,0.6-1.2,0.7C-139.3,751.6-139.8,751.7-140.4,751.7z M-140.4,745.3c-0.4,0-0.7,0.1-1.1,0.2s-0.6,0.3-0.8,0.5s-0.4,0.4-0.5,0.7
		s-0.2,0.6-0.2,0.9v0.8c0,0.3,0.1,0.6,0.2,0.9c0.1,0.3,0.3,0.5,0.5,0.7s0.5,0.4,0.8,0.5s0.7,0.2,1.1,0.2c0.4,0,0.7-0.1,1.1-0.2
		c0.3-0.1,0.6-0.3,0.8-0.5s0.4-0.4,0.5-0.7s0.2-0.6,0.2-0.9v-0.8c0-0.3-0.1-0.6-0.2-0.9s-0.3-0.5-0.5-0.7s-0.5-0.4-0.8-0.5
		S-140,745.3-140.4,745.3z M-141.8,753.5h9.9v5.8h-1.2v-4.7h-8.8L-141.8,753.5L-141.8,753.5z"/>
	<path class="st0" d="M-118.8,751.4c-0.4,0-0.8,0.1-1.1,0.1c-0.4,0-0.8,0.1-1.2,0.1s-0.8,0.1-1.3,0.1s-0.9,0-1.4,0.1v2.5h-1.2v-2.4
		c-0.6,0-1.2,0-1.9,0s-1.4,0-2.2,0v-1c1.2,0,2.3,0,3.2,0s1.8,0,2.6-0.1s1.5-0.1,2.2-0.1s1.4-0.1,2.1-0.2L-118.8,751.4z
		 M-124.2,749.6c-0.5,0-1-0.1-1.5-0.2c-0.5-0.1-0.9-0.3-1.2-0.5s-0.6-0.5-0.8-0.8s-0.3-0.6-0.3-1v-0.6c0-0.4,0.1-0.7,0.3-1
		s0.5-0.6,0.8-0.8s0.7-0.4,1.2-0.5s0.9-0.2,1.5-0.2s1,0.1,1.5,0.2c0.5,0.1,0.8,0.3,1.2,0.5c0.3,0.2,0.6,0.5,0.8,0.8s0.3,0.6,0.3,1
		v0.6c0,0.4-0.1,0.7-0.3,1s-0.5,0.6-0.8,0.8s-0.7,0.4-1.2,0.5S-123.6,749.6-124.2,749.6z M-124.2,744.9c-0.4,0-0.7,0-1,0.1
		s-0.6,0.2-0.8,0.3s-0.4,0.3-0.6,0.5c-0.1,0.2-0.2,0.4-0.2,0.6v0.4c0,0.2,0.1,0.4,0.2,0.6c0.1,0.2,0.3,0.4,0.6,0.5
		c0.2,0.1,0.5,0.3,0.8,0.3s0.6,0.1,1,0.1s0.7,0,1-0.1s0.6-0.2,0.8-0.3s0.4-0.3,0.6-0.5c0.1-0.2,0.2-0.4,0.2-0.6v-0.4
		c0-0.2-0.1-0.4-0.2-0.6c-0.1-0.2-0.3-0.4-0.6-0.5s-0.5-0.3-0.8-0.3S-123.8,744.9-124.2,744.9z M-125.1,757.9h9.1v1.1h-10.3v-4.1
		h1.2V757.9z M-117.6,753v-9.4h1.2v12.1h-1.2V754h-3.5v-1H-117.6z"/>
</g>
<g class="st3">
	<path class="st0" d="M-797.1,750.8c0,1.4-0.3,2.5-1,3.3c-0.7,0.8-1.6,1.2-2.8,1.2s-2.1-0.4-2.8-1.2s-1-1.9-1-3.3v-1.6
		c0-1.4,0.3-2.5,1-3.3s1.6-1.2,2.8-1.2s2.1,0.4,2.8,1.2c0.7,0.8,1,1.9,1,3.3V750.8z M-798.3,749.4c0-0.6-0.1-1.2-0.2-1.6
		c-0.1-0.5-0.3-0.8-0.5-1.1s-0.5-0.5-0.8-0.6c-0.3-0.1-0.7-0.2-1.1-0.2c-0.4,0-0.8,0.1-1.1,0.2c-0.3,0.1-0.6,0.3-0.8,0.6
		c-0.2,0.3-0.4,0.7-0.5,1.1c-0.1,0.5-0.2,1-0.2,1.6v1.2c0,0.6,0.1,1.2,0.2,1.7c0.1,0.5,0.3,0.8,0.5,1.1c0.2,0.3,0.5,0.5,0.8,0.6
		s0.7,0.2,1.1,0.2c0.4,0,0.8-0.1,1.1-0.2c0.3-0.1,0.6-0.3,0.8-0.6s0.4-0.7,0.5-1.1c0.1-0.5,0.2-1,0.2-1.7V749.4z M-793.2,749.4h2.6
		v1.1h-2.6v8.6h-1.2v-15.5h1.2V749.4z"/>
	<path class="st0" d="M-783.3,751.3v-2h-4.4v-5.1h9.9v1h-8.7v3h8.8v1h-4.4v2h6.5v1h-14.2v-1L-783.3,751.3L-783.3,751.3z
		 M-782.7,753.5c0.6,0,1.2,0.1,1.8,0.2c0.6,0.1,1.1,0.3,1.5,0.5c0.4,0.2,0.8,0.5,1.1,0.9c0.3,0.3,0.4,0.7,0.4,1.2v0.6
		c0,0.4-0.1,0.8-0.4,1.2c-0.3,0.3-0.6,0.6-1.1,0.9s-1,0.4-1.5,0.5c-0.6,0.1-1.2,0.2-1.8,0.2c-0.6,0-1.2-0.1-1.8-0.2
		c-0.6-0.1-1.1-0.3-1.5-0.5c-0.4-0.2-0.8-0.5-1.1-0.9c-0.3-0.3-0.4-0.7-0.4-1.2v-0.6c0-0.5,0.1-0.8,0.4-1.2c0.3-0.3,0.6-0.6,1.1-0.9
		c0.4-0.2,1-0.4,1.5-0.5C-783.9,753.6-783.3,753.5-782.7,753.5z M-782.7,758.5c0.5,0,0.9,0,1.3-0.1c0.4-0.1,0.8-0.2,1.2-0.3
		c0.3-0.1,0.6-0.3,0.8-0.6c0.2-0.2,0.3-0.5,0.3-0.8v-0.4c0-0.3-0.1-0.5-0.3-0.8c-0.2-0.2-0.5-0.4-0.8-0.6c-0.3-0.1-0.7-0.3-1.2-0.3
		c-0.4-0.1-0.9-0.1-1.3-0.1c-0.5,0-0.9,0-1.4,0.1c-0.4,0.1-0.8,0.2-1.2,0.3c-0.3,0.1-0.6,0.3-0.8,0.6c-0.2,0.2-0.3,0.5-0.3,0.8v0.4
		c0,0.3,0.1,0.5,0.3,0.8c0.2,0.2,0.5,0.4,0.8,0.6c0.3,0.1,0.7,0.3,1.2,0.3C-783.6,758.5-783.1,758.5-782.7,758.5z"/>
	<path class="st0" d="M-769.1,745.3h3.9v1h-8.9v-1h3.9v-2h1.2L-769.1,745.3L-769.1,745.3z M-769.7,753c-0.5,0-1-0.1-1.5-0.2
		c-0.4-0.1-0.8-0.3-1.1-0.6c-0.3-0.2-0.5-0.5-0.7-0.8s-0.2-0.6-0.2-1v-0.6c0-0.4,0.1-0.7,0.2-1c0.2-0.3,0.4-0.6,0.7-0.8
		s0.7-0.4,1.1-0.6c0.4-0.1,0.9-0.2,1.5-0.2s1,0.1,1.5,0.2c0.4,0.1,0.8,0.3,1.1,0.6c0.3,0.2,0.5,0.5,0.7,0.8s0.2,0.6,0.2,1v0.6
		c0,0.4-0.1,0.7-0.2,1c-0.2,0.3-0.4,0.6-0.7,0.8c-0.3,0.2-0.7,0.4-1.1,0.6C-768.7,752.9-769.2,753-769.7,753z M-769.7,748.2
		c-0.4,0-0.7,0-1,0.1s-0.5,0.2-0.8,0.4c-0.2,0.2-0.4,0.3-0.5,0.5c-0.1,0.2-0.2,0.4-0.2,0.6v0.5c0,0.2,0.1,0.4,0.2,0.6
		c0.1,0.2,0.3,0.4,0.5,0.5c0.2,0.2,0.5,0.3,0.8,0.4c0.3,0.1,0.6,0.1,1,0.1s0.7,0,1-0.1s0.6-0.2,0.8-0.4s0.4-0.3,0.5-0.5
		c0.1-0.2,0.2-0.4,0.2-0.6v-0.5c0-0.2-0.1-0.4-0.2-0.6c-0.1-0.2-0.3-0.4-0.5-0.5c-0.2-0.2-0.5-0.3-0.8-0.4S-769.4,748.2-769.7,748.2
		z M-771.9,754.2h9.7v5.1h-1.2v-4h-8.6L-771.9,754.2L-771.9,754.2z M-762.1,747.8h2.4v1.1h-2.4v4.4h-1.2v-9.7h1.2V747.8z"/>
	<path class="st0" d="M-752.3,745.1v1.1h-4.7v7.7h0.7c0.5,0,0.9,0,1.3,0c0.4,0,0.8,0,1.2-0.1c0.4,0,0.8-0.1,1.1-0.1
		c0.4,0,0.8-0.1,1.1-0.2l0.1,1.1c-0.8,0.1-1.6,0.2-2.4,0.3s-1.6,0.1-2.4,0.1h-2v-9.8L-752.3,745.1L-752.3,745.1z M-749,749.2h2.3
		v-5.6h1.2v15.5h-1.2v-8.9h-2.3v8.1h-1.2v-14.5h1.2V749.2z"/>
	<path class="st0" d="M-735.4,755.2c-1.1,0-2-0.4-2.5-1.2s-0.8-1.9-0.8-3.3v-1.4c0-1.5,0.3-2.6,0.8-3.3c0.5-0.8,1.4-1.2,2.5-1.2
		c0.8,0,1.5,0.2,2,0.6s0.9,1,1.1,1.8h2.4v-3.3h1.2v14.5h-1.2v-5.5h-2.4C-732.7,754.4-733.8,755.2-735.4,755.2z M-735.4,745.9
		c-0.8,0-1.3,0.3-1.6,0.9c-0.3,0.6-0.5,1.5-0.5,2.6v1.1c0,1.2,0.2,2,0.5,2.6s0.9,0.9,1.6,0.9c0.8,0,1.3-0.3,1.6-0.9
		c0.3-0.6,0.5-1.5,0.5-2.6v-1.1c0-1.2-0.2-2-0.5-2.6C-734.1,746.2-734.6,745.9-735.4,745.9z M-732.1,750.7c0,0.4,0,0.7-0.1,1h2.2
		v-3.5h-2.2c0,0.2,0,0.4,0.1,0.5c0,0.2,0,0.4,0,0.6V750.7z M-725.8,759.1h-1.2v-15.5h1.2V759.1z"/>
	<path class="st0" d="M-719.2,749.1c0,0.1-0.2,0.3-0.4,0.6c-0.2,0.3-0.6,0.6-0.9,0.9c-0.3,0.3-0.7,0.6-1.1,1
		c-0.5,0.4-0.9,0.8-1.4,1.1l-0.7-0.9c0.5-0.3,0.9-0.7,1.4-1.1c0.5-0.4,0.9-0.8,1.3-1.2c0.3-0.3,0.5-0.5,0.6-0.7
		c0.2-0.2,0.3-0.4,0.4-0.6s0.1-0.4,0.2-0.6c0-0.2,0-0.5,0-0.8v-2.5h1.2v2.5c0,0.3,0,0.6,0,0.8s0.1,0.4,0.2,0.6
		c0.1,0.2,0.2,0.4,0.4,0.6c0.2,0.2,0.4,0.4,0.7,0.7c0.4,0.4,0.8,0.7,1.3,1.1s0.8,0.7,1.2,0.9l-0.7,0.8c-0.5-0.3-0.9-0.7-1.2-1
		c-0.4-0.3-0.7-0.6-1-0.8C-718.6,749.8-719.1,749.4-719.2,749.1L-719.2,749.1z M-719.6,757.9h8.6v1.1h-9.8v-5.2h1.2V757.9z
		 M-711.5,748.1h2.4v1.1h-2.4v5.6h-1.2v-11.1h1.2V748.1z"/>
	<path class="st0" d="M-696.6,749.6v3.9h1.8v1.1h-1.8v2.7h-1.2v-2.7h-6.1v-1.1l5.9-8.4h1.4l-5.9,8.4h4.8v-3.9H-696.6z"/>
	<path class="st0" d="M-689.1,757.3v-10.8l-3,1.8l-0.5-1l3.8-2.3h0.9v12.3H-689.1z"/>
	<path class="st0" d="M-682.7,746.7c0.1-0.2,0.3-0.5,0.5-0.7s0.5-0.4,0.8-0.6c0.3-0.2,0.6-0.3,1-0.4c0.4-0.1,0.8-0.2,1.2-0.2
		c0.6,0,1.1,0.1,1.5,0.2c0.4,0.1,0.8,0.4,1.1,0.6c0.3,0.3,0.6,0.6,0.7,1c0.1,0.4,0.3,0.8,0.3,1.2v0.2c0,0.2,0,0.5-0.1,0.8
		c-0.1,0.3-0.2,0.5-0.3,0.8c-0.2,0.2-0.4,0.5-0.6,0.7c-0.3,0.2-0.6,0.4-1,0.5c0.9,0.1,1.5,0.5,1.9,1c0.4,0.5,0.7,1.1,0.7,1.9v0.3
		c0,0.4-0.1,0.9-0.2,1.3c-0.1,0.4-0.4,0.8-0.7,1.1s-0.7,0.6-1.3,0.8c-0.5,0.2-1.2,0.3-1.9,0.3c-0.7,0-1.4-0.1-2.1-0.3
		s-1.3-0.6-1.9-1l0.6-1c0.6,0.4,1.2,0.7,1.7,0.9s1.1,0.3,1.6,0.3s1-0.1,1.4-0.2c0.4-0.1,0.7-0.3,0.9-0.6s0.4-0.5,0.5-0.8
		c0.1-0.3,0.2-0.6,0.2-0.9v-0.2c0-0.5-0.1-0.8-0.3-1.1c-0.2-0.3-0.4-0.5-0.7-0.7s-0.6-0.3-0.9-0.4c-0.3-0.1-0.6-0.1-0.9-0.1h-1.4v-1
		h1.4c0.4,0,0.7-0.1,1-0.2c0.3-0.1,0.5-0.3,0.7-0.6c0.2-0.3,0.3-0.5,0.4-0.8s0.1-0.5,0.1-0.8v-0.1c0-0.6-0.2-1.1-0.6-1.5
		c-0.4-0.4-1-0.5-1.8-0.5c-0.5,0-1,0.1-1.4,0.3c-0.4,0.2-0.9,0.6-1.2,1.1L-682.7,746.7z"/>
	<path class="st0" d="M-669,751.7c-0.6,0-1.1-0.1-1.6-0.3s-0.9-0.5-1.2-0.8c-0.3-0.3-0.6-0.7-0.7-1.1c-0.2-0.4-0.3-0.8-0.3-1.2v-1
		c0-0.4,0.1-0.8,0.3-1.2s0.4-0.7,0.7-1.1c0.3-0.3,0.7-0.6,1.2-0.8s1-0.3,1.6-0.3c0.6,0,1.1,0.1,1.6,0.3s0.9,0.4,1.2,0.8
		c0.3,0.3,0.6,0.7,0.7,1.1c0.2,0.4,0.3,0.8,0.3,1.2h3.5v-3.9h1.2v9h-1.2v-4.1h-3.5c0,0.4-0.1,0.8-0.3,1.2s-0.4,0.7-0.7,1
		s-0.7,0.6-1.2,0.7C-667.9,751.6-668.4,751.7-669,751.7z M-669,745.3c-0.4,0-0.7,0.1-1.1,0.2c-0.3,0.1-0.6,0.3-0.8,0.5
		s-0.4,0.4-0.5,0.7c-0.1,0.3-0.2,0.6-0.2,0.9v0.8c0,0.3,0.1,0.6,0.2,0.9c0.1,0.3,0.3,0.5,0.5,0.7s0.5,0.4,0.8,0.5
		c0.3,0.1,0.7,0.2,1.1,0.2c0.4,0,0.7-0.1,1.1-0.2c0.3-0.1,0.6-0.3,0.8-0.5c0.2-0.2,0.4-0.4,0.5-0.7c0.1-0.3,0.2-0.6,0.2-0.9v-0.8
		c0-0.3-0.1-0.6-0.2-0.9c-0.1-0.3-0.3-0.5-0.5-0.7c-0.2-0.2-0.5-0.4-0.8-0.5C-668.3,745.3-668.6,745.3-669,745.3z M-670.5,753.5h9.9
		v5.8h-1.2v-4.7h-8.8v-1.1H-670.5z"/>
	<path class="st0" d="M-647.4,751.4c-0.4,0-0.8,0.1-1.1,0.1c-0.4,0-0.8,0.1-1.2,0.1c-0.4,0-0.8,0.1-1.3,0.1c-0.4,0-0.9,0-1.4,0.1
		v2.5h-1.2v-2.4c-0.6,0-1.2,0-1.9,0s-1.4,0-2.2,0v-1c1.2,0,2.3,0,3.2,0c0.9,0,1.8,0,2.6-0.1c0.8-0.1,1.5-0.1,2.2-0.1
		c0.7,0,1.4-0.1,2.1-0.2L-647.4,751.4z M-652.8,749.6c-0.5,0-1-0.1-1.5-0.2c-0.5-0.1-0.9-0.3-1.2-0.5s-0.6-0.5-0.8-0.8
		c-0.2-0.3-0.3-0.6-0.3-1v-0.6c0-0.4,0.1-0.7,0.3-1c0.2-0.3,0.5-0.6,0.8-0.8s0.7-0.4,1.2-0.5s0.9-0.2,1.5-0.2c0.6,0,1,0.1,1.5,0.2
		c0.5,0.1,0.9,0.3,1.2,0.5c0.3,0.2,0.6,0.5,0.8,0.8c0.2,0.3,0.3,0.6,0.3,1v0.6c0,0.4-0.1,0.7-0.3,1c-0.2,0.3-0.5,0.6-0.8,0.8
		c-0.3,0.2-0.7,0.4-1.2,0.5S-652.3,749.6-652.8,749.6z M-652.8,744.9c-0.4,0-0.7,0-1,0.1c-0.3,0.1-0.6,0.2-0.8,0.3
		c-0.2,0.1-0.4,0.3-0.6,0.5c-0.1,0.2-0.2,0.4-0.2,0.6v0.4c0,0.2,0.1,0.4,0.2,0.6c0.1,0.2,0.3,0.4,0.6,0.5c0.3,0.1,0.5,0.3,0.8,0.3
		c0.3,0.1,0.6,0.1,1,0.1c0.4,0,0.7,0,1-0.1c0.3-0.1,0.6-0.2,0.8-0.3s0.4-0.3,0.6-0.5c0.1-0.2,0.2-0.4,0.2-0.6v-0.4
		c0-0.2-0.1-0.4-0.2-0.6c-0.1-0.2-0.3-0.4-0.6-0.5c-0.2-0.1-0.5-0.3-0.8-0.3C-652.1,745-652.4,744.9-652.8,744.9z M-653.8,757.9h9.1
		v1.1H-655v-4.1h1.2V757.9z M-646.2,753v-9.4h1.2v12.1h-1.2V754h-3.5v-1H-646.2z"/>
</g>
<polygon class="st4" points="429.6,574 402.4,599 409.7,599 409.7,627.9 449.5,627.9 449.5,599 456.8,599 "/>
<g>
	<polyline class="st5" points="671.4,524 667.2,520.1 662.9,524 	"/>
	<line class="st6" x1="653.7" y1="532.4" x2="621.6" y2="562"/>
	<polyline class="st5" points="617,566.2 612.8,570.1 618.6,570.1 	"/>
	<polyline class="st5" points="621.6,570.1 627.4,570.1 627.4,575.9 	"/>
	<line class="st7" x1="627.4" y1="585.1" x2="627.4" y2="617.5"/>
	<polyline class="st5" points="627.4,622.1 627.4,627.9 633.2,627.9 	"/>
	<line class="st8" x1="646.8" y1="627.9" x2="694.4" y2="627.9"/>
	<polyline class="st5" points="701.2,627.9 707,627.9 707,622.1 	"/>
	<line class="st7" x1="707" y1="612.9" x2="707" y2="580.5"/>
	<polyline class="st5" points="707,575.9 707,570.1 712.8,570.1 	"/>
	<polyline class="st5" points="715.8,570.1 721.6,570.1 717.3,566.2 	"/>
	<line class="st6" x1="708.1" y1="557.7" x2="676" y2="528.2"/>
</g>
<g class="st3">
	<path class="st0" d="M14.4,58.8h6.4V53H23v13.9h-2.1v-6.2h-6.4v5.1H2V53.8h2V58h8.4v-4.2h2V58.8z M4,63.9h8.4v-4H4V63.9z M23,68.5
		v6.9H8.3v3.3h15.4v1.8H6.2v-6.9h14.7v-3.3H6.1v-1.8H23z"/>
	<path class="st0" d="M48.9,54.3v3.9c0,2-0.2,4.2-0.7,6.4h4.6v1.8H27.6v-1.8H46c0.3-1.2,0.5-2.3,0.6-3.3c0.1-1.1,0.2-2.1,0.2-3.1
		v-1.9H30.9v-1.9H48.9z M31.2,70.2h17.8v10.2H31.2V70.2z M33.3,78.5H47v-6.4H33.3V78.5z"/>
	<path class="st0" d="M80.1,68.8v1.8H68.5v9.8h-2.1v-9.8H54.9v-1.8H80.1z M71,62.9c-2-1-3.2-1.8-3.5-2.5h0C67,61.1,65.9,62,63.9,63
		c-0.8,0.4-1.8,0.9-2.9,1.4c-1.1,0.5-2.3,1-3.5,1.5l-0.9-1.7c1.1-0.4,2.3-0.9,3.4-1.4c1.2-0.5,2.2-1,3.2-1.5
		c0.6-0.3,1.1-0.6,1.5-0.9c0.4-0.3,0.7-0.6,1-1c0.2-0.4,0.4-0.8,0.5-1.3c0.1-0.5,0.2-1.1,0.2-1.7V54h2.1v2.4c0,0.7,0.1,1.2,0.2,1.7
		c0.1,0.5,0.3,0.9,0.5,1.3c0.2,0.4,0.6,0.7,1,1c0.4,0.3,0.9,0.6,1.5,0.9c1,0.5,2,1,3.2,1.5c1.1,0.5,2.3,1,3.4,1.4l-0.9,1.7
		c-1.2-0.5-2.4-1-3.5-1.5C72.7,63.8,71.8,63.3,71,62.9z"/>
	<path class="st0" d="M85.9,54.5v9c1.5,0,2.7,0,3.8,0c1.1,0,2.1-0.1,3.1-0.1c1,0,1.9-0.1,2.9-0.2c0.9-0.1,2-0.2,3.1-0.4l0.2,1.9
		c-1.2,0.2-2.3,0.3-3.2,0.4c-1,0.1-2,0.2-3.1,0.2c-1.1,0-2.4,0.1-3.8,0.1c-1.4,0-3.1,0-5.2,0V54.5H85.9z M103.7,68.5v11.9H87.2V68.5
		h2.1v3.9h12.3v-3.9H103.7z M101.6,78.5v-4.3H89.3v4.3H101.6z M103.7,59h4.2v1.9h-4.2v6h-2.1V53h2.1V59z"/>
	<path class="st0" d="M115.8,67.1c-0.9,0-1.8-0.2-2.5-0.5c-0.8-0.3-1.4-0.7-1.9-1.3c-0.5-0.5-0.9-1.1-1.2-1.8
		c-0.3-0.7-0.4-1.4-0.4-2.1v-1.6c0-0.7,0.1-1.4,0.4-2.1s0.7-1.3,1.2-1.8c0.5-0.5,1.2-1,1.9-1.3s1.6-0.5,2.5-0.5
		c0.9,0,1.8,0.2,2.5,0.5s1.4,0.7,1.9,1.3c0.5,0.5,0.9,1.1,1.2,1.8s0.4,1.4,0.4,2.1v1.6c0,0.7-0.1,1.4-0.4,2.1
		c-0.3,0.7-0.7,1.3-1.2,1.8c-0.5,0.5-1.2,1-1.9,1.3C117.5,66.9,116.7,67.1,115.8,67.1z M115.8,56.1c-0.6,0-1.1,0.1-1.6,0.3
		c-0.5,0.2-0.9,0.5-1.2,0.8c-0.3,0.4-0.6,0.8-0.8,1.3c-0.2,0.5-0.3,1-0.3,1.6v1.1c0,0.6,0.1,1.1,0.3,1.6c0.2,0.5,0.5,0.9,0.8,1.3
		c0.3,0.4,0.8,0.6,1.2,0.8c0.5,0.2,1,0.3,1.6,0.3s1.1-0.1,1.6-0.3c0.5-0.2,0.9-0.5,1.2-0.8c0.3-0.4,0.6-0.8,0.8-1.3
		c0.2-0.5,0.3-1,0.3-1.6V60c0-0.6-0.1-1.1-0.3-1.6c-0.2-0.5-0.5-0.9-0.8-1.3c-0.3-0.4-0.8-0.6-1.2-0.8
		C116.9,56.2,116.4,56.1,115.8,56.1z M114.8,70.6h17.8v10h-2.1v-8.2h-15.7V70.6z M126.6,59.7h4V53h2.1v16h-2.1v-7.4h-4v7.3h-2.1
		V53.4h2.1V59.7z"/>
	<path class="st0" d="M9.6,101.9c0.6-0.7,1.1-1.3,1.4-1.8c0.4-0.5,0.6-0.9,0.8-1.3c0.2-0.4,0.3-0.7,0.4-1c0.1-0.3,0.1-0.6,0.1-0.9
		v-0.2c0-1.1-0.4-1.9-1.1-2.6c-0.7-0.6-1.7-0.9-3-0.9c-1,0-1.9,0.2-2.7,0.7c-0.8,0.5-1.6,1.3-2.3,2.6l-1.7-1c0.3-0.5,0.6-0.9,1-1.4
		s0.8-0.9,1.4-1.3s1.2-0.7,1.9-1c0.7-0.3,1.5-0.4,2.4-0.4c1,0,1.8,0.1,2.6,0.4c0.8,0.3,1.4,0.6,2,1.1c0.5,0.5,1,1,1.3,1.7
		c0.3,0.7,0.5,1.4,0.5,2.2v0.3c0,0.6-0.1,1.1-0.3,1.7c-0.2,0.6-0.5,1.1-0.8,1.6c-0.3,0.5-0.7,1-1.2,1.6c-0.4,0.5-0.9,1-1.4,1.6
		l-6.7,7.9h11.1v1.9H1.5v-1.8L9.6,101.9z"/>
	<path class="st0" d="M19.2,107.1c0-1.2,0.4-2.3,1.1-3.2s1.7-1.5,2.9-1.9c-1-0.5-1.8-1.1-2.4-2s-0.9-1.9-0.9-3v-0.5
		c0-0.8,0.2-1.5,0.5-2.2c0.3-0.7,0.7-1.2,1.3-1.7c0.6-0.5,1.2-0.9,2-1.1c0.8-0.3,1.6-0.4,2.5-0.4s1.7,0.1,2.5,0.4
		c0.8,0.3,1.4,0.6,2,1.1c0.6,0.5,1,1.1,1.3,1.7c0.3,0.7,0.5,1.4,0.5,2.2v0.5c0,1.1-0.3,2.1-0.9,3s-1.4,1.5-2.4,2
		c0.6,0.2,1.1,0.4,1.6,0.8c0.5,0.3,0.9,0.7,1.3,1.2c0.3,0.5,0.6,0.9,0.8,1.5c0.2,0.5,0.3,1.1,0.3,1.7v0.5c0,0.9-0.2,1.7-0.5,2.4
		s-0.8,1.3-1.4,1.8c-0.6,0.5-1.3,0.9-2.2,1.2c-0.9,0.3-1.8,0.4-2.9,0.4c-1,0-2-0.1-2.9-0.4c-0.9-0.3-1.6-0.7-2.2-1.2
		c-0.6-0.5-1.1-1.1-1.4-1.8s-0.5-1.5-0.5-2.4V107.1z M21.4,107.6c0,0.6,0.1,1.1,0.3,1.6c0.2,0.5,0.5,0.9,1,1.3
		c0.4,0.4,0.9,0.6,1.5,0.9c0.6,0.2,1.3,0.3,2,0.3c0.8,0,1.4-0.1,2-0.3s1.1-0.5,1.5-0.9c0.4-0.4,0.7-0.8,0.9-1.3
		c0.2-0.5,0.3-1,0.3-1.6v-0.4c0-0.6-0.1-1.2-0.4-1.7c-0.2-0.5-0.6-1-1-1.3s-0.9-0.7-1.5-0.9s-1.2-0.3-2-0.3c-0.7,0-1.3,0.1-1.9,0.3
		c-0.6,0.2-1.1,0.5-1.5,0.9c-0.4,0.4-0.8,0.8-1,1.3c-0.2,0.5-0.4,1.1-0.4,1.8V107.6z M22,97c0,0.6,0.1,1.1,0.3,1.7
		c0.2,0.5,0.5,1,0.9,1.3s0.8,0.7,1.3,0.9s1.1,0.3,1.7,0.3c0.6,0,1.2-0.1,1.7-0.3c0.5-0.2,1-0.5,1.3-0.9c0.4-0.4,0.7-0.8,0.9-1.3
		c0.2-0.5,0.3-1.1,0.3-1.7v-0.4c0-1.1-0.4-2-1.2-2.7c-0.8-0.7-1.8-1-3.1-1c-1.3,0-2.3,0.3-3.1,1c-0.8,0.6-1.1,1.5-1.1,2.7V97z"/>
	<path class="st0" d="M42.8,113.1h-2.4l8.8-19.7H37.1v-1.9h14.5v1.6L42.8,113.1z"/>
	<path class="st0" d="M61.9,103.4c-1.1,0-2-0.2-2.8-0.5c-0.8-0.3-1.5-0.8-2.1-1.3c-0.6-0.5-1-1.2-1.3-1.9c-0.3-0.7-0.5-1.4-0.5-2.1
		v-1.7c0-0.7,0.2-1.4,0.5-2.1c0.3-0.7,0.7-1.3,1.3-1.9c0.6-0.5,1.3-1,2.1-1.3c0.8-0.3,1.8-0.5,2.8-0.5c1,0,2,0.2,2.8,0.5
		c0.8,0.3,1.5,0.8,2.1,1.3c0.6,0.6,1,1.2,1.3,1.9s0.5,1.4,0.5,2.1h6.2V89h2.1v15.8h-2.1v-7.2h-6.2c0,0.7-0.2,1.4-0.5,2
		c-0.3,0.7-0.8,1.3-1.3,1.8c-0.6,0.5-1.3,1-2.1,1.3C63.9,103.2,62.9,103.4,61.9,103.4z M61.9,92c-0.7,0-1.3,0.1-1.9,0.3
		c-0.6,0.2-1.1,0.5-1.5,0.9c-0.4,0.4-0.7,0.8-1,1.3c-0.2,0.5-0.3,1-0.3,1.6v1.4c0,0.6,0.1,1.1,0.3,1.6c0.2,0.5,0.5,0.9,1,1.3
		c0.4,0.4,0.9,0.6,1.5,0.9c0.6,0.2,1.2,0.3,1.9,0.3c0.7,0,1.3-0.1,1.9-0.3c0.6-0.2,1.1-0.5,1.5-0.9c0.4-0.4,0.7-0.8,1-1.3
		c0.2-0.5,0.3-1,0.3-1.6V96c0-0.6-0.1-1.1-0.3-1.6c-0.2-0.5-0.6-0.9-1-1.3c-0.4-0.4-0.9-0.6-1.5-0.9C63.2,92.1,62.6,92,61.9,92z
		 M59.4,106.5h17.5v10.2h-2.1v-8.3H59.4V106.5z"/>
	<path class="st0" d="M83,94.5c0.3-0.4,0.6-0.9,1-1.3c0.4-0.4,0.8-0.8,1.3-1.1c0.5-0.3,1.1-0.6,1.7-0.8c0.6-0.2,1.4-0.3,2.2-0.3
		c1,0,1.9,0.1,2.7,0.4c0.8,0.3,1.5,0.6,2,1.1c0.5,0.5,1,1,1.3,1.7c0.3,0.7,0.4,1.4,0.4,2.2v0.3c0,0.4-0.1,0.9-0.2,1.3
		c-0.1,0.5-0.3,0.9-0.6,1.4c-0.3,0.4-0.7,0.9-1.1,1.2s-1.1,0.7-1.8,0.9c1.5,0.3,2.6,0.9,3.4,1.8c0.8,0.9,1.2,2,1.2,3.3v0.5
		c0,0.8-0.1,1.5-0.4,2.3c-0.3,0.7-0.7,1.4-1.2,2c-0.6,0.6-1.3,1.1-2.2,1.4c-0.9,0.4-2.1,0.5-3.4,0.5c-1.3,0-2.5-0.2-3.6-0.6
		c-1.2-0.4-2.3-1-3.3-1.8l1.1-1.7c1.1,0.8,2.1,1.3,3,1.6c0.9,0.3,1.9,0.5,2.9,0.5c0.9,0,1.7-0.1,2.4-0.4c0.7-0.3,1.2-0.6,1.6-1
		c0.4-0.4,0.7-0.9,0.9-1.4s0.3-1,0.3-1.5v-0.4c0-0.8-0.2-1.5-0.5-2c-0.3-0.5-0.7-1-1.2-1.3c-0.5-0.3-1-0.5-1.6-0.6
		c-0.6-0.1-1.1-0.2-1.7-0.2H87V101h2.5c0.7,0,1.3-0.1,1.8-0.4c0.5-0.2,0.9-0.6,1.2-1c0.3-0.4,0.6-0.8,0.8-1.3c0.2-0.5,0.3-1,0.3-1.4
		v-0.2c0-1.1-0.4-1.9-1.1-2.6c-0.8-0.6-1.8-0.9-3.1-0.9c-0.9,0-1.7,0.2-2.5,0.5c-0.8,0.4-1.5,1-2.1,2L83,94.5z"/>
	<path class="st0" d="M108.4,99.8c-0.1,0.2-0.3,0.6-0.7,1s-1,1-1.6,1.5c-0.3,0.2-0.6,0.5-0.9,0.8c-0.4,0.3-0.8,0.6-1.2,0.9
		c-0.4,0.3-0.8,0.6-1.2,1c-0.4,0.3-0.8,0.6-1.1,0.8l-1.3-1.5c0.9-0.6,1.8-1.3,2.7-2c0.9-0.7,1.7-1.4,2.5-2.1c0.7-0.7,1.2-1.4,1.5-2
		c0.2-0.6,0.3-1.3,0.3-2.1v-2H101v-1.8h6.3v-3.5h2.1v3.5h6v1.8h-6V96c0,0.4,0,0.8,0.1,1.1c0,0.3,0.1,0.7,0.3,1
		c0.1,0.3,0.4,0.6,0.7,1s0.7,0.7,1.2,1.1c0.5,0.4,1.1,0.9,1.9,1.5c0.8,0.6,1.6,1.2,2.5,1.7l-1.2,1.5c-0.6-0.4-1.2-0.9-1.9-1.4
		c-0.7-0.5-1.2-0.9-1.7-1.3c-0.7-0.6-1.3-1.1-1.8-1.6C108.8,100.3,108.5,100,108.4,99.8L108.4,99.8z M107.7,114.2H123v1.9h-17.5
		v-8.7h2.1V114.2z M120.2,97.1V89h2.1v19.6h-2.1v-9.7h-5.6v-1.9H120.2z"/>
	<path class="st0" d="M140.3,94.4c-0.7-0.4-1.4-0.7-2.2-0.9c-0.8-0.2-1.6-0.3-2.4-0.3c-1,0-1.9,0.2-2.6,0.6s-1.3,1-1.7,1.8
		c-0.5,0.8-0.8,1.7-1.1,2.9c-0.2,1.1-0.4,2.4-0.5,3.9c0.2-0.3,0.4-0.7,0.7-1c0.3-0.4,0.7-0.7,1.1-1c0.5-0.3,1-0.5,1.6-0.7
		c0.6-0.2,1.3-0.3,2-0.3c0.9,0,1.8,0.2,2.6,0.5s1.6,0.7,2.2,1.3c0.6,0.6,1.1,1.3,1.5,2.1c0.4,0.8,0.6,1.8,0.6,2.8v0.7
		c0,1.1-0.2,2-0.5,2.9c-0.4,0.9-0.9,1.6-1.5,2.2s-1.4,1.1-2.2,1.4c-0.9,0.3-1.8,0.5-2.8,0.5c-1,0-2-0.2-2.9-0.5
		c-0.9-0.4-1.7-0.9-2.3-1.6c-0.7-0.7-1.2-1.6-1.6-2.7c-0.4-1.1-0.6-2.4-0.6-3.9V104c0-2.3,0.2-4.3,0.6-5.9c0.4-1.6,0.9-2.9,1.6-4
		c0.7-1,1.5-1.8,2.5-2.2c1-0.5,2.1-0.7,3.3-0.7c1,0,1.9,0.1,2.9,0.4c0.9,0.3,1.8,0.6,2.7,1.1L140.3,94.4z M130.1,106.1
		c0,0.8,0.1,1.6,0.4,2.2c0.2,0.7,0.6,1.2,1,1.7c0.4,0.5,1,0.9,1.6,1.1c0.6,0.3,1.3,0.4,2,0.4c0.7,0,1.4-0.1,2-0.3
		c0.6-0.2,1.2-0.6,1.6-1c0.5-0.4,0.8-1,1.1-1.6c0.2-0.6,0.4-1.4,0.4-2.2V106c0-0.8-0.1-1.5-0.4-2.1c-0.3-0.6-0.7-1.2-1.1-1.6
		c-0.5-0.4-1-0.8-1.6-1c-0.6-0.2-1.2-0.3-1.9-0.3c-0.6,0-1.3,0.1-1.9,0.4c-0.6,0.2-1.1,0.6-1.6,1c-0.5,0.4-0.8,0.9-1.1,1.5
		s-0.4,1.2-0.4,1.9V106.1z"/>
	<path class="st0" d="M156.5,90.5v12.6h-10.6V90.5h2.1v4.4h6.5v-4.4H156.5z M154.5,101.2v-4.4H148v4.4H154.5z M150.3,106.7h17.8v10
		H166v-8.1h-15.7V106.7z M162,95.8h4V89h2.1v16H166v-7.4h-4v7.3h-2.1V89.4h2.1V95.8z"/>
	<path class="st0" d="M190.7,102.8c-0.7,0.1-1.4,0.1-2,0.2c-0.7,0.1-1.4,0.1-2.1,0.2c-0.7,0-1.4,0.1-2.2,0.1c-0.8,0-1.6,0.1-2.5,0.1
		v4.4h-2.1v-4.3c-1,0-2.1,0.1-3.3,0.1c-1.2,0-2.4,0-3.8,0v-1.8c2.2,0,4.1,0,5.7,0s3.1-0.1,4.5-0.1c1.4,0,2.7-0.1,3.9-0.2
		c1.2-0.1,2.4-0.2,3.8-0.3L190.7,102.8z M181.2,99.6c-0.9,0-1.8-0.1-2.6-0.3c-0.8-0.2-1.5-0.5-2.1-0.9s-1.1-0.9-1.4-1.4
		c-0.3-0.5-0.5-1.1-0.5-1.8V94c0-0.6,0.2-1.2,0.5-1.8c0.3-0.5,0.8-1,1.4-1.4s1.3-0.7,2.1-0.9c0.8-0.2,1.7-0.3,2.6-0.3
		c0.9,0,1.8,0.1,2.6,0.3c0.8,0.2,1.5,0.5,2.1,0.9c0.6,0.4,1.1,0.9,1.4,1.4c0.3,0.5,0.5,1.1,0.5,1.8v1.1c0,0.6-0.2,1.2-0.5,1.8
		c-0.3,0.5-0.8,1-1.4,1.4c-0.6,0.4-1.3,0.7-2.1,0.9C183,99.5,182.1,99.6,181.2,99.6z M181.2,91.4c-0.6,0-1.2,0.1-1.8,0.2
		c-0.6,0.2-1,0.4-1.5,0.6c-0.4,0.3-0.8,0.6-1,0.9c-0.2,0.4-0.4,0.7-0.4,1.1V95c0,0.4,0.1,0.8,0.4,1.1c0.2,0.3,0.6,0.6,1,0.9
		c0.4,0.3,0.9,0.5,1.5,0.6c0.5,0.2,1.1,0.2,1.8,0.2c0.6,0,1.2-0.1,1.8-0.2c0.6-0.1,1-0.4,1.5-0.6c0.4-0.3,0.8-0.6,1-0.9
		c0.2-0.3,0.4-0.7,0.4-1.1v-0.8c0-0.4-0.1-0.7-0.4-1.1c-0.2-0.3-0.6-0.7-1-0.9c-0.4-0.3-0.9-0.5-1.5-0.6
		C182.4,91.4,181.8,91.4,181.2,91.4z M179.5,114.2h16v1.9h-18.1v-7.3h2.1V114.2z M192.8,105.5V89h2.1v21.3h-2.1v-2.9h-6.2v-1.9
		H192.8z"/>
</g>
<g class="st3">
	<path class="st1" d="M331.1,67.2v-3.2h-7.8V53.6h2.1v3.5h13.6v-3.5h2.1v10.3h-7.8v3.2h11.5V69h-25.2v-1.8H331.1z M322.8,72h18.4
		v8.6H339v-6.8h-16.3V72z M325.4,62.1h13.6v-3.2h-13.6V62.1z"/>
	<path class="st1" d="M365.4,64.8c-1.2,0.2-2.6,0.3-4,0.4c-1.4,0.1-3,0.2-4.8,0.2v5.4h-2.1v-5.3c-1.1,0-2.2,0.1-3.3,0.1
		c-1.2,0-2.4,0-3.8,0v-1.8c2.7,0,5,0,7,0c1.9,0,3.7-0.1,5.2-0.2c0.2-1,0.3-2,0.4-2.8c0.1-0.9,0.1-1.7,0.1-2.6v-1.7h-10.6v-1.9h12.6
		v3.4c0,1,0,1.9-0.1,2.8c-0.1,0.9-0.2,1.8-0.4,2.8c0.6,0,1.2-0.1,1.8-0.1s1.1-0.1,1.7-0.2L365.4,64.8z M354.2,78.2h16.1v1.9h-18.2
		v-7.8h2.1V78.2z M367.5,67.7V53h2.1v21.2h-2.1v-4.7h-6.2v-1.9H367.5z"/>
	<path class="st1" d="M375.6,72.5c2.3-1.3,4.1-2.5,5.5-3.4c1.4-0.9,2.4-1.8,3.1-2.7c0.7-0.8,1.2-1.7,1.4-2.5
		c0.2-0.8,0.3-1.8,0.3-2.9v-3.5h-10v-1.9h12V61c0,0.9-0.1,1.8-0.1,2.5c-0.1,0.7-0.3,1.4-0.6,2.1c-0.3,0.7-0.7,1.3-1.2,1.9
		s-1.2,1.3-2,1.9c-0.8,0.7-1.8,1.4-3,2.2c-1.2,0.8-2.6,1.6-4.2,2.6L375.6,72.5z M396.7,80.4h-2.1V53h2.1V80.4z"/>
	<path class="st1" d="M422.8,54.3v3.9c0,2-0.2,4.2-0.7,6.4h4.6v1.8h-25.2v-1.8h18.5c0.3-1.2,0.5-2.3,0.6-3.3
		c0.1-1.1,0.2-2.1,0.2-3.1v-1.9h-15.9v-1.9H422.8z M405.2,70.2H423v10.2h-17.8V70.2z M407.2,78.5h13.7v-6.4h-13.7V78.5z"/>
	<path class="st1" d="M320.6,107.1c0-1.2,0.4-2.3,1.1-3.2s1.7-1.5,2.9-1.9c-1-0.5-1.8-1.1-2.4-2s-0.9-1.9-0.9-3v-0.5
		c0-0.8,0.2-1.5,0.5-2.2c0.3-0.7,0.7-1.2,1.3-1.7c0.6-0.5,1.2-0.9,2-1.1c0.8-0.3,1.6-0.4,2.5-0.4s1.7,0.1,2.5,0.4
		c0.8,0.3,1.4,0.6,2,1.1c0.6,0.5,1,1.1,1.3,1.7c0.3,0.7,0.5,1.4,0.5,2.2v0.5c0,1.1-0.3,2.1-0.9,3s-1.4,1.5-2.4,2
		c0.6,0.2,1.1,0.4,1.6,0.8c0.5,0.3,0.9,0.7,1.3,1.2c0.3,0.5,0.6,0.9,0.8,1.5c0.2,0.5,0.3,1.1,0.3,1.7v0.5c0,0.9-0.2,1.7-0.5,2.4
		s-0.8,1.3-1.4,1.8c-0.6,0.5-1.3,0.9-2.2,1.2c-0.9,0.3-1.8,0.4-2.9,0.4c-1,0-2-0.1-2.9-0.4c-0.9-0.3-1.6-0.7-2.2-1.2
		c-0.6-0.5-1.1-1.1-1.4-1.8s-0.5-1.5-0.5-2.4V107.1z M322.7,107.6c0,0.6,0.1,1.1,0.3,1.6c0.2,0.5,0.5,0.9,1,1.3
		c0.4,0.4,0.9,0.6,1.5,0.9c0.6,0.2,1.3,0.3,2,0.3c0.8,0,1.4-0.1,2-0.3s1.1-0.5,1.5-0.9c0.4-0.4,0.7-0.8,0.9-1.3
		c0.2-0.5,0.3-1,0.3-1.6v-0.4c0-0.6-0.1-1.2-0.4-1.7c-0.2-0.5-0.6-1-1-1.3s-0.9-0.7-1.5-0.9s-1.2-0.3-2-0.3c-0.7,0-1.3,0.1-1.9,0.3
		c-0.6,0.2-1.1,0.5-1.5,0.9c-0.4,0.4-0.8,0.8-1,1.3c-0.2,0.5-0.4,1.1-0.4,1.8V107.6z M323.3,97c0,0.6,0.1,1.1,0.3,1.7
		c0.2,0.5,0.5,1,0.9,1.3s0.8,0.7,1.3,0.9s1.1,0.3,1.7,0.3c0.6,0,1.2-0.1,1.7-0.3c0.5-0.2,1-0.5,1.3-0.9c0.4-0.4,0.7-0.8,0.9-1.3
		c0.2-0.5,0.3-1.1,0.3-1.7v-0.4c0-1.1-0.4-2-1.2-2.7c-0.8-0.7-1.8-1-3.1-1c-1.3,0-2.3,0.3-3.1,1c-0.8,0.6-1.1,1.5-1.1,2.7V97z"/>
	<path class="st1" d="M351,94.4c-0.7-0.4-1.4-0.7-2.2-0.9c-0.8-0.2-1.6-0.3-2.4-0.3c-1,0-1.9,0.2-2.6,0.6s-1.3,1-1.7,1.8
		c-0.5,0.8-0.8,1.7-1.1,2.9c-0.2,1.1-0.4,2.4-0.5,3.9c0.2-0.3,0.4-0.7,0.7-1c0.3-0.4,0.7-0.7,1.1-1c0.5-0.3,1-0.5,1.6-0.7
		c0.6-0.2,1.3-0.3,2-0.3c0.9,0,1.8,0.2,2.6,0.5s1.6,0.7,2.2,1.3c0.6,0.6,1.1,1.3,1.5,2.1c0.4,0.8,0.6,1.8,0.6,2.8v0.7
		c0,1.1-0.2,2-0.5,2.9c-0.4,0.9-0.9,1.6-1.5,2.2s-1.4,1.1-2.2,1.4c-0.9,0.3-1.8,0.5-2.8,0.5c-1,0-2-0.2-2.9-0.5
		c-0.9-0.4-1.7-0.9-2.3-1.6c-0.7-0.7-1.2-1.6-1.6-2.7c-0.4-1.1-0.6-2.4-0.6-3.9V104c0-2.3,0.2-4.3,0.6-5.9c0.4-1.6,0.9-2.9,1.6-4
		c0.7-1,1.5-1.8,2.5-2.2c1-0.5,2.1-0.7,3.3-0.7c1,0,1.9,0.1,2.9,0.4c0.9,0.3,1.8,0.6,2.7,1.1L351,94.4z M340.8,106.1
		c0,0.8,0.1,1.6,0.4,2.2c0.2,0.7,0.6,1.2,1,1.7c0.4,0.5,1,0.9,1.6,1.1c0.6,0.3,1.3,0.4,2,0.4c0.7,0,1.4-0.1,2-0.3
		c0.6-0.2,1.2-0.6,1.6-1c0.5-0.4,0.8-1,1.1-1.6c0.2-0.6,0.4-1.4,0.4-2.2V106c0-0.8-0.1-1.5-0.4-2.1c-0.3-0.6-0.7-1.2-1.1-1.6
		c-0.5-0.4-1-0.8-1.6-1c-0.6-0.2-1.2-0.3-1.9-0.3c-0.6,0-1.3,0.1-1.9,0.4c-0.6,0.2-1.1,0.6-1.6,1c-0.5,0.4-0.8,0.9-1.1,1.5
		s-0.4,1.2-0.4,1.9V106.1z"/>
	<path class="st1" d="M363.2,103.4c-1.1,0-2-0.2-2.8-0.5c-0.8-0.3-1.5-0.8-2.1-1.3c-0.6-0.5-1-1.2-1.3-1.9c-0.3-0.7-0.5-1.4-0.5-2.1
		v-1.7c0-0.7,0.2-1.4,0.5-2.1c0.3-0.7,0.7-1.3,1.3-1.9c0.6-0.5,1.3-1,2.1-1.3c0.8-0.3,1.8-0.5,2.8-0.5c1,0,2,0.2,2.8,0.5
		c0.8,0.3,1.5,0.8,2.1,1.3c0.6,0.6,1,1.2,1.3,1.9s0.5,1.4,0.5,2.1h6.2V89h2.1v15.8h-2.1v-7.2h-6.2c0,0.7-0.2,1.4-0.5,2
		c-0.3,0.7-0.8,1.3-1.3,1.8c-0.6,0.5-1.3,1-2.1,1.3C365.2,103.2,364.3,103.4,363.2,103.4z M363.2,92c-0.7,0-1.3,0.1-1.9,0.3
		c-0.6,0.2-1.1,0.5-1.5,0.9c-0.4,0.4-0.7,0.8-1,1.3c-0.2,0.5-0.3,1-0.3,1.6v1.4c0,0.6,0.1,1.1,0.3,1.6c0.2,0.5,0.5,0.9,1,1.3
		c0.4,0.4,0.9,0.6,1.5,0.9c0.6,0.2,1.2,0.3,1.9,0.3c0.7,0,1.3-0.1,1.9-0.3c0.6-0.2,1.1-0.5,1.5-0.9c0.4-0.4,0.7-0.8,1-1.3
		c0.2-0.5,0.3-1,0.3-1.6V96c0-0.6-0.1-1.1-0.3-1.6c-0.2-0.5-0.6-0.9-1-1.3c-0.4-0.4-0.9-0.6-1.5-0.9C364.5,92.1,363.9,92,363.2,92z
		 M360.7,106.5h17.5v10.2h-2.1v-8.3h-15.4V106.5z"/>
	<path class="st1" d="M396.1,106.6c0-1.7-0.4-3-1.3-3.8c-0.9-0.8-2.1-1.2-3.6-1.2c-0.9,0-1.7,0.2-2.5,0.5c-0.7,0.3-1.3,0.7-1.8,1.2
		h-2l0.7-11.8h11.1v1.9h-9.3l-0.3,7.9c0.5-0.5,1.1-0.8,2-1.1c0.8-0.3,1.7-0.4,2.6-0.4c1.1,0,2,0.2,2.8,0.5c0.8,0.4,1.5,0.8,2,1.4
		c0.5,0.6,0.9,1.3,1.2,2.1s0.4,1.7,0.4,2.7v0.5c0,0.8-0.1,1.6-0.4,2.3c-0.3,0.8-0.7,1.5-1.2,2.1s-1.3,1.1-2.3,1.5
		c-0.9,0.4-2.1,0.6-3.4,0.6c-1.5,0-2.8-0.2-3.9-0.6c-1.1-0.4-2.2-1-3.1-1.8l1.1-1.7c1,0.8,2,1.4,3,1.7c0.9,0.3,1.9,0.5,3,0.5
		c1,0,1.8-0.1,2.4-0.4s1.2-0.7,1.6-1.1c0.4-0.4,0.7-0.9,0.9-1.5c0.2-0.5,0.3-1,0.3-1.5V106.6z"/>
	<path class="st1" d="M409.7,99.8c-0.1,0.2-0.3,0.6-0.7,1s-1,1-1.6,1.5c-0.3,0.2-0.6,0.5-0.9,0.8c-0.4,0.3-0.8,0.6-1.2,0.9
		c-0.4,0.3-0.8,0.6-1.2,1c-0.4,0.3-0.8,0.6-1.1,0.8l-1.3-1.5c0.9-0.6,1.8-1.3,2.7-2c0.9-0.7,1.7-1.4,2.5-2.1c0.7-0.7,1.2-1.4,1.5-2
		c0.2-0.6,0.3-1.3,0.3-2.1v-2h-6.3v-1.8h6.3v-3.5h2.1v3.5h6v1.8h-6V96c0,0.4,0,0.8,0.1,1.1c0,0.3,0.1,0.7,0.3,1
		c0.1,0.3,0.4,0.6,0.7,1s0.7,0.7,1.2,1.1c0.5,0.4,1.1,0.9,1.9,1.5c0.8,0.6,1.6,1.2,2.5,1.7l-1.2,1.5c-0.6-0.4-1.2-0.9-1.9-1.4
		c-0.7-0.5-1.2-0.9-1.7-1.3c-0.7-0.6-1.3-1.1-1.8-1.6C410.1,100.3,409.8,100,409.7,99.8L409.7,99.8z M409,114.2h15.4v1.9h-17.5v-8.7
		h2.1V114.2z M421.6,97.1V89h2.1v19.6h-2.1v-9.7H416v-1.9H421.6z"/>
	<path class="st1" d="M441.4,106.6c0-1.7-0.4-3-1.3-3.8c-0.9-0.8-2.1-1.2-3.6-1.2c-0.9,0-1.7,0.2-2.5,0.5c-0.7,0.3-1.3,0.7-1.8,1.2
		h-2l0.7-11.8H442v1.9h-9.3l-0.3,7.9c0.5-0.5,1.1-0.8,2-1.1s1.7-0.4,2.6-0.4c1.1,0,2,0.2,2.8,0.5c0.8,0.4,1.5,0.8,2,1.4
		c0.5,0.6,0.9,1.3,1.2,2.1c0.3,0.8,0.4,1.7,0.4,2.7v0.5c0,0.8-0.1,1.6-0.4,2.3c-0.3,0.8-0.7,1.5-1.2,2.1c-0.6,0.6-1.3,1.1-2.3,1.5
		c-0.9,0.4-2.1,0.6-3.4,0.6c-1.5,0-2.8-0.2-3.9-0.6c-1.1-0.4-2.2-1-3.1-1.8l1.1-1.7c1,0.8,2,1.4,3,1.7s1.9,0.5,3,0.5
		c1,0,1.8-0.1,2.4-0.4s1.2-0.7,1.6-1.1c0.4-0.4,0.7-0.9,0.9-1.5c0.2-0.5,0.3-1,0.3-1.5V106.6z"/>
	<path class="st1" d="M457.9,90.5v12.6h-10.6V90.5h2.1v4.4h6.5v-4.4H457.9z M455.8,101.2v-4.4h-6.5v4.4H455.8z M451.6,106.7h17.8v10
		h-2.1v-8.1h-15.7V106.7z M463.3,95.8h4V89h2.1v16h-2.1v-7.4h-4v7.3h-2.1V89.4h2.1V95.8z"/>
	<path class="st1" d="M487,103.7h-12.2V90.7H487V103.7z M485,92.6h-8.2v9.2h8.2V92.6z M480.7,114.2h15.1v1.9h-17.2v-9h2.1V114.2z
		 M495,97h4.2v1.9H495v9.8h-2.1V89h2.1V97z"/>
	<path class="st1" d="M519.3,102.8c-0.7,0.1-1.4,0.1-2,0.2c-0.7,0.1-1.4,0.1-2.1,0.2c-0.7,0-1.4,0.1-2.2,0.1c-0.8,0-1.6,0.1-2.5,0.1
		v4.4h-2.1v-4.3c-1,0-2.1,0.1-3.3,0.1s-2.4,0-3.8,0v-1.8c2.2,0,4.1,0,5.7,0c1.6,0,3.1-0.1,4.5-0.1c1.4,0,2.7-0.1,3.9-0.2
		c1.2-0.1,2.5-0.2,3.8-0.3L519.3,102.8z M509.8,99.6c-0.9,0-1.8-0.1-2.6-0.3c-0.8-0.2-1.5-0.5-2.1-0.9c-0.6-0.4-1.1-0.9-1.4-1.4
		s-0.5-1.1-0.5-1.8V94c0-0.6,0.2-1.2,0.5-1.8s0.8-1,1.4-1.4c0.6-0.4,1.3-0.7,2.1-0.9c0.8-0.2,1.7-0.3,2.6-0.3s1.8,0.1,2.6,0.3
		c0.8,0.2,1.5,0.5,2.1,0.9c0.6,0.4,1.1,0.9,1.4,1.4s0.5,1.1,0.5,1.8v1.1c0,0.6-0.2,1.2-0.5,1.8s-0.8,1-1.4,1.4
		c-0.6,0.4-1.3,0.7-2.1,0.9C511.6,99.5,510.7,99.6,509.8,99.6z M509.8,91.4c-0.6,0-1.2,0.1-1.8,0.2c-0.5,0.2-1,0.4-1.5,0.6
		c-0.4,0.3-0.8,0.6-1,0.9c-0.2,0.4-0.4,0.7-0.4,1.1V95c0,0.4,0.1,0.8,0.4,1.1c0.2,0.3,0.6,0.6,1,0.9c0.4,0.3,0.9,0.5,1.5,0.6
		c0.5,0.2,1.1,0.2,1.8,0.2c0.6,0,1.2-0.1,1.8-0.2c0.6-0.1,1-0.4,1.5-0.6c0.4-0.3,0.8-0.6,1-0.9c0.2-0.3,0.4-0.7,0.4-1.1v-0.8
		c0-0.4-0.1-0.7-0.4-1.1c-0.2-0.3-0.6-0.7-1-0.9c-0.4-0.3-0.9-0.5-1.5-0.6C511,91.4,510.4,91.4,509.8,91.4z M508.1,114.2h16v1.9
		h-18.2v-7.3h2.1V114.2z M521.4,105.5V89h2.1v21.3h-2.1v-2.9h-6.2v-1.9H521.4z"/>
</g>
<g>
	<g>
		<path class="st0" d="M641.9,55.1v13.7h-7.8v5.9h11.5v1.8h-25.2v-1.8H632v-5.9h-7.8V55.1h2.1V60h13.6v-4.9H641.9z M639.8,67v-5.2
			h-13.6V67H639.8z"/>
		<path class="st0" d="M648.9,68.1c1.6-0.7,3-1.3,4.1-1.9c1.1-0.5,2.1-1.1,2.9-1.5s1.4-0.9,1.8-1.3c0.5-0.4,0.8-0.9,1-1.3
			s0.4-1,0.5-1.5c0.1-0.5,0.1-1.1,0.1-1.8v-2.1h-9.5v-1.9h11.5v4.1c0,0.6,0,1.2-0.1,1.7h7.1V53h2.1v19.6h-2.1V62.4h-7.5
			c-0.3,0.6-0.6,1.2-1.1,1.8c-0.5,0.5-1.2,1.1-2.1,1.7c-0.9,0.6-1.9,1.2-3.2,1.8c-1.3,0.6-2.8,1.4-4.7,2.1L648.9,68.1z M655.8,78.2
			h15.4v1.9h-17.5v-8.9h2.1V78.2z"/>
		<path class="st0" d="M686.6,67.2v-3.2h-7.8V53.6h2.1v3.5h13.6v-3.5h2.1v10.3h-7.8v3.2h11.5V69H675v-1.8H686.6z M678.2,72h18.4v8.6
			h-2.1v-6.8h-16.3V72z M680.8,62.1h13.6v-3.2h-13.6V62.1z"/>
		<path class="st0" d="M718.7,57.4h-6.2v4.4c0,0.6,0,1.1,0.1,1.5s0.1,0.8,0.2,1.2s0.3,0.8,0.5,1.1c0.2,0.4,0.5,0.8,0.9,1.2
			c0.6,0.7,1.3,1.5,2.2,2.3c0.9,0.9,1.9,1.8,3,2.8l-1.4,1.4c-1-1-1.9-1.8-2.7-2.6c-0.8-0.8-1.4-1.5-2-2.1c-0.4-0.5-0.8-0.9-1.2-1.3
			c-0.4-0.4-0.6-0.7-0.7-0.9h0c0,0.1-0.1,0.3-0.3,0.5s-0.3,0.5-0.5,0.7s-0.4,0.5-0.7,0.8s-0.5,0.5-0.7,0.8c-0.2,0.2-0.5,0.5-0.8,0.9
			c-0.3,0.3-0.7,0.7-1.1,1.1c-0.4,0.4-0.9,0.8-1.3,1.3s-0.9,0.9-1.4,1.2l-1.4-1.4c1-0.8,1.9-1.7,2.7-2.5c0.8-0.8,1.6-1.6,2.3-2.4
			c0.5-0.5,0.9-1,1.1-1.5c0.3-0.4,0.5-0.9,0.6-1.3s0.2-0.8,0.3-1.3c0-0.4,0.1-0.9,0.1-1.5v-4.5h-6.3v-1.9h14.6V57.4z M725.3,80.4
			h-2.1V53h2.1V80.4z"/>
		<path class="st0" d="M754.8,69.5v1.8h-11.5v9.1h-2.1v-9.1h-11.5v-1.8H754.8z M751.1,54.1v11.8h-17.8V54.1h2.1v4.1H749v-4.1H751.1z
			 M749,64.1v-4h-13.6v4H749z"/>
		<path class="st0" d="M633.5,99.6v6.8h3.2v1.9h-3.2v4.8h-2.1v-4.8h-10.8v-1.9L631,91.5h2.4L623,106.4h8.4v-6.8H633.5z"/>
		<path class="st0" d="M647.8,101.9c0.6-0.7,1.1-1.3,1.4-1.8c0.4-0.5,0.6-0.9,0.8-1.3c0.2-0.4,0.3-0.7,0.4-1
			c0.1-0.3,0.1-0.6,0.1-0.9v-0.2c0-1.1-0.4-1.9-1.1-2.6c-0.7-0.6-1.7-0.9-3-0.9c-1,0-1.9,0.2-2.7,0.7c-0.8,0.5-1.6,1.3-2.3,2.6
			l-1.7-1c0.3-0.5,0.6-0.9,1-1.4s0.8-0.9,1.4-1.3s1.2-0.7,1.9-1s1.5-0.4,2.4-0.4c1,0,1.8,0.1,2.6,0.4c0.8,0.3,1.4,0.6,2,1.1
			c0.5,0.5,1,1,1.3,1.7c0.3,0.7,0.5,1.4,0.5,2.2v0.3c0,0.6-0.1,1.1-0.3,1.7c-0.2,0.6-0.5,1.1-0.8,1.6c-0.3,0.5-0.7,1-1.2,1.6
			c-0.4,0.5-0.9,1-1.3,1.6l-6.7,7.9h11.1v1.9h-13.7v-1.8L647.8,101.9z"/>
		<path class="st0" d="M664.1,103.4c-1.1,0-2-0.2-2.8-0.5c-0.8-0.3-1.5-0.8-2.1-1.3s-1-1.2-1.3-1.9c-0.3-0.7-0.5-1.4-0.5-2.1v-1.7
			c0-0.7,0.2-1.4,0.5-2.1c0.3-0.7,0.7-1.3,1.3-1.9c0.6-0.5,1.3-1,2.1-1.3c0.8-0.3,1.8-0.5,2.8-0.5c1,0,2,0.2,2.8,0.5
			c0.8,0.3,1.5,0.8,2.1,1.3c0.6,0.6,1,1.2,1.3,1.9c0.3,0.7,0.5,1.4,0.5,2.1h6.2V89h2.1v15.8H677v-7.2h-6.2c0,0.7-0.2,1.4-0.5,2
			s-0.8,1.3-1.3,1.8c-0.6,0.5-1.3,1-2.1,1.3C666,103.2,665.1,103.4,664.1,103.4z M664.1,92c-0.7,0-1.3,0.1-1.9,0.3
			c-0.6,0.2-1.1,0.5-1.5,0.9c-0.4,0.4-0.7,0.8-1,1.3c-0.2,0.5-0.3,1-0.3,1.6v1.4c0,0.6,0.1,1.1,0.3,1.6c0.2,0.5,0.5,0.9,1,1.3
			c0.4,0.4,0.9,0.6,1.5,0.9c0.6,0.2,1.2,0.3,1.9,0.3c0.7,0,1.3-0.1,1.9-0.3c0.6-0.2,1.1-0.5,1.5-0.9c0.4-0.4,0.7-0.8,1-1.3
			c0.2-0.5,0.3-1,0.3-1.6V96c0-0.6-0.1-1.1-0.3-1.6c-0.2-0.5-0.6-0.9-1-1.3c-0.4-0.4-0.9-0.6-1.5-0.9C665.4,92.1,664.8,92,664.1,92z
			 M661.6,106.5h17.5v10.2H677v-8.3h-15.5V106.5z"/>
		<path class="st0" d="M702.2,102.8c-0.7,0.1-1.4,0.1-2,0.2c-0.7,0.1-1.4,0.1-2.1,0.2s-1.4,0.1-2.2,0.1s-1.6,0.1-2.5,0.1v4.4h-2.1
			v-4.3c-1,0-2.1,0.1-3.3,0.1c-1.2,0-2.4,0-3.8,0v-1.8c2.2,0,4.1,0,5.7,0c1.6,0,3.1-0.1,4.5-0.1c1.4,0,2.7-0.1,3.9-0.2
			s2.4-0.2,3.8-0.3L702.2,102.8z M692.8,99.6c-0.9,0-1.8-0.1-2.6-0.3c-0.8-0.2-1.5-0.5-2.1-0.9c-0.6-0.4-1.1-0.9-1.4-1.4
			c-0.3-0.5-0.5-1.1-0.5-1.8V94c0-0.6,0.2-1.2,0.5-1.8c0.3-0.5,0.8-1,1.4-1.4c0.6-0.4,1.3-0.7,2.1-0.9c0.8-0.2,1.7-0.3,2.6-0.3
			c0.9,0,1.8,0.1,2.6,0.3c0.8,0.2,1.5,0.5,2.1,0.9s1.1,0.9,1.4,1.4c0.3,0.5,0.5,1.1,0.5,1.8v1.1c0,0.6-0.2,1.2-0.5,1.8
			c-0.3,0.5-0.8,1-1.4,1.4s-1.3,0.7-2.1,0.9C694.5,99.5,693.7,99.6,692.8,99.6z M692.8,91.4c-0.6,0-1.2,0.1-1.8,0.2
			c-0.6,0.2-1,0.4-1.5,0.6c-0.4,0.3-0.8,0.6-1,0.9c-0.2,0.4-0.4,0.7-0.4,1.1V95c0,0.4,0.1,0.8,0.4,1.1s0.6,0.6,1,0.9
			c0.4,0.3,0.9,0.5,1.5,0.6c0.5,0.2,1.1,0.2,1.8,0.2c0.6,0,1.2-0.1,1.8-0.2c0.6-0.1,1-0.4,1.5-0.6c0.4-0.3,0.8-0.6,1-0.9
			s0.4-0.7,0.4-1.1v-0.8c0-0.4-0.1-0.7-0.4-1.1c-0.2-0.3-0.6-0.7-1-0.9c-0.4-0.3-0.9-0.5-1.5-0.6C694,91.4,693.4,91.4,692.8,91.4z
			 M691,114.2h16v1.9h-18.1v-7.3h2.1V114.2z M704.3,105.5V89h2.1v21.3h-2.1v-2.9h-6.2v-1.9H704.3z"/>
	</g>
</g>
<g class="st3">
	<path class="st4" d="M363.7,671c-1.3,0.1-2.6,0.3-4,0.3c-1.3,0.1-2.8,0.2-4.5,0.2v3.8h-2.1v-3.8c-1,0-2.2,0.1-3.4,0.1
		c-1.2,0-2.5,0-4,0v-1.8c2.2,0,4.1,0,5.7,0c1.6,0,3.2-0.1,4.5-0.1c1.4,0,2.6-0.1,3.9-0.2c1.2-0.1,2.5-0.2,3.7-0.3L363.7,671z
		 M354.3,663.8c-0.1,0.2-0.3,0.5-0.7,0.8s-0.9,0.7-1.6,1.1c-0.7,0.5-1.4,0.9-2.2,1.3s-1.5,0.9-2.3,1.3l-1.1-1.6
		c0.9-0.5,1.8-0.9,2.7-1.5c0.9-0.5,1.6-1,2.2-1.4c0.4-0.3,0.7-0.5,1-0.8c0.2-0.2,0.4-0.5,0.6-0.8c0.1-0.3,0.2-0.6,0.3-0.9
		c0-0.3,0.1-0.7,0.1-1.2v-1.6h2.1v1.6c0,0.5,0,0.9,0.1,1.2c0,0.3,0.1,0.6,0.3,0.9c0.1,0.3,0.4,0.5,0.6,0.8c0.3,0.2,0.6,0.5,1.1,0.8
		c0.6,0.4,1.4,0.8,2.1,1.3c0.8,0.4,1.5,0.8,2.2,1.2l-1,1.6c-0.2-0.1-0.5-0.3-0.8-0.4c-0.3-0.2-0.6-0.4-1-0.6
		c-0.4-0.2-0.7-0.4-1.1-0.6c-0.4-0.2-0.7-0.4-1-0.6c-0.8-0.5-1.3-0.8-1.7-1.1C354.7,664.3,354.5,664,354.3,663.8L354.3,663.8z
		 M350.4,676.8h17.5v8.6h-17.5V676.8z M352.4,683.5h13.4v-4.8h-13.4V683.5z M367.9,675.2h-2.1v-17.1h2.1V675.2z"/>
	<path class="st4" d="M387,660.3v1.9h-10.4v6.1h9.3v1.9h-9.3v6.4h3.8c1.4,0,2.9,0,4.4-0.1s3.1-0.3,4.7-0.5l0.2,1.9
		c-1.6,0.3-3.3,0.4-5,0.5c-1.7,0.1-3.3,0.1-4.9,0.1h-5.4v-18.2H387z M393.2,668.2v-10.1h2.1v27.4h-2.1v-15.4h-5.6v-1.9H393.2z"/>
	<path class="st4" d="M432.5,673.9v1.8H421v9.8h-2.1v-9.8h-11.5v-1.8H432.5z M423.4,668.3c-2-1-3.2-1.8-3.5-2.5h0
		c-0.3,0.7-1.5,1.5-3.5,2.5c-0.8,0.4-1.8,0.8-2.8,1.3s-2.2,1-3.5,1.5l-0.9-1.7c1.1-0.4,2.2-0.9,3.4-1.4c1.1-0.5,2.2-1,3.1-1.5
		c0.7-0.4,1.3-0.7,1.7-1.1c0.4-0.3,0.7-0.7,0.9-1.1s0.3-0.8,0.4-1.2s0.1-0.9,0.1-1.4v-0.3h-8.3v-1.8h18.7v1.8H421v0.3
		c0,0.5,0,1,0.1,1.4s0.2,0.8,0.4,1.2s0.5,0.7,0.9,1.1c0.4,0.4,1,0.7,1.7,1.1c1,0.5,2,1,3.1,1.5s2.2,0.9,3.3,1.4l-0.9,1.6
		c-1.1-0.4-2.2-0.9-3.3-1.4C425.3,669.2,424.3,668.8,423.4,668.3z"/>
	<path class="st4" d="M446,659.6v1.8h-8.2v3.8h8v1.8h-8v3.9c1,0,1.8,0,2.6,0s1.5,0,2.3-0.1c0.7,0,1.5-0.1,2.2-0.1
		c0.7-0.1,1.5-0.1,2.4-0.2l0.2,1.8c-0.9,0.1-1.7,0.2-2.5,0.3s-1.7,0.1-2.6,0.1c-0.9,0-1.9,0.1-3,0.1c-1.1,0-2.3,0-3.8,0v-13.2H446z
		 M440,676.1h17.8v9.6h-2.1V678H440V676.1z M451.8,665h4v-7h2.1v16.4h-2.1v-7.6h-4v7.5h-2.1v-16h2.1V665z"/>
	<path class="st4" d="M476.1,678.6c-2,0-3.5-0.7-4.4-2c-1-1.4-1.4-3.3-1.4-5.9v-2.5c0-2.6,0.5-4.5,1.4-5.9c1-1.4,2.4-2,4.4-2
		c1.4,0,2.6,0.4,3.4,1.1s1.5,1.7,1.9,3.1h4.3v-5.8h2.1v25.5h-2.1v-9.8h-4.3C480.7,677.2,478.9,678.6,476.1,678.6z M476.1,662.2
		c-1.3,0-2.3,0.5-2.9,1.6c-0.6,1-0.9,2.6-0.9,4.7v2c0,2.1,0.3,3.6,0.9,4.7c0.6,1.1,1.6,1.6,2.9,1.6c1.3,0,2.3-0.5,2.9-1.6
		c0.6-1,0.9-2.6,0.9-4.7v-2c0-2.1-0.3-3.6-0.9-4.7C478.4,662.7,477.4,662.2,476.1,662.2z M481.9,670.7c0,0.7,0,1.3-0.1,1.8h3.9v-6.2
		h-3.9c0,0.3,0.1,0.6,0.1,1c0,0.3,0,0.7,0,1V670.7z M493,685.5h-2.1v-27.4h2.1V685.5z"/>
	<path class="st4" d="M504.6,667.8c0,0.3-0.3,0.6-0.7,1.1c-0.4,0.5-1,1-1.6,1.6c-0.5,0.5-1.2,1.1-2,1.8c-0.8,0.7-1.6,1.4-2.5,2
		l-1.3-1.5c0.8-0.6,1.7-1.3,2.5-2c0.9-0.7,1.6-1.4,2.3-2.1c0.5-0.5,0.9-0.9,1.1-1.3c0.3-0.4,0.5-0.7,0.6-1.1
		c0.1-0.3,0.2-0.7,0.3-1.1c0-0.4,0.1-0.9,0.1-1.5v-4.4h2.2v4.3c0,0.6,0,1,0.1,1.4c0,0.4,0.1,0.8,0.3,1.1c0.2,0.3,0.4,0.7,0.7,1
		c0.3,0.3,0.7,0.7,1.2,1.2c0.7,0.6,1.5,1.3,2.2,1.9c0.8,0.6,1.5,1.2,2.1,1.6l-1.3,1.5c-0.8-0.6-1.5-1.2-2.2-1.7s-1.2-1-1.8-1.5
		C505.6,669.1,504.8,668.3,504.6,667.8L504.6,667.8z M503.9,683.3H519v1.9h-17.2V676h2.1V683.3z M518.1,666h4.2v1.9h-4.2v9.8H516
		v-19.6h2.1V666z"/>
	<path class="st4" d="M346.7,699.6c0.3-0.4,0.6-0.9,1-1.3c0.4-0.4,0.8-0.8,1.3-1.1c0.5-0.3,1.1-0.6,1.7-0.8c0.6-0.2,1.4-0.3,2.2-0.3
		c1,0,1.9,0.1,2.7,0.4c0.8,0.3,1.5,0.6,2,1.1c0.5,0.5,1,1,1.3,1.7c0.3,0.7,0.4,1.4,0.4,2.2v0.3c0,0.4-0.1,0.9-0.2,1.3
		c-0.1,0.5-0.3,0.9-0.6,1.4c-0.3,0.4-0.7,0.9-1.1,1.2s-1.1,0.7-1.8,0.9c1.5,0.3,2.6,0.9,3.4,1.8c0.8,0.9,1.2,2,1.2,3.3v0.5
		c0,0.8-0.1,1.5-0.4,2.3c-0.3,0.7-0.7,1.4-1.2,2c-0.6,0.6-1.3,1.1-2.2,1.4c-0.9,0.4-2.1,0.5-3.4,0.5c-1.3,0-2.5-0.2-3.6-0.6
		c-1.2-0.4-2.3-1-3.3-1.8l1.1-1.7c1.1,0.8,2.1,1.3,3,1.6c0.9,0.3,1.9,0.5,2.9,0.5c0.9,0,1.7-0.1,2.4-0.4c0.7-0.3,1.2-0.6,1.6-1
		c0.4-0.4,0.7-0.9,0.9-1.4s0.3-1,0.3-1.5v-0.4c0-0.8-0.2-1.5-0.5-2c-0.3-0.5-0.7-1-1.2-1.3c-0.5-0.3-1-0.5-1.6-0.6
		c-0.6-0.1-1.1-0.2-1.7-0.2h-2.4V706h2.5c0.7,0,1.3-0.1,1.8-0.4c0.5-0.2,0.9-0.6,1.2-1c0.3-0.4,0.6-0.8,0.8-1.3
		c0.2-0.5,0.3-1,0.3-1.4v-0.2c0-1.1-0.4-1.9-1.1-2.6c-0.8-0.6-1.8-0.9-3.1-0.9c-0.9,0-1.7,0.2-2.5,0.5c-0.8,0.4-1.5,1-2.1,2
		L346.7,699.6z"/>
	<path class="st4" d="M370.8,708.4c-1.1,0-2-0.2-2.8-0.5c-0.8-0.3-1.5-0.8-2.1-1.3c-0.6-0.5-1-1.2-1.3-1.9c-0.3-0.7-0.5-1.4-0.5-2.1
		v-1.7c0-0.7,0.2-1.4,0.5-2.1c0.3-0.7,0.7-1.3,1.3-1.9c0.6-0.5,1.3-1,2.1-1.3c0.8-0.3,1.8-0.5,2.8-0.5c1,0,2,0.2,2.8,0.5
		c0.8,0.3,1.5,0.8,2.1,1.3c0.6,0.6,1,1.2,1.3,1.9s0.5,1.4,0.5,2.1h6.2v-6.8h2.1v15.8h-2.1v-7.2h-6.2c0,0.7-0.2,1.4-0.5,2
		c-0.3,0.7-0.8,1.3-1.3,1.8c-0.6,0.5-1.3,1-2.1,1.3C372.8,708.3,371.9,708.4,370.8,708.4z M370.8,697c-0.7,0-1.3,0.1-1.9,0.3
		c-0.6,0.2-1.1,0.5-1.5,0.9c-0.4,0.4-0.7,0.8-1,1.3c-0.2,0.5-0.3,1-0.3,1.6v1.4c0,0.6,0.1,1.1,0.3,1.6c0.2,0.5,0.5,0.9,1,1.3
		c0.4,0.4,0.9,0.6,1.5,0.9c0.6,0.2,1.2,0.3,1.9,0.3c0.7,0,1.3-0.1,1.9-0.3c0.6-0.2,1.1-0.5,1.5-0.9c0.4-0.4,0.7-0.8,1-1.3
		c0.2-0.5,0.3-1,0.3-1.6v-1.4c0-0.6-0.1-1.1-0.3-1.6c-0.2-0.5-0.6-0.9-1-1.3c-0.4-0.4-0.9-0.6-1.5-0.9
		C372.1,697.1,371.5,697,370.8,697z M368.3,711.5h17.5v10.2h-2.1v-8.3h-15.4V711.5z"/>
	<path class="st4" d="M409,707.8c-0.7,0.1-1.4,0.1-2,0.2c-0.7,0.1-1.4,0.1-2.1,0.2s-1.4,0.1-2.2,0.1s-1.6,0.1-2.5,0.1v4.4h-2.1v-4.3
		c-1,0-2.1,0.1-3.3,0.1c-1.2,0-2.4,0-3.8,0v-1.8c2.2,0,4.1,0,5.7,0s3.1-0.1,4.5-0.1c1.4,0,2.7-0.1,3.9-0.2s2.4-0.2,3.8-0.3
		L409,707.8z M399.5,704.7c-0.9,0-1.8-0.1-2.6-0.3c-0.8-0.2-1.5-0.5-2.1-0.9s-1.1-0.9-1.4-1.4c-0.3-0.5-0.5-1.1-0.5-1.8v-1.1
		c0-0.6,0.2-1.2,0.5-1.8c0.3-0.5,0.8-1,1.4-1.4s1.3-0.7,2.1-0.9c0.8-0.2,1.7-0.3,2.6-0.3c0.9,0,1.8,0.1,2.6,0.3
		c0.8,0.2,1.5,0.5,2.1,0.9s1.1,0.9,1.4,1.4c0.3,0.5,0.5,1.1,0.5,1.8v1.1c0,0.6-0.2,1.2-0.5,1.8c-0.3,0.5-0.8,1-1.4,1.4
		s-1.3,0.7-2.1,0.9C401.3,704.6,400.4,704.7,399.5,704.7z M399.5,696.4c-0.6,0-1.2,0.1-1.8,0.2c-0.6,0.2-1,0.4-1.5,0.6
		c-0.4,0.3-0.8,0.6-1,0.9c-0.2,0.4-0.4,0.7-0.4,1.1v0.8c0,0.4,0.1,0.8,0.4,1.1c0.2,0.3,0.6,0.6,1,0.9c0.4,0.3,0.9,0.5,1.5,0.6
		c0.5,0.2,1.1,0.2,1.8,0.2c0.6,0,1.2-0.1,1.8-0.2c0.6-0.1,1-0.4,1.5-0.6c0.4-0.3,0.8-0.6,1-0.9s0.4-0.7,0.4-1.1v-0.8
		c0-0.4-0.1-0.7-0.4-1.1c-0.2-0.3-0.6-0.7-1-0.9c-0.4-0.3-0.9-0.5-1.5-0.6C400.7,696.5,400.1,696.4,399.5,696.4z M397.8,719.3h16
		v1.9h-18.1v-7.3h2.1V719.3z M411.1,710.6v-16.5h2.1v21.3h-2.1v-2.9h-6.2v-1.9H411.1z"/>
</g>
<g class="st3">
	<path class="st0" d="M584.9,672.2c0.5-0.5,0.9-1,1.1-1.5c0.3-0.4,0.5-0.9,0.7-1.3c0.2-0.4,0.3-0.9,0.3-1.3c0-0.5,0.1-1,0.1-1.6
		v-6.5h2.2v6.3c0,0.6,0,1.1,0.1,1.5c0,0.4,0.1,0.8,0.2,1.2c0.1,0.4,0.3,0.8,0.5,1.2s0.6,0.8,1,1.3c0.6,0.7,1.3,1.5,2.2,2.4
		s1.9,1.8,3,2.8l-1.4,1.4c-1-0.9-1.8-1.8-2.7-2.6c-0.8-0.8-1.5-1.5-2.1-2.2c-0.5-0.5-0.9-0.9-1.2-1.4c-0.4-0.4-0.6-0.8-0.7-1h0
		c0,0.1-0.1,0.3-0.2,0.5s-0.3,0.4-0.5,0.7c-0.2,0.3-0.4,0.5-0.7,0.8c-0.2,0.3-0.5,0.6-0.7,0.8c-0.3,0.3-0.6,0.6-0.9,1
		s-0.8,0.8-1.2,1.2c-0.4,0.4-0.9,0.8-1.3,1.3c-0.5,0.4-0.9,0.8-1.3,1.2l-1.4-1.5c1-0.9,1.9-1.7,2.7-2.5
		C583.4,673.8,584.2,673,584.9,672.2z M602.7,685.5h-2.1v-16.8H594v-1.9h6.5v-8.7h2.1V685.5z"/>
	<path class="st0" d="M632.4,669.9v1.8h-11.5v3h7.8v6.3h-15.6v2.8h16.4v1.8H611v-6.4h15.6v-2.8h-15.8v-1.8h8v-3h-11.5v-1.8H632.4z
		 M628.4,663.5c0,0.7-0.2,1.3-0.7,1.8c-0.4,0.5-1,1-1.8,1.4c-0.8,0.4-1.7,0.7-2.7,0.9c-1,0.2-2.2,0.3-3.4,0.3
		c-1.2,0-2.3-0.1-3.4-0.3c-1-0.2-2-0.5-2.7-0.9c-0.8-0.4-1.4-0.8-1.8-1.4c-0.4-0.5-0.7-1.2-0.7-1.8v-0.8c0-0.7,0.2-1.3,0.7-1.8
		c0.4-0.5,1-1,1.8-1.4c0.8-0.4,1.7-0.7,2.7-0.9c1.1-0.2,2.2-0.3,3.4-0.3c1.2,0,2.3,0.1,3.4,0.3c1.1,0.2,2,0.5,2.7,0.9
		c0.8,0.4,1.4,0.8,1.8,1.4c0.4,0.5,0.7,1.2,0.7,1.8V663.5z M613.3,663.4c0,0.4,0.2,0.8,0.5,1.1s0.8,0.6,1.4,0.9s1.3,0.4,2.1,0.6
		c0.8,0.1,1.6,0.2,2.5,0.2c0.9,0,1.7-0.1,2.5-0.2c0.8-0.1,1.5-0.3,2.1-0.6s1.1-0.5,1.4-0.9s0.5-0.7,0.5-1.1v-0.6
		c0-0.4-0.2-0.7-0.5-1.1s-0.8-0.6-1.4-0.9c-0.6-0.2-1.3-0.4-2.1-0.6c-0.8-0.1-1.6-0.2-2.5-0.2c-0.9,0-1.7,0.1-2.5,0.2
		c-0.8,0.1-1.5,0.3-2.1,0.6c-0.6,0.3-1.1,0.5-1.4,0.9s-0.5,0.7-0.5,1.1V663.4z"/>
	<path class="st0" d="M667.2,673.9v1.8h-11.5v9.8h-2.1v-9.8H642v-1.8H667.2z M658.2,668.3c-2-1-3.2-1.8-3.5-2.5h0
		c-0.3,0.7-1.5,1.5-3.5,2.5c-0.8,0.4-1.8,0.8-2.8,1.3c-1,0.5-2.2,1-3.5,1.5l-0.9-1.7c1.1-0.4,2.2-0.9,3.4-1.4c1.1-0.5,2.2-1,3.1-1.5
		c0.7-0.4,1.3-0.7,1.7-1.1c0.4-0.3,0.7-0.7,0.9-1.1s0.3-0.8,0.4-1.2c0.1-0.4,0.1-0.9,0.1-1.4v-0.3h-8.3v-1.8H664v1.8h-8.3v0.3
		c0,0.5,0,1,0.1,1.4c0,0.4,0.2,0.8,0.4,1.2s0.5,0.7,0.9,1.1c0.4,0.4,1,0.7,1.7,1.1c1,0.5,2,1,3.1,1.5c1.1,0.5,2.2,0.9,3.3,1.4
		l-0.9,1.6c-1.1-0.4-2.2-0.9-3.3-1.4C660,669.2,659.1,668.8,658.2,668.3z"/>
	<path class="st0" d="M680.8,659.6v1.8h-8.2v3.8h8v1.8h-8v3.9c1,0,1.8,0,2.6,0c0.8,0,1.5,0,2.3-0.1c0.7,0,1.5-0.1,2.2-0.1
		c0.7-0.1,1.5-0.1,2.4-0.2l0.2,1.8c-0.9,0.1-1.7,0.2-2.5,0.3c-0.8,0.1-1.7,0.1-2.6,0.1c-0.9,0-1.9,0.1-3,0.1s-2.3,0-3.8,0v-13.2
		H680.8z M674.7,676.1h17.8v9.6h-2.1V678h-15.8V676.1z M686.5,665h4v-7h2.1v16.4h-2.1v-7.6h-4v7.5h-2.1v-16h2.1V665z"/>
	<path class="st0" d="M721.4,672.4c-2.5,0.3-5.2,0.4-8,0.4c-2.8,0-5.7,0.1-8.5,0.1v-1.8h2.9v-9.5H705v-1.8h15v1.8h-3v9.3
		c0.7,0,1.4-0.1,2.1-0.1c0.7,0,1.4-0.1,2.1-0.2L721.4,672.4z M709.8,671.1c1.8,0,3.5,0,5.1-0.1v-9.4h-5.1V671.1z M718.8,675.1
		c1.1,0,2.2,0.1,3.2,0.3s1.9,0.5,2.7,1c0.8,0.4,1.4,1,1.8,1.6c0.4,0.6,0.7,1.3,0.7,2.1v1.1c0,0.8-0.2,1.5-0.7,2.1
		c-0.4,0.6-1,1.1-1.8,1.6c-0.8,0.4-1.6,0.8-2.7,1s-2.1,0.3-3.2,0.3c-1.1,0-2.2-0.1-3.2-0.3c-1-0.2-1.9-0.5-2.7-1
		c-0.8-0.4-1.4-1-1.8-1.6c-0.4-0.6-0.7-1.3-0.7-2.1v-1.1c0-0.8,0.2-1.5,0.7-2.1c0.4-0.6,1-1.1,1.8-1.6s1.6-0.7,2.7-1
		C716.6,675.2,717.7,675.1,718.8,675.1z M718.8,684.4c0.8,0,1.6-0.1,2.3-0.2c0.8-0.1,1.4-0.4,2-0.6c0.6-0.3,1.1-0.6,1.4-1
		s0.5-0.9,0.5-1.4v-0.9c0-0.5-0.2-1-0.5-1.4s-0.8-0.8-1.4-1c-0.6-0.3-1.3-0.5-2-0.6c-0.8-0.1-1.5-0.2-2.3-0.2
		c-0.8,0-1.6,0.1-2.3,0.2c-0.8,0.1-1.4,0.4-2,0.6c-0.6,0.3-1.1,0.6-1.4,1c-0.4,0.4-0.5,0.9-0.5,1.4v0.9c0,0.5,0.2,1,0.5,1.4
		c0.3,0.4,0.8,0.8,1.4,1c0.6,0.3,1.3,0.5,2,0.6C717.2,684.3,718,684.4,718.8,684.4z M724.9,662.8v-4.7h2.1v16.4h-2.1v-5.6h-4.8V667
		h4.8v-2.5h-4.8v-1.8H724.9z"/>
	<path class="st0" d="M749.9,669.8c0.3-1.2,0.5-2.3,0.6-3.5c0.1-1.1,0.2-2.2,0.2-3.2v-1.8h-15.9v-1.9h18v3.8c0,1-0.1,2.1-0.2,3.2
		s-0.3,2.2-0.5,3.3h4.6v1.8h-6.9v7.2h-2.1v-7.2h-5.3v7.2h-2.1v-7.2h-8.9v-1.8H749.9z M737.2,683.3h16.5v1.9h-18.7v-8.8h2.1V683.3z"
		/>
	<path class="st0" d="M593.4,699.4c-0.7-0.4-1.4-0.7-2.2-0.9c-0.8-0.2-1.6-0.3-2.4-0.3c-1,0-1.9,0.2-2.6,0.6s-1.3,1-1.7,1.8
		c-0.5,0.8-0.8,1.7-1.1,2.9c-0.2,1.1-0.4,2.4-0.5,3.9c0.2-0.3,0.4-0.7,0.7-1c0.3-0.4,0.7-0.7,1.1-1c0.5-0.3,1-0.5,1.6-0.7
		c0.6-0.2,1.3-0.3,2-0.3c0.9,0,1.8,0.2,2.6,0.5s1.6,0.7,2.2,1.3c0.6,0.6,1.1,1.3,1.5,2.1c0.4,0.8,0.6,1.8,0.6,2.8v0.7
		c0,1.1-0.2,2-0.5,2.9c-0.4,0.9-0.9,1.6-1.5,2.2s-1.4,1.1-2.2,1.4c-0.9,0.3-1.8,0.5-2.8,0.5c-1,0-2-0.2-2.9-0.5
		c-0.9-0.4-1.7-0.9-2.3-1.6c-0.7-0.7-1.2-1.6-1.6-2.7c-0.4-1.1-0.6-2.4-0.6-3.9V709c0-2.3,0.2-4.3,0.6-5.9c0.4-1.6,0.9-2.9,1.6-4
		c0.7-1,1.5-1.8,2.5-2.2c1-0.5,2.1-0.7,3.3-0.7c1,0,1.9,0.1,2.9,0.4c0.9,0.3,1.8,0.6,2.7,1.1L593.4,699.4z M583.2,711.2
		c0,0.8,0.1,1.6,0.4,2.2c0.2,0.7,0.6,1.2,1,1.7c0.4,0.5,1,0.9,1.6,1.1c0.6,0.3,1.3,0.4,2,0.4c0.7,0,1.4-0.1,2-0.3
		c0.6-0.2,1.2-0.6,1.6-1c0.5-0.4,0.8-1,1-1.6s0.4-1.4,0.4-2.2v-0.5c0-0.8-0.1-1.5-0.4-2.1c-0.3-0.6-0.7-1.2-1.1-1.6
		c-0.5-0.4-1-0.8-1.6-1c-0.6-0.2-1.2-0.3-1.9-0.3c-0.6,0-1.3,0.1-1.9,0.4c-0.6,0.2-1.1,0.6-1.6,1c-0.5,0.4-0.8,0.9-1.1,1.5
		s-0.4,1.2-0.4,1.9V711.2z"/>
	<path class="st0" d="M605.6,708.4c-1.1,0-2-0.2-2.8-0.5c-0.8-0.3-1.5-0.8-2.1-1.3c-0.6-0.5-1-1.2-1.3-1.9c-0.3-0.7-0.5-1.4-0.5-2.1
		v-1.7c0-0.7,0.2-1.4,0.5-2.1c0.3-0.7,0.7-1.3,1.3-1.9c0.6-0.5,1.3-1,2.1-1.3s1.8-0.5,2.8-0.5c1,0,2,0.2,2.8,0.5
		c0.8,0.3,1.5,0.8,2.1,1.3c0.6,0.6,1,1.2,1.3,1.9c0.3,0.7,0.5,1.4,0.5,2.1h6.2v-6.8h2.1v15.8h-2.1v-7.2h-6.2c0,0.7-0.2,1.4-0.5,2
		c-0.3,0.7-0.8,1.3-1.3,1.8s-1.3,1-2.1,1.3C607.6,708.3,606.6,708.4,605.6,708.4z M605.6,697c-0.7,0-1.3,0.1-1.9,0.3
		s-1.1,0.5-1.5,0.9c-0.4,0.4-0.7,0.8-1,1.3c-0.2,0.5-0.3,1-0.3,1.6v1.4c0,0.6,0.1,1.1,0.3,1.6c0.2,0.5,0.5,0.9,1,1.3
		c0.4,0.4,0.9,0.6,1.5,0.9s1.2,0.3,1.9,0.3s1.3-0.1,1.9-0.3s1.1-0.5,1.5-0.9c0.4-0.4,0.7-0.8,1-1.3c0.2-0.5,0.3-1,0.3-1.6v-1.4
		c0-0.6-0.1-1.1-0.3-1.6c-0.2-0.5-0.5-0.9-1-1.3c-0.4-0.4-0.9-0.6-1.5-0.9S606.3,697,605.6,697z M603.1,711.5h17.5v10.2h-2.1v-8.3
		h-15.4V711.5z"/>
	<path class="st0" d="M643.8,707.8c-0.7,0.1-1.4,0.1-2,0.2c-0.7,0.1-1.4,0.1-2.1,0.2c-0.7,0-1.4,0.1-2.2,0.1c-0.8,0-1.6,0.1-2.5,0.1
		v4.4h-2.1v-4.3c-1,0-2.1,0.1-3.3,0.1s-2.4,0-3.8,0v-1.8c2.2,0,4.1,0,5.7,0c1.6,0,3.1-0.1,4.5-0.1c1.4,0,2.7-0.1,3.9-0.2
		c1.2-0.1,2.5-0.2,3.8-0.3L643.8,707.8z M634.3,704.7c-0.9,0-1.8-0.1-2.6-0.3c-0.8-0.2-1.5-0.5-2.1-0.9c-0.6-0.4-1.1-0.9-1.4-1.4
		s-0.5-1.1-0.5-1.8v-1.1c0-0.6,0.2-1.2,0.5-1.8s0.8-1,1.4-1.4c0.6-0.4,1.3-0.7,2.1-0.9c0.8-0.2,1.7-0.3,2.6-0.3s1.8,0.1,2.6,0.3
		c0.8,0.2,1.5,0.5,2.1,0.9c0.6,0.4,1.1,0.9,1.4,1.4s0.5,1.1,0.5,1.8v1.1c0,0.6-0.2,1.2-0.5,1.8s-0.8,1-1.4,1.4
		c-0.6,0.4-1.3,0.7-2.1,0.9C636.1,704.6,635.2,704.7,634.3,704.7z M634.3,696.4c-0.6,0-1.2,0.1-1.8,0.2c-0.5,0.2-1,0.4-1.5,0.6
		c-0.4,0.3-0.8,0.6-1,0.9c-0.2,0.4-0.4,0.7-0.4,1.1v0.8c0,0.4,0.1,0.8,0.4,1.1c0.2,0.3,0.6,0.6,1,0.9c0.4,0.3,0.9,0.5,1.5,0.6
		c0.5,0.2,1.1,0.2,1.8,0.2c0.6,0,1.2-0.1,1.8-0.2c0.6-0.1,1-0.4,1.5-0.6c0.4-0.3,0.8-0.6,1-0.9c0.2-0.3,0.4-0.7,0.4-1.1v-0.8
		c0-0.4-0.1-0.7-0.4-1.1c-0.2-0.3-0.6-0.7-1-0.9c-0.4-0.3-0.9-0.5-1.5-0.6C635.5,696.5,634.9,696.4,634.3,696.4z M632.6,719.3h16
		v1.9h-18.2v-7.3h2.1V719.3z M645.9,710.6v-16.5h2.1v21.3h-2.1v-2.9h-6.2v-1.9H645.9z"/>
</g>
<g class="st3">
	<path class="st0" d="M94.1,670.8c0,2.5-0.6,4.5-1.8,5.9c-1.2,1.4-2.8,2.1-5,2.1s-3.8-0.7-5-2.1c-1.2-1.4-1.8-3.3-1.8-5.9v-2.8
		c0-2.5,0.6-4.4,1.8-5.8c1.2-1.4,2.8-2.1,5-2.1s3.8,0.7,5,2.1c1.2,1.4,1.8,3.4,1.8,5.8V670.8z M92.1,668.3c0-1.1-0.1-2.1-0.3-2.9
		c-0.2-0.8-0.5-1.5-0.9-2c-0.4-0.5-0.9-0.9-1.5-1.1c-0.6-0.2-1.2-0.3-1.9-0.3s-1.3,0.1-1.9,0.3c-0.6,0.2-1.1,0.6-1.5,1.1
		c-0.4,0.5-0.7,1.2-0.9,2c-0.2,0.8-0.3,1.8-0.3,2.9v2.1c0,1.1,0.1,2.1,0.3,2.9c0.2,0.8,0.5,1.5,0.9,2c0.4,0.5,0.9,0.9,1.5,1.1
		c0.6,0.2,1.2,0.3,1.9,0.3s1.3-0.1,1.9-0.3c0.6-0.2,1.1-0.6,1.5-1.1c0.4-0.5,0.7-1.2,0.9-2s0.3-1.8,0.3-2.9V668.3z M101,668.4h4.6
		v1.9H101v15.2h-2.1v-27.4h2.1V668.4z"/>
	<path class="st0" d="M118.5,671.6v-3.5h-7.7v-9h17.5v1.8h-15.4v5.4h15.6v1.8h-7.8v3.5h11.5v1.8H107v-1.8H118.5z M119.6,675.6
		c1.1,0,2.2,0.1,3.2,0.3c1,0.2,1.9,0.5,2.7,0.9c0.8,0.4,1.4,0.9,1.9,1.5c0.5,0.6,0.7,1.3,0.7,2.1v1c0,0.8-0.2,1.5-0.7,2.1
		c-0.5,0.6-1.1,1.1-1.9,1.5c-0.8,0.4-1.7,0.7-2.7,0.9c-1,0.2-2.1,0.3-3.2,0.3s-2.2-0.1-3.2-0.3c-1-0.2-1.9-0.5-2.7-0.9
		c-0.8-0.4-1.4-0.9-1.9-1.5c-0.5-0.6-0.7-1.3-0.7-2.1v-1c0-0.8,0.2-1.5,0.7-2.1c0.5-0.6,1.1-1.1,1.9-1.5c0.8-0.4,1.7-0.7,2.7-0.9
		C117.4,675.7,118.4,675.6,119.6,675.6z M119.6,684.4c0.8,0,1.6-0.1,2.4-0.2c0.8-0.1,1.5-0.3,2.1-0.6c0.6-0.3,1.1-0.6,1.5-1
		c0.4-0.4,0.6-0.8,0.6-1.3v-0.8c0-0.5-0.2-0.9-0.6-1.3c-0.4-0.4-0.9-0.7-1.5-1c-0.6-0.3-1.3-0.5-2.1-0.6s-1.6-0.2-2.4-0.2
		c-0.8,0-1.6,0.1-2.4,0.2c-0.8,0.1-1.5,0.3-2.1,0.6c-0.6,0.3-1.1,0.6-1.5,1c-0.4,0.4-0.6,0.8-0.6,1.3v0.8c0,0.5,0.2,0.9,0.6,1.3
		c0.4,0.4,0.9,0.7,1.5,1c0.6,0.3,1.3,0.5,2.1,0.6C117.9,684.3,118.7,684.4,119.6,684.4z"/>
	<path class="st0" d="M143.5,661.2h6.9v1.8h-15.8v-1.8h6.8v-3.5h2.1V661.2z M142.5,674.6c-1,0-1.8-0.1-2.6-0.4c-0.8-0.2-1.4-0.6-2-1
		c-0.6-0.4-1-0.9-1.3-1.5c-0.3-0.5-0.4-1.1-0.4-1.8V669c0-0.6,0.1-1.2,0.4-1.8c0.3-0.5,0.7-1,1.3-1.5c0.5-0.4,1.2-0.8,2-1
		c0.8-0.2,1.6-0.4,2.6-0.4c1,0,1.8,0.1,2.6,0.4c0.8,0.2,1.4,0.6,2,1c0.5,0.4,1,0.9,1.3,1.5c0.3,0.6,0.4,1.1,0.4,1.8v1.1
		c0,0.6-0.1,1.2-0.4,1.8c-0.3,0.6-0.7,1-1.3,1.5c-0.6,0.4-1.2,0.8-2,1C144.3,674.5,143.4,674.6,142.5,674.6z M142.5,666.1
		c-0.6,0-1.2,0.1-1.7,0.2c-0.5,0.2-1,0.4-1.3,0.6c-0.4,0.3-0.7,0.6-0.9,0.9c-0.2,0.4-0.3,0.7-0.3,1.1v0.9c0,0.4,0.1,0.8,0.3,1.1
		c0.2,0.4,0.5,0.7,0.9,0.9c0.4,0.3,0.8,0.5,1.3,0.6c0.5,0.2,1.1,0.2,1.7,0.2c0.6,0,1.2-0.1,1.7-0.2c0.5-0.1,1-0.4,1.4-0.6
		c0.4-0.3,0.7-0.6,0.9-0.9c0.2-0.3,0.3-0.7,0.3-1.1v-0.9c0-0.4-0.1-0.8-0.3-1.1c-0.2-0.3-0.5-0.7-0.9-0.9c-0.4-0.3-0.8-0.5-1.4-0.6
		S143.1,666.1,142.5,666.1z M138.6,676.7h17.2v9h-2.1v-7.1h-15.1V676.7z M155.8,665.6h4.2v1.9h-4.2v7.7h-2.1v-17h2.1V665.6z"/>
	<path class="st0" d="M173.2,660.7v1.9H165v13.5h1.3c0.8,0,1.6,0,2.3,0c0.7,0,1.4,0,2.1-0.1c0.7,0,1.4-0.1,2-0.2
		c0.7-0.1,1.3-0.2,2-0.3l0.2,1.9c-1.4,0.2-2.8,0.4-4.2,0.5c-1.3,0.1-2.8,0.1-4.3,0.1h-3.6v-17.3H173.2z M178.9,667.9h4v-9.9h2.1
		v27.4h-2.1v-15.7h-4v14.3h-2.1v-25.5h2.1V667.9z"/>
	<path class="st0" d="M203.1,678.6c-2,0-3.5-0.7-4.4-2c-1-1.4-1.4-3.3-1.4-5.9v-2.5c0-2.6,0.5-4.5,1.4-5.9c0.9-1.4,2.4-2,4.4-2
		c1.4,0,2.6,0.4,3.4,1.1c0.9,0.7,1.5,1.7,1.9,3.1h4.3v-5.8h2.1v25.5h-2.1v-9.8h-4.3C207.7,677.2,205.9,678.6,203.1,678.6z
		 M203.1,662.2c-1.3,0-2.3,0.5-2.9,1.6s-0.9,2.6-0.9,4.7v2c0,2.1,0.3,3.6,0.9,4.7c0.6,1.1,1.6,1.6,2.9,1.6c1.3,0,2.3-0.5,2.9-1.6
		c0.6-1,0.9-2.6,0.9-4.7v-2c0-2.1-0.3-3.6-0.9-4.7S204.4,662.2,203.1,662.2z M208.9,670.7c0,0.7,0,1.3-0.1,1.8h3.9v-6.2h-3.9
		c0,0.3,0.1,0.6,0.1,1c0,0.3,0,0.7,0,1V670.7z M220,685.5h-2.1v-27.4h2.1V685.5z"/>
	<path class="st0" d="M231.6,667.8c0,0.3-0.3,0.6-0.7,1.1c-0.4,0.5-1,1-1.6,1.6c-0.5,0.5-1.2,1.1-2,1.8c-0.8,0.7-1.6,1.4-2.5,2
		l-1.3-1.5c0.8-0.6,1.7-1.3,2.5-2c0.9-0.7,1.6-1.4,2.3-2.1c0.5-0.5,0.9-0.9,1.1-1.3c0.3-0.4,0.5-0.7,0.6-1.1s0.2-0.7,0.3-1.1
		c0-0.4,0.1-0.9,0.1-1.5v-4.4h2.2v4.3c0,0.6,0,1,0.1,1.4c0,0.4,0.1,0.8,0.3,1.1s0.4,0.7,0.7,1c0.3,0.3,0.7,0.7,1.2,1.2
		c0.7,0.6,1.5,1.3,2.2,1.9c0.8,0.6,1.5,1.2,2.1,1.6l-1.3,1.5c-0.8-0.6-1.5-1.2-2.2-1.7c-0.7-0.5-1.2-1-1.8-1.5
		C232.6,669.1,231.8,668.3,231.6,667.8L231.6,667.8z M230.9,683.3H246v1.9h-17.2V676h2.1V683.3z M245.1,666h4.2v1.9h-4.2v9.8H243
		v-19.6h2.1V666z"/>
	<path class="st0" d="M92.7,704.7v6.8h3.2v1.9h-3.2v4.8h-2.1v-4.8H79.8v-1.9l10.5-14.9h2.4l-10.5,14.9h8.4v-6.8H92.7z"/>
	<path class="st0" d="M105.9,718.2v-19l-5.2,3.2l-1-1.7l6.7-4.1h1.6v21.6H105.9z"/>
	<path class="st0" d="M117.1,699.6c0.3-0.4,0.6-0.9,1-1.3c0.4-0.4,0.8-0.8,1.3-1.1c0.5-0.3,1.1-0.6,1.7-0.8c0.6-0.2,1.4-0.3,2.2-0.3
		c1,0,1.9,0.1,2.7,0.4c0.8,0.3,1.5,0.6,2,1.1c0.5,0.5,1,1,1.3,1.7c0.3,0.7,0.4,1.4,0.4,2.2v0.3c0,0.4-0.1,0.9-0.2,1.3
		c-0.1,0.5-0.3,0.9-0.6,1.4c-0.3,0.4-0.7,0.9-1.1,1.2s-1.1,0.7-1.8,0.9c1.5,0.3,2.6,0.9,3.4,1.8c0.8,0.9,1.2,2,1.2,3.3v0.5
		c0,0.8-0.1,1.5-0.4,2.3c-0.3,0.7-0.7,1.4-1.2,2c-0.6,0.6-1.3,1.1-2.2,1.4c-0.9,0.4-2.1,0.5-3.4,0.5c-1.3,0-2.5-0.2-3.6-0.6
		c-1.2-0.4-2.3-1-3.3-1.8l1.1-1.7c1.1,0.8,2.1,1.3,3,1.6c0.9,0.3,1.9,0.5,2.9,0.5c0.9,0,1.7-0.1,2.4-0.4c0.7-0.3,1.2-0.6,1.6-1
		c0.4-0.4,0.7-0.9,0.9-1.4s0.3-1,0.3-1.5v-0.4c0-0.8-0.2-1.5-0.5-2c-0.3-0.5-0.7-1-1.2-1.3c-0.5-0.3-1-0.5-1.6-0.6
		c-0.6-0.1-1.1-0.2-1.7-0.2h-2.4V706h2.5c0.7,0,1.3-0.1,1.8-0.4c0.5-0.2,0.9-0.6,1.2-1c0.3-0.4,0.6-0.8,0.8-1.3
		c0.2-0.5,0.3-1,0.3-1.4v-0.2c0-1.1-0.4-1.9-1.1-2.6c-0.8-0.6-1.8-0.9-3.1-0.9c-0.9,0-1.7,0.2-2.5,0.5c-0.8,0.4-1.5,1-2.1,2
		L117.1,699.6z"/>
	<path class="st0" d="M141.3,708.4c-1.1,0-2-0.2-2.8-0.5c-0.8-0.3-1.5-0.8-2.1-1.3c-0.6-0.5-1-1.2-1.3-1.9c-0.3-0.7-0.5-1.4-0.5-2.1
		v-1.7c0-0.7,0.2-1.4,0.5-2.1c0.3-0.7,0.7-1.3,1.3-1.9c0.6-0.5,1.3-1,2.1-1.3c0.8-0.3,1.8-0.5,2.8-0.5c1,0,2,0.2,2.8,0.5
		c0.8,0.3,1.5,0.8,2.1,1.3c0.6,0.6,1,1.2,1.3,1.9s0.5,1.4,0.5,2.1h6.2v-6.8h2.1v15.8h-2.1v-7.2H148c0,0.7-0.2,1.4-0.5,2
		c-0.3,0.7-0.8,1.3-1.3,1.8c-0.6,0.5-1.3,1-2.1,1.3C143.3,708.3,142.4,708.4,141.3,708.4z M141.3,697c-0.7,0-1.3,0.1-1.9,0.3
		c-0.6,0.2-1.1,0.5-1.5,0.9c-0.4,0.4-0.7,0.8-1,1.3c-0.2,0.5-0.3,1-0.3,1.6v1.4c0,0.6,0.1,1.1,0.3,1.6c0.2,0.5,0.5,0.9,1,1.3
		c0.4,0.4,0.9,0.6,1.5,0.9c0.6,0.2,1.2,0.3,1.9,0.3c0.7,0,1.3-0.1,1.9-0.3c0.6-0.2,1.1-0.5,1.5-0.9c0.4-0.4,0.7-0.8,1-1.3
		c0.2-0.5,0.3-1,0.3-1.6v-1.4c0-0.6-0.1-1.1-0.3-1.6c-0.2-0.5-0.6-0.9-1-1.3c-0.4-0.4-0.9-0.6-1.5-0.9
		C142.6,697.1,142,697,141.3,697z M138.8,711.5h17.5v10.2h-2.1v-8.3h-15.4V711.5z"/>
	<path class="st0" d="M179.5,707.8c-0.7,0.1-1.4,0.1-2,0.2c-0.7,0.1-1.4,0.1-2.1,0.2c-0.7,0-1.4,0.1-2.2,0.1c-0.8,0-1.6,0.1-2.5,0.1
		v4.4h-2.1v-4.3c-1,0-2.1,0.1-3.3,0.1c-1.2,0-2.4,0-3.8,0v-1.8c2.2,0,4.1,0,5.7,0s3.1-0.1,4.5-0.1c1.4,0,2.7-0.1,3.9-0.2
		c1.2-0.1,2.4-0.2,3.8-0.3L179.5,707.8z M170,704.7c-0.9,0-1.8-0.1-2.6-0.3c-0.8-0.2-1.5-0.5-2.1-0.9s-1.1-0.9-1.4-1.4
		c-0.3-0.5-0.5-1.1-0.5-1.8v-1.1c0-0.6,0.2-1.2,0.5-1.8c0.3-0.5,0.8-1,1.4-1.4s1.3-0.7,2.1-0.9c0.8-0.2,1.7-0.3,2.6-0.3
		c0.9,0,1.8,0.1,2.6,0.3c0.8,0.2,1.5,0.5,2.1,0.9c0.6,0.4,1.1,0.9,1.4,1.4c0.3,0.5,0.5,1.1,0.5,1.8v1.1c0,0.6-0.2,1.2-0.5,1.8
		c-0.3,0.5-0.8,1-1.4,1.4c-0.6,0.4-1.3,0.7-2.1,0.9C171.8,704.6,170.9,704.7,170,704.7z M170,696.4c-0.6,0-1.2,0.1-1.8,0.2
		c-0.6,0.2-1,0.4-1.5,0.6c-0.4,0.3-0.8,0.6-1,0.9c-0.2,0.4-0.4,0.7-0.4,1.1v0.8c0,0.4,0.1,0.8,0.4,1.1c0.2,0.3,0.6,0.6,1,0.9
		c0.4,0.3,0.9,0.5,1.5,0.6c0.5,0.2,1.1,0.2,1.8,0.2c0.6,0,1.2-0.1,1.8-0.2c0.6-0.1,1-0.4,1.5-0.6c0.4-0.3,0.8-0.6,1-0.9
		c0.2-0.3,0.4-0.7,0.4-1.1v-0.8c0-0.4-0.1-0.7-0.4-1.1c-0.2-0.3-0.6-0.7-1-0.9c-0.4-0.3-0.9-0.5-1.5-0.6
		C171.2,696.5,170.6,696.4,170,696.4z M168.3,719.3h16v1.9h-18.1v-7.3h2.1V719.3z M181.6,710.6v-16.5h2.1v21.3h-2.1v-2.9h-6.2v-1.9
		H181.6z"/>
</g>
<g>
	<text transform="matrix(1 0 0 1 1059.6401 55.9691)" class="st3"><tspan x="0" y="0" class="st0" style="font-family:'NanumSquareR'; font-size:30px;"> </tspan><tspan x="0" y="36" class="st0" style="font-family:'NanumSquareR'; font-size:30px;">28736</tspan></text>
	<text transform="matrix(1 0 0 1 1285.3455 55.9691)" class="st3"><tspan x="0" y="0" class="st1" style="font-family:'NanumSquareR'; font-size:30px;"> </tspan><tspan x="0" y="36" class="st1" style="font-family:'NanumSquareR'; font-size:30px;">8655</tspan></text>
	<g>
		<text transform="matrix(1 0 0 1 1505.0642 55.9691)"><tspan x="0" y="0" class="st0" style="font-family:'NanumSquareR'; font-size:30px;"></tspan><tspan x="0" y="36" class="st0" style="font-family:'NanumSquareR'; font-size:30px;">42</tspan></text>
	</g>
	<text transform="matrix(1 0 0 1 1330.8573 775.5588)" class="st3"><tspan x="0" y="0" class="st4" style="font-family:'NanumSquareR'; font-size:30px;">   </tspan><tspan x="0" y="36" class="st4" style="font-family:'NanumSquareR'; font-size:30px;">3</tspan></text>
	<text transform="matrix(1 0 0 1 1515.3558 775.5588)" class="st3"><tspan x="0" y="0" class="st0" style="font-family:'NanumSquareR'; font-size:30px;">   </tspan><tspan x="0" y="36" class="st0" style="font-family:'NanumSquareR'; font-size:30px;">6</tspan></text>
	<text transform="matrix(1 0 0 1 1109.3212 775.5587)" class="st3"><tspan x="0" y="0" class="st0" style="font-family:'NanumSquareR'; font-size:30px;">  </tspan><tspan x="0" y="36" class="st0" style="font-family:'NanumSquareR'; font-size:30px;">413</tspan></text>
</g>
</svg>
