<?xml version="1.0" encoding="utf-8"?>
<!-- Generator: Adobe Illustrator 25.2.3, SVG Export Plug-In . SVG Version: 6.00 Build 0)  -->
<svg version="1.1" id="Layer_1" xmlns="http://www.w3.org/2000/svg" xmlns:xlink="http://www.w3.org/1999/xlink" x="0px" y="0px"
	 viewBox="0 0 760 760" style="enable-background:new 0 0 760 760;" xml:space="preserve">
<style type="text/css">
	.st0{opacity:3.000000e-02;enable-background:new    ;}
	.st1{fill:#D9D9D9;}
	.st2{fill:#FCCC00;}
	.st3{fill:#BCBCBC;}
	.st4{enable-background:new    ;}
	.st5{fill:none;stroke:#BCBCBC;stroke-width:3;stroke-miterlimit:10;stroke-dasharray:11.9999,11.9999;}
	.st6{fill:none;stroke:#FCCC00;stroke-width:4;stroke-miterlimit:10;}
	.st7{fill:#252323;}
</style>
<g class="st0">
	<path class="st1" d="M0.1,653.3v-6.2l7.9-7.6c18.9-18,27.4-27.5,27.5-38.7c0-7.5-3.6-14.5-14.7-14.5c-6.7,0-12.3,3.4-15.7,6.3
		l-3.2-7c5.2-4.3,12.4-7.5,21-7.5c15.9,0,22.7,10.9,22.7,21.6c0,13.7-9.9,24.7-25.5,39.7l-5.9,5.4v0.2h33.2v8.3H0.1L0.1,653.3z"/>
	<path class="st1" d="M107.7,615.5c0,25.2-9.4,39.1-25.8,39.1c-14.5,0-24.2-13.6-24.5-38c0-24.8,10.7-38.5,25.8-38.5
		C98.9,578,107.7,591.9,107.7,615.5z M67.5,616.6c0,19.2,5.9,30.2,15,30.2c10.2,0,15.2-12,15.2-30.9c0-18.2-4.7-30.2-15-30.2
		C73.9,585.8,67.5,596.5,67.5,616.6z"/>
	<path class="st1" d="M138.7,588.6h-0.2l-12.9,6.9l-2-7.6l16.2-8.6h8.5v74h-9.7L138.7,588.6L138.7,588.6z"/>
	<path class="st1" d="M174.4,634.5c0-9.4,5.6-15.9,14.7-19.8l-0.1-0.4c-8.2-3.8-11.7-10.2-11.7-16.6c0-11.7,9.9-19.7,22.9-19.7
		c14.3,0,21.6,9,21.6,18.2c0,6.3-3.1,13-12.2,17.3v0.4c9.2,3.6,14.9,10.1,14.9,19.1c0,12.9-11,21.6-25.2,21.6
		C183.8,654.5,174.4,645.3,174.4,634.5z M214.3,634c0-9-6.3-13.3-16.3-16.2c-8.6,2.5-13.3,8.2-13.3,15.3
		c-0.4,7.5,5.3,14.1,14.8,14.1C208.5,647.3,214.3,641.7,214.3,634z M186.7,597.1c0,7.4,5.6,11.4,14.1,13.7
		c6.4-2.2,11.3-6.7,11.3-13.4c0-5.9-3.5-12.1-12.6-12.1C191.3,585.2,186.7,590.7,186.7,597.1z"/>
</g>
<g class="st0">
	<path class="st1" d="M0,99.4v-6.2l7.9-7.6c18.9-18,27.4-27.5,27.5-38.7c0-7.5-3.6-14.5-14.7-14.5C14,32.4,8.4,35.9,5,38.7l-3.2-7
		c5.2-4.3,12.4-7.5,21-7.5c15.9,0,22.7,10.9,22.7,21.6c0,13.7-9.9,24.7-25.5,39.7L14,90.9v0.2h33.2v8.3L0,99.4L0,99.4z"/>
	<path class="st1" d="M107.6,61.6c0,25.2-9.4,39.1-25.8,39.1c-14.5,0-24.2-13.6-24.5-38c0-24.8,10.7-38.5,25.8-38.5
		C98.7,24.1,107.6,38,107.6,61.6z M67.4,62.7c0,19.2,5.9,30.2,15,30.2c10.2,0,15.2-12,15.2-30.9c0-18.2-4.7-30.2-15-30.2
		C73.8,31.8,67.4,42.6,67.4,62.7z"/>
	<path class="st1" d="M138.5,34.7h-0.2l-12.9,6.9l-2-7.6l16.2-8.6h8.5v74h-9.7L138.5,34.7L138.5,34.7z"/>
	<path class="st1" d="M181.1,92.3c2.2,0.2,4.7,0,8.1-0.4c5.8-0.8,11.3-3.2,15.5-7.2c4.9-4.4,8.4-10.9,9.8-19.7H214c-4,5-10,8-17.4,8
		c-13.3,0-21.9-10-21.9-22.7c0-14,10.1-26.3,25.3-26.3c15.2,0,24.5,12.3,24.5,31.2c0,16.3-5.4,27.7-12.7,34.7
		c-5.7,5.6-13.6,9-21.6,9.9c-3.6,0.6-6.8,0.7-9.2,0.6L181.1,92.3L181.1,92.3z M184.7,49.7c0,9.2,5.6,15.7,14.2,15.7
		c6.7,0,12-3.3,14.6-7.8c0.6-0.9,0.9-2.1,0.9-3.6c0-12.6-4.7-22.3-15.2-22.3C190.7,31.7,184.7,39.3,184.7,49.7z"/>
</g>
<g>
	<path class="st2" d="M645.2,132.6h-1.3l5-11.2H642v-1.1h8.2v0.9L645.2,132.6z"/>
	<path class="st2" d="M652.6,122c0.1-0.2,0.3-0.5,0.5-0.7s0.5-0.4,0.8-0.6s0.6-0.3,1-0.4s0.8-0.2,1.2-0.2c0.6,0,1.1,0.1,1.5,0.2
		s0.8,0.4,1.1,0.6c0.3,0.3,0.6,0.6,0.7,1s0.3,0.8,0.3,1.2v0.2c0,0.2,0,0.5-0.1,0.8s-0.2,0.5-0.3,0.8c-0.2,0.2-0.4,0.5-0.6,0.7
		c-0.3,0.2-0.6,0.4-1,0.5c0.8,0.1,1.5,0.5,1.9,1s0.7,1.1,0.7,1.9v0.3c0,0.4-0.1,0.9-0.2,1.3s-0.4,0.8-0.7,1.1s-0.7,0.6-1.3,0.8
		c-0.5,0.2-1.2,0.3-1.9,0.3s-1.4-0.1-2.1-0.3c-0.7-0.2-1.3-0.6-1.9-1l0.6-1c0.6,0.4,1.2,0.7,1.7,0.9c0.5,0.2,1.1,0.3,1.6,0.3
		s1-0.1,1.4-0.2s0.7-0.3,0.9-0.6s0.4-0.5,0.5-0.8s0.2-0.6,0.2-0.9V129c0-0.5-0.1-0.8-0.3-1.1c-0.2-0.3-0.4-0.5-0.7-0.7
		s-0.6-0.3-0.9-0.4s-0.6-0.1-0.9-0.1h-1.4v-1h1.4c0.4,0,0.7-0.1,1-0.2s0.5-0.3,0.7-0.6c0.2-0.2,0.3-0.5,0.4-0.8s0.1-0.5,0.1-0.8
		v-0.1c0-0.6-0.2-1.1-0.6-1.5s-1-0.5-1.8-0.5c-0.5,0-1,0.1-1.4,0.3s-0.9,0.6-1.2,1.1L652.6,122z"/>
	<path class="st2" d="M662.2,130.1c0.8-0.5,1.4-1,2-1.4s1-0.8,1.4-1.1s0.7-0.7,0.9-1s0.4-0.6,0.5-1s0.2-0.7,0.2-1.1s0.1-0.8,0.1-1.3
		v-1.7h-4.7v-1.1h5.8v2.8c0,0.6,0,1.1-0.1,1.5s-0.1,0.9-0.3,1.3c-0.1,0.4-0.3,0.8-0.6,1.1c-0.2,0.4-0.6,0.7-1,1.1
		c-0.4,0.4-0.9,0.8-1.5,1.2s-1.3,0.9-2.1,1.5L662.2,130.1z M671.7,124.5h2.3v-5.6h1.2v15.5H674v-8.9h-2.3v8.1h-1.2v-14.5h1.2V124.5z
		"/>
</g>
<g>
	<g>
		<path class="st3" d="M642.4,21.7c0.1-0.2,0.3-0.5,0.5-0.7s0.5-0.4,0.8-0.6s0.6-0.3,1-0.4s0.8-0.2,1.2-0.2c0.6,0,1.1,0.1,1.5,0.2
			s0.8,0.4,1.1,0.6c0.3,0.3,0.6,0.6,0.7,1s0.3,0.8,0.3,1.2V23c0,0.2,0,0.5-0.1,0.8s-0.2,0.5-0.3,0.8c-0.2,0.2-0.4,0.5-0.6,0.7
			c-0.3,0.2-0.6,0.4-1,0.5c0.9,0.1,1.5,0.5,1.9,1s0.7,1.1,0.7,1.9v0.2c0,0.4-0.1,0.9-0.2,1.3s-0.4,0.8-0.7,1.1
			c-0.3,0.3-0.7,0.6-1.3,0.8c-0.6,0.2-1.2,0.3-1.9,0.3s-1.4-0.1-2.1-0.3c-0.7-0.2-1.3-0.6-1.9-1l0.6-1c0.6,0.4,1.2,0.7,1.7,0.9
			c0.5,0.2,1.1,0.3,1.6,0.3s1-0.1,1.4-0.2s0.7-0.3,0.9-0.6s0.4-0.5,0.5-0.8s0.2-0.6,0.2-0.9v-0.2c0-0.5-0.1-0.8-0.3-1.1
			c-0.2-0.3-0.4-0.5-0.7-0.7s-0.6-0.3-0.9-0.4s-0.6-0.1-0.9-0.1h-1.4v-1h1.4c0.4,0,0.7-0.1,1-0.2s0.5-0.3,0.7-0.6
			c0.2-0.2,0.3-0.5,0.4-0.8s0.1-0.5,0.1-0.8l0,0c0-0.6-0.2-1.1-0.6-1.5s-1-0.5-1.8-0.5c-0.5,0-1,0.1-1.4,0.3s-0.9,0.6-1.2,1.1
			L642.4,21.7z"/>
		<path class="st3" d="M660.4,27.1c0,1.7-0.3,3.1-1,4s-1.7,1.4-3.2,1.4s-2.5-0.5-3.2-1.4s-1-2.3-1-4v-1.9c0-1.7,0.3-3,1-4
			c0.7-0.9,1.7-1.4,3.1-1.4c1.5,0,2.5,0.5,3.2,1.4s1,2.2,1,4L660.4,27.1L660.4,27.1z M659.2,25.1c0-1.5-0.2-2.6-0.7-3.3
			s-1.2-1-2.2-1c-0.9,0-1.7,0.3-2.2,1s-0.8,1.8-0.8,3.3V27c0,1.5,0.3,2.6,0.8,3.3c0.5,0.7,1.2,1,2.2,1s1.7-0.3,2.2-1
			s0.7-1.8,0.7-3.3V25.1z"/>
		<path class="st3" d="M670.6,27.1c0,1.7-0.3,3.1-1,4s-1.7,1.4-3.2,1.4s-2.5-0.5-3.2-1.4s-1-2.3-1-4v-1.9c0-1.7,0.3-3,1-4
			c0.7-0.9,1.7-1.4,3.1-1.4c1.5,0,2.5,0.5,3.2,1.4s1,2.2,1,4L670.6,27.1L670.6,27.1z M669.4,25.1c0-1.5-0.2-2.6-0.7-3.3
			s-1.2-1-2.2-1c-0.9,0-1.7,0.3-2.2,1s-0.8,1.8-0.8,3.3V27c0,1.5,0.3,2.6,0.8,3.3c0.5,0.7,1.2,1,2.2,1s1.7-0.3,2.2-1
			s0.7-1.8,0.7-3.3V25.1z"/>
		<path class="st3" d="M675.8,32.3h-1.3l5-11.2h-6.9V20h8.2v0.9L675.8,32.3z"/>
		<path class="st3" d="M691,27.1c0,1.7-0.3,3.1-1,4s-1.7,1.4-3.2,1.4s-2.5-0.5-3.2-1.4s-1-2.3-1-4v-1.9c0-1.7,0.3-3,1-4
			c0.7-0.9,1.7-1.4,3.1-1.4c1.5,0,2.5,0.5,3.2,1.4s1,2.2,1,4L691,27.1L691,27.1z M689.8,25.1c0-1.5-0.2-2.6-0.7-3.3s-1.2-1-2.2-1
			c-0.9,0-1.7,0.3-2.2,1s-0.8,1.8-0.8,3.3V27c0,1.5,0.3,2.6,0.8,3.3c0.5,0.7,1.2,1,2.2,1s1.7-0.3,2.2-1s0.7-1.8,0.7-3.3V25.1z"/>
		<path class="st3" d="M693.2,27.2c0.9-0.4,1.7-0.8,2.3-1.1c0.6-0.3,1.2-0.6,1.6-0.9s0.8-0.5,1-0.8c0.3-0.2,0.5-0.5,0.6-0.8
			s0.2-0.5,0.3-0.8c0-0.3,0.1-0.6,0.1-1v-1.2h-5.4v-1.1h6.5v2.4c0,0.4,0,0.7-0.1,1h4v-4.3h1.2v11.1h-1.2v-5.8h-4.3
			c-0.1,0.4-0.4,0.7-0.6,1c-0.3,0.3-0.7,0.6-1.2,1c-0.5,0.3-1.1,0.7-1.8,1c-0.7,0.4-1.6,0.8-2.6,1.2L693.2,27.2z M697.1,32.9h8.7v1
			h-9.9v-5h1.2V32.9L697.1,32.9z"/>
	</g>
</g>
<g class="st4">
	<path class="st3" d="M156.5,723c0,1.4-0.3,2.5-1,3.3s-1.6,1.2-2.8,1.2s-2.1-0.4-2.8-1.2s-1-1.9-1-3.3v-1.6c0-1.4,0.3-2.5,1-3.3
		s1.6-1.2,2.8-1.2s2.1,0.4,2.8,1.2s1,1.9,1,3.3V723z M155.4,721.6c0-0.6-0.1-1.2-0.2-1.6c-0.1-0.5-0.3-0.8-0.5-1.1s-0.5-0.5-0.8-0.6
		s-0.7-0.2-1.1-0.2c-0.4,0-0.8,0.1-1.1,0.2c-0.3,0.1-0.6,0.3-0.8,0.6s-0.4,0.7-0.5,1.1c-0.1,0.5-0.2,1-0.2,1.6v1.2
		c0,0.6,0.1,1.2,0.2,1.7c0.1,0.5,0.3,0.8,0.5,1.1s0.5,0.5,0.8,0.6s0.7,0.2,1.1,0.2c0.4,0,0.8-0.1,1.1-0.2c0.3-0.1,0.6-0.3,0.8-0.6
		s0.4-0.7,0.5-1.1c0.1-0.5,0.2-1,0.2-1.7V721.6z M160.4,721.6h2.6v1.1h-2.6v8.6h-1.2v-15.5h1.2V721.6z"/>
	<path class="st3" d="M170.4,723.5v-2H166v-5.1h9.9v1h-8.7v3h8.8v1h-4.4v2h6.5v1h-14.3v-1L170.4,723.5L170.4,723.5z M170.9,725.8
		c0.6,0,1.2,0.1,1.8,0.2c0.6,0.1,1.1,0.3,1.5,0.5s0.8,0.5,1.1,0.9c0.3,0.3,0.4,0.7,0.4,1.2v0.6c0,0.4-0.1,0.8-0.4,1.2
		c-0.3,0.3-0.6,0.6-1.1,0.9s-1,0.4-1.5,0.5c-0.6,0.1-1.2,0.2-1.8,0.2c-0.6,0-1.2-0.1-1.8-0.2c-0.6-0.1-1.1-0.3-1.5-0.5
		c-0.4-0.2-0.8-0.5-1.1-0.9c-0.3-0.3-0.4-0.7-0.4-1.2v-0.6c0-0.5,0.1-0.8,0.4-1.2c0.3-0.3,0.6-0.6,1.1-0.9c0.4-0.2,1-0.4,1.5-0.5
		C169.7,725.8,170.3,725.8,170.9,725.8z M170.9,730.8c0.5,0,0.9,0,1.3-0.1s0.8-0.2,1.2-0.3c0.3-0.1,0.6-0.3,0.8-0.6
		c0.2-0.2,0.3-0.5,0.3-0.8v-0.4c0-0.3-0.1-0.5-0.3-0.8c-0.2-0.2-0.5-0.4-0.8-0.6c-0.3-0.1-0.7-0.3-1.2-0.3c-0.4-0.1-0.9-0.1-1.3-0.1
		c-0.5,0-0.9,0-1.4,0.1c-0.4,0.1-0.8,0.2-1.2,0.3c-0.3,0.1-0.6,0.3-0.8,0.6c-0.2,0.2-0.3,0.5-0.3,0.8v0.4c0,0.3,0.1,0.5,0.3,0.8
		c0.2,0.2,0.5,0.4,0.8,0.6c0.3,0.1,0.7,0.3,1.2,0.3C170,730.8,170.5,730.8,170.9,730.8z"/>
	<path class="st3" d="M184.5,717.6h3.9v1h-8.9v-1h3.9v-2h1.2L184.5,717.6L184.5,717.6z M183.9,725.3c-0.5,0-1-0.1-1.5-0.2
		c-0.4-0.1-0.8-0.3-1.1-0.6c-0.3-0.2-0.5-0.5-0.7-0.8c-0.2-0.3-0.2-0.6-0.2-1v-0.6c0-0.4,0.1-0.7,0.2-1c0.2-0.3,0.4-0.6,0.7-0.8
		c0.3-0.2,0.7-0.4,1.1-0.6c0.4-0.1,0.9-0.2,1.5-0.2c0.6,0,1,0.1,1.5,0.2c0.4,0.1,0.8,0.3,1.1,0.6c0.3,0.2,0.5,0.5,0.7,0.8
		s0.2,0.6,0.2,1v0.6c0,0.4-0.1,0.7-0.2,1c-0.2,0.3-0.4,0.6-0.7,0.8c-0.3,0.2-0.7,0.4-1.1,0.6C185,725.1,184.5,725.3,183.9,725.3z
		 M183.9,720.4c-0.4,0-0.7,0-1,0.1s-0.5,0.2-0.8,0.4c-0.2,0.2-0.4,0.3-0.5,0.5c-0.1,0.2-0.2,0.4-0.2,0.6v0.5c0,0.2,0.1,0.4,0.2,0.6
		c0.1,0.2,0.3,0.4,0.5,0.5c0.2,0.2,0.5,0.3,0.8,0.4s0.6,0.1,1,0.1c0.4,0,0.7,0,1-0.1s0.6-0.2,0.8-0.4s0.4-0.3,0.5-0.5
		c0.1-0.2,0.2-0.4,0.2-0.6V722c0-0.2-0.1-0.4-0.2-0.6s-0.3-0.4-0.5-0.5c-0.2-0.2-0.5-0.3-0.8-0.4
		C184.6,720.4,184.3,720.4,183.9,720.4z M181.8,726.4h9.7v5.1h-1.2v-4h-8.6L181.8,726.4L181.8,726.4z M191.5,720.1h2.4v1.1h-2.4v4.4
		h-1.2v-9.7h1.2V720.1z"/>
	<path class="st3" d="M201.3,717.4v1.1h-4.7v7.7h0.7c0.5,0,0.9,0,1.3,0s0.8,0,1.2-0.1c0.4,0,0.8-0.1,1.1-0.1c0.4,0,0.8-0.1,1.1-0.2
		l0.1,1.1c-0.8,0.1-1.6,0.2-2.4,0.3s-1.6,0.1-2.4,0.1h-2v-9.8L201.3,717.4L201.3,717.4z M204.6,721.4h2.3v-5.6h1.2v15.5h-1.2v-8.9
		h-2.3v8.1h-1.2V716h1.2V721.4z"/>
	<path class="st3" d="M219.3,721.4c0,0.1-0.2,0.3-0.4,0.6s-0.6,0.6-0.9,0.9c-0.3,0.3-0.7,0.6-1.1,1c-0.5,0.4-0.9,0.8-1.4,1.2
		l-0.7-0.9c0.5-0.4,0.9-0.7,1.4-1.1c0.5-0.4,0.9-0.8,1.3-1.2c0.3-0.3,0.5-0.5,0.6-0.7c0.2-0.2,0.3-0.4,0.4-0.6
		c0.1-0.2,0.1-0.4,0.2-0.6c0-0.2,0-0.5,0-0.8v-2.5h1.2v2.5c0,0.3,0,0.6,0,0.8s0.1,0.4,0.2,0.6c0.1,0.2,0.2,0.4,0.4,0.6
		c0.2,0.2,0.4,0.4,0.7,0.7c0.4,0.4,0.8,0.7,1.3,1.1c0.4,0.4,0.8,0.7,1.2,1l-0.7,0.8c-0.5-0.4-0.9-0.7-1.3-1c-0.4-0.3-0.7-0.6-1-0.8
		C219.8,722,219.4,721.6,219.3,721.4L219.3,721.4z M219,730.1h8.7v1.1h-9.9V726h1.2C219,726,219,730.1,219,730.1z M227.2,726.9H226
		v-11.1h1.2V726.9z"/>
	<path class="st3" d="M235.4,728.1v-6h1.2v6h7.6v1h-14.3v-1H235.4z M240.2,726c0.1-0.5,0.2-1,0.3-1.5s0.1-1,0.2-1.5
		c0.1-0.5,0.1-1,0.1-1.5s0-1.1,0-1.6v-1.4h-9.1v-1.1H242v1.8c0,0.7,0,1.4,0,2s-0.1,1.2-0.1,1.8c-0.1,0.6-0.1,1.1-0.2,1.6
		c-0.1,0.5-0.2,1.1-0.3,1.6L240.2,726z"/>
	<path class="st3" d="M246.1,724.4c0.9-0.4,1.7-0.8,2.3-1.1s1.2-0.6,1.6-0.9c0.4-0.3,0.8-0.5,1-0.8c0.3-0.2,0.5-0.5,0.6-0.8
		c0.1-0.3,0.2-0.5,0.3-0.8c0-0.3,0.1-0.6,0.1-1v-1.2h-5.4v-1.1h6.5v2.3c0,0.4,0,0.7-0.1,1h4v-4.3h1.2v11.1H257V721h-4.3
		c-0.1,0.4-0.4,0.7-0.6,1c-0.3,0.3-0.7,0.6-1.2,1c-0.5,0.3-1.1,0.7-1.8,1c-0.7,0.3-1.6,0.8-2.6,1.2L246.1,724.4z M250,730.1h8.7v1.1
		h-9.9v-5.1h1.2C250,726.1,250,730.1,250,730.1z"/>
	<path class="st3" d="M275.2,724.8v1h-6.6v5.6h-1.2v-5.6h-6.5v-1H275.2z M270,721.4c-1.1-0.6-1.8-1-2-1.4l0,0
		c-0.2,0.4-0.9,0.9-2,1.4c-0.5,0.2-1,0.5-1.6,0.8s-1.3,0.6-2,0.8l-0.5-1c0.6-0.2,1.3-0.5,1.9-0.8c0.6-0.3,1.3-0.6,1.8-0.9
		c0.3-0.2,0.6-0.3,0.8-0.5c0.2-0.2,0.4-0.3,0.6-0.6c0.1-0.2,0.2-0.4,0.3-0.7c0.1-0.3,0.1-0.6,0.1-1v-1.4h1.2v1.4c0,0.4,0,0.7,0.1,1
		c0.1,0.3,0.2,0.5,0.3,0.7s0.3,0.4,0.5,0.6c0.2,0.2,0.5,0.3,0.8,0.5c0.5,0.3,1.1,0.6,1.8,0.9c0.7,0.3,1.3,0.6,1.9,0.8l-0.4,1
		c-0.7-0.3-1.3-0.5-2-0.8C271,721.9,270.5,721.8,270,721.4z"/>
	<path class="st3" d="M285.9,723.1c0.3-0.4,0.6-0.7,0.8-1c0.2-0.3,0.4-0.5,0.5-0.8c0.1-0.2,0.2-0.4,0.2-0.6c0-0.2,0.1-0.3,0.1-0.5
		v-0.1c0-0.6-0.2-1.1-0.6-1.5s-1-0.5-1.7-0.5c-0.5,0-1.1,0.1-1.5,0.4c-0.5,0.3-0.9,0.7-1.3,1.5l-1-0.6c0.1-0.3,0.3-0.5,0.5-0.8
		c0.2-0.3,0.5-0.5,0.8-0.8c0.3-0.2,0.7-0.4,1.1-0.6c0.4-0.1,0.9-0.2,1.4-0.2s1,0.1,1.5,0.2c0.4,0.1,0.8,0.4,1.1,0.6
		c0.3,0.3,0.5,0.6,0.7,1c0.2,0.4,0.3,0.8,0.3,1.2v0.2c0,0.3-0.1,0.6-0.2,1c-0.1,0.4-0.3,0.6-0.5,0.9c-0.2,0.3-0.4,0.6-0.7,0.9
		c-0.2,0.3-0.5,0.6-0.8,0.9l-3.8,4.5h6.3v1.1h-7.8v-1L285.9,723.1z"/>
	<path class="st3" d="M298.2,721.8v3.9h1.8v1.1h-1.8v2.7H297v-2.7h-6.1v-1.1l5.9-8.4h1.4l-5.9,8.4h4.8v-3.9H298.2z"/>
	<path class="st3" d="M308.6,718.8c-0.4-0.2-0.8-0.4-1.2-0.5s-0.9-0.2-1.4-0.2c-0.6,0-1.1,0.1-1.5,0.3s-0.7,0.6-1,1
		c-0.3,0.4-0.5,1-0.6,1.6s-0.2,1.4-0.3,2.2c0.1-0.2,0.2-0.4,0.4-0.6c0.2-0.2,0.4-0.4,0.6-0.6c0.3-0.2,0.6-0.3,0.9-0.4
		c0.3-0.1,0.7-0.2,1.2-0.2s1,0.1,1.5,0.3s0.9,0.4,1.2,0.7c0.3,0.3,0.6,0.7,0.8,1.2c0.2,0.5,0.3,1,0.3,1.6v0.4c0,0.6-0.1,1.1-0.3,1.6
		c-0.2,0.5-0.5,0.9-0.8,1.2c-0.4,0.3-0.8,0.6-1.3,0.8s-1,0.3-1.6,0.3s-1.1-0.1-1.6-0.3s-0.9-0.5-1.3-0.9c-0.4-0.4-0.7-0.9-0.9-1.6
		c-0.2-0.7-0.3-1.4-0.3-2.2v-0.4c0-1.3,0.1-2.4,0.3-3.3c0.2-0.9,0.5-1.7,0.9-2.2c0.4-0.6,0.9-1,1.4-1.3c0.6-0.3,1.2-0.4,1.9-0.4
		c0.6,0,1.1,0.1,1.6,0.2c0.5,0.1,1,0.4,1.5,0.6L308.6,718.8z M302.8,725.5c0,0.5,0.1,0.9,0.2,1.3c0.1,0.4,0.3,0.7,0.6,1
		c0.2,0.3,0.5,0.5,0.9,0.6s0.7,0.2,1.1,0.2c0.4,0,0.8-0.1,1.2-0.2s0.7-0.3,0.9-0.6c0.3-0.2,0.5-0.5,0.6-0.9s0.2-0.8,0.2-1.2v-0.3
		c0-0.5-0.1-0.9-0.2-1.2c-0.2-0.4-0.4-0.7-0.6-0.9c-0.3-0.2-0.6-0.4-0.9-0.6s-0.7-0.2-1.1-0.2c-0.4,0-0.7,0.1-1.1,0.2
		c-0.3,0.1-0.6,0.3-0.9,0.6c-0.3,0.2-0.5,0.5-0.6,0.9c-0.2,0.3-0.2,0.7-0.2,1.1L302.8,725.5L302.8,725.5z"/>
	<path class="st3" d="M319.9,724.4c0,1.7-0.3,3.1-1,4c-0.7,0.9-1.7,1.4-3.2,1.4s-2.5-0.5-3.2-1.4c-0.7-0.9-1-2.3-1-4v-1.9
		c0-1.7,0.3-3,1-4c0.7-0.9,1.7-1.4,3.1-1.4c1.5,0,2.5,0.5,3.2,1.4c0.7,0.9,1,2.2,1,4L319.9,724.4L319.9,724.4z M318.6,722.4
		c0-1.5-0.2-2.6-0.7-3.3s-1.2-1-2.2-1c-0.9,0-1.7,0.3-2.2,1s-0.8,1.8-0.8,3.3v1.9c0,1.5,0.3,2.6,0.8,3.3s1.2,1,2.2,1s1.7-0.3,2.2-1
		s0.7-1.8,0.7-3.3V722.4z"/>
	<path class="st3" d="M328.8,721.8v3.9h1.8v1.1h-1.8v2.7h-1.2v-2.7h-6.1v-1.1l5.9-8.4h1.4l-5.9,8.4h4.8v-3.9H328.8z"/>
	<path class="st3" d="M332.2,724.4c0.9-0.4,1.7-0.8,2.3-1.1s1.2-0.6,1.6-0.9c0.4-0.3,0.8-0.5,1-0.8c0.3-0.2,0.5-0.5,0.6-0.8
		s0.2-0.5,0.3-0.8c0-0.3,0.1-0.6,0.1-1v-1.2h-5.4v-1.1h6.5v2.3c0,0.4,0,0.7-0.1,1h4v-4.3h1.2v11.1h-1.2V721h-4.3
		c-0.1,0.4-0.4,0.7-0.6,1c-0.3,0.3-0.7,0.6-1.2,1c-0.5,0.3-1.1,0.7-1.8,1c-0.7,0.3-1.6,0.8-2.6,1.2L332.2,724.4z M336.2,730.1h8.7
		v1.1H335v-5.1h1.2V730.1L336.2,730.1z"/>
</g>
<g>
	<text transform="matrix(1 0 0 1 2990.1426 333.2286)" class="st2" style="font-family:'NanumSquareR'; font-size:17px;">73개</text>
	<text transform="matrix(1 0 0 1 1441.9683 858.743)" class="st2" style="font-family:'NanumSquareR'; font-size:17px;">쉼터의 수 65개</text>
	<g>
		<text transform="matrix(1 0 0 1 2981.6572 415)" class="st3" style="font-family:'NanumSquareR'; font-size:17px;">5,531,000,000원</text>
	</g>
	<text transform="matrix(1 0 0 1 1670.2286 858.7427)" class="st3" style="font-family:'NanumSquareR'; font-size:17px;">쉼터 예산 5,024,000,000원</text>
	<g>
		<text transform="matrix(1 0 0 1 2990.1426 -74.0857)" class="st3" style="font-family:'NanumSquareR'; font-size:17px;">30070건</text>
	</g>
	<text transform="matrix(1 0 0 1 1438.5428 678.0291)" class="st3" style="font-family:'NanumSquareR'; font-size:17px;">아동학대 신고건수 24604건</text>
</g>
<g>
	<g>
		<line class="st5" x1="95.6" y1="731.6" x2="593.9" y2="62.6"/>
	</g>
</g>
<line class="st6" x1="95.6" y1="731.6" x2="602.1" y2="147"/>
<g>
	<path class="st2" d="M157.1,749.9c-0.7,0.1-1.5,0.1-2.3,0.2s-1.6,0.1-2.6,0.1v2.2H151v-2.1c-0.6,0-1.2,0-1.9,0s-1.4,0-2.3,0v-1
		c1.2,0,2.3,0,3.2,0c0.9,0,1.8,0,2.6-0.1c0.8,0,1.5-0.1,2.2-0.1c0.7-0.1,1.4-0.1,2.1-0.2L157.1,749.9z M151.7,745.9
		c-0.1,0.1-0.2,0.3-0.4,0.4c-0.2,0.2-0.5,0.4-0.9,0.6c-0.4,0.3-0.8,0.5-1.2,0.8c-0.4,0.2-0.9,0.5-1.3,0.7l-0.6-0.9
		c0.5-0.3,1-0.5,1.5-0.8s0.9-0.6,1.3-0.8c0.2-0.2,0.4-0.3,0.5-0.5c0.1-0.1,0.2-0.3,0.3-0.5c0.1-0.2,0.1-0.3,0.1-0.5s0-0.4,0-0.7
		v-0.9h1.2v0.9c0,0.3,0,0.5,0,0.7s0.1,0.4,0.2,0.5c0.1,0.2,0.2,0.3,0.4,0.4c0.2,0.1,0.4,0.3,0.6,0.5c0.4,0.2,0.8,0.5,1.2,0.7
		c0.4,0.2,0.8,0.5,1.2,0.7l-0.4,0.9c-0.1-0.1-0.3-0.2-0.5-0.2c-0.2-0.1-0.4-0.2-0.6-0.3s-0.4-0.2-0.6-0.4c-0.2-0.1-0.4-0.2-0.6-0.3
		c-0.4-0.3-0.8-0.5-1-0.6C152,746.1,151.8,746,151.7,745.9L151.7,745.9z M149.5,753.2h9.9v4.9h-9.9V753.2z M150.7,757.1h7.6v-2.7
		h-7.6C150.7,754.4,150.7,757.1,150.7,757.1z M159.4,752.4h-1.2v-9.7h1.2V752.4z"/>
	<path class="st2" d="M170.2,743.9v1.1h-5.8v3.4h5.3v1.1h-5.3v3.6h2.2c0.8,0,1.6,0,2.5-0.1c0.9-0.1,1.8-0.1,2.7-0.3l0.1,1.1
		c-0.9,0.1-1.9,0.2-2.8,0.3c-1,0.1-1.9,0.1-2.8,0.1h-3.1v-10.3L170.2,743.9L170.2,743.9z M173.8,748.4v-5.7h1.2v15.5h-1.2v-8.7h-3.1
		v-1.1H173.8z"/>
	<path class="st2" d="M188.3,754.4c-0.7,0.1-1.4,0.1-2.1,0.2c-0.7,0.1-1.4,0.1-2.2,0.1c-0.8,0-1.7,0.1-2.7,0.1s-2.1,0-3.4,0v-1.1
		c1.2,0,2.3,0,3.3,0s1.9,0,2.7-0.1c0.8-0.1,1.6-0.1,2.3-0.1c0.7-0.1,1.4-0.1,2-0.2L188.3,754.4z M182.8,751c-0.6,0-1.1-0.1-1.6-0.3
		s-0.9-0.4-1.3-0.7c-0.4-0.3-0.7-0.6-0.9-1c-0.2-0.4-0.3-0.8-0.3-1.3v-0.8c0-0.5,0.1-0.9,0.3-1.3c0.2-0.4,0.5-0.7,0.9-1
		c0.4-0.3,0.8-0.5,1.3-0.7s1-0.3,1.6-0.3c0.6,0,1.1,0.1,1.6,0.3s0.9,0.4,1.3,0.7c0.4,0.3,0.7,0.6,0.9,1s0.3,0.8,0.3,1.3v0.8
		c0,0.5-0.1,0.9-0.3,1.3c-0.2,0.4-0.5,0.7-0.9,1c-0.4,0.3-0.8,0.5-1.3,0.7C183.8,750.9,183.3,751,182.8,751z M182.8,744.7
		c-0.4,0-0.7,0.1-1.1,0.2c-0.3,0.1-0.7,0.3-0.9,0.5c-0.3,0.2-0.5,0.5-0.6,0.7c-0.1,0.2-0.2,0.6-0.2,0.9v0.7c0,0.3,0.1,0.6,0.2,0.9
		c0.2,0.3,0.4,0.5,0.6,0.7s0.6,0.4,0.9,0.5s0.7,0.2,1.1,0.2s0.7-0.1,1.1-0.2c0.3-0.1,0.7-0.3,0.9-0.5s0.5-0.5,0.6-0.7
		c0.2-0.3,0.2-0.6,0.2-0.9V747c0-0.3-0.1-0.6-0.2-0.9c-0.1-0.3-0.4-0.5-0.6-0.7c-0.3-0.2-0.6-0.4-0.9-0.5
		C183.5,744.9,183.1,744.7,182.8,744.7z M190.6,758.2h-1.2v-15.5h1.2V758.2z"/>
	<path class="st2" d="M211.5,751.5v1H205v5.6h-1.2v-5.6h-6.5v-1H211.5z M206.4,748.2c-1.1-0.6-1.8-1-2-1.4l0,0
		c-0.2,0.4-0.9,0.9-2,1.4c-0.5,0.2-1,0.5-1.6,0.8c-0.6,0.3-1.3,0.6-2,0.8l-0.5-1c0.6-0.2,1.3-0.5,1.9-0.8c0.6-0.3,1.3-0.6,1.8-0.9
		c0.3-0.2,0.6-0.3,0.8-0.5c0.2-0.2,0.4-0.3,0.6-0.6c0.1-0.2,0.2-0.4,0.3-0.7s0.1-0.6,0.1-1v-1.4h1.2v1.4c0,0.4,0,0.7,0.1,1
		c0.1,0.3,0.2,0.5,0.3,0.7s0.3,0.4,0.5,0.6s0.5,0.3,0.8,0.5c0.5,0.3,1.1,0.6,1.8,0.9c0.7,0.3,1.3,0.6,1.9,0.8l-0.5,0.9
		c-0.7-0.3-1.3-0.5-2-0.8C207.4,748.7,206.8,748.5,206.4,748.2z"/>
	<path class="st2" d="M224.6,745.6c-0.4-0.2-0.8-0.4-1.2-0.5s-0.9-0.2-1.4-0.2c-0.6,0-1.1,0.1-1.5,0.3c-0.4,0.2-0.7,0.6-1,1
		s-0.5,1-0.6,1.6c-0.1,0.6-0.2,1.4-0.3,2.2c0.1-0.2,0.2-0.4,0.4-0.6c0.2-0.2,0.4-0.4,0.6-0.6c0.3-0.2,0.6-0.3,0.9-0.4
		c0.3-0.1,0.7-0.2,1.2-0.2s1,0.1,1.5,0.3s0.9,0.4,1.2,0.7c0.3,0.3,0.6,0.7,0.8,1.2c0.2,0.5,0.3,1,0.3,1.6v0.4c0,0.6-0.1,1.1-0.3,1.6
		c-0.2,0.5-0.5,0.9-0.8,1.2c-0.4,0.3-0.8,0.6-1.3,0.8s-1,0.3-1.6,0.3c-0.6,0-1.1-0.1-1.6-0.3s-0.9-0.5-1.3-0.9
		c-0.4-0.4-0.7-0.9-0.9-1.6c-0.2-0.7-0.3-1.4-0.3-2.2v-0.2c0-1.3,0.1-2.4,0.3-3.3c0.2-0.9,0.5-1.7,0.9-2.2c0.4-0.6,0.9-1,1.4-1.3
		c0.6-0.3,1.2-0.4,1.9-0.4c0.6,0,1.1,0.1,1.6,0.2s1,0.4,1.5,0.6L224.6,745.6z M218.8,752.4c0,0.5,0.1,0.9,0.2,1.3
		c0.1,0.4,0.3,0.7,0.6,1c0.2,0.3,0.5,0.5,0.9,0.6c0.4,0.1,0.7,0.2,1.1,0.2c0.4,0,0.8-0.1,1.2-0.2c0.4-0.1,0.7-0.3,0.9-0.6
		c0.3-0.2,0.5-0.5,0.6-0.9c0.1-0.4,0.2-0.8,0.2-1.2v-0.3c0-0.5-0.1-0.9-0.2-1.2c-0.2-0.4-0.4-0.7-0.6-0.9c-0.3-0.2-0.6-0.4-0.9-0.6
		s-0.7-0.2-1.1-0.2c-0.4,0-0.7,0.1-1.1,0.2c-0.3,0.1-0.6,0.3-0.9,0.6c-0.3,0.2-0.5,0.5-0.6,0.9c-0.2,0.3-0.2,0.7-0.2,1.1
		L218.8,752.4L218.8,752.4L218.8,752.4z"/>
	<path class="st2" d="M234.6,752.6c0-1-0.2-1.7-0.7-2.2c-0.5-0.4-1.2-0.7-2-0.7c-0.5,0-1,0.1-1.4,0.3c-0.4,0.2-0.7,0.4-1,0.7h-1.1
		l0.4-6.7h6.3v1.1h-5.3l-0.2,4.5c0.3-0.3,0.6-0.5,1.1-0.6c0.5-0.2,1-0.2,1.5-0.2c0.6,0,1.1,0.1,1.6,0.3s0.8,0.5,1.1,0.8
		s0.5,0.7,0.7,1.2s0.2,1,0.2,1.5v0.3c0,0.4-0.1,0.9-0.2,1.3c-0.1,0.4-0.4,0.8-0.7,1.2c-0.3,0.3-0.8,0.6-1.3,0.9
		c-0.5,0.2-1.2,0.3-1.9,0.3c-0.8,0-1.6-0.1-2.2-0.4c-0.6-0.2-1.2-0.6-1.8-1l0.6-1c0.6,0.5,1.2,0.8,1.7,1s1.1,0.3,1.7,0.3
		c0.5,0,1-0.1,1.4-0.2c0.4-0.2,0.7-0.4,0.9-0.6c0.2-0.2,0.4-0.5,0.5-0.8c0.1-0.3,0.2-0.6,0.2-0.9L234.6,752.6L234.6,752.6
		L234.6,752.6z"/>
	<path class="st2" d="M237.6,753.9c0.8-0.5,1.4-1,2-1.4c0.5-0.4,1-0.8,1.4-1.1c0.4-0.3,0.7-0.7,0.9-1c0.2-0.3,0.4-0.6,0.5-1
		c0.1-0.4,0.2-0.7,0.2-1.1c0-0.4,0.1-0.8,0.1-1.3v-1.7H238v-1.1h5.8v2.8c0,0.6,0,1.1-0.1,1.5c-0.1,0.5-0.1,0.9-0.3,1.3
		c-0.1,0.4-0.3,0.8-0.6,1.1c-0.2,0.4-0.6,0.7-1,1.1c-0.4,0.4-0.9,0.8-1.5,1.2c-0.6,0.4-1.3,0.9-2.1,1.5L237.6,753.9z M247.1,748.2
		h2.3v-5.6h1.2v15.5h-1.2v-8.9h-2.3v8.1h-1.2v-14.5h1.2V748.2z"/>
</g>
<path class="st3" d="M591,50L591,50c-0.2-0.2-0.4-0.5-0.2-0.7c0.2-0.7,0.5-1.5,0.7-2.2c0.2-0.2,0.2-0.5,0.2-0.7
	c0.2-0.3,0.2-0.8,0.2-1v-0.2c0-0.5,0-1.3,0-2c0-0.2,0-0.5,0-0.7c0-1.4,0.3-2.6,0.5-4.1c0-0.7,0.2-1.7,0.2-2.4c0-0.9,0.2-1.9,0.2-2.9
	c0-0.8,0-1.3,0-2c0.5-1.3,0.5-2.5,0.5-3.7c0-0.7,0.2-1.7,0.7-2.4c0.2-0.5,0.2-1.2,0.2-1.7s0-1,0.5-1.2c0.9-0.5,1.9-1.2,2.9-1.7
	c0.2-0.3,0.5-0.5,0.7-0.5c0.7,0,0.7-0.2,0.7-0.7s-0.2-1-0.2-1.5c0-0.7-0.2-0.7-0.7-0.7h-0.2c-0.8-0.3-1.5-0.8-2-1.5
	c-0.3-0.3-0.3-0.8-0.5-1c-0.2-0.7-0.2-1.7,0-2.4c0.3-0.2,0.3-0.7-0.2-0.7l0.5-0.2l-0.7-1h0.7V10c0-0.5,0-1.2,0-1.7
	c0-0.8,0.2-1.5,0.7-2s1-1,1.5-1.5s1-0.8,1.5-1c1.3-0.2,2.5-0.2,3.7,0c1.5,0.3,2.7,1,3.7,2c0.5,0.5,1.2,0.7,1.7,0.7
	c0.5,0.2,1,0.2,1.5,0c0.5,0,0.8,0,1,0.2c0.5,0.2,0.5,0.9,0.5,1.2c0,0.3,0.3,0.8-0.2,1c-0.2,0,0,0.3,0,0.5c0.3,0.7,0.3,1.2-0.2,1.7
	c-0.3-0.2-0.2-0.3-0.5,0s-0.5,0.7-1,0.5c-0.5,0-0.5,0-0.5,0.5s0,1-0.5,1.2c0-0.2,0-0.2,0-0.2c0-0.3,0.2-0.8,0.2-1
	c0.3-0.2,0-0.5-0.2-0.7c0-0.2-0.2-0.2-0.2-0.2c-0.2,0-0.2,0.2-0.2,0.2c0,0.5,0,0.7,0,1.2c-0.2,0.7-0.2,1.2-0.2,1.7
	c-0.3,0-0.3,0.2-0.5,0.2c-0.2,0.2-0.5,0.5-0.7,0.7c-0.2,0.5-0.7,0.7-1.2,0.7c-0.3,0-0.3,0-0.5,0.2c-0.2,0.5-0.2,1.2,0,1.7
	c0.8,0.5,1.5,1,2,1.5s1,0.8,1.5,1c0.8,0.5,1,1.3,1.5,2c0,0.5,0.2,0.7,0.2,1.2c0,0.2,0,0.7,0.2,1.2c0.2,0.7,0.5,1.5,0.7,2.2
	c0,0.5,0.2,0.7,0.2,1.2c0,1.2,0,2.2,0,3.4c0,0.2-0.2,0.7-0.2,1.2c-0.2,0.5-0.2,1.2,0,1.7c0.2,0.3,0.2,0.5,0.2,1
	c0,0.7-0.2,1.5-0.2,2.2c0,1.5-0.5,2.7-1.2,3.9c-0.2,0.2-0.2,0.5-0.2,0.7c0,0.7,0.2,1.7,0.2,2.4c0,0.2,0,0.5,0,0.7
	c0,1,0.2,2.2,0.2,3.2c0.2,1.4,0.2,2.9,0.2,4.1v0.2c0,0.5,0.2,1,0.2,1.5h-2.9c-0.3,0.7-0.3,1.5-0.5,2.2c0,0.3-0.2,0.3-0.2,0.5
	c0,0.5,0,1.3,0,2c0,0.5,0,0.8,0.5,1c-0.4,0.2-0.2,0.5-0.2,0.7c0,0.5,0.3,0.8,0.5,1c0.2,0.3,0,0.5,0,0.5c0,0.3-0.2,0.5-0.2,0.5
	l0.5-0.2l-0.2,1l0.2,0.2l-0.5,0.7h-0.2l0.5,0.2l-0.2,0.2V65c0,0.2,0,0.5,0,0.7c-0.2,0.3-0.2,0.8-0.2,1v0.2l-0.2,0.5
	c0,0.3-0.2,0.5-0.2,0.5c0.5,0.2,0,0.2,0,0.2c0,0.2,0,0.5,0,0.7c0,0.5,0,0.8-0.2,1c0.2,0.7,0,1.2-0.5,1.2v0.7l-0.5,1l0.2,0.2
	l-0.2,0.2l0.2,0.2h-0.2v1c0.5,0.2,0.7,0.7,0.5,1.2c0,0.4-0.5,0-0.7,0.2v0.2c0.4,0.7,0.4,1.7,0.2,2.7v0.2c-0.2,0,0,0.2,0,0.2v-0.3
	c-0.3,0.5-0.8,1-1.5,1.2c-0.7,0-1.7,0.2-2.4,0c-0.8,0-1.3-0.5-1.5-1.2c0-0.2-0.3-0.2-0.5-0.2c-0.5,0-1.2,0-1.7,0
	c-1.2,0.3-2.2,0.5-3.2,0.5c-0.7,0.2-1.7,0.2-2.4,0.2c-0.5-0.3-1-0.3-1.5-0.5c-0.2-0.3-0.5-0.3-0.7-0.5c-0.3,0-0.7-0.2-0.5-0.7
	c0-0.2,0-0.2,0-0.2v-0.2c0.2,0,0.2-0.2,0.2-0.2c0-0.2,0-0.2,0.2-0.2s0.5,0.2,0.7,0.2c0.5,0,1,0.2,1.5,0.2c0-0.2,0-0.5-0.2-0.7
	s-0.2-0.2,0-0.2c0.5,0,0.7-0.2,1.2-0.2l0.2-0.2l0.5-0.5c0.2,0.2,0.2,0,0.2,0c0.2-0.2,0.5-0.5,0.7-0.7v-0.2l0,0
	c0-0.5,0.2-1.2,0.2-1.7l0,0l1-0.7l-0.2-0.5l0.2-0.2l-0.7-0.2c0.2,0,0-0.5,0.2-0.5c0.5-0.5,0-0.5,0-0.5c0-0.5,0-1-0.2-1.5
	c-0.3-0.3-0.5-0.3-0.5-0.5s0.2-0.5,0.2-0.7s-0.2-0.5-0.2-0.7c-0.2,0-0.2-0.2-0.2-0.2c0-0.3-0.2-0.5-0.2-0.5c0.2-0.3,0-0.8,0-1
	l-0.2-0.2c-0.2-0.3-0.4-0.5-0.2-1s0-1-0.5-1.2c-0.2-0.3-0.2-0.2-0.2-0.5s0.2-0.3,0.2-0.5v-0.7c0-0.2-0.5-0.2-0.5-0.7
	c0-1.4,0-2.6,0-4.1c0-0.2,0-0.7,0-1.2c-0.2-1,0-2,0.5-2.7c0-0.5-0.2-1-0.2-1.2C593,50.7,592.5,50.5,591,50z M600.5,68.8
	C600.3,68.8,600.3,68.8,600.5,68.8C600.3,68.8,600.5,69,600.5,68.8c-0.2,0.7,0.3,1.2-0.8,2.2v0.4c0,0.2,0.3,0.7,0.5,0.7
	c0.4,0,0.2,0.5,0.2,0.7c-0.2,0.7-0.2,1.7,0,2.4c0,0.5,0.2,1,0.2,1.7h0.2l0.5-0.7c0-0.2,0-0.5,0-0.7c0.3-0.5,0.3-1.2,0.5-1.7
	c0-0.2,0-0.5,0-0.7s-0.2-0.2-0.2-0.2l0.2-0.2c-0.2-0.3-0.2-0.3-0.2-0.5c0.5,0,0.3-0.3,0.5-0.5c0.4-0.3,0.4-1,0.2-1.5
	c0-0.3,0-0.3,0-0.5s0.2-0.7,0.2-1.2c0.2-0.5,0.2-1.2,0.2-1.7c0-0.3-0.2-0.3-0.2-0.5s0-0.5,0-0.7l0.2,0.2l0,0l-0.5-0.5
	c0.2-0.5,0.4-0.7,0.2-1.2c0-0.3,0-0.8,0-1s-0.2-0.5-0.2-0.7l-0.2,0.2c0-0.3,0-0.3,0-0.5c-0.2-0.5-0.2-0.8,0-1v-0.2c0-1,0-2.2,0-3.2
	c0-0.8,0-1.3-0.2-2c0-0.7-0.2-1.5-0.2-2.2c0-0.2,0-0.5,0-0.7c-1-0.3-1-0.3-1.5,0.7c-0.5,1.4-1,2.6-1.2,4.1c0,0.3,0,0.8,0,1
	c0.3,0.7-0.2,1.2-0.7,1.7l-0.2,0.2h0.5c0.2,0.5,0.5,1,0.7,1.5c0.2,0.3,0.2,0.5,0.2,1s0.2,1,0.2,1.5c0,0.9,0.2,1.7,0.2,2.4
	c0,0.3,0.2,0.3,0.2,0.5s0,0.5,0,0.7L600.5,68.8L600.5,68.8z"/>
<polygon class="st2" points="602.1,93.1 574.9,118.1 582.2,118.1 582.2,147 622,147 622,118.1 629.3,118.1 "/>
<polygon class="st2" points="94.8,705.9 67.7,730.9 75,730.9 75,759.8 114.7,759.8 114.7,730.9 122,730.9 "/>
<path class="st7" d="M99.7,760.4c-0.4,0.4-0.2,1.3-1.2,1.2c-0.5-0.2-1.2-0.4-1.7-0.8c-1.3-0.9-0.8-2.1-0.8-3.1
	c0-1.3-0.2-2.8-0.4-4.1c-0.2-0.9-0.2-1.7-0.2-2.6c0-0.2,0-0.4,0-0.5c-0.2-0.4-0.5-0.5-0.8-0.9c-0.2,0.4-0.4,0.5-0.5,0.9
	c-0.2,2.6-0.4,5.2-0.5,7.7l0,0c0.5,1.2,0,2.5-1.2,3c-0.2,0-0.2,0.2-0.4,0.2c-0.8,0.2-1.5,0-2.2,0c0-0.4,0-0.5,0.2-0.9
	c0.2-0.4,0.8-0.5,0.8-0.9c0.4-0.5,0.5-1.3,0.5-1.8c0-2.1-0.2-4.3-0.4-6.4c0-0.2,0-0.4,0-0.8c0.4-0.8,0.2-1.3-0.8-1.5
	c-0.2-0.2-0.4-0.4-0.4-0.5c-0.2-1.7-0.4-3.4-0.4-5.1s0.4-3.1,0.5-4.8c0-0.4-0.2-0.5-0.4-0.8c-0.4-0.4-0.8-0.5-0.9-0.8
	c0.2-0.2,0.2-0.4,0.2-0.4c0.4-0.9,0.9-1.5,0.2-2.6c-0.9-1.8-0.8-3.9-0.4-6c0.2-0.5,0.4-1.2,0.8-1.5c0.4-0.8,0.5-1.5,0.8-2.5
	c0.2-2.2,0.9-4.5,1.8-6.5c0.4-1.2,1.5-1.8,2.8-1.8c0.9,0,1.8,0.2,2.8,0.8c0.8,0.5,1.3,1.5,1.5,2.5c0.2,0.4,0.4,0.9,0.8,1.3
	c0,0.2,0.2,0.5,0,0.8c-0.4,0.8-0.5,1.5-0.2,2.2c0.2,1.2,0.4,2.2,1.2,3.1c0.2,0.2,0.2,0.5,0.2,0.9c0,1.3,0,2.6,0.2,3.8
	c0.2,1.2,0,2.1-0.8,3l-0.2,0.2c-0.5,1.3-1.2,2.5-1.5,3.8c0,0.2,0,0.4,0,0.4c0.5,0.4,0.9,1.2,0.9,1.8c0.2,0.5,0.4,0.9,0.5,1.3
	c0,0,0,0.2,0,0.4c-0.2,1.2-0.4,2.2-0.4,3.4c0,0.4,0,0.5,0,0.9c0.4,0.9-0.2,2.1-0.9,2.6l-0.8,0.4l0.9,0.2v0.2l-1.2,0.4
	c0.2,0.8,0.2,1.3,0.2,2.1c0,1.7-0.2,3.5-0.2,5.2c0,1.2,0,2.2,0.9,3C99.5,759.9,99.5,760.3,99.7,760.4z"/>
</svg>
